<?xml version="1.0" encoding="UTF-8" standalone="no"?>
<svg
   xmlns:dc="http://purl.org/dc/elements/1.1/"
   xmlns:cc="http://creativecommons.org/ns#"
   xmlns:rdf="http://www.w3.org/1999/02/22-rdf-syntax-ns#"
   xmlns:svg="http://www.w3.org/2000/svg"
   xmlns="http://www.w3.org/2000/svg"
   xmlns:sodipodi="http://sodipodi.sourceforge.net/DTD/sodipodi-0.dtd"
   xmlns:inkscape="http://www.inkscape.org/namespaces/inkscape"
   width="793.700787402"
   height="1122.51968504"
   version="1.1"
   id="svg253"
   sodipodi:docname="coque blakrpi 27082020.svg"
   inkscape:version="0.92.4 (5da689c313, 2019-01-14)">
  <metadata
     id="metadata257">
    <rdf:RDF>
      <cc:Work
         rdf:about="">
        <dc:format>image/svg+xml</dc:format>
        <dc:type
           rdf:resource="http://purl.org/dc/dcmitype/StillImage" />
        <dc:title></dc:title>
      </cc:Work>
    </rdf:RDF>
  </metadata>
  <sodipodi:namedview
     pagecolor="#ffffff"
     bordercolor="#666666"
     borderopacity="1"
     objecttolerance="10"
     gridtolerance="10"
     guidetolerance="10"
     inkscape:pageopacity="0"
     inkscape:pageshadow="2"
     inkscape:window-width="3240"
     inkscape:window-height="2035"
     id="namedview255"
     showgrid="false"
     inkscape:zoom="1.6819305"
     inkscape:cx="-203.12246"
     inkscape:cy="822.07393"
     inkscape:window-x="-13"
     inkscape:window-y="-13"
     inkscape:window-maximized="1"
     inkscape:current-layer="g251" />
  <desc
     id="desc2">C:\Users\ccadic\CloudStation\blackrpi_small\rpiZEROConsole\design-coques\coque blakrpi 27082020.DXF - scale = 1.000000, origin = (0.000000, 0.000000), method = file</desc>
  <defs
     id="defs17">
    <marker
       id="DistanceX"
       orient="auto"
       refX="0.0"
       refY="0.0"
       style="overflow:visible">
      <path
         d="M 3,-3 L -3,3 M 0,-5 L  0,5"
         style="stroke:#000000; stroke-width:0.5"
         id="path4" />
    </marker>
    <pattern
       height="8"
       id="Hatch"
       patternUnits="userSpaceOnUse"
       width="8"
       x="0"
       y="0">
      <path
         d="M8 4 l-4,4"
         linecap="square"
         stroke="#000000"
         stroke-width="0.25"
         id="path7" />
      <path
         d="M6 2 l-4,4"
         linecap="square"
         stroke="#000000"
         stroke-width="0.25"
         id="path9" />
      <path
         d="M4 0 l-4,4"
         linecap="square"
         stroke="#000000"
         stroke-width="0.25"
         id="path11" />
    </pattern>
    <symbol
       id="*Model_Space" />
    <symbol
       id="*Paper_Space" />
    <symbol
       id="*Paper_Space0" />
  </defs>
  <g
     inkscape:groupmode="layer"
     inkscape:label="0"
     id="g251">
    <path
       d="m 45.114945,18.919571 v 24.8611"
       style="fill:none;stroke:#ff0000;stroke-width:0.89999998;stroke-linecap:round;stroke-opacity:1"
       id="path19"
       inkscape:connector-curvature="0" />
    <path
       d="M 99.654955,18.919571 H 45.114945"
       style="fill:none;stroke:#ff0000;stroke-width:0.89999998;stroke-linecap:round;stroke-opacity:1"
       id="path21"
       inkscape:connector-curvature="0" />
    <path
       d="m 99.654955,43.780671 v -24.8611"
       style="fill:none;stroke:#ff0000;stroke-width:0.89999998;stroke-linecap:round;stroke-opacity:1"
       id="path23"
       inkscape:connector-curvature="0" />
    <path
       d="M 99.654955,43.780671 H 204.67382"
       style="fill:none;stroke:#ff0000;stroke-width:0.89999998;stroke-linecap:round;stroke-opacity:1"
       id="path25"
       inkscape:connector-curvature="0" />
    <path
       d="m 204.67382,43.780671 v -24.8611"
       style="fill:none;stroke:#ff0000;stroke-width:0.89999998;stroke-linecap:round;stroke-opacity:1"
       id="path27"
       inkscape:connector-curvature="0" />
    <path
       d="m 204.67382,18.919571 0.22297,0.01"
       style="fill:none;stroke:#ff0000;stroke-width:0.89999998;stroke-linecap:round;stroke-opacity:1"
       id="path29"
       inkscape:connector-curvature="0" />
    <path
       d="M 204.89679,18.924971 H 229.7568"
       style="fill:none;stroke:#ff0000;stroke-width:0.89999998;stroke-linecap:round;stroke-opacity:1"
       id="path31"
       inkscape:connector-curvature="0" />
    <path
       d="m 229.7568,18.924971 v 24.8557"
       style="fill:none;stroke:#ff0000;stroke-width:0.89999998;stroke-linecap:round;stroke-opacity:1"
       id="path33"
       inkscape:connector-curvature="0" />
    <path
       d="m 229.7568,43.780671 h 10.87529"
       style="fill:none;stroke:#ff0000;stroke-width:0.89999998;stroke-linecap:round;stroke-opacity:1"
       id="path35"
       inkscape:connector-curvature="0" />
    <path
       d="m 240.63209,43.780671 v -24.7912"
       style="fill:none;stroke:#ff0000;stroke-width:0.89999998;stroke-linecap:round;stroke-opacity:1"
       id="path37"
       inkscape:connector-curvature="0" />
    <path
       d="m 240.63209,18.989471 0.22297,0.01"
       style="fill:none;stroke:#ff0000;stroke-width:0.89999998;stroke-linecap:round;stroke-opacity:1"
       id="path39"
       inkscape:connector-curvature="0" />
    <path
       d="m 240.85506,18.994971 h 24.86001"
       style="fill:none;stroke:#ff0000;stroke-width:0.89999998;stroke-linecap:round;stroke-opacity:1"
       id="path41"
       inkscape:connector-curvature="0" />
    <path
       d="m 265.71507,18.994971 v 24.7857"
       style="fill:none;stroke:#ff0000;stroke-width:0.89999998;stroke-linecap:round;stroke-opacity:1"
       id="path43"
       inkscape:connector-curvature="0" />
    <path
       d="m 265.71507,43.780671 h 19.57354"
       style="fill:none;stroke:#ff0000;stroke-width:0.89999998;stroke-linecap:round;stroke-opacity:1"
       id="path45"
       inkscape:connector-curvature="0" />
    <path
       d="M 285.28861,241.51357 V 43.780671"
       style="fill:none;stroke:#ff0000;stroke-width:0.89999998;stroke-linecap:round;stroke-opacity:1"
       id="path47"
       inkscape:connector-curvature="0" />
    <path
       d="M 24.904465,241.51357 H 285.28861"
       style="fill:none;stroke:#ff0000;stroke-width:0.89999998;stroke-linecap:round;stroke-opacity:1"
       id="path49"
       inkscape:connector-curvature="0" />
    <path
       d="M 24.904465,241.51357 V 43.780671"
       style="fill:none;stroke:#ff0000;stroke-width:0.89999998;stroke-linecap:round;stroke-opacity:1"
       id="path51"
       inkscape:connector-curvature="0" />
    <path
       d="m 24.904465,43.780671 h 20.21048"
       style="fill:none;stroke:#ff0000;stroke-width:0.89999998;stroke-linecap:round;stroke-opacity:1"
       id="path53"
       inkscape:connector-curvature="0" />
    <path
       d="m 268.3069,525.24517 a 3.779528,3.779528 0 0 0 0.4698,-1.3307"
       style="fill:none;stroke:#ff0000;stroke-width:0.89999998;stroke-linecap:round;stroke-opacity:1"
       id="path55"
       inkscape:connector-curvature="0" />
    <path
       d="m 268.3069,525.24517 a 7.559055,7.559055 0 0 0 -1.02627,3.8029"
       style="fill:none;stroke:#ff0000;stroke-width:0.89999998;stroke-linecap:round;stroke-opacity:1"
       id="path57"
       inkscape:connector-curvature="0" />
    <path
       d="m 267.28063,532.44487 v -3.3968"
       style="fill:none;stroke:#ff0000;stroke-width:0.89999998;stroke-linecap:round;stroke-opacity:1"
       id="path59"
       inkscape:connector-curvature="0" />
    <path
       d="m 263.50111,536.22437 a 3.779528,3.779528 0 0 0 3.77952,-3.7795"
       style="fill:none;stroke:#ff0000;stroke-width:0.89999998;stroke-linecap:round;stroke-opacity:1"
       id="path61"
       inkscape:connector-curvature="0" />
    <path
       d="m 103.69241,536.22437 h 159.8087"
       style="fill:none;stroke:#ff0000;stroke-width:0.89999998;stroke-linecap:round;stroke-opacity:1"
       id="path63"
       inkscape:connector-curvature="0" />
    <path
       d="m 103.69241,519.28437 v 16.94"
       style="fill:none;stroke:#ff0000;stroke-width:0.89999998;stroke-linecap:round;stroke-opacity:1"
       id="path65"
       inkscape:connector-curvature="0" />
    <path
       d="m 103.69241,519.28437 a 7.559055,7.559055 0 0 0 -12.904115,-5.345"
       style="fill:none;stroke:#ff0000;stroke-width:0.89999998;stroke-linecap:round;stroke-opacity:1"
       id="path67"
       inkscape:connector-curvature="0" />
    <path
       d="m 90.788295,513.93937 -10.49616,10.4962"
       style="fill:none;stroke:#ff0000;stroke-width:0.89999998;stroke-linecap:round;stroke-opacity:1"
       id="path69"
       inkscape:connector-curvature="0" />
    <path
       d="m 74.931965,524.42037 a 3.779528,3.779528 0 0 0 5.36017,0.015"
       style="fill:none;stroke:#ff0000;stroke-width:0.89999998;stroke-linecap:round;stroke-opacity:1"
       id="path71"
       inkscape:connector-curvature="0" />
    <path
       d="m 74.931965,524.42037 -12.21343,-12.3527"
       style="fill:none;stroke:#ff0000;stroke-width:0.89999998;stroke-linecap:round;stroke-opacity:1"
       id="path73"
       inkscape:connector-curvature="0" />
    <path
       d="m 62.718535,512.06767 a 18.897638,18.897638 0 0 0 -13.43819,-5.611"
       style="fill:none;stroke:#ff0000;stroke-width:0.89999998;stroke-linecap:round;stroke-opacity:1"
       id="path75"
       inkscape:connector-curvature="0" />
    <path
       d="m 28.683995,506.45667 h 20.59635"
       style="fill:none;stroke:#ff0000;stroke-width:0.89999998;stroke-linecap:round;stroke-opacity:1"
       id="path77"
       inkscape:connector-curvature="0" />
    <path
       d="m 24.904465,502.67717 a 3.779528,3.779528 0 0 0 3.77953,3.7795"
       style="fill:none;stroke:#ff0000;stroke-width:0.89999998;stroke-linecap:round;stroke-opacity:1"
       id="path79"
       inkscape:connector-curvature="0" />
    <path
       d="m 24.904465,246.64697 v 256.0302"
       style="fill:none;stroke:#ff0000;stroke-width:0.89999998;stroke-linecap:round;stroke-opacity:1"
       id="path81"
       inkscape:connector-curvature="0" />
    <path
       d="M 285.22878,246.64697 H 24.904465"
       style="fill:none;stroke:#ff0000;stroke-width:0.89999998;stroke-linecap:round;stroke-opacity:1"
       id="path83"
       inkscape:connector-curvature="0" />
    <path
       d="m 285.22871,510.22837 7e-5,-263.5814"
       style="fill:none;stroke:#ff0000;stroke-width:0.89999998;stroke-linecap:round;stroke-opacity:1"
       id="path85"
       inkscape:connector-curvature="0" />
    <path
       d="m 281.18261,513.99847 a 3.779528,3.779528 0 0 0 4.0461,-3.7701"
       style="fill:none;stroke:#ff0000;stroke-width:0.89999998;stroke-linecap:round;stroke-opacity:1"
       id="path87"
       inkscape:connector-curvature="0" />
    <path
       d="m 281.18261,513.99847 a 11.714035,11.714035 0 0 0 -12.40591,9.916"
       style="fill:none;stroke:#ff0000;stroke-width:0.89999998;stroke-linecap:round;stroke-opacity:1"
       id="path89"
       inkscape:connector-curvature="0" />
    <path
       d="m 293.73753,26.543071 a 13.06501,13.06501 0 0 0 -13.38112,-13.3738"
       style="fill:none;stroke:#ff0000;stroke-width:0.89999998;stroke-linecap:round;stroke-opacity:1"
       id="path141"
       inkscape:connector-curvature="0" />
    <path
       d="M 280.35641,13.169271 H 30.756405"
       style="fill:#fe0000;stroke:#ff0000;stroke-width:0.89999998;stroke-linecap:round;fill-opacity:1;stroke-opacity:1"
       id="path143"
       inkscape:connector-curvature="0" />
    <path
       d="m 30.756405,13.169271 a 13.356709,13.356709 0 0 0 -13.356709,13.3567"
       style="fill:none;stroke:#ff0000;stroke-width:0.89999998;stroke-linecap:round;stroke-opacity:1"
       id="path145"
       inkscape:connector-curvature="0" />
    <path
       d="M 17.399696,26.525971 V 525.73617"
       style="fill:none;stroke:#ff0000;stroke-width:0.89999998;stroke-linecap:round;stroke-opacity:1"
       id="path147"
       inkscape:connector-curvature="0" />
    <path
       d="m 17.399696,525.73617 a 13.356709,13.356709 0 0 0 13.356709,13.3567"
       style="fill:none;stroke:#ff0000;stroke-width:0.89999998;stroke-linecap:round;stroke-opacity:1"
       id="path149"
       inkscape:connector-curvature="0" />
    <path
       d="M 30.756405,539.09287 H 280.33063"
       style="fill:none;stroke:#ff0000;stroke-width:0.89999998;stroke-linecap:round;stroke-opacity:1"
       id="path151"
       inkscape:connector-curvature="0" />
    <path
       d="m 280.33063,539.09287 a 12.91666,12.91666 0 0 0 13.4069,-13.4096"
       style="fill:none;stroke:#ff0000;stroke-width:0.89999998;stroke-linecap:round;stroke-opacity:1"
       id="path153"
       inkscape:connector-curvature="0" />
    <path
       d="M 293.73753,525.68327 V 26.543071"
       style="fill:none;stroke:#ff0000;stroke-width:0.89999998;stroke-linecap:round;stroke-opacity:1"
       id="path155"
       inkscape:connector-curvature="0" />
    <path
       d="m 287.13378,29.431371 a 6.80315,6.80315 0 1 0 -13.6063,0 6.80315,6.80315 0 1 0 13.6063,0 z"
       style="fill:none;stroke:#ff0000;stroke-width:0.89999998;stroke-linecap:round;stroke-opacity:1"
       id="path157"
       inkscape:connector-curvature="0" />
    <path
       d="m 37.017635,29.431371 a 6.80315,6.80315 0 1 0 -13.6063,0 6.80315,6.80315 0 1 0 13.6063,0 z"
       style="fill:none;stroke:#ff0000;stroke-width:0.89999998;stroke-linecap:round;stroke-opacity:1"
       id="path159"
       inkscape:connector-curvature="0" />
    <path
       d="m 37.559555,525.68327 a 6.80315,6.80315 0 1 0 -13.6063,0 6.80315,6.80315 0 1 0 13.6063,0 z"
       style="fill:none;stroke:#ff0000;stroke-width:0.89999998;stroke-linecap:round;stroke-opacity:1"
       id="path161"
       inkscape:connector-curvature="0" />
    <path
       d="m 287.19674,525.68327 a 6.84033,6.84033 0 1 0 -13.68066,0 6.84033,6.84033 0 1 0 13.68066,0 z"
       style="fill:none;stroke:#ff0000;stroke-width:0.89999998;stroke-linecap:round;stroke-opacity:1"
       id="path163"
       inkscape:connector-curvature="0" />
    <g
       id="g1144"
       style="fill:none;fill-opacity:1;stroke:#0000ff;stroke-opacity:1">
      <path
         inkscape:connector-curvature="0"
         id="path91"
         style="fill:none;stroke:#0000ff;stroke-width:0.89999998;stroke-linecap:round;fill-opacity:1;stroke-opacity:1"
         d="m 125.31767,36.070671 v -13.5675" />
      <path
         inkscape:connector-curvature="0"
         id="path93"
         style="fill:none;stroke:#0000ff;stroke-width:0.89999998;stroke-linecap:round;fill-opacity:1;stroke-opacity:1"
         d="m 125.31767,22.503171 h 1.6297" />
      <path
         inkscape:connector-curvature="0"
         id="path95"
         style="fill:none;stroke:#0000ff;stroke-width:0.89999998;stroke-linecap:round;fill-opacity:1;stroke-opacity:1"
         d="m 126.94737,22.503171 v 13.5675" />
      <path
         inkscape:connector-curvature="0"
         id="path97"
         style="fill:none;stroke:#0000ff;stroke-width:0.89999998;stroke-linecap:round;fill-opacity:1;stroke-opacity:1"
         d="m 126.94737,36.070671 h -1.6297" />
      <path
         inkscape:connector-curvature="0"
         id="path99"
         style="fill:none;stroke:#0000ff;stroke-width:0.89999998;stroke-linecap:round;fill-opacity:1;stroke-opacity:1"
         d="m 133.46349,26.573371 c 0.12646,0 0.25291,0.01 0.37894,0.016 0.11992,0.01 0.23946,0.025 0.35774,0.048 0.11268,0.021 0.22421,0.049 0.33389,0.082 0.10615,0.032 0.21055,0.07 0.31268,0.1139 0.0986,0.042 0.19501,0.089 0.28884,0.1405 0.0922,0.051 0.1818,0.1061 0.26765,0.1669 0.0841,0.06 0.16463,0.1243 0.24114,0.1934 0.0765,0.069 0.14904,0.1427 0.21729,0.22 0.0687,0.078 0.13306,0.1593 0.19344,0.2438 0.0611,0.085 0.11803,0.1736 0.1696,0.265 0.0532,0.094 0.10069,0.1918 0.14309,0.2915 0.0439,0.1031 0.0824,0.2085 0.1166,0.3153 0.0355,0.1108 0.0665,0.2232 0.0927,0.3365 0.0268,0.1157 0.0487,0.2324 0.0662,0.3498 0.0182,0.1222 0.0317,0.2451 0.0397,0.3684 0.008,0.1278 0.0108,0.256 0.0133,0.3842" />
      <path
         inkscape:connector-curvature="0"
         id="path101"
         style="fill:none;stroke:#0000ff;stroke-width:0.89999998;stroke-linecap:round;fill-opacity:1;stroke-opacity:1"
         d="m 136.69638,30.108371 v 5.9835" />
      <path
         inkscape:connector-curvature="0"
         id="path103"
         style="fill:none;stroke:#0000ff;stroke-width:0.89999998;stroke-linecap:round;fill-opacity:1;stroke-opacity:1"
         d="m 136.69638,36.091871 h -0.72342" />
      <path
         inkscape:connector-curvature="0"
         id="path105"
         style="fill:none;stroke:#0000ff;stroke-width:0.89999998;stroke-linecap:round;fill-opacity:1;stroke-opacity:1"
         d="m 135.97296,36.091871 c -0.0716,0 -0.14323,-0.01 -0.21465,-0.019 -0.06,-0.01 -0.11987,-0.026 -0.17224,-0.056 -0.0241,-0.014 -0.0466,-0.031 -0.0662,-0.05 -0.0206,-0.02 -0.0381,-0.044 -0.053,-0.069 -0.0175,-0.029 -0.0315,-0.06 -0.0424,-0.093 -0.0123,-0.036 -0.0207,-0.074 -0.0291,-0.1113" />
      <path
         inkscape:connector-curvature="0"
         id="path107"
         style="fill:none;stroke:#0000ff;stroke-width:0.89999998;stroke-linecap:round;fill-opacity:1;stroke-opacity:1"
         d="m 135.39528,35.694371 -0.18285,-0.8904" />
      <path
         inkscape:connector-curvature="0"
         id="path109"
         style="fill:none;stroke:#0000ff;stroke-width:0.89999998;stroke-linecap:round;fill-opacity:1;stroke-opacity:1"
         d="m 135.21243,34.803971 c -0.11923,0.1079 -0.23846,0.2159 -0.36039,0.3207 -0.11569,0.099 -0.23382,0.1961 -0.35508,0.2888 -0.11492,0.088 -0.23266,0.1722 -0.35509,0.2491 -0.12119,0.076 -0.24698,0.1452 -0.37629,0.2067 -0.12924,0.062 -0.26201,0.1156 -0.39748,0.1616 -0.13884,0.047 -0.28051,0.086 -0.42399,0.1166 -0.15126,0.032 -0.30454,0.055 -0.45843,0.069 -0.16822,0.015 -0.33718,0.019 -0.50614,0.024" />
      <path
         inkscape:connector-curvature="0"
         id="path111"
         style="fill:none;stroke:#0000ff;stroke-width:0.89999998;stroke-linecap:round;fill-opacity:1;stroke-opacity:1"
         d="m 131.97954,36.240271 c -0.0884,0 -0.17682,0 -0.26499,-0.011 -0.086,-0.01 -0.17178,-0.016 -0.25704,-0.029 -0.0836,-0.013 -0.16667,-0.029 -0.24909,-0.048 -0.0813,-0.019 -0.16188,-0.04 -0.24114,-0.066 -0.0774,-0.025 -0.15344,-0.054 -0.22789,-0.087 -0.0723,-0.032 -0.14308,-0.067 -0.212,-0.1059 -0.0682,-0.038 -0.13457,-0.08 -0.19874,-0.1246 -0.0635,-0.044 -0.12487,-0.092 -0.18284,-0.1431 -0.058,-0.051 -0.11264,-0.1065 -0.1643,-0.1643 -0.0528,-0.059 -0.10253,-0.1209 -0.14839,-0.1855 -0.0471,-0.066 -0.0902,-0.1356 -0.12985,-0.2067 -0.0408,-0.073 -0.0781,-0.1483 -0.1113,-0.2252 -0.0347,-0.08 -0.0649,-0.1627 -0.0901,-0.2465 -0.0264,-0.088 -0.0473,-0.1773 -0.0636,-0.2676 -0.0174,-0.097 -0.0296,-0.1938 -0.0371,-0.2915 -0.008,-0.1031 -0.0106,-0.2066 -0.0133,-0.31" />
      <path
         inkscape:connector-curvature="0"
         id="path113"
         style="fill:none;stroke:#0000ff;stroke-width:0.89999998;stroke-linecap:round;fill-opacity:1;stroke-opacity:1"
         d="m 129.38793,33.728171 c 0.003,-0.093 0.007,-0.1862 0.0186,-0.2783 0.012,-0.092 0.0327,-0.1833 0.0583,-0.2729 0.0257,-0.09 0.0564,-0.1787 0.0927,-0.265 0.038,-0.09 0.0824,-0.1781 0.13249,-0.2623 0.0523,-0.088 0.11093,-0.172 0.1749,-0.2518 0.0677,-0.084 0.14138,-0.1641 0.21994,-0.2385 0.0843,-0.08 0.17421,-0.1536 0.26764,-0.2226 0.1006,-0.074 0.20528,-0.1427 0.31269,-0.2067 0.11787,-0.07 0.23902,-0.1349 0.36304,-0.1934 0.13501,-0.064 0.27342,-0.1202 0.41338,-0.1722 0.15374,-0.057 0.30935,-0.1091 0.46639,-0.1564 0.17154,-0.052 0.34478,-0.098 0.51938,-0.1378 0.1903,-0.044 0.38222,-0.08 0.57503,-0.1113 0.21196,-0.034 0.42499,-0.061 0.63863,-0.082 0.23089,-0.023 0.46249,-0.038 0.69427,-0.048 0.25248,-0.01 0.50518,-0.013 0.75788,-0.016" />
      <path
         inkscape:connector-curvature="0"
         id="path115"
         style="fill:none;stroke:#0000ff;stroke-width:0.89999998;stroke-linecap:round;fill-opacity:1;stroke-opacity:1"
         d="m 135.09319,30.813271 v -0.7341" />
      <path
         inkscape:connector-curvature="0"
         id="path117"
         style="fill:none;stroke:#0000ff;stroke-width:0.89999998;stroke-linecap:round;fill-opacity:1;stroke-opacity:1"
         d="m 135.09319,30.079171 c -0.002,-0.089 -0.003,-0.1785 -0.008,-0.2676 -0.004,-0.083 -0.0111,-0.1663 -0.0212,-0.2491 -0.01,-0.078 -0.0219,-0.1559 -0.0371,-0.2332 -0.0142,-0.072 -0.0309,-0.1437 -0.0504,-0.2146 -0.0184,-0.067 -0.0392,-0.1336 -0.0636,-0.1988 -0.0233,-0.062 -0.0497,-0.1233 -0.0795,-0.1828 -0.0287,-0.057 -0.0604,-0.1132 -0.0954,-0.1669 -0.0334,-0.052 -0.0698,-0.101 -0.10865,-0.1484 -0.0381,-0.046 -0.0786,-0.091 -0.12189,-0.1325 -0.0425,-0.041 -0.0878,-0.079 -0.13515,-0.114 -0.0483,-0.036 -0.0987,-0.069 -0.15104,-0.098 -0.053,-0.03 -0.10796,-0.057 -0.1643,-0.08 -0.0579,-0.024 -0.11737,-0.044 -0.17754,-0.061 -0.0628,-0.018 -0.1265,-0.033 -0.1908,-0.045 -0.0683,-0.013 -0.13741,-0.021 -0.20669,-0.027 -0.0732,-0.01 -0.14655,-0.01 -0.21994,-0.01" />
      <path
         inkscape:connector-curvature="0"
         id="path119"
         style="fill:none;stroke:#0000ff;stroke-width:0.89999998;stroke-linecap:round;fill-opacity:1;stroke-opacity:1"
         d="m 133.2621,27.853271 c -0.0954,0 -0.19087,0 -0.28619,0.011 -0.0878,0.01 -0.17544,0.013 -0.26234,0.027 -0.0812,0.012 -0.16169,0.029 -0.24114,0.05 -0.0725,0.019 -0.14403,0.041 -0.21465,0.066 -0.12951,0.046 -0.25583,0.1006 -0.37893,0.1617 -0.11129,0.055 -0.21994,0.1154 -0.32594,0.1802 -0.0937,0.057 -0.18536,0.1181 -0.27559,0.1802 -0.0784,0.054 -0.15566,0.1086 -0.23585,0.1616 -0.0682,0.045 -0.13839,0.089 -0.21464,0.1139 -0.0675,0.022 -0.13976,0.03 -0.21199,0.037" />
      <path
         inkscape:connector-curvature="0"
         id="path121"
         style="fill:none;stroke:#0000ff;stroke-width:0.89999998;stroke-linecap:round;fill-opacity:1;stroke-opacity:1"
         d="m 130.61484,28.841671 c -0.0521,0 -0.10417,-0.01 -0.1537,-0.021 -0.048,-0.014 -0.0937,-0.037 -0.13514,-0.066 -0.0403,-0.028 -0.0768,-0.061 -0.10865,-0.098 -0.0322,-0.037 -0.0598,-0.078 -0.0874,-0.1192" />
      <path
         inkscape:connector-curvature="0"
         id="path123"
         style="fill:none;stroke:#0000ff;stroke-width:0.89999998;stroke-linecap:round;fill-opacity:1;stroke-opacity:1"
         d="m 130.12991,28.536971 -0.29414,-0.5247" />
      <path
         inkscape:connector-curvature="0"
         id="path125"
         style="fill:none;stroke:#0000ff;stroke-width:0.89999998;stroke-linecap:round;fill-opacity:1;stroke-opacity:1"
         d="m 129.83577,28.012271 c 0.12868,-0.1155 0.25737,-0.2311 0.39218,-0.3392 0.13079,-0.1049 0.26735,-0.2028 0.40809,-0.2941 0.13656,-0.089 0.27706,-0.1711 0.42133,-0.2464 0.14229,-0.074 0.28825,-0.1416 0.43724,-0.2014 0.14913,-0.06 0.30131,-0.1123 0.45578,-0.1564 0.15786,-0.045 0.31811,-0.081 0.47964,-0.1113 0.16756,-0.031 0.33649,-0.055 0.50613,-0.069 0.17527,-0.014 0.3513,-0.018 0.52733,-0.021" />
      <path
         inkscape:connector-curvature="0"
         id="path127"
         style="fill:none;stroke:#0000ff;stroke-width:0.89999998;stroke-linecap:round;fill-opacity:1;stroke-opacity:1"
         d="m 173.51422,26.954971 c -0.004,0.1512 -0.009,0.3024 -0.0212,0.4531 -0.0119,0.1457 -0.0311,0.2909 -0.0583,0.4346 -0.0264,0.1394 -0.0602,0.2774 -0.1007,0.4134 -0.0399,0.134 -0.0864,0.266 -0.14044,0.3948 -0.0532,0.1269 -0.11373,0.2506 -0.18019,0.371 -0.0654,0.1186 -0.13655,0.234 -0.21465,0.3445 -0.0784,0.1109 -0.16372,0.2168 -0.25439,0.318 -0.0918,0.1024 -0.18898,0.1999 -0.29149,0.2915 -0.10455,0.093 -0.21462,0.1806 -0.32859,0.2623 -0.11695,0.084 -0.23801,0.1621 -0.36303,0.2332 -0.13049,0.074 -0.2653,0.141 -0.40279,0.2014 -0.14393,0.063 -0.2908,0.1198 -0.43989,0.1696 -0.15596,0.052 -0.31436,0.097 -0.47433,0.1352 -0.16721,0.04 -0.33615,0.072 -0.50613,0.098 -0.17928,0.027 -0.35973,0.047 -0.54058,0.058 -0.19138,0.012 -0.3832,0.015 -0.57503,0.019" />
      <path
         inkscape:connector-curvature="0"
         id="path129"
         style="fill:none;stroke:#0000ff;stroke-width:0.89999998;stroke-linecap:round;fill-opacity:1;stroke-opacity:1"
         d="m 168.62249,31.152471 h -2.10668" />
      <path
         inkscape:connector-curvature="0"
         id="path131"
         style="fill:none;stroke:#0000ff;stroke-width:0.89999998;stroke-linecap:round;fill-opacity:1;stroke-opacity:1"
         d="m 166.51581,31.152471 v 4.9182" />
      <path
         inkscape:connector-curvature="0"
         id="path133"
         style="fill:none;stroke:#0000ff;stroke-width:0.89999998;stroke-linecap:round;fill-opacity:1;stroke-opacity:1"
         d="m 166.51581,36.070671 h -1.76749" />
      <path
         inkscape:connector-curvature="0"
         id="path135"
         style="fill:none;stroke:#0000ff;stroke-width:0.89999998;stroke-linecap:round;fill-opacity:1;stroke-opacity:1"
         d="m 164.74832,36.070671 v -13.2284" />
      <path
         inkscape:connector-curvature="0"
         id="path137"
         style="fill:none;stroke:#0000ff;stroke-width:0.89999998;stroke-linecap:round;fill-opacity:1;stroke-opacity:1"
         d="m 164.74832,22.842271 h 3.87417" />
      <path
         inkscape:connector-curvature="0"
         id="path139"
         style="fill:none;stroke:#0000ff;stroke-width:0.89999998;stroke-linecap:round;fill-opacity:1;stroke-opacity:1"
         d="m 168.62249,22.842271 c 0.20061,0 0.40122,0.01 0.60153,0.019 0.1878,0.011 0.37534,0.028 0.56178,0.053 0.17518,0.024 0.34939,0.055 0.52203,0.093 0.16157,0.036 0.32177,0.078 0.47963,0.1272 0.14989,0.047 0.29767,0.1009 0.44254,0.1617 0.1363,0.057 0.27001,0.1206 0.40013,0.1908 0.125,0.067 0.24668,0.1412 0.36304,0.2226 0.11184,0.078 0.21877,0.1634 0.32064,0.2544 0.0998,0.089 0.19474,0.1835 0.28354,0.2835 0.0873,0.098 0.16875,0.202 0.24379,0.31 0.0756,0.1089 0.14471,0.2222 0.20669,0.3392 0.0627,0.1185 0.11815,0.2408 0.16695,0.3657 0.0498,0.1276 0.0928,0.2577 0.12984,0.3896 0.0383,0.1361 0.0703,0.2741 0.0954,0.4133 0.0259,0.1438 0.0445,0.289 0.0557,0.4346 0.0116,0.1516 0.0151,0.3037 0.0186,0.4558" />
      <path
         inkscape:connector-curvature="0"
         id="path165"
         style="fill:none;stroke:#0000ff;stroke-width:0.89999998;stroke-linecap:round;fill-opacity:1;stroke-opacity:1"
         d="m 176.08993,22.842271 h 1.77544" />
      <path
         inkscape:connector-curvature="0"
         id="path167"
         style="fill:none;stroke:#0000ff;stroke-width:0.89999998;stroke-linecap:round;fill-opacity:1;stroke-opacity:1"
         d="m 177.86537,22.842271 v 13.2284" />
      <path
         inkscape:connector-curvature="0"
         id="path169"
         style="fill:none;stroke:#0000ff;stroke-width:0.89999998;stroke-linecap:round;fill-opacity:1;stroke-opacity:1"
         d="m 177.86537,36.070671 h -1.77544" />
      <path
         inkscape:connector-curvature="0"
         id="path171"
         style="fill:none;stroke:#0000ff;stroke-width:0.89999998;stroke-linecap:round;fill-opacity:1;stroke-opacity:1"
         d="m 176.08993,36.070671 v -13.2284" />
      <path
         inkscape:connector-curvature="0"
         id="path173"
         style="fill:none;stroke:#0000ff;stroke-width:0.89999998;stroke-linecap:round;fill-opacity:1;stroke-opacity:1"
         d="m 156.88074,30.890071 c -0.0507,-0.066 -0.10142,-0.133 -0.16165,-0.1908 -0.0526,-0.051 -0.11245,-0.094 -0.17754,-0.1272 -0.0333,-0.017 -0.068,-0.031 -0.10335,-0.042 -0.0407,-0.013 -0.0824,-0.024 -0.12454,-0.032 -0.049,-0.01 -0.0987,-0.015 -0.1484,-0.018 -0.0573,0 -0.11478,0 -0.17224,-0.01" />
      <path
         inkscape:connector-curvature="0"
         id="path175"
         style="fill:none;stroke:#0000ff;stroke-width:0.89999998;stroke-linecap:round;fill-opacity:1;stroke-opacity:1"
         d="m 155.99302,30.474071 h -1.3488" />
      <path
         inkscape:connector-curvature="0"
         id="path177"
         style="fill:none;stroke:#0000ff;stroke-width:0.89999998;stroke-linecap:round;fill-opacity:1;stroke-opacity:1"
         d="m 154.64422,30.474071 v 5.5118" />
      <path
         inkscape:connector-curvature="0"
         id="path179"
         style="fill:none;stroke:#0000ff;stroke-width:0.89999998;stroke-linecap:round;fill-opacity:1;stroke-opacity:1"
         d="m 154.64422,35.985871 h -1.76749" />
      <path
         inkscape:connector-curvature="0"
         id="path181"
         style="fill:none;stroke:#0000ff;stroke-width:0.89999998;stroke-linecap:round;fill-opacity:1;stroke-opacity:1"
         d="m 152.87673,35.985871 v -13.1436" />
      <path
         inkscape:connector-curvature="0"
         id="path183"
         style="fill:none;stroke:#0000ff;stroke-width:0.89999998;stroke-linecap:round;fill-opacity:1;stroke-opacity:1"
         d="m 152.87673,22.842271 h 3.70987" />
      <path
         inkscape:connector-curvature="0"
         id="path185"
         style="fill:none;stroke:#0000ff;stroke-width:0.89999998;stroke-linecap:round;fill-opacity:1;stroke-opacity:1"
         d="m 156.5866,22.842271 c 0.20063,0 0.40125,0.01 0.60153,0.016 0.18677,0.01 0.37323,0.026 0.55913,0.048 0.17306,0.02 0.34564,0.044 0.51673,0.077 0.15956,0.03 0.31783,0.068 0.47434,0.1113 0.1467,0.041 0.29186,0.087 0.43458,0.1404 0.1332,0.05 0.26426,0.105 0.39219,0.167 0.12174,0.059 0.24063,0.124 0.35508,0.1961 0.10935,0.069 0.21465,0.1442 0.31534,0.2252 0.0965,0.078 0.18881,0.1607 0.27559,0.2491 0.0851,0.087 0.165,0.1788 0.2385,0.2756 0.0725,0.096 0.13875,0.1956 0.19874,0.2994 0.0603,0.1044 0.11428,0.2125 0.16164,0.3233 0.048,0.1124 0.0892,0.2276 0.12455,0.3445 0.0363,0.1203 0.0664,0.2423 0.0901,0.3657 0.0246,0.1279 0.0422,0.2572 0.053,0.3869 0.0112,0.1348 0.0149,0.2701 0.0186,0.4054" />
      <path
         inkscape:connector-curvature="0"
         id="path187"
         style="fill:none;stroke:#0000ff;stroke-width:0.89999998;stroke-linecap:round;fill-opacity:1;stroke-opacity:1"
         d="m 161.39618,26.472671 c -0.002,0.1141 -0.004,0.2282 -0.0133,0.3419 -0.009,0.1109 -0.0234,0.2214 -0.0424,0.3312 -0.0187,0.1078 -0.0413,0.2148 -0.0689,0.3206 -0.0271,0.1039 -0.059,0.2065 -0.0954,0.3074 -0.036,0.1 -0.0765,0.1982 -0.12189,0.2942 -0.0449,0.095 -0.0946,0.1879 -0.1484,0.2782 -0.0536,0.09 -0.1112,0.1773 -0.17224,0.2623 -0.0617,0.086 -0.1268,0.1694 -0.1961,0.2491 -0.0697,0.08 -0.14351,0.1567 -0.21994,0.2306 -0.0774,0.075 -0.15751,0.1469 -0.24114,0.2146 -0.0859,0.07 -0.17566,0.1346 -0.26764,0.1961 -0.094,0.063 -0.19035,0.1221 -0.28884,0.1776 -0.10122,0.057 -0.20471,0.11 -0.31004,0.159 -0.10772,0.05 -0.21737,0.096 -0.32859,0.1378 -0.11508,0.043 -0.23184,0.082 -0.34979,0.1165 -0.12193,0.036 -0.24513,0.067 -0.36833,0.098" />
      <path
         inkscape:connector-curvature="0"
         id="path189"
         style="fill:none;stroke:#0000ff;stroke-width:0.89999998;stroke-linecap:round;fill-opacity:1;stroke-opacity:1"
         d="m 158.1633,30.187871 c 0.0537,0.035 0.10747,0.07 0.15899,0.1086 0.0528,0.039 0.10332,0.082 0.15104,0.1272 0.0508,0.048 0.0984,0.1 0.1431,0.1537 0.0463,0.056 0.0894,0.114 0.13249,0.1723" />
      <path
         inkscape:connector-curvature="0"
         id="path191"
         style="fill:none;stroke:#0000ff;stroke-width:0.89999998;stroke-linecap:round;fill-opacity:1;stroke-opacity:1"
         d="m 158.74892,30.749671 3.82647,5.2362" />
      <path
         inkscape:connector-curvature="0"
         id="path193"
         style="fill:none;stroke:#0000ff;stroke-width:0.89999998;stroke-linecap:round;fill-opacity:1;stroke-opacity:1"
         d="m 162.57539,35.985871 h -1.57404" />
      <path
         inkscape:connector-curvature="0"
         id="path195"
         style="fill:none;stroke:#0000ff;stroke-width:0.89999998;stroke-linecap:round;fill-opacity:1;stroke-opacity:1"
         d="m 161.00135,35.985871 c -0.0758,0 -0.15153,-0.01 -0.22524,-0.024 -0.0679,-0.014 -0.13412,-0.039 -0.1961,-0.072 -0.0592,-0.031 -0.1145,-0.07 -0.16164,-0.1166 -0.0504,-0.05 -0.0914,-0.1084 -0.1325,-0.1669" />
      <path
         inkscape:connector-curvature="0"
         id="path197"
         style="fill:none;stroke:#0000ff;stroke-width:0.89999998;stroke-linecap:round;fill-opacity:1;stroke-opacity:1"
         d="m 160.28587,35.606971 -3.40513,-4.7169" />
      <path
         inkscape:connector-curvature="0"
         id="path199"
         style="fill:none;stroke:#0000ff;stroke-width:0.89999998;stroke-linecap:round;fill-opacity:1;stroke-opacity:1"
         d="m 139.26414,36.070671 v -13.5675" />
      <path
         inkscape:connector-curvature="0"
         id="path201"
         style="fill:none;stroke:#0000ff;stroke-width:0.89999998;stroke-linecap:round;fill-opacity:1;stroke-opacity:1"
         d="m 139.26414,22.503171 h 1.6403" />
      <path
         inkscape:connector-curvature="0"
         id="path203"
         style="fill:none;stroke:#0000ff;stroke-width:0.89999998;stroke-linecap:round;fill-opacity:1;stroke-opacity:1"
         d="m 140.90444,22.503171 v 7.9709" />
      <path
         inkscape:connector-curvature="0"
         id="path205"
         style="fill:none;stroke:#0000ff;stroke-width:0.89999998;stroke-linecap:round;fill-opacity:1;stroke-opacity:1"
         d="m 140.90444,30.474071 h 0.42133" />
      <path
         inkscape:connector-curvature="0"
         id="path207"
         style="fill:none;stroke:#0000ff;stroke-width:0.89999998;stroke-linecap:round;fill-opacity:1;stroke-opacity:1"
         d="m 141.32577,30.474071 c 0.0558,0 0.11168,0 0.16695,-0.013 0.0462,-0.01 0.0921,-0.019 0.13514,-0.037 0.0457,-0.019 0.0882,-0.046 0.1272,-0.077 0.0497,-0.039 0.0937,-0.085 0.13779,-0.1299" />
      <path
         inkscape:connector-curvature="0"
         id="path209"
         style="fill:none;stroke:#0000ff;stroke-width:0.89999998;stroke-linecap:round;fill-opacity:1;stroke-opacity:1"
         d="m 141.89285,30.216971 2.9308,-3.1427" />
      <path
         inkscape:connector-curvature="0"
         id="path211"
         style="fill:none;stroke:#0000ff;stroke-width:0.89999998;stroke-linecap:round;fill-opacity:1;stroke-opacity:1"
         d="m 144.82365,27.074271 c 0.0449,-0.046 0.0897,-0.092 0.1378,-0.1352 0.0429,-0.038 0.0883,-0.074 0.13779,-0.1033 0.0504,-0.03 0.10504,-0.054 0.16165,-0.069 0.0662,-0.017 0.13511,-0.02 0.20404,-0.024" />
      <path
         inkscape:connector-curvature="0"
         id="path213"
         style="fill:none;stroke:#0000ff;stroke-width:0.89999998;stroke-linecap:round;fill-opacity:1;stroke-opacity:1"
         d="m 145.46493,26.742971 h 1.48395" />
      <path
         inkscape:connector-curvature="0"
         id="path215"
         style="fill:none;stroke:#0000ff;stroke-width:0.89999998;stroke-linecap:round;fill-opacity:1;stroke-opacity:1"
         d="m 146.94888,26.742971 -3.41573,3.6648" />
      <path
         inkscape:connector-curvature="0"
         id="path217"
         style="fill:none;stroke:#0000ff;stroke-width:0.89999998;stroke-linecap:round;fill-opacity:1;stroke-opacity:1"
         d="m 143.53315,30.407771 c -0.0417,0.05 -0.0835,0.1002 -0.1272,0.1484 -0.0407,0.045 -0.0831,0.088 -0.12719,0.1299 -0.0415,0.039 -0.0844,0.077 -0.12985,0.1113 -0.0476,0.036 -0.098,0.068 -0.1484,0.1007" />
      <path
         inkscape:connector-curvature="0"
         id="path219"
         style="fill:none;stroke:#0000ff;stroke-width:0.89999998;stroke-linecap:round;fill-opacity:1;stroke-opacity:1"
         d="m 143.00051,30.898071 c 0.0542,0.038 0.10837,0.077 0.159,0.1192 0.0497,0.042 0.0959,0.088 0.14044,0.1352 0.0455,0.048 0.0893,0.099 0.12985,0.151 0.043,0.056 0.0824,0.1139 0.1219,0.1723" />
      <path
         inkscape:connector-curvature="0"
         id="path221"
         style="fill:none;stroke:#0000ff;stroke-width:0.89999998;stroke-linecap:round;fill-opacity:1;stroke-opacity:1"
         d="m 143.5517,31.475771 3.62507,4.5949" />
      <path
         inkscape:connector-curvature="0"
         id="path223"
         style="fill:none;stroke:#0000ff;stroke-width:0.89999998;stroke-linecap:round;fill-opacity:1;stroke-opacity:1"
         d="m 147.17677,36.070671 h -1.4654" />
      <path
         inkscape:connector-curvature="0"
         id="path225"
         style="fill:none;stroke:#0000ff;stroke-width:0.89999998;stroke-linecap:round;fill-opacity:1;stroke-opacity:1"
         d="m 145.71137,36.070671 c -0.0624,0 -0.12477,-0.01 -0.18549,-0.019 -0.0552,-0.012 -0.10894,-0.032 -0.159,-0.058 -0.05,-0.027 -0.0963,-0.06 -0.13779,-0.098 -0.0474,-0.043 -0.0886,-0.093 -0.12985,-0.1431" />
      <path
         inkscape:connector-curvature="0"
         id="path227"
         style="fill:none;stroke:#0000ff;stroke-width:0.89999998;stroke-linecap:round;fill-opacity:1;stroke-opacity:1"
         d="m 145.09924,35.752671 -3.05004,-3.7814" />
      <path
         inkscape:connector-curvature="0"
         id="path229"
         style="fill:none;stroke:#0000ff;stroke-width:0.89999998;stroke-linecap:round;fill-opacity:1;stroke-opacity:1"
         d="m 142.0492,31.971271 c -0.0428,-0.056 -0.0856,-0.112 -0.1378,-0.159 -0.0408,-0.037 -0.0875,-0.068 -0.13779,-0.09 -0.0544,-0.024 -0.11323,-0.037 -0.17225,-0.045 -0.0792,-0.011 -0.15886,-0.013 -0.23849,-0.016" />
      <path
         inkscape:connector-curvature="0"
         id="path231"
         style="fill:none;stroke:#0000ff;stroke-width:0.89999998;stroke-linecap:round;fill-opacity:1;stroke-opacity:1"
         d="m 141.36287,31.661171 h -0.45843" />
      <path
         inkscape:connector-curvature="0"
         id="path233"
         style="fill:none;stroke:#0000ff;stroke-width:0.89999998;stroke-linecap:round;fill-opacity:1;stroke-opacity:1"
         d="m 140.90444,31.661171 v 4.4095" />
      <path
         inkscape:connector-curvature="0"
         id="path235"
         style="fill:none;stroke:#0000ff;stroke-width:0.89999998;stroke-linecap:round;fill-opacity:1;stroke-opacity:1"
         d="m 140.90444,36.070671 h -1.6403" />
      <path
         inkscape:connector-curvature="0"
         id="path237"
         style="fill:none;stroke:#0000ff;stroke-width:0.89999998;stroke-linecap:round;fill-opacity:1;stroke-opacity:1"
         d="m 122.76846,32.313071 c -0.003,0.1372 -0.006,0.2743 -0.0186,0.4108 -0.0118,0.1307 -0.0321,0.2607 -0.0583,0.3895 -0.0256,0.1261 -0.0568,0.251 -0.0954,0.3736 -0.038,0.1209 -0.0831,0.2396 -0.13514,0.3551 -0.0511,0.1136 -0.10893,0.224 -0.17224,0.3313 -0.0632,0.107 -0.1319,0.2108 -0.2067,0.31 -0.0747,0.099 -0.15553,0.1936 -0.24114,0.2835 -0.088,0.092 -0.18099,0.1799 -0.27824,0.2624 -0.0991,0.084 -0.20252,0.1629 -0.31004,0.2358 -0.11089,0.075 -0.22611,0.144 -0.34449,0.2067 -0.1233,0.065 -0.25003,0.1241 -0.37893,0.1776 -0.13557,0.056 -0.27355,0.1064 -0.41339,0.151 -0.14563,0.046 -0.29329,0.087 -0.44254,0.1192 -0.15676,0.034 -0.31527,0.06 -0.47433,0.082 -0.16727,0.023 -0.33514,0.042 -0.50348,0.053 -0.17719,0.011 -0.35491,0.014 -0.53263,0.016" />
      <path
         inkscape:connector-curvature="0"
         id="path239"
         style="fill:none;stroke:#0000ff;stroke-width:0.89999998;stroke-linecap:round;fill-opacity:1;stroke-opacity:1"
         d="m 118.16292,36.070671 h -4.64529" />
      <path
         inkscape:connector-curvature="0"
         id="path241"
         style="fill:none;stroke:#0000ff;stroke-width:0.89999998;stroke-linecap:round;fill-opacity:1;stroke-opacity:1"
         d="m 113.51763,36.070671 v -13.2284" />
      <path
         inkscape:connector-curvature="0"
         id="path243"
         style="fill:none;stroke:#0000ff;stroke-width:0.89999998;stroke-linecap:round;fill-opacity:1;stroke-opacity:1"
         d="m 113.51763,22.842271 h 4.18685" />
      <path
         inkscape:connector-curvature="0"
         id="path245"
         style="fill:none;stroke:#0000ff;stroke-width:0.89999998;stroke-linecap:round;fill-opacity:1;stroke-opacity:1"
         d="m 117.70448,22.842271 c 0.19443,0 0.38885,0.01 0.58298,0.016 0.18145,0.01 0.36265,0.024 0.54323,0.045 0.16686,0.019 0.3332,0.043 0.49819,0.074 0.15412,0.029 0.30707,0.065 0.45843,0.106 0.14126,0.039 0.28114,0.082 0.41869,0.1325 0.12871,0.047 0.25538,0.1 0.37893,0.159 0.11624,0.056 0.22971,0.1174 0.33919,0.1855 0.10347,0.064 0.20337,0.1343 0.29944,0.2093 0.0928,0.073 0.18206,0.1497 0.26499,0.2332 0.0808,0.081 0.15555,0.1686 0.22524,0.2597 0.0693,0.091 0.13356,0.185 0.1908,0.2835 0.058,0.1 0.10871,0.2038 0.15369,0.3101 0.0458,0.1082 0.0856,0.2188 0.11925,0.3312 0.0344,0.115 0.0625,0.2318 0.0848,0.3498 0.0233,0.1236 0.0404,0.2484 0.0503,0.3736 0.0104,0.1304 0.0131,0.2613 0.0159,0.3922" />
      <path
         inkscape:connector-curvature="0"
         id="path247"
         style="fill:none;stroke:#0000ff;stroke-width:0.89999998;stroke-linecap:round;fill-opacity:1;stroke-opacity:1"
         d="m 122.32857,26.303071 c -0.007,0.1606 -0.0135,0.3212 -0.0371,0.4797 -0.0234,0.1573 -0.0634,0.3125 -0.11394,0.4637 -0.0252,0.075 -0.0531,0.1498 -0.0848,0.2226 -0.0318,0.073 -0.0675,0.1447 -0.10599,0.2146 -0.0388,0.071 -0.0804,0.1395 -0.12455,0.2067 -0.0448,0.068 -0.0924,0.1348 -0.1431,0.1988 -0.0517,0.065 -0.1068,0.1279 -0.16429,0.1881 -0.0587,0.062 -0.11984,0.1205 -0.18284,0.1776 -0.0651,0.059 -0.13211,0.1157 -0.2014,0.1695 -0.072,0.056 -0.14641,0.1089 -0.22259,0.159 -0.0785,0.052 -0.15881,0.1006 -0.24114,0.1458 -0.0848,0.047 -0.17179,0.089 -0.25969,0.1298 -0.0924,0.043 -0.18581,0.083 -0.28089,0.1193 -0.0995,0.038 -0.20079,0.071 -0.30209,0.1033" />
      <path
         inkscape:connector-curvature="0"
         id="path249"
         style="fill:none;stroke:#0000ff;stroke-width:0.89999998;stroke-linecap:round;fill-opacity:1;stroke-opacity:1"
         d="m 119.86416,29.281571 c 0.1169,0.025 0.2338,0.051 0.34979,0.08 0.10957,0.028 0.21834,0.058 0.32594,0.093 0.10272,0.033 0.20437,0.069 0.30473,0.1086 0.095,0.037 0.18883,0.078 0.28089,0.1219 0.0884,0.042 0.17516,0.088 0.2597,0.1378 0.0816,0.048 0.1611,0.099 0.23849,0.1537 0.0747,0.053 0.1475,0.108 0.21729,0.1669 0.0673,0.057 0.1319,0.1171 0.19344,0.1802 0.0608,0.062 0.11857,0.1277 0.17225,0.1961 0.0532,0.068 0.10239,0.139 0.14839,0.212 0.046,0.073 0.0888,0.148 0.1272,0.2253 0.0389,0.078 0.0734,0.1589 0.10334,0.2411 0.0308,0.084 0.0569,0.1702 0.0795,0.2571 0.0233,0.089 0.0429,0.1793 0.0583,0.2702 0.0161,0.095 0.0277,0.1904 0.0344,0.2862 0.007,0.1005 0.009,0.2013 0.0106,0.3021" />
    </g>
  </g>
</svg>
