  0
SECTION
  2
HEADER
  9
$ACADVER
  1
AC1014
  9
$HANDSEED
  5
FFFF
  9
$MEASUREMENT
 70
     1
  0
ENDSEC
  0
SECTION
  2
TABLES
  0
TABLE
  2
VPORT
  5
8
330
0
100
AcDbSymbolTable
 70
     4
  0
VPORT
  5
2E
330
8
100
AcDbSymbolTableRecord
100
AcDbViewportTableRecord
  2
*ACTIVE
 70
     0
 10
0.0
 20
0.0
 11
1.0
 21
1.0
 12
210.0
 22
148.5
 13
0.0
 23
0.0
 14
10.0
 24
10.0
 15
10.0
 25
10.0
 16
0.0
 26
0.0
 36
1.0
 17
0.0
 27
0.0
 37
0.0
 40
341.0
 41
1.24
 42
50.0
 43
0.0
 44
0.0
 50
0.0
 51
0.0
 71
     0
 72
   100
 73
     1
 74
     3
 75
     0
 76
     0
 77
     0
 78
     0
  0
ENDTAB
  0
TABLE
  2
LTYPE
  5
5
330
0
100
AcDbSymbolTable
 70
     1
  0
LTYPE
  5
14
330
5
100
AcDbSymbolTableRecord
100
AcDbLinetypeTableRecord
  2
BYBLOCK
 70
     0
  3

 72
    65
 73
     0
 40
0.0
  0
LTYPE
  5
15
330
5
100
AcDbSymbolTableRecord
100
AcDbLinetypeTableRecord
  2
BYLAYER
 70
     0
  3

 72
    65
 73
     0
 40
0.0
  0
LTYPE
  5
16
330
5
100
AcDbSymbolTableRecord
100
AcDbLinetypeTableRecord
  2
CONTINUOUS
 70
     0
  3
Solid line
 72
    65
 73
     0
 40
0.0
  0
ENDTAB
  0
TABLE
  2
LAYER
  5
2
100
AcDbSymbolTable
 70
1
  0
LAYER
  5
50
100
AcDbSymbolTableRecord
100
AcDbLayerTableRecord
  2
0
 70
0
  6
CONTINUOUS
  0
ENDTAB
  0
TABLE
  2
STYLE
  5
3
330
0
100
AcDbSymbolTable
 70
     1
  0
STYLE
  5
11
330
3
100
AcDbSymbolTableRecord
100
AcDbTextStyleTableRecord
  2
STANDARD
 70
     0
 40
0.0
 41
1.0
 50
0.0
 71
     0
 42
2.5
  3
txt
  4

  0
ENDTAB
  0
TABLE
  2
VIEW
  5
6
330
0
100
AcDbSymbolTable
 70
     0
  0
ENDTAB
  0
TABLE
  2
UCS
  5
7
330
0
100
AcDbSymbolTable
 70
     0
  0
ENDTAB
  0
TABLE
  2
APPID
  5
9
330
0
100
AcDbSymbolTable
 70
     2
  0
APPID
  5
12
330
9
100
AcDbSymbolTableRecord
100
AcDbRegAppTableRecord
  2
ACAD
 70
     0
  0
ENDTAB
  0
TABLE
  2
DIMSTYLE
  5
A
330
0
100
AcDbSymbolTable
 70
     1
  0
DIMSTYLE
105
27
330
A
100
AcDbSymbolTableRecord
100
AcDbDimStyleTableRecord
  2
ISO-25
 70
     0
  3

  4

  5

  6

  7

 40
1.0
 41
2.5
 42
0.625
 43
3.75
 44
1.25
 45
0.0
 46
0.0
 47
0.0
 48
0.0
140
2.5
141
2.5
142
0.0
143
0.03937007874016
144
1.0
145
0.0
146
1.0
147
0.625
 71
     0
 72
     0
 73
     0
 74
     0
 75
     0
 76
     0
 77
     1
 78
     8
170
     0
171
     3
172
     1
173
     0
174
     0
175
     0
176
     0
177
     0
178
     0
270
     2
271
     2
272
     2
273
     2
274
     3
340
11
275
     0
280
     0
281
     0
282
     0
283
     0
284
     8
285
     0
286
     0
287
     3
288
     0
  0
ENDTAB
  0
TABLE
  2
BLOCK_RECORD
  5
1
330
0
100
AcDbSymbolTable
 70
     1
  0
BLOCK_RECORD
  5
1F
330
1
100
AcDbSymbolTableRecord
100
AcDbBlockTableRecord
  2
*MODEL_SPACE
  0
BLOCK_RECORD
  5
1B
330
1
100
AcDbSymbolTableRecord
100
AcDbBlockTableRecord
  2
*PAPER_SPACE
  0
ENDTAB
  0
ENDSEC
  0
SECTION
  2
BLOCKS
  0
BLOCK
  5
20
330
1F
100
AcDbEntity
  8
0
100
AcDbBlockBegin
  2
*MODEL_SPACE
 70
     0
 10
0.0
 20
0.0
 30
0.0
  3
*MODEL_SPACE
  1

  0
ENDBLK
  5
21
330
1F
100
AcDbEntity
  8
0
100
AcDbBlockEnd
  0
BLOCK
  5
1C
330
1B
100
AcDbEntity
 67
     1
  8
0
100
AcDbBlockBegin
  2
*PAPER_SPACE
  1

  0
ENDBLK
  5
1D
330
1B
100
AcDbEntity
 67
     1
  8
0
100
AcDbBlockEnd
  0
ENDSEC
  0
SECTION
  2
ENTITIES
  0
SPLINE
  5
100
100
AcDbEntity
  8
0
 62
1
100
AcDbSpline
 70
8
 71
3
 72
8
 73
4
 74
0
 40
0
 40
0
 40
0
 40
0
 40
1
 40
1
 40
1
 40
1
 10
76.600431
 20
157.788625
 30
0.0
 10
76.600431
 20
158.435217
 30
0.0
 10
76.255478
 20
159.032693
 30
0.0
 10
75.695512
 20
159.355990
 30
0.0
  0
SPLINE
  5
101
100
AcDbEntity
  8
0
 62
1
100
AcDbSpline
 70
8
 71
3
 72
8
 73
4
 74
0
 40
0
 40
0
 40
0
 40
0
 40
1
 40
1
 40
1
 40
1
 10
75.695512
 20
159.355990
 30
0.0
 10
75.135547
 20
159.679286
 30
0.0
 10
74.445641
 20
159.679286
 30
0.0
 10
73.885675
 20
159.355990
 30
0.0
  0
SPLINE
  5
102
100
AcDbEntity
  8
0
 62
1
100
AcDbSpline
 70
8
 71
3
 72
8
 73
4
 74
0
 40
0
 40
0
 40
0
 40
0
 40
1
 40
1
 40
1
 40
1
 10
73.885675
 20
159.355990
 30
0.0
 10
73.325709
 20
159.032693
 30
0.0
 10
72.980756
 20
158.435217
 30
0.0
 10
72.980756
 20
157.788625
 30
0.0
  0
SPLINE
  5
103
100
AcDbEntity
  8
0
 62
1
100
AcDbSpline
 70
8
 71
3
 72
8
 73
4
 74
0
 40
0
 40
0
 40
0
 40
0
 40
1
 40
1
 40
1
 40
1
 10
72.980756
 20
157.788625
 30
0.0
 10
72.980756
 20
157.142032
 30
0.0
 10
73.325709
 20
156.544556
 30
0.0
 10
73.885675
 20
156.221259
 30
0.0
  0
SPLINE
  5
104
100
AcDbEntity
  8
0
 62
1
100
AcDbSpline
 70
8
 71
3
 72
8
 73
4
 74
0
 40
0
 40
0
 40
0
 40
0
 40
1
 40
1
 40
1
 40
1
 10
73.885675
 20
156.221259
 30
0.0
 10
74.445641
 20
155.897963
 30
0.0
 10
75.135547
 20
155.897963
 30
0.0
 10
75.695512
 20
156.221259
 30
0.0
  0
SPLINE
  5
105
100
AcDbEntity
  8
0
 62
1
100
AcDbSpline
 70
8
 71
3
 72
8
 73
4
 74
0
 40
0
 40
0
 40
0
 40
0
 40
1
 40
1
 40
1
 40
1
 10
75.695512
 20
156.221259
 30
0.0
 10
76.255478
 20
156.544556
 30
0.0
 10
76.600431
 20
157.142032
 30
0.0
 10
76.600431
 20
157.788625
 30
0.0
  0
LINE
  5
106
100
AcDbEntity
  8
0
 62
1
100
AcDbLine
 10
76.600431
 20
157.788625
 30
0.0
 11
76.600431
 21
157.788625
 31
0.0
  0
SPLINE
  5
107
100
AcDbEntity
  8
0
 62
1
100
AcDbSpline
 70
8
 71
3
 72
8
 73
4
 74
0
 40
0
 40
0
 40
0
 40
0
 40
1
 40
1
 40
1
 40
1
 10
10.550594
 20
157.788625
 30
0.0
 10
10.550594
 20
158.431703
 30
0.0
 10
10.207516
 20
159.025931
 30
0.0
 10
9.650594
 20
159.347470
 30
0.0
  0
SPLINE
  5
108
100
AcDbEntity
  8
0
 62
1
100
AcDbSpline
 70
8
 71
3
 72
8
 73
4
 74
0
 40
0
 40
0
 40
0
 40
0
 40
1
 40
1
 40
1
 40
1
 10
9.650594
 20
159.347470
 30
0.0
 10
9.093672
 20
159.669009
 30
0.0
 10
8.407516
 20
159.669009
 30
0.0
 10
7.850594
 20
159.347470
 30
0.0
  0
SPLINE
  5
109
100
AcDbEntity
  8
0
 62
1
100
AcDbSpline
 70
8
 71
3
 72
8
 73
4
 74
0
 40
0
 40
0
 40
0
 40
0
 40
1
 40
1
 40
1
 40
1
 10
7.850594
 20
159.347470
 30
0.0
 10
7.293672
 20
159.025931
 30
0.0
 10
6.950594
 20
158.431703
 30
0.0
 10
6.950594
 20
157.788625
 30
0.0
  0
SPLINE
  5
10a
100
AcDbEntity
  8
0
 62
1
100
AcDbSpline
 70
8
 71
3
 72
8
 73
4
 74
0
 40
0
 40
0
 40
0
 40
0
 40
1
 40
1
 40
1
 40
1
 10
6.950594
 20
157.788625
 30
0.0
 10
6.950594
 20
157.145546
 30
0.0
 10
7.293672
 20
156.551318
 30
0.0
 10
7.850594
 20
156.229779
 30
0.0
  0
SPLINE
  5
10b
100
AcDbEntity
  8
0
 62
1
100
AcDbSpline
 70
8
 71
3
 72
8
 73
4
 74
0
 40
0
 40
0
 40
0
 40
0
 40
1
 40
1
 40
1
 40
1
 10
7.850594
 20
156.229779
 30
0.0
 10
8.407516
 20
155.908240
 30
0.0
 10
9.093672
 20
155.908240
 30
0.0
 10
9.650594
 20
156.229779
 30
0.0
  0
SPLINE
  5
10c
100
AcDbEntity
  8
0
 62
1
100
AcDbSpline
 70
8
 71
3
 72
8
 73
4
 74
0
 40
0
 40
0
 40
0
 40
0
 40
1
 40
1
 40
1
 40
1
 10
9.650594
 20
156.229779
 30
0.0
 10
10.207516
 20
156.551318
 30
0.0
 10
10.550594
 20
157.145546
 30
0.0
 10
10.550594
 20
157.788625
 30
0.0
  0
LINE
  5
10d
100
AcDbEntity
  8
0
 62
1
100
AcDbLine
 10
10.550594
 20
157.788625
 30
0.0
 11
10.550594
 21
157.788625
 31
0.0
  0
SPLINE
  5
10e
100
AcDbEntity
  8
0
 62
1
100
AcDbSpline
 70
8
 71
3
 72
8
 73
4
 74
0
 40
0
 40
0
 40
0
 40
0
 40
1
 40
1
 40
1
 40
1
 10
10.407208
 20
289.088592
 30
0.0
 10
10.407208
 20
289.731670
 30
0.0
 10
10.064130
 20
290.325899
 30
0.0
 10
9.507208
 20
290.647438
 30
0.0
  0
SPLINE
  5
10f
100
AcDbEntity
  8
0
 62
1
100
AcDbSpline
 70
8
 71
3
 72
8
 73
4
 74
0
 40
0
 40
0
 40
0
 40
0
 40
1
 40
1
 40
1
 40
1
 10
9.507208
 20
290.647438
 30
0.0
 10
8.950286
 20
290.968977
 30
0.0
 10
8.264130
 20
290.968977
 30
0.0
 10
7.707208
 20
290.647438
 30
0.0
  0
SPLINE
  5
110
100
AcDbEntity
  8
0
 62
1
100
AcDbSpline
 70
8
 71
3
 72
8
 73
4
 74
0
 40
0
 40
0
 40
0
 40
0
 40
1
 40
1
 40
1
 40
1
 10
7.707208
 20
290.647438
 30
0.0
 10
7.150286
 20
290.325899
 30
0.0
 10
6.807208
 20
289.731670
 30
0.0
 10
6.807208
 20
289.088592
 30
0.0
  0
SPLINE
  5
111
100
AcDbEntity
  8
0
 62
1
100
AcDbSpline
 70
8
 71
3
 72
8
 73
4
 74
0
 40
0
 40
0
 40
0
 40
0
 40
1
 40
1
 40
1
 40
1
 10
6.807208
 20
289.088592
 30
0.0
 10
6.807208
 20
288.445514
 30
0.0
 10
7.150286
 20
287.851285
 30
0.0
 10
7.707208
 20
287.529746
 30
0.0
  0
SPLINE
  5
112
100
AcDbEntity
  8
0
 62
1
100
AcDbSpline
 70
8
 71
3
 72
8
 73
4
 74
0
 40
0
 40
0
 40
0
 40
0
 40
1
 40
1
 40
1
 40
1
 10
7.707208
 20
287.529746
 30
0.0
 10
8.264130
 20
287.208207
 30
0.0
 10
8.950286
 20
287.208207
 30
0.0
 10
9.507208
 20
287.529746
 30
0.0
  0
SPLINE
  5
113
100
AcDbEntity
  8
0
 62
1
100
AcDbSpline
 70
8
 71
3
 72
8
 73
4
 74
0
 40
0
 40
0
 40
0
 40
0
 40
1
 40
1
 40
1
 40
1
 10
9.507208
 20
287.529746
 30
0.0
 10
10.064130
 20
287.851285
 30
0.0
 10
10.407208
 20
288.445514
 30
0.0
 10
10.407208
 20
289.088592
 30
0.0
  0
LINE
  5
114
100
AcDbEntity
  8
0
 62
1
100
AcDbLine
 10
10.407208
 20
289.088592
 30
0.0
 11
10.407208
 21
289.088592
 31
0.0
  0
SPLINE
  5
115
100
AcDbEntity
  8
0
 62
1
100
AcDbSpline
 70
8
 71
3
 72
8
 73
4
 74
0
 40
0
 40
0
 40
0
 40
0
 40
1
 40
1
 40
1
 40
1
 10
76.583770
 20
289.088592
 30
0.0
 10
76.583770
 20
289.731670
 30
0.0
 10
76.240692
 20
290.325899
 30
0.0
 10
75.683770
 20
290.647438
 30
0.0
  0
SPLINE
  5
116
100
AcDbEntity
  8
0
 62
1
100
AcDbSpline
 70
8
 71
3
 72
8
 73
4
 74
0
 40
0
 40
0
 40
0
 40
0
 40
1
 40
1
 40
1
 40
1
 10
75.683770
 20
290.647438
 30
0.0
 10
75.126848
 20
290.968977
 30
0.0
 10
74.440692
 20
290.968977
 30
0.0
 10
73.883770
 20
290.647438
 30
0.0
  0
SPLINE
  5
117
100
AcDbEntity
  8
0
 62
1
100
AcDbSpline
 70
8
 71
3
 72
8
 73
4
 74
0
 40
0
 40
0
 40
0
 40
0
 40
1
 40
1
 40
1
 40
1
 10
73.883770
 20
290.647438
 30
0.0
 10
73.326848
 20
290.325899
 30
0.0
 10
72.983770
 20
289.731670
 30
0.0
 10
72.983770
 20
289.088592
 30
0.0
  0
SPLINE
  5
118
100
AcDbEntity
  8
0
 62
1
100
AcDbSpline
 70
8
 71
3
 72
8
 73
4
 74
0
 40
0
 40
0
 40
0
 40
0
 40
1
 40
1
 40
1
 40
1
 10
72.983770
 20
289.088592
 30
0.0
 10
72.983770
 20
288.445514
 30
0.0
 10
73.326848
 20
287.851285
 30
0.0
 10
73.883770
 20
287.529746
 30
0.0
  0
SPLINE
  5
119
100
AcDbEntity
  8
0
 62
1
100
AcDbSpline
 70
8
 71
3
 72
8
 73
4
 74
0
 40
0
 40
0
 40
0
 40
0
 40
1
 40
1
 40
1
 40
1
 10
73.883770
 20
287.529746
 30
0.0
 10
74.440692
 20
287.208207
 30
0.0
 10
75.126848
 20
287.208207
 30
0.0
 10
75.683770
 20
287.529746
 30
0.0
  0
SPLINE
  5
11a
100
AcDbEntity
  8
0
 62
1
100
AcDbSpline
 70
8
 71
3
 72
8
 73
4
 74
0
 40
0
 40
0
 40
0
 40
0
 40
1
 40
1
 40
1
 40
1
 10
75.683770
 20
287.529746
 30
0.0
 10
76.240692
 20
287.851285
 30
0.0
 10
76.583770
 20
288.445514
 30
0.0
 10
76.583770
 20
289.088592
 30
0.0
  0
LINE
  5
11b
100
AcDbEntity
  8
0
 62
1
100
AcDbLine
 10
76.583770
 20
289.088592
 30
0.0
 11
76.583770
 21
289.088592
 31
0.0
  0
SPLINE
  5
11c
100
AcDbEntity
  8
0
 62
5
100
AcDbSpline
 70
8
 71
3
 72
8
 73
4
 74
0
 40
0
 40
0
 40
0
 40
0
 40
1
 40
1
 40
1
 40
1
 10
23.478421
 20
290.227345
 30
0.0
 10
23.490301
 20
290.239569
 30
0.0
 10
23.502155
 20
290.251793
 30
0.0
 10
23.514881
 20
290.263104
 30
0.0
  0
SPLINE
  5
11d
100
AcDbEntity
  8
0
 62
5
100
AcDbSpline
 70
8
 71
3
 72
8
 73
4
 74
0
 40
0
 40
0
 40
0
 40
0
 40
1
 40
1
 40
1
 40
1
 10
23.514881
 20
290.263104
 30
0.0
 10
23.526232
 20
290.273211
 30
0.0
 10
23.538244
 20
290.282604
 30
0.0
 10
23.551338
 20
290.290446
 30
0.0
  0
SPLINE
  5
11e
100
AcDbEntity
  8
0
 62
5
100
AcDbSpline
 70
8
 71
3
 72
8
 73
4
 74
0
 40
0
 40
0
 40
0
 40
0
 40
1
 40
1
 40
1
 40
1
 10
23.551338
 20
290.290446
 30
0.0
 10
23.564673
 20
290.298463
 30
0.0
 10
23.579130
 20
290.304866
 30
0.0
 10
23.594108
 20
290.308676
 30
0.0
  0
SPLINE
  5
11f
100
AcDbEntity
  8
0
 62
5
100
AcDbSpline
 70
8
 71
3
 72
8
 73
4
 74
0
 40
0
 40
0
 40
0
 40
0
 40
1
 40
1
 40
1
 40
1
 10
23.594108
 20
290.308676
 30
0.0
 10
23.611623
 20
290.313147
 30
0.0
 10
23.629856
 20
290.314073
 30
0.0
 10
23.648093
 20
290.314999
 30
0.0
  0
SPLINE
  5
120
100
AcDbEntity
  8
0
 62
5
100
AcDbSpline
 70
8
 71
3
 72
8
 73
4
 74
0
 40
0
 40
0
 40
0
 40
0
 40
1
 40
1
 40
1
 40
1
 10
19.719007
 20
289.759697
 30
0.0
 10
19.705222
 20
289.760755
 30
0.0
 10
19.691443
 20
289.761549
 30
0.0
 10
19.678341
 20
289.765306
 30
0.0
  0
SPLINE
  5
121
100
AcDbEntity
  8
0
 62
5
100
AcDbSpline
 70
8
 71
3
 72
8
 73
4
 74
0
 40
0
 40
0
 40
0
 40
0
 40
1
 40
1
 40
1
 40
1
 10
19.678341
 20
289.765306
 30
0.0
 10
19.665641
 20
289.768931
 30
0.0
 10
19.653549
 20
289.775175
 30
0.0
 10
19.642585
 20
289.782822
 30
0.0
  0
SPLINE
  5
122
100
AcDbEntity
  8
0
 62
5
100
AcDbSpline
 70
8
 71
3
 72
8
 73
4
 74
0
 40
0
 40
0
 40
0
 40
0
 40
1
 40
1
 40
1
 40
1
 10
19.642585
 20
289.782822
 30
0.0
 10
19.631922
 20
289.790256
 30
0.0
 10
19.622265
 20
289.799014
 30
0.0
 10
19.613838
 20
289.808777
 30
0.0
  0
SPLINE
  5
123
100
AcDbEntity
  8
0
 62
5
100
AcDbSpline
 70
8
 71
3
 72
8
 73
4
 74
0
 40
0
 40
0
 40
0
 40
0
 40
1
 40
1
 40
1
 40
1
 10
19.613838
 20
289.808777
 30
0.0
 10
19.605318
 20
289.818620
 30
0.0
 10
19.598016
 20
289.829468
 30
0.0
 10
19.590713
 20
289.840326
 30
0.0
  0
SPLINE
  5
124
100
AcDbEntity
  8
0
 62
5
100
AcDbSpline
 70
8
 71
3
 72
8
 73
4
 74
0
 40
0
 40
0
 40
0
 40
0
 40
1
 40
1
 40
1
 40
1
 10
19.512878
 20
289.979148
 30
0.0
 10
19.546925
 20
290.009718
 30
0.0
 10
19.580974
 20
290.040288
 30
0.0
 10
19.616643
 20
290.068892
 30
0.0
  0
SPLINE
  5
125
100
AcDbEntity
  8
0
 62
5
100
AcDbSpline
 70
8
 71
3
 72
8
 73
4
 74
0
 40
0
 40
0
 40
0
 40
0
 40
1
 40
1
 40
1
 40
1
 10
19.616643
 20
290.068892
 30
0.0
 10
19.651247
 20
290.096644
 30
0.0
 10
19.687379
 20
290.122547
 30
0.0
 10
19.724616
 20
290.146716
 30
0.0
  0
SPLINE
  5
126
100
AcDbEntity
  8
0
 62
5
100
AcDbSpline
 70
8
 71
3
 72
8
 73
4
 74
0
 40
0
 40
0
 40
0
 40
0
 40
1
 40
1
 40
1
 40
1
 10
19.724616
 20
290.146716
 30
0.0
 10
19.760748
 20
290.170185
 30
0.0
 10
19.797922
 20
290.191994
 30
0.0
 10
19.836093
 20
290.211920
 30
0.0
  0
SPLINE
  5
127
100
AcDbEntity
  8
0
 62
5
100
AcDbSpline
 70
8
 71
3
 72
8
 73
4
 74
0
 40
0
 40
0
 40
0
 40
0
 40
1
 40
1
 40
1
 40
1
 10
19.836093
 20
290.211920
 30
0.0
 10
19.873741
 20
290.231579
 30
0.0
 10
19.912359
 20
290.249380
 30
0.0
 10
19.951780
 20
290.265207
 30
0.0
  0
SPLINE
  5
128
100
AcDbEntity
  8
0
 62
5
100
AcDbSpline
 70
8
 71
3
 72
8
 73
4
 74
0
 40
0
 40
0
 40
0
 40
0
 40
1
 40
1
 40
1
 40
1
 10
19.951780
 20
290.265207
 30
0.0
 10
19.991237
 20
290.281056
 30
0.0
 10
20.031501
 20
290.294909
 30
0.0
 10
20.072371
 20
290.306572
 30
0.0
  0
SPLINE
  5
129
100
AcDbEntity
  8
0
 62
5
100
AcDbSpline
 70
8
 71
3
 72
8
 73
4
 74
0
 40
0
 40
0
 40
0
 40
0
 40
1
 40
1
 40
1
 40
1
 10
20.072371
 20
290.306572
 30
0.0
 10
20.114136
 20
290.318478
 30
0.0
 10
20.156538
 20
290.328109
 30
0.0
 10
20.199276
 20
290.336020
 30
0.0
  0
SPLINE
  5
12a
100
AcDbEntity
  8
0
 62
5
100
AcDbSpline
 70
8
 71
3
 72
8
 73
4
 74
0
 40
0
 40
0
 40
0
 40
0
 40
1
 40
1
 40
1
 40
1
 10
20.199276
 20
290.336020
 30
0.0
 10
20.243610
 20
290.344222
 30
0.0
 10
20.288306
 20
290.350572
 30
0.0
 10
20.333190
 20
290.354250
 30
0.0
  0
SPLINE
  5
12b
100
AcDbEntity
  8
0
 62
5
100
AcDbSpline
 70
8
 71
3
 72
8
 73
4
 74
0
 40
0
 40
0
 40
0
 40
0
 40
1
 40
1
 40
1
 40
1
 10
20.333190
 20
290.354250
 30
0.0
 10
20.379563
 20
290.358034
 30
0.0
 10
20.426138
 20
290.358933
 30
0.0
 10
20.472712
 20
290.359859
 30
0.0
  0
SPLINE
  5
12c
100
AcDbEntity
  8
0
 62
5
100
AcDbSpline
 70
8
 71
3
 72
8
 73
4
 74
0
 40
0
 40
0
 40
0
 40
0
 40
1
 40
1
 40
1
 40
1
 10
27.007868
 20
289.403528
 30
0.0
 10
27.022076
 20
289.394215
 30
0.0
 10
27.036305
 20
289.384901
 30
0.0
 10
27.049936
 20
289.374781
 30
0.0
  0
SPLINE
  5
12d
100
AcDbEntity
  8
0
 62
5
100
AcDbSpline
 70
8
 71
3
 72
8
 73
4
 74
0
 40
0
 40
0
 40
0
 40
0
 40
1
 40
1
 40
1
 40
1
 10
27.049936
 20
289.374781
 30
0.0
 10
27.063906
 20
289.364383
 30
0.0
 10
27.077270
 20
289.353138
 30
0.0
 10
27.089899
 20
289.341129
 30
0.0
  0
SPLINE
  5
12e
100
AcDbEntity
  8
0
 62
5
100
AcDbSpline
 70
8
 71
3
 72
8
 73
4
 74
0
 40
0
 40
0
 40
0
 40
0
 40
1
 40
1
 40
1
 40
1
 10
27.089899
 20
289.341129
 30
0.0
 10
27.103340
 20
289.328349
 30
0.0
 10
27.115934
 20
289.314723
 30
0.0
 10
27.127761
 20
289.300462
 30
0.0
  0
SPLINE
  5
12f
100
AcDbEntity
  8
0
 62
5
100
AcDbSpline
 70
8
 71
3
 72
8
 73
4
 74
0
 40
0
 40
0
 40
0
 40
0
 40
1
 40
1
 40
1
 40
1
 10
27.127761
 20
289.300462
 30
0.0
 10
27.140011
 20
289.285725
 30
0.0
 10
27.151415
 20
289.270302
 30
0.0
 10
27.162816
 20
289.254890
 30
0.0
  0
SPLINE
  5
130
100
AcDbEntity
  8
0
 62
5
100
AcDbSpline
 70
8
 71
3
 72
8
 73
4
 74
0
 40
0
 40
0
 40
0
 40
0
 40
1
 40
1
 40
1
 40
1
 10
19.394387
 20
288.466829
 30
0.0
 10
19.395181
 20
288.491462
 30
0.0
 10
19.396239
 20
288.516084
 30
0.0
 10
19.399308
 20
288.540447
 30
0.0
  0
SPLINE
  5
131
100
AcDbEntity
  8
0
 62
5
100
AcDbSpline
 70
8
 71
3
 72
8
 73
4
 74
0
 40
0
 40
0
 40
0
 40
0
 40
1
 40
1
 40
1
 40
1
 10
19.399308
 20
288.540447
 30
0.0
 10
19.402483
 20
288.564841
 30
0.0
 10
19.407960
 20
288.588953
 30
0.0
 10
19.414734
 20
288.612662
 30
0.0
  0
SPLINE
  5
132
100
AcDbEntity
  8
0
 62
5
100
AcDbSpline
 70
8
 71
3
 72
8
 73
4
 74
0
 40
0
 40
0
 40
0
 40
0
 40
1
 40
1
 40
1
 40
1
 10
19.414734
 20
288.612662
 30
0.0
 10
19.421533
 20
288.636501
 30
0.0
 10
19.429656
 20
288.659951
 30
0.0
 10
19.439261
 20
288.682774
 30
0.0
  0
SPLINE
  5
133
100
AcDbEntity
  8
0
 62
5
100
AcDbSpline
 70
8
 71
3
 72
8
 73
4
 74
0
 40
0
 40
0
 40
0
 40
0
 40
1
 40
1
 40
1
 40
1
 10
19.439261
 20
288.682774
 30
0.0
 10
19.449341
 20
288.706666
 30
0.0
 10
19.461062
 20
288.729891
 30
0.0
 10
19.474318
 20
288.752185
 30
0.0
  0
SPLINE
  5
134
100
AcDbEntity
  8
0
 62
5
100
AcDbSpline
 70
8
 71
3
 72
8
 73
4
 74
0
 40
0
 40
0
 40
0
 40
0
 40
1
 40
1
 40
1
 40
1
 10
19.474318
 20
288.752185
 30
0.0
 10
19.488156
 20
288.775442
 30
0.0
 10
19.503668
 20
288.797683
 30
0.0
 10
19.520591
 20
288.818794
 30
0.0
  0
SPLINE
  5
135
100
AcDbEntity
  8
0
 62
5
100
AcDbSpline
 70
8
 71
3
 72
8
 73
4
 74
0
 40
0
 40
0
 40
0
 40
0
 40
1
 40
1
 40
1
 40
1
 10
19.520591
 20
288.818794
 30
0.0
 10
19.538503
 20
288.841124
 30
0.0
 10
19.558000
 20
288.862204
 30
0.0
 10
19.578786
 20
288.881894
 30
0.0
  0
SPLINE
  5
136
100
AcDbEntity
  8
0
 62
5
100
AcDbSpline
 70
8
 71
3
 72
8
 73
4
 74
0
 40
0
 40
0
 40
0
 40
0
 40
1
 40
1
 40
1
 40
1
 10
19.578786
 20
288.881894
 30
0.0
 10
19.601090
 20
288.903008
 30
0.0
 10
19.624879
 20
288.922553
 30
0.0
 10
19.649599
 20
288.940788
 30
0.0
  0
SPLINE
  5
137
100
AcDbEntity
  8
0
 62
5
100
AcDbSpline
 70
8
 71
3
 72
8
 73
4
 74
0
 40
0
 40
0
 40
0
 40
0
 40
1
 40
1
 40
1
 40
1
 10
19.649599
 20
288.940788
 30
0.0
 10
19.676216
 20
288.960420
 30
0.0
 10
19.703913
 20
288.978552
 30
0.0
 10
19.732332
 20
288.995474
 30
0.0
  0
SPLINE
  5
138
100
AcDbEntity
  8
0
 62
5
100
AcDbSpline
 70
8
 71
3
 72
8
 73
4
 74
0
 40
0
 40
0
 40
0
 40
0
 40
1
 40
1
 40
1
 40
1
 10
19.732332
 20
288.995474
 30
0.0
 10
19.763518
 20
289.014048
 30
0.0
 10
19.795572
 20
289.031167
 30
0.0
 10
19.828383
 20
289.046658
 30
0.0
  0
SPLINE
  5
139
100
AcDbEntity
  8
0
 62
5
100
AcDbSpline
 70
8
 71
3
 72
8
 73
4
 74
0
 40
0
 40
0
 40
0
 40
0
 40
1
 40
1
 40
1
 40
1
 10
19.828383
 20
289.046658
 30
0.0
 10
19.864107
 20
289.063512
 30
0.0
 10
19.900726
 20
289.078456
 30
0.0
 10
19.937759
 20
289.092230
 30
0.0
  0
SPLINE
  5
13a
100
AcDbEntity
  8
0
 62
5
100
AcDbSpline
 70
8
 71
3
 72
8
 73
4
 74
0
 40
0
 40
0
 40
0
 40
0
 40
1
 40
1
 40
1
 40
1
 10
19.937759
 20
289.092230
 30
0.0
 10
19.978436
 20
289.107364
 30
0.0
 10
20.019608
 20
289.121093
 30
0.0
 10
20.061156
 20
289.133595
 30
0.0
  0
SPLINE
  5
13b
100
AcDbEntity
  8
0
 62
5
100
AcDbSpline
 70
8
 71
3
 72
8
 73
4
 74
0
 40
0
 40
0
 40
0
 40
0
 40
1
 40
1
 40
1
 40
1
 10
20.061156
 20
289.133595
 30
0.0
 10
20.106545
 20
289.147247
 30
0.0
 10
20.152381
 20
289.159445
 30
0.0
 10
20.198578
 20
289.170054
 30
0.0
  0
SPLINE
  5
13c
100
AcDbEntity
  8
0
 62
5
100
AcDbSpline
 70
8
 71
3
 72
8
 73
4
 74
0
 40
0
 40
0
 40
0
 40
0
 40
1
 40
1
 40
1
 40
1
 10
20.198578
 20
289.170054
 30
0.0
 10
20.248928
 20
289.181617
 30
0.0
 10
20.299707
 20
289.191327
 30
0.0
 10
20.350721
 20
289.199503
 30
0.0
  0
SPLINE
  5
13d
100
AcDbEntity
  8
0
 62
5
100
AcDbSpline
 70
8
 71
3
 72
8
 73
4
 74
0
 40
0
 40
0
 40
0
 40
0
 40
1
 40
1
 40
1
 40
1
 10
20.350721
 20
289.199503
 30
0.0
 10
20.406802
 20
289.208498
 30
0.0
 10
20.463166
 20
289.215669
 30
0.0
 10
20.519689
 20
289.221225
 30
0.0
  0
SPLINE
  5
13e
100
AcDbEntity
  8
0
 62
5
100
AcDbSpline
 70
8
 71
3
 72
8
 73
4
 74
0
 40
0
 40
0
 40
0
 40
0
 40
1
 40
1
 40
1
 40
1
 10
20.519689
 20
289.221225
 30
0.0
 10
20.580782
 20
289.227231
 30
0.0
 10
20.642059
 20
289.231358
 30
0.0
 10
20.703384
 20
289.233845
 30
0.0
  0
SPLINE
  5
13f
100
AcDbEntity
  8
0
 62
5
100
AcDbSpline
 70
8
 71
3
 72
8
 73
4
 74
0
 40
0
 40
0
 40
0
 40
0
 40
1
 40
1
 40
1
 40
1
 10
20.703384
 20
289.233845
 30
0.0
 10
20.770186
 20
289.236544
 30
0.0
 10
20.837046
 20
289.237312
 30
0.0
 10
20.903907
 20
289.238052
 30
0.0
  0
SPLINE
  5
140
100
AcDbEntity
  8
0
 62
5
100
AcDbSpline
 70
8
 71
3
 72
8
 73
4
 74
0
 40
0
 40
0
 40
0
 40
0
 40
1
 40
1
 40
1
 40
1
 10
20.935453
 20
288.182174
 30
0.0
 10
20.903907
 20
288.153623
 30
0.0
 10
20.872360
 20
288.125069
 30
0.0
 10
20.840100
 20
288.097338
 30
0.0
  0
SPLINE
  5
141
100
AcDbEntity
  8
0
 62
5
100
AcDbSpline
 70
8
 71
3
 72
8
 73
4
 74
0
 40
0
 40
0
 40
0
 40
0
 40
1
 40
1
 40
1
 40
1
 10
20.840100
 20
288.097338
 30
0.0
 10
20.809490
 20
288.071012
 30
0.0
 10
20.778235
 20
288.045443
 30
0.0
 10
20.746151
 20
288.020916
 30
0.0
  0
SPLINE
  5
142
100
AcDbEntity
  8
0
 62
5
100
AcDbSpline
 70
8
 71
3
 72
8
 73
4
 74
0
 40
0
 40
0
 40
0
 40
0
 40
1
 40
1
 40
1
 40
1
 10
20.746151
 20
288.020916
 30
0.0
 10
20.715745
 20
287.997659
 30
0.0
 10
20.684593
 20
287.975371
 30
0.0
 10
20.652201
 20
287.955011
 30
0.0
  0
SPLINE
  5
143
100
AcDbEntity
  8
0
 62
5
100
AcDbSpline
 70
8
 71
3
 72
8
 73
4
 74
0
 40
0
 40
0
 40
0
 40
0
 40
1
 40
1
 40
1
 40
1
 10
20.652201
 20
287.955011
 30
0.0
 10
20.620136
 20
287.934850
 30
0.0
 10
20.586854
 20
287.916604
 30
0.0
 10
20.552640
 20
287.900322
 30
0.0
  0
SPLINE
  5
144
100
AcDbEntity
  8
0
 62
5
100
AcDbSpline
 70
8
 71
3
 72
8
 73
4
 74
0
 40
0
 40
0
 40
0
 40
0
 40
1
 40
1
 40
1
 40
1
 10
20.552640
 20
287.900322
 30
0.0
 10
20.518443
 20
287.884050
 30
0.0
 10
20.483317
 20
287.869749
 30
0.0
 10
20.447471
 20
287.857554
 30
0.0
  0
SPLINE
  5
145
100
AcDbEntity
  8
0
 62
5
100
AcDbSpline
 70
8
 71
3
 72
8
 73
4
 74
0
 40
0
 40
0
 40
0
 40
0
 40
1
 40
1
 40
1
 40
1
 10
20.447471
 20
287.857554
 30
0.0
 10
20.410739
 20
287.845066
 30
0.0
 10
20.373256
 20
287.834774
 30
0.0
 10
20.335293
 20
287.826704
 30
0.0
  0
SPLINE
  5
146
100
AcDbEntity
  8
0
 62
5
100
AcDbSpline
 70
8
 71
3
 72
8
 73
4
 74
0
 40
0
 40
0
 40
0
 40
0
 40
1
 40
1
 40
1
 40
1
 10
20.335293
 20
287.826704
 30
0.0
 10
20.295270
 20
287.818184
 30
0.0
 10
20.254717
 20
287.812152
 30
0.0
 10
20.213998
 20
287.808474
 30
0.0
  0
SPLINE
  5
147
100
AcDbEntity
  8
0
 62
5
100
AcDbSpline
 70
8
 71
3
 72
8
 73
4
 74
0
 40
0
 40
0
 40
0
 40
0
 40
1
 40
1
 40
1
 40
1
 10
20.213998
 20
287.808474
 30
0.0
 10
20.169492
 20
287.804479
 30
0.0
 10
20.124788
 20
287.803315
 30
0.0
 10
20.080084
 20
287.802177
 30
0.0
  0
SPLINE
  5
148
100
AcDbEntity
  8
0
 62
5
100
AcDbSpline
 70
8
 71
3
 72
8
 73
4
 74
0
 40
0
 40
0
 40
0
 40
0
 40
1
 40
1
 40
1
 40
1
 10
27.758771
 20
287.869474
 30
0.0
 10
27.738716
 20
287.870532
 30
0.0
 10
27.718679
 20
287.871591
 30
0.0
 10
27.699174
 20
287.875797
 30
0.0
  0
SPLINE
  5
149
100
AcDbEntity
  8
0
 62
5
100
AcDbSpline
 70
8
 71
3
 72
8
 73
4
 74
0
 40
0
 40
0
 40
0
 40
0
 40
1
 40
1
 40
1
 40
1
 10
27.699174
 20
287.875797
 30
0.0
 10
27.681208
 20
287.879634
 30
0.0
 10
27.663688
 20
287.886063
 30
0.0
 10
27.647291
 20
287.894715
 30
0.0
  0
SPLINE
  5
14a
100
AcDbEntity
  8
0
 62
5
100
AcDbSpline
 70
8
 71
3
 72
8
 73
4
 74
0
 40
0
 40
0
 40
0
 40
0
 40
1
 40
1
 40
1
 40
1
 10
27.647291
 20
287.894715
 30
0.0
 10
27.631628
 20
287.902970
 30
0.0
 10
27.616997
 20
287.913262
 30
0.0
 10
27.604524
 20
287.925566
 30
0.0
  0
SPLINE
  5
14b
100
AcDbEntity
  8
0
 62
5
100
AcDbSpline
 70
8
 71
3
 72
8
 73
4
 74
0
 40
0
 40
0
 40
0
 40
0
 40
1
 40
1
 40
1
 40
1
 10
27.604524
 20
287.925566
 30
0.0
 10
27.591189
 20
287.938742
 30
0.0
 10
27.580315
 20
287.954236
 30
0.0
 10
27.569467
 20
287.969738
 30
0.0
  0
SPLINE
  5
14c
100
AcDbEntity
  8
0
 62
5
100
AcDbSpline
 70
8
 71
3
 72
8
 73
4
 74
0
 40
0
 40
0
 40
0
 40
0
 40
1
 40
1
 40
1
 40
1
 10
16.303141
 20
291.347038
 30
0.0
 10
16.354581
 20
291.346244
 30
0.0
 10
16.406024
 20
291.345451
 30
0.0
 10
16.457388
 20
291.342831
 30
0.0
  0
SPLINE
  5
14d
100
AcDbEntity
  8
0
 62
5
100
AcDbSpline
 70
8
 71
3
 72
8
 73
4
 74
0
 40
0
 40
0
 40
0
 40
0
 40
1
 40
1
 40
1
 40
1
 10
16.457388
 20
291.342831
 30
0.0
 10
16.505397
 20
291.340450
 30
0.0
 10
16.553339
 20
291.336402
 30
0.0
 10
16.601117
 20
291.330899
 30
0.0
  0
SPLINE
  5
14e
100
AcDbEntity
  8
0
 62
5
100
AcDbSpline
 70
8
 71
3
 72
8
 73
4
 74
0
 40
0
 40
0
 40
0
 40
0
 40
1
 40
1
 40
1
 40
1
 10
16.601117
 20
291.330899
 30
0.0
 10
16.645266
 20
291.325845
 30
0.0
 10
16.689277
 20
291.319522
 30
0.0
 10
16.732930
 20
291.311267
 30
0.0
  0
SPLINE
  5
14f
100
AcDbEntity
  8
0
 62
5
100
AcDbSpline
 70
8
 71
3
 72
8
 73
4
 74
0
 40
0
 40
0
 40
0
 40
0
 40
1
 40
1
 40
1
 40
1
 10
16.732930
 20
291.311267
 30
0.0
 10
16.773708
 20
291.303567
 30
0.0
 10
16.814176
 20
291.294174
 30
0.0
 10
16.854223
 20
291.283223
 30
0.0
  0
SPLINE
  5
150
100
AcDbEntity
  8
0
 62
5
100
AcDbSpline
 70
8
 71
3
 72
8
 73
4
 74
0
 40
0
 40
0
 40
0
 40
0
 40
1
 40
1
 40
1
 40
1
 10
16.854223
 20
291.283223
 30
0.0
 10
16.891598
 20
291.273010
 30
0.0
 10
16.928608
 20
291.261448
 30
0.0
 10
16.965002
 20
291.248166
 30
0.0
  0
SPLINE
  5
151
100
AcDbEntity
  8
0
 62
5
100
AcDbSpline
 70
8
 71
3
 72
8
 73
4
 74
0
 40
0
 40
0
 40
0
 40
0
 40
1
 40
1
 40
1
 40
1
 10
16.965002
 20
291.248166
 30
0.0
 10
16.999056
 20
291.235731
 30
0.0
 10
17.032571
 20
291.221787
 30
0.0
 10
17.065260
 20
291.206100
 30
0.0
  0
SPLINE
  5
152
100
AcDbEntity
  8
0
 62
5
100
AcDbSpline
 70
8
 71
3
 72
8
 73
4
 74
0
 40
0
 40
0
 40
0
 40
0
 40
1
 40
1
 40
1
 40
1
 10
17.065260
 20
291.206100
 30
0.0
 10
17.096015
 20
291.191336
 30
0.0
 10
17.126038
 20
291.175022
 30
0.0
 10
17.155004
 20
291.157020
 30
0.0
  0
SPLINE
  5
153
100
AcDbEntity
  8
0
 62
5
100
AcDbSpline
 70
8
 71
3
 72
8
 73
4
 74
0
 40
0
 40
0
 40
0
 40
0
 40
1
 40
1
 40
1
 40
1
 10
17.155004
 20
291.157020
 30
0.0
 10
17.182381
 20
291.140007
 30
0.0
 10
17.208812
 20
291.121486
 30
0.0
 10
17.234231
 20
291.101632
 30
0.0
  0
SPLINE
  5
154
100
AcDbEntity
  8
0
 62
5
100
AcDbSpline
 70
8
 71
3
 72
8
 73
4
 74
0
 40
0
 40
0
 40
0
 40
0
 40
1
 40
1
 40
1
 40
1
 10
17.234231
 20
291.101632
 30
0.0
 10
17.258784
 20
291.082450
 30
0.0
 10
17.282401
 20
291.062021
 30
0.0
 10
17.304343
 20
291.039934
 30
0.0
  0
SPLINE
  5
155
100
AcDbEntity
  8
0
 62
5
100
AcDbSpline
 70
8
 71
3
 72
8
 73
4
 74
0
 40
0
 40
0
 40
0
 40
0
 40
1
 40
1
 40
1
 40
1
 10
17.304343
 20
291.039934
 30
0.0
 10
17.325721
 20
291.018423
 30
0.0
 10
17.345499
 20
290.995335
 30
0.0
 10
17.363938
 20
290.971224
 30
0.0
  0
SPLINE
  5
156
100
AcDbEntity
  8
0
 62
5
100
AcDbSpline
 70
8
 71
3
 72
8
 73
4
 74
0
 40
0
 40
0
 40
0
 40
0
 40
1
 40
1
 40
1
 40
1
 10
17.363938
 20
290.971224
 30
0.0
 10
17.382273
 20
290.947253
 30
0.0
 10
17.399275
 20
290.922271
 30
0.0
 10
17.414420
 20
290.896204
 30
0.0
  0
SPLINE
  5
157
100
AcDbEntity
  8
0
 62
5
100
AcDbSpline
 70
8
 71
3
 72
8
 73
4
 74
0
 40
0
 40
0
 40
0
 40
0
 40
1
 40
1
 40
1
 40
1
 10
17.414420
 20
290.896204
 30
0.0
 10
17.429766
 20
290.869799
 30
0.0
 10
17.443183
 20
290.842303
 30
0.0
 10
17.455084
 20
290.814173
 30
0.0
  0
SPLINE
  5
158
100
AcDbEntity
  8
0
 62
5
100
AcDbSpline
 70
8
 71
3
 72
8
 73
4
 74
0
 40
0
 40
0
 40
0
 40
0
 40
1
 40
1
 40
1
 40
1
 10
17.455084
 20
290.814173
 30
0.0
 10
17.467202
 20
290.785550
 30
0.0
 10
17.477732
 20
290.756282
 30
0.0
 10
17.486636
 20
290.726532
 30
0.0
  0
SPLINE
  5
159
100
AcDbEntity
  8
0
 62
5
100
AcDbSpline
 70
8
 71
3
 72
8
 73
4
 74
0
 40
0
 40
0
 40
0
 40
0
 40
1
 40
1
 40
1
 40
1
 10
17.486636
 20
290.726532
 30
0.0
 10
17.495737
 20
290.696116
 30
0.0
 10
17.503172
 20
290.665196
 30
0.0
 10
17.509072
 20
290.633983
 30
0.0
  0
SPLINE
  5
15a
100
AcDbEntity
  8
0
 62
5
100
AcDbSpline
 70
8
 71
3
 72
8
 73
4
 74
0
 40
0
 40
0
 40
0
 40
0
 40
1
 40
1
 40
1
 40
1
 10
17.509072
 20
290.633983
 30
0.0
 10
17.515263
 20
290.601286
 30
0.0
 10
17.519761
 20
290.568266
 30
0.0
 10
17.522381
 20
290.535125
 30
0.0
  0
SPLINE
  5
15b
100
AcDbEntity
  8
0
 62
5
100
AcDbSpline
 70
8
 71
3
 72
8
 73
4
 74
0
 40
0
 40
0
 40
0
 40
0
 40
1
 40
1
 40
1
 40
1
 10
17.522381
 20
290.535125
 30
0.0
 10
17.525132
 20
290.500623
 30
0.0
 10
17.525847
 20
290.465992
 30
0.0
 10
17.526588
 20
290.431360
 30
0.0
  0
SPLINE
  5
15c
100
AcDbEntity
  8
0
 62
5
100
AcDbSpline
 70
8
 71
3
 72
8
 73
4
 74
0
 40
0
 40
0
 40
0
 40
0
 40
1
 40
1
 40
1
 40
1
 10
23.136977
 20
289.345336
 30
0.0
 10
23.125944
 20
289.332080
 30
0.0
 10
23.114910
 20
289.318840
 30
0.0
 10
23.103322
 20
289.306071
 30
0.0
  0
SPLINE
  5
15d
100
AcDbEntity
  8
0
 62
5
100
AcDbSpline
 70
8
 71
3
 72
8
 73
4
 74
0
 40
0
 40
0
 40
0
 40
0
 40
1
 40
1
 40
1
 40
1
 10
23.103322
 20
289.306071
 30
0.0
 10
23.092553
 20
289.294192
 30
0.0
 10
23.081335
 20
289.282735
 30
0.0
 10
23.069667
 20
289.271718
 30
0.0
  0
SPLINE
  5
15e
100
AcDbEntity
  8
0
 62
5
100
AcDbSpline
 70
8
 71
3
 72
8
 73
4
 74
0
 40
0
 40
0
 40
0
 40
0
 40
1
 40
1
 40
1
 40
1
 10
23.069667
 20
289.271718
 30
0.0
 10
23.058686
 20
289.261346
 30
0.0
 10
23.047336
 20
289.251371
 30
0.0
 10
23.035313
 20
289.242270
 30
0.0
  0
SPLINE
  5
15f
100
AcDbEntity
  8
0
 62
5
100
AcDbSpline
 70
8
 71
3
 72
8
 73
4
 74
0
 40
0
 40
0
 40
0
 40
0
 40
1
 40
1
 40
1
 40
1
 10
23.035313
 20
289.242270
 30
0.0
 10
23.022719
 20
289.232745
 30
0.0
 10
23.009384
 20
289.224172
 30
0.0
 10
22.996049
 20
289.215626
 30
0.0
  0
SPLINE
  5
160
100
AcDbEntity
  8
0
 62
5
100
AcDbSpline
 70
8
 71
3
 72
8
 73
4
 74
0
 40
0
 40
0
 40
0
 40
0
 40
1
 40
1
 40
1
 40
1
 10
27.863236
 20
290.386500
 30
0.0
 10
27.862707
 20
290.356314
 30
0.0
 10
27.862178
 20
290.326128
 30
0.0
 10
27.859744
 20
290.296055
 30
0.0
  0
SPLINE
  5
161
100
AcDbEntity
  8
0
 62
5
100
AcDbSpline
 70
8
 71
3
 72
8
 73
4
 74
0
 40
0
 40
0
 40
0
 40
0
 40
1
 40
1
 40
1
 40
1
 10
27.859744
 20
290.296055
 30
0.0
 10
27.857363
 20
290.266702
 30
0.0
 10
27.853553
 20
290.237458
 30
0.0
 10
27.848526
 20
290.208414
 30
0.0
  0
SPLINE
  5
162
100
AcDbEntity
  8
0
 62
5
100
AcDbSpline
 70
8
 71
3
 72
8
 73
4
 74
0
 40
0
 40
0
 40
0
 40
0
 40
1
 40
1
 40
1
 40
1
 10
27.848526
 20
290.208414
 30
0.0
 10
27.843604
 20
290.179895
 30
0.0
 10
27.837598
 20
290.151571
 30
0.0
 10
27.830296
 20
290.123581
 30
0.0
  0
SPLINE
  5
163
100
AcDbEntity
  8
0
 62
5
100
AcDbSpline
 70
8
 71
3
 72
8
 73
4
 74
0
 40
0
 40
0
 40
0
 40
0
 40
1
 40
1
 40
1
 40
1
 10
27.830296
 20
290.123581
 30
0.0
 10
27.823126
 20
290.096109
 30
0.0
 10
27.814685
 20
290.068963
 30
0.0
 10
27.805055
 20
290.042251
 30
0.0
  0
SPLINE
  5
164
100
AcDbEntity
  8
0
 62
5
100
AcDbSpline
 70
8
 71
3
 72
8
 73
4
 74
0
 40
0
 40
0
 40
0
 40
0
 40
1
 40
1
 40
1
 40
1
 10
27.805055
 20
290.042251
 30
0.0
 10
27.795530
 20
290.015819
 30
0.0
 10
27.784814
 20
289.989824
 30
0.0
 10
27.772802
 20
289.964426
 30
0.0
  0
SPLINE
  5
165
100
AcDbEntity
  8
0
 62
5
100
AcDbSpline
 70
8
 71
3
 72
8
 73
4
 74
0
 40
0
 40
0
 40
0
 40
0
 40
1
 40
1
 40
1
 40
1
 10
27.772802
 20
289.964426
 30
0.0
 10
27.760922
 20
289.939264
 30
0.0
 10
27.747772
 20
289.914708
 30
0.0
 10
27.733540
 20
289.890809
 30
0.0
  0
SPLINE
  5
166
100
AcDbEntity
  8
0
 62
5
100
AcDbSpline
 70
8
 71
3
 72
8
 73
4
 74
0
 40
0
 40
0
 40
0
 40
0
 40
1
 40
1
 40
1
 40
1
 10
27.733540
 20
289.890809
 30
0.0
 10
27.719385
 20
289.867023
 30
0.0
 10
27.704119
 20
289.843890
 30
0.0
 10
27.687969
 20
289.821398
 30
0.0
  0
SPLINE
  5
167
100
AcDbEntity
  8
0
 62
5
100
AcDbSpline
 70
8
 71
3
 72
8
 73
4
 74
0
 40
0
 40
0
 40
0
 40
0
 40
1
 40
1
 40
1
 40
1
 10
27.687969
 20
289.821398
 30
0.0
 10
27.671644
 20
289.798670
 30
0.0
 10
27.654419
 20
289.776601
 30
0.0
 10
27.636084
 20
289.755490
 30
0.0
  0
SPLINE
  5
168
100
AcDbEntity
  8
0
 62
5
100
AcDbSpline
 70
8
 71
3
 72
8
 73
4
 74
0
 40
0
 40
0
 40
0
 40
0
 40
1
 40
1
 40
1
 40
1
 10
27.636084
 20
289.755490
 30
0.0
 10
27.617669
 20
289.734270
 30
0.0
 10
27.598113
 20
289.714032
 30
0.0
 10
27.577891
 20
289.694493
 30
0.0
  0
SPLINE
  5
169
100
AcDbEntity
  8
0
 62
5
100
AcDbSpline
 70
8
 71
3
 72
8
 73
4
 74
0
 40
0
 40
0
 40
0
 40
0
 40
1
 40
1
 40
1
 40
1
 10
27.577891
 20
289.694493
 30
0.0
 10
27.557413
 20
289.674702
 30
0.0
 10
27.536217
 20
289.655620
 30
0.0
 10
27.514090
 20
289.637703
 30
0.0
  0
SPLINE
  5
16a
100
AcDbEntity
  8
0
 62
5
100
AcDbSpline
 70
8
 71
3
 72
8
 73
4
 74
0
 40
0
 40
0
 40
0
 40
0
 40
1
 40
1
 40
1
 40
1
 10
27.514090
 20
289.637703
 30
0.0
 10
27.491335
 20
289.619288
 30
0.0
 10
27.467613
 20
289.602095
 30
0.0
 10
27.443277
 20
289.585821
 30
0.0
  0
SPLINE
  5
16b
100
AcDbEntity
  8
0
 62
5
100
AcDbSpline
 70
8
 71
3
 72
8
 73
4
 74
0
 40
0
 40
0
 40
0
 40
0
 40
1
 40
1
 40
1
 40
1
 10
27.443277
 20
289.585821
 30
0.0
 10
27.418406
 20
289.569178
 30
0.0
 10
27.392913
 20
289.553518
 30
0.0
 10
27.366854
 20
289.538844
 30
0.0
  0
SPLINE
  5
16c
100
AcDbEntity
  8
0
 62
5
100
AcDbSpline
 70
8
 71
3
 72
8
 73
4
 74
0
 40
0
 40
0
 40
0
 40
0
 40
1
 40
1
 40
1
 40
1
 10
27.366854
 20
289.538844
 30
0.0
 10
27.340073
 20
289.523763
 30
0.0
 10
27.312691
 20
289.509740
 30
0.0
 10
27.284823
 20
289.496778
 30
0.0
  0
SPLINE
  5
16d
100
AcDbEntity
  8
0
 62
5
100
AcDbSpline
 70
8
 71
3
 72
8
 73
4
 74
0
 40
0
 40
0
 40
0
 40
0
 40
1
 40
1
 40
1
 40
1
 10
27.284823
 20
289.496778
 30
0.0
 10
27.256322
 20
289.483522
 30
0.0
 10
27.227310
 20
289.471378
 30
0.0
 10
27.197883
 20
289.460318
 30
0.0
  0
SPLINE
  5
16e
100
AcDbEntity
  8
0
 62
5
100
AcDbSpline
 70
8
 71
3
 72
8
 73
4
 74
0
 40
0
 40
0
 40
0
 40
0
 40
1
 40
1
 40
1
 40
1
 10
27.197883
 20
289.460318
 30
0.0
 10
27.167433
 20
289.448888
 30
0.0
 10
27.136542
 20
289.438622
 30
0.0
 10
27.105335
 20
289.429470
 30
0.0
  0
SPLINE
  5
16f
100
AcDbEntity
  8
0
 62
5
100
AcDbSpline
 70
8
 71
3
 72
8
 73
4
 74
0
 40
0
 40
0
 40
0
 40
0
 40
1
 40
1
 40
1
 40
1
 10
27.105335
 20
289.429470
 30
0.0
 10
27.073074
 20
289.420025
 30
0.0
 10
27.040478
 20
289.411770
 30
0.0
 10
27.007878
 20
289.403541
 30
0.0
  0
SPLINE
  5
170
100
AcDbEntity
  8
0
 62
5
100
AcDbSpline
 70
8
 71
3
 72
8
 73
4
 74
0
 40
0
 40
0
 40
0
 40
0
 40
1
 40
1
 40
1
 40
1
 10
20.080084
 20
287.802167
 30
0.0
 10
20.056695
 20
287.802696
 30
0.0
 10
20.033300
 20
287.803225
 30
0.0
 10
20.009972
 20
287.804971
 30
0.0
  0
SPLINE
  5
171
100
AcDbEntity
  8
0
 62
5
100
AcDbSpline
 70
8
 71
3
 72
8
 73
4
 74
0
 40
0
 40
0
 40
0
 40
0
 40
1
 40
1
 40
1
 40
1
 10
20.009972
 20
287.804971
 30
0.0
 10
19.987218
 20
287.806559
 30
0.0
 10
19.964522
 20
287.809204
 30
0.0
 10
19.941964
 20
287.812671
 30
0.0
  0
SPLINE
  5
172
100
AcDbEntity
  8
0
 62
5
100
AcDbSpline
 70
8
 71
3
 72
8
 73
4
 74
0
 40
0
 40
0
 40
0
 40
0
 40
1
 40
1
 40
1
 40
1
 10
19.941964
 20
287.812671
 30
0.0
 10
19.919844
 20
287.816084
 30
0.0
 10
19.897865
 20
287.820264
 30
0.0
 10
19.876059
 20
287.825291
 30
0.0
  0
SPLINE
  5
173
100
AcDbEntity
  8
0
 62
5
100
AcDbSpline
 70
8
 71
3
 72
8
 73
4
 74
0
 40
0
 40
0
 40
0
 40
0
 40
1
 40
1
 40
1
 40
1
 10
19.876059
 20
287.825291
 30
0.0
 10
19.854548
 20
287.830239
 30
0.0
 10
19.833228
 20
287.835980
 30
0.0
 10
19.812257
 20
287.842833
 30
0.0
  0
SPLINE
  5
174
100
AcDbEntity
  8
0
 62
5
100
AcDbSpline
 70
8
 71
3
 72
8
 73
4
 74
0
 40
0
 40
0
 40
0
 40
0
 40
1
 40
1
 40
1
 40
1
 10
19.812257
 20
287.842833
 30
0.0
 10
19.791778
 20
287.849527
 30
0.0
 10
19.771659
 20
287.857253
 30
0.0
 10
19.751958
 20
287.865958
 30
0.0
  0
SPLINE
  5
175
100
AcDbEntity
  8
0
 62
5
100
AcDbSpline
 70
8
 71
3
 72
8
 73
4
 74
0
 40
0
 40
0
 40
0
 40
0
 40
1
 40
1
 40
1
 40
1
 10
19.751958
 20
287.865958
 30
0.0
 10
19.732829
 20
287.874398
 30
0.0
 10
19.714104
 20
287.883764
 30
0.0
 10
19.695869
 20
287.894001
 30
0.0
  0
SPLINE
  5
176
100
AcDbEntity
  8
0
 62
5
100
AcDbSpline
 70
8
 71
3
 72
8
 73
4
 74
0
 40
0
 40
0
 40
0
 40
0
 40
1
 40
1
 40
1
 40
1
 10
19.695869
 20
287.894001
 30
0.0
 10
19.677825
 20
287.904134
 30
0.0
 10
19.660264
 20
287.915115
 30
0.0
 10
19.643286
 20
287.926955
 30
0.0
  0
SPLINE
  5
177
100
AcDbEntity
  8
0
 62
5
100
AcDbSpline
 70
8
 71
3
 72
8
 73
4
 74
0
 40
0
 40
0
 40
0
 40
0
 40
1
 40
1
 40
1
 40
1
 10
19.643286
 20
287.926955
 30
0.0
 10
19.626485
 20
287.938676
 30
0.0
 10
19.610245
 20
287.951243
 30
0.0
 10
19.594907
 20
287.964817
 30
0.0
  0
SPLINE
  5
178
100
AcDbEntity
  8
0
 62
5
100
AcDbSpline
 70
8
 71
3
 72
8
 73
4
 74
0
 40
0
 40
0
 40
0
 40
0
 40
1
 40
1
 40
1
 40
1
 10
19.594907
 20
287.964817
 30
0.0
 10
19.579561
 20
287.978390
 30
0.0
 10
19.565107
 20
287.992995
 30
0.0
 10
19.551439
 20
288.008285
 30
0.0
  0
SPLINE
  5
179
100
AcDbEntity
  8
0
 62
5
100
AcDbSpline
 70
8
 71
3
 72
8
 73
4
 74
0
 40
0
 40
0
 40
0
 40
0
 40
1
 40
1
 40
1
 40
1
 10
19.551439
 20
288.008285
 30
0.0
 10
19.537469
 20
288.023922
 30
0.0
 10
19.524308
 20
288.040278
 30
0.0
 10
19.512177
 20
288.057362
 30
0.0
  0
SPLINE
  5
17a
100
AcDbEntity
  8
0
 62
5
100
AcDbSpline
 70
8
 71
3
 72
8
 73
4
 74
0
 40
0
 40
0
 40
0
 40
0
 40
1
 40
1
 40
1
 40
1
 10
19.512177
 20
288.057362
 30
0.0
 10
19.499715
 20
288.074931
 30
0.0
 10
19.488312
 20
288.093240
 30
0.0
 10
19.477821
 20
288.112052
 30
0.0
  0
SPLINE
  5
17b
100
AcDbEntity
  8
0
 62
5
100
AcDbSpline
 70
8
 71
3
 72
8
 73
4
 74
0
 40
0
 40
0
 40
0
 40
0
 40
1
 40
1
 40
1
 40
1
 10
19.477821
 20
288.112052
 30
0.0
 10
19.467026
 20
288.131419
 30
0.0
 10
19.457157
 20
288.151292
 30
0.0
 10
19.448373
 20
288.171647
 30
0.0
  0
SPLINE
  5
17c
100
AcDbEntity
  8
0
 62
5
100
AcDbSpline
 70
8
 71
3
 72
8
 73
4
 74
0
 40
0
 40
0
 40
0
 40
0
 40
1
 40
1
 40
1
 40
1
 10
19.448373
 20
288.171647
 30
0.0
 10
19.439192
 20
288.192893
 30
0.0
 10
19.431201
 20
288.214681
 30
0.0
 10
19.424534
 20
288.236851
 30
0.0
  0
SPLINE
  5
17d
100
AcDbEntity
  8
0
 62
5
100
AcDbSpline
 70
8
 71
3
 72
8
 73
4
 74
0
 40
0
 40
0
 40
0
 40
0
 40
1
 40
1
 40
1
 40
1
 10
19.424534
 20
288.236851
 30
0.0
 10
19.417549
 20
288.260107
 30
0.0
 10
19.412019
 20
288.283772
 30
0.0
 10
19.407706
 20
288.307664
 30
0.0
  0
SPLINE
  5
17e
100
AcDbEntity
  8
0
 62
5
100
AcDbSpline
 70
8
 71
3
 72
8
 73
4
 74
0
 40
0
 40
0
 40
0
 40
0
 40
1
 40
1
 40
1
 40
1
 10
19.407706
 20
288.307664
 30
0.0
 10
19.403103
 20
288.333196
 30
0.0
 10
19.399875
 20
288.358948
 30
0.0
 10
19.397890
 20
288.384787
 30
0.0
  0
SPLINE
  5
17f
100
AcDbEntity
  8
0
 62
5
100
AcDbSpline
 70
8
 71
3
 72
8
 73
4
 74
0
 40
0
 40
0
 40
0
 40
0
 40
1
 40
1
 40
1
 40
1
 10
19.397890
 20
288.384787
 30
0.0
 10
19.395774
 20
288.412076
 30
0.0
 10
19.395086
 20
288.439447
 30
0.0
 10
19.394371
 20
288.466818
 30
0.0
  0
SPLINE
  5
180
100
AcDbEntity
  8
0
 62
5
100
AcDbSpline
 70
8
 71
3
 72
8
 73
4
 74
0
 40
0
 40
0
 40
0
 40
0
 40
1
 40
1
 40
1
 40
1
 10
22.744348
 20
288.931673
 30
0.0
 10
22.733024
 20
288.946489
 30
0.0
 10
22.721700
 20
288.961303
 30
0.0
 10
22.707889
 20
288.973739
 30
0.0
  0
SPLINE
  5
181
100
AcDbEntity
  8
0
 62
5
100
AcDbSpline
 70
8
 71
3
 72
8
 73
4
 74
0
 40
0
 40
0
 40
0
 40
0
 40
1
 40
1
 40
1
 40
1
 10
22.707889
 20
288.973739
 30
0.0
 10
22.697067
 20
288.983476
 30
0.0
 10
22.684738
 20
288.991757
 30
0.0
 10
22.671432
 20
288.997578
 30
0.0
  0
SPLINE
  5
182
100
AcDbEntity
  8
0
 62
5
100
AcDbSpline
 70
8
 71
3
 72
8
 73
4
 74
0
 40
0
 40
0
 40
0
 40
0
 40
1
 40
1
 40
1
 40
1
 10
22.671432
 20
288.997578
 30
0.0
 10
22.657038
 20
289.003875
 30
0.0
 10
22.641473
 20
289.007315
 30
0.0
 10
22.625857
 20
289.009511
 30
0.0
  0
SPLINE
  5
183
100
AcDbEntity
  8
0
 62
5
100
AcDbSpline
 70
8
 71
3
 72
8
 73
4
 74
0
 40
0
 40
0
 40
0
 40
0
 40
1
 40
1
 40
1
 40
1
 10
22.625857
 20
289.009511
 30
0.0
 10
22.604902
 20
289.012421
 30
0.0
 10
22.583826
 20
289.013082
 30
0.0
 10
22.562757
 20
289.013717
 30
0.0
  0
SPLINE
  5
184
100
AcDbEntity
  8
0
 62
5
100
AcDbSpline
 70
8
 71
3
 72
8
 73
4
 74
0
 40
0
 40
0
 40
0
 40
0
 40
1
 40
1
 40
1
 40
1
 10
16.874556
 20
289.643312
 30
0.0
 10
16.905486
 20
289.636645
 30
0.0
 10
16.936416
 20
289.629951
 30
0.0
 10
16.967105
 20
289.622278
 30
0.0
  0
SPLINE
  5
185
100
AcDbEntity
  8
0
 62
5
100
AcDbSpline
 70
8
 71
3
 72
8
 73
4
 74
0
 40
0
 40
0
 40
0
 40
0
 40
1
 40
1
 40
1
 40
1
 10
16.967105
 20
289.622278
 30
0.0
 10
16.996095
 20
289.615028
 30
0.0
 10
17.024874
 20
289.606852
 30
0.0
 10
17.053341
 20
289.597724
 30
0.0
  0
SPLINE
  5
186
100
AcDbEntity
  8
0
 62
5
100
AcDbSpline
 70
8
 71
3
 72
8
 73
4
 74
0
 40
0
 40
0
 40
0
 40
0
 40
1
 40
1
 40
1
 40
1
 10
17.053341
 20
289.597724
 30
0.0
 10
17.080521
 20
289.589020
 30
0.0
 10
17.107416
 20
289.579442
 30
0.0
 10
17.133970
 20
289.568980
 30
0.0
  0
SPLINE
  5
187
100
AcDbEntity
  8
0
 62
5
100
AcDbSpline
 70
8
 71
3
 72
8
 73
4
 74
0
 40
0
 40
0
 40
0
 40
0
 40
1
 40
1
 40
1
 40
1
 10
17.133970
 20
289.568980
 30
0.0
 10
17.159105
 20
289.559085
 30
0.0
 10
17.183931
 20
289.548395
 30
0.0
 10
17.208289
 20
289.536727
 30
0.0
  0
SPLINE
  5
188
100
AcDbEntity
  8
0
 62
5
100
AcDbSpline
 70
8
 71
3
 72
8
 73
4
 74
0
 40
0
 40
0
 40
0
 40
0
 40
1
 40
1
 40
1
 40
1
 10
17.208289
 20
289.536727
 30
0.0
 10
17.231678
 20
289.525509
 30
0.0
 10
17.254633
 20
289.513391
 30
0.0
 10
17.277001
 20
289.500270
 30
0.0
  0
SPLINE
  5
189
100
AcDbEntity
  8
0
 62
5
100
AcDbSpline
 70
8
 71
3
 72
8
 73
4
 74
0
 40
0
 40
0
 40
0
 40
0
 40
1
 40
1
 40
1
 40
1
 10
17.277001
 20
289.500270
 30
0.0
 10
17.298591
 20
289.487597
 30
0.0
 10
17.319625
 20
289.473997
 30
0.0
 10
17.340101
 20
289.459604
 30
0.0
  0
SPLINE
  5
18a
100
AcDbEntity
  8
0
 62
5
100
AcDbSpline
 70
8
 71
3
 72
8
 73
4
 74
0
 40
0
 40
0
 40
0
 40
0
 40
1
 40
1
 40
1
 40
1
 10
17.340101
 20
289.459604
 30
0.0
 10
17.359866
 20
289.445687
 30
0.0
 10
17.379127
 20
289.431032
 30
0.0
 10
17.397593
 20
289.415434
 30
0.0
  0
SPLINE
  5
18b
100
AcDbEntity
  8
0
 62
5
100
AcDbSpline
 70
8
 71
3
 72
8
 73
4
 74
0
 40
0
 40
0
 40
0
 40
0
 40
1
 40
1
 40
1
 40
1
 10
17.397593
 20
289.415434
 30
0.0
 10
17.415399
 20
289.400380
 30
0.0
 10
17.432491
 20
289.384467
 30
0.0
 10
17.448774
 20
289.367756
 30
0.0
  0
SPLINE
  5
18c
100
AcDbEntity
  8
0
 62
5
100
AcDbSpline
 70
8
 71
3
 72
8
 73
4
 74
0
 40
0
 40
0
 40
0
 40
0
 40
1
 40
1
 40
1
 40
1
 10
17.448774
 20
289.367756
 30
0.0
 10
17.464860
 20
289.351246
 30
0.0
 10
17.480143
 20
289.333993
 30
0.0
 10
17.494348
 20
289.315874
 30
0.0
  0
SPLINE
  5
18d
100
AcDbEntity
  8
0
 62
5
100
AcDbSpline
 70
8
 71
3
 72
8
 73
4
 74
0
 40
0
 40
0
 40
0
 40
0
 40
1
 40
1
 40
1
 40
1
 10
17.494348
 20
289.315874
 30
0.0
 10
17.508424
 20
289.297909
 30
0.0
 10
17.521439
 20
289.279110
 30
0.0
 10
17.533610
 20
289.259785
 30
0.0
  0
SPLINE
  5
18e
100
AcDbEntity
  8
0
 62
5
100
AcDbSpline
 70
8
 71
3
 72
8
 73
4
 74
0
 40
0
 40
0
 40
0
 40
0
 40
1
 40
1
 40
1
 40
1
 10
17.533610
 20
289.259785
 30
0.0
 10
17.545781
 20
289.240471
 30
0.0
 10
17.557105
 20
289.220624
 30
0.0
 10
17.567265
 20
289.200190
 30
0.0
  0
SPLINE
  5
18f
100
AcDbEntity
  8
0
 62
5
100
AcDbSpline
 70
8
 71
3
 72
8
 73
4
 74
0
 40
0
 40
0
 40
0
 40
0
 40
1
 40
1
 40
1
 40
1
 10
17.567265
 20
289.200190
 30
0.0
 10
17.577557
 20
289.179474
 30
0.0
 10
17.586685
 20
289.158132
 30
0.0
 10
17.594607
 20
289.136386
 30
0.0
  0
SPLINE
  5
190
100
AcDbEntity
  8
0
 62
5
100
AcDbSpline
 70
8
 71
3
 72
8
 73
4
 74
0
 40
0
 40
0
 40
0
 40
0
 40
1
 40
1
 40
1
 40
1
 10
17.594607
 20
289.136386
 30
0.0
 10
17.602756
 20
289.114082
 30
0.0
 10
17.609662
 20
289.091349
 30
0.0
 10
17.615641
 20
289.068378
 30
0.0
  0
SPLINE
  5
191
100
AcDbEntity
  8
0
 62
5
100
AcDbSpline
 70
8
 71
3
 72
8
 73
4
 74
0
 40
0
 40
0
 40
0
 40
0
 40
1
 40
1
 40
1
 40
1
 10
17.615641
 20
289.068378
 30
0.0
 10
17.621806
 20
289.044777
 30
0.0
 10
17.626992
 20
289.020917
 30
0.0
 10
17.631066
 20
288.996863
 30
0.0
  0
SPLINE
  5
192
100
AcDbEntity
  8
0
 62
5
100
AcDbSpline
 70
8
 71
3
 72
8
 73
4
 74
0
 40
0
 40
0
 40
0
 40
0
 40
1
 40
1
 40
1
 40
1
 10
17.631066
 20
288.996863
 30
0.0
 10
17.635326
 20
288.971781
 30
0.0
 10
17.638395
 20
288.946500
 30
0.0
 10
17.640168
 20
288.921142
 30
0.0
  0
SPLINE
  5
193
100
AcDbEntity
  8
0
 62
5
100
AcDbSpline
 70
8
 71
3
 72
8
 73
4
 74
0
 40
0
 40
0
 40
0
 40
0
 40
1
 40
1
 40
1
 40
1
 10
17.640168
 20
288.921142
 30
0.0
 10
17.642020
 20
288.894552
 30
0.0
 10
17.642549
 20
288.867884
 30
0.0
 10
17.642973
 20
288.841214
 30
0.0
  0
SPLINE
  5
194
100
AcDbEntity
  8
0
 62
5
100
AcDbSpline
 70
8
 71
3
 72
8
 73
4
 74
0
 40
0
 40
0
 40
0
 40
0
 40
1
 40
1
 40
1
 40
1
 10
23.713297
 20
287.847037
 30
0.0
 10
23.696787
 20
287.847831
 30
0.0
 10
23.680283
 20
287.848625
 30
0.0
 10
23.664220
 20
287.851958
 30
0.0
  0
SPLINE
  5
195
100
AcDbEntity
  8
0
 62
5
100
AcDbSpline
 70
8
 71
3
 72
8
 73
4
 74
0
 40
0
 40
0
 40
0
 40
0
 40
1
 40
1
 40
1
 40
1
 10
23.664220
 20
287.851958
 30
0.0
 10
23.649615
 20
287.855054
 30
0.0
 10
23.635396
 20
287.860319
 30
0.0
 10
23.622151
 20
287.867384
 30
0.0
  0
SPLINE
  5
196
100
AcDbEntity
  8
0
 62
5
100
AcDbSpline
 70
8
 71
3
 72
8
 73
4
 74
0
 40
0
 40
0
 40
0
 40
0
 40
1
 40
1
 40
1
 40
1
 10
23.622151
 20
287.867384
 30
0.0
 10
23.608922
 20
287.874422
 30
0.0
 10
23.596672
 20
287.883232
 30
0.0
 10
23.585694
 20
287.893313
 30
0.0
  0
SPLINE
  5
197
100
AcDbEntity
  8
0
 62
5
100
AcDbSpline
 70
8
 71
3
 72
8
 73
4
 74
0
 40
0
 40
0
 40
0
 40
0
 40
1
 40
1
 40
1
 40
1
 10
23.585694
 20
287.893313
 30
0.0
 10
23.573153
 20
287.904822
 30
0.0
 10
23.562252
 20
287.917998
 30
0.0
 10
23.551338
 20
287.931175
 30
0.0
  0
SPLINE
  5
198
100
AcDbEntity
  8
0
 62
5
100
AcDbSpline
 70
8
 71
3
 72
8
 73
4
 74
0
 40
0
 40
0
 40
0
 40
0
 40
1
 40
1
 40
1
 40
1
 10
22.552941
 20
289.327807
 30
0.0
 10
22.567704
 20
289.328336
 30
0.0
 10
22.582489
 20
289.329130
 30
0.0
 10
22.597113
 20
289.331326
 30
0.0
  0
SPLINE
  5
199
100
AcDbEntity
  8
0
 62
5
100
AcDbSpline
 70
8
 71
3
 72
8
 73
4
 74
0
 40
0
 40
0
 40
0
 40
0
 40
1
 40
1
 40
1
 40
1
 10
22.597113
 20
289.331326
 30
0.0
 10
22.609337
 20
289.333178
 30
0.0
 10
22.621481
 20
289.336300
 30
0.0
 10
22.632869
 20
289.341142
 30
0.0
  0
SPLINE
  5
19a
100
AcDbEntity
  8
0
 62
5
100
AcDbSpline
 70
8
 71
3
 72
8
 73
4
 74
0
 40
0
 40
0
 40
0
 40
0
 40
1
 40
1
 40
1
 40
1
 10
22.632869
 20
289.341142
 30
0.0
 10
22.644960
 20
289.346275
 30
0.0
 10
22.656205
 20
289.353366
 30
0.0
 10
22.666524
 20
289.361462
 30
0.0
  0
SPLINE
  5
19b
100
AcDbEntity
  8
0
 62
5
100
AcDbSpline
 70
8
 71
3
 72
8
 73
4
 74
0
 40
0
 40
0
 40
0
 40
0
 40
1
 40
1
 40
1
 40
1
 10
22.666524
 20
289.361462
 30
0.0
 10
22.679673
 20
289.371807
 30
0.0
 10
22.691315
 20
289.383819
 30
0.0
 10
22.702981
 20
289.395818
 30
0.0
  0
SPLINE
  5
19c
100
AcDbEntity
  8
0
 62
5
100
AcDbSpline
 70
8
 71
3
 72
8
 73
4
 74
0
 40
0
 40
0
 40
0
 40
0
 40
1
 40
1
 40
1
 40
1
 10
20.903904
 20
289.432275
 30
0.0
 10
20.903375
 20
289.455876
 30
0.0
 10
20.903110
 20
289.479503
 30
0.0
 10
20.901787
 20
289.503088
 30
0.0
  0
SPLINE
  5
19d
100
AcDbEntity
  8
0
 62
5
100
AcDbSpline
 70
8
 71
3
 72
8
 73
4
 74
0
 40
0
 40
0
 40
0
 40
0
 40
1
 40
1
 40
1
 40
1
 10
20.901787
 20
289.503088
 30
0.0
 10
20.900729
 20
289.525101
 30
0.0
 10
20.898850
 20
289.547102
 30
0.0
 10
20.896178
 20
289.568993
 30
0.0
  0
SPLINE
  5
19e
100
AcDbEntity
  8
0
 62
5
100
AcDbSpline
 70
8
 71
3
 72
8
 73
4
 74
0
 40
0
 40
0
 40
0
 40
0
 40
1
 40
1
 40
1
 40
1
 10
20.896178
 20
289.568993
 30
0.0
 10
20.893532
 20
289.589684
 30
0.0
 10
20.890384
 20
289.610255
 30
0.0
 10
20.886362
 20
289.630691
 30
0.0
  0
SPLINE
  5
19f
100
AcDbEntity
  8
0
 62
5
100
AcDbSpline
 70
8
 71
3
 72
8
 73
4
 74
0
 40
0
 40
0
 40
0
 40
0
 40
1
 40
1
 40
1
 40
1
 10
20.886362
 20
289.630691
 30
0.0
 10
20.882605
 20
289.649768
 30
0.0
 10
20.878186
 20
289.668723
 30
0.0
 10
20.873054
 20
289.687482
 30
0.0
  0
SPLINE
  5
1a0
100
AcDbEntity
  8
0
 62
5
100
AcDbSpline
 70
8
 71
3
 72
8
 73
4
 74
0
 40
0
 40
0
 40
0
 40
0
 40
1
 40
1
 40
1
 40
1
 10
20.873054
 20
289.687482
 30
0.0
 10
20.868185
 20
289.705235
 30
0.0
 10
20.862682
 20
289.722822
 30
0.0
 10
20.856226
 20
289.740067
 30
0.0
  0
SPLINE
  5
1a1
100
AcDbEntity
  8
0
 62
5
100
AcDbSpline
 70
8
 71
3
 72
8
 73
4
 74
0
 40
0
 40
0
 40
0
 40
0
 40
1
 40
1
 40
1
 40
1
 10
20.856226
 20
289.740067
 30
0.0
 10
20.850061
 20
289.756551
 30
0.0
 10
20.843076
 20
289.772709
 30
0.0
 10
20.835192
 20
289.788444
 30
0.0
  0
SPLINE
  5
1a2
100
AcDbEntity
  8
0
 62
5
100
AcDbSpline
 70
8
 71
3
 72
8
 73
4
 74
0
 40
0
 40
0
 40
0
 40
0
 40
1
 40
1
 40
1
 40
1
 10
20.835192
 20
289.788444
 30
0.0
 10
20.827598
 20
289.803631
 30
0.0
 10
20.819184
 20
289.818392
 30
0.0
 10
20.809950
 20
289.832613
 30
0.0
  0
SPLINE
  5
1a3
100
AcDbEntity
  8
0
 62
5
100
AcDbSpline
 70
8
 71
3
 72
8
 73
4
 74
0
 40
0
 40
0
 40
0
 40
0
 40
1
 40
1
 40
1
 40
1
 10
20.809950
 20
289.832613
 30
0.0
 10
20.801113
 20
289.846213
 30
0.0
 10
20.791482
 20
289.859320
 30
0.0
 10
20.781203
 20
289.871878
 30
0.0
  0
SPLINE
  5
1a4
100
AcDbEntity
  8
0
 62
5
100
AcDbSpline
 70
8
 71
3
 72
8
 73
4
 74
0
 40
0
 40
0
 40
0
 40
0
 40
1
 40
1
 40
1
 40
1
 10
20.781203
 20
289.871878
 30
0.0
 10
20.771123
 20
289.884181
 30
0.0
 10
20.760407
 20
289.895928
 30
0.0
 10
20.748953
 20
289.906932
 30
0.0
  0
SPLINE
  5
1a5
100
AcDbEntity
  8
0
 62
5
100
AcDbSpline
 70
8
 71
3
 72
8
 73
4
 74
0
 40
0
 40
0
 40
0
 40
0
 40
1
 40
1
 40
1
 40
1
 10
20.748953
 20
289.906932
 30
0.0
 10
20.737709
 20
289.917727
 30
0.0
 10
20.725723
 20
289.927781
 30
0.0
 10
20.713195
 20
289.937082
 30
0.0
  0
SPLINE
  5
1a6
100
AcDbEntity
  8
0
 62
5
100
AcDbSpline
 70
8
 71
3
 72
8
 73
4
 74
0
 40
0
 40
0
 40
0
 40
0
 40
1
 40
1
 40
1
 40
1
 10
20.713195
 20
289.937082
 30
0.0
 10
20.700416
 20
289.946554
 30
0.0
 10
20.687081
 20
289.955205
 30
0.0
 10
20.673230
 20
289.963037
 30
0.0
  0
SPLINE
  5
1a7
100
AcDbEntity
  8
0
 62
5
100
AcDbSpline
 70
8
 71
3
 72
8
 73
4
 74
0
 40
0
 40
0
 40
0
 40
0
 40
1
 40
1
 40
1
 40
1
 10
20.673230
 20
289.963037
 30
0.0
 10
20.659207
 20
289.970948
 30
0.0
 10
20.644668
 20
289.977986
 30
0.0
 10
20.629761
 20
289.984072
 30
0.0
  0
SPLINE
  5
1a8
100
AcDbEntity
  8
0
 62
5
100
AcDbSpline
 70
8
 71
3
 72
8
 73
4
 74
0
 40
0
 40
0
 40
0
 40
0
 40
1
 40
1
 40
1
 40
1
 10
20.629761
 20
289.984072
 30
0.0
 10
20.614442
 20
289.990342
 30
0.0
 10
20.598707
 20
289.995634
 30
0.0
 10
20.582787
 20
290.000211
 30
0.0
  0
SPLINE
  5
1a9
100
AcDbEntity
  8
0
 62
5
100
AcDbSpline
 70
8
 71
3
 72
8
 73
4
 74
0
 40
0
 40
0
 40
0
 40
0
 40
1
 40
1
 40
1
 40
1
 10
20.582787
 20
290.000211
 30
0.0
 10
20.566145
 20
290.005000
 30
0.0
 10
20.549317
 20
290.008995
 30
0.0
 10
20.532305
 20
290.012117
 30
0.0
  0
SPLINE
  5
1aa
100
AcDbEntity
  8
0
 62
5
100
AcDbSpline
 70
8
 71
3
 72
8
 73
4
 74
0
 40
0
 40
0
 40
0
 40
0
 40
1
 40
1
 40
1
 40
1
 10
20.532305
 20
290.012117
 30
0.0
 10
20.514234
 20
290.015451
 30
0.0
 10
20.495946
 20
290.017779
 30
0.0
 10
20.477618
 20
290.019129
 30
0.0
  0
SPLINE
  5
1ab
100
AcDbEntity
  8
0
 62
5
100
AcDbSpline
 70
8
 71
3
 72
8
 73
4
 74
0
 40
0
 40
0
 40
0
 40
0
 40
1
 40
1
 40
1
 40
1
 10
20.477618
 20
290.019129
 30
0.0
 10
20.458250
 20
290.020452
 30
0.0
 10
20.438843
 20
290.020981
 30
0.0
 10
20.419425
 20
290.021245
 30
0.0
  0
SPLINE
  5
1ac
100
AcDbEntity
  8
0
 62
5
100
AcDbSpline
 70
8
 71
3
 72
8
 73
4
 74
0
 40
0
 40
0
 40
0
 40
0
 40
1
 40
1
 40
1
 40
1
 10
20.472712
 20
290.359859
 30
0.0
 10
20.506172
 20
290.359065
 30
0.0
 10
20.539628
 20
290.358272
 30
0.0
 10
20.572974
 20
290.355652
 30
0.0
  0
SPLINE
  5
1ad
100
AcDbEntity
  8
0
 62
5
100
AcDbSpline
 70
8
 71
3
 72
8
 73
4
 74
0
 40
0
 40
0
 40
0
 40
0
 40
1
 40
1
 40
1
 40
1
 10
20.572974
 20
290.355652
 30
0.0
 10
20.604703
 20
290.353271
 30
0.0
 10
20.636331
 20
290.348958
 30
0.0
 10
20.667626
 20
290.343032
 30
0.0
  0
SPLINE
  5
1ae
100
AcDbEntity
  8
0
 62
5
100
AcDbSpline
 70
8
 71
3
 72
8
 73
4
 74
0
 40
0
 40
0
 40
0
 40
0
 40
1
 40
1
 40
1
 40
1
 10
20.667626
 20
290.343032
 30
0.0
 10
20.697439
 20
290.337396
 30
0.0
 10
20.726948
 20
290.330147
 30
0.0
 10
20.755965
 20
290.321309
 30
0.0
  0
SPLINE
  5
1af
100
AcDbEntity
  8
0
 62
5
100
AcDbSpline
 70
8
 71
3
 72
8
 73
4
 74
0
 40
0
 40
0
 40
0
 40
0
 40
1
 40
1
 40
1
 40
1
 10
20.755965
 20
290.321309
 30
0.0
 10
20.784050
 20
290.312737
 30
0.0
 10
20.811675
 20
290.302656
 30
0.0
 10
20.838697
 20
290.291160
 30
0.0
  0
SPLINE
  5
1b0
100
AcDbEntity
  8
0
 62
5
100
AcDbSpline
 70
8
 71
3
 72
8
 73
4
 74
0
 40
0
 40
0
 40
0
 40
0
 40
1
 40
1
 40
1
 40
1
 10
20.838697
 20
290.291160
 30
0.0
 10
20.864785
 20
290.280074
 30
0.0
 10
20.890294
 20
290.267665
 30
0.0
 10
20.915120
 20
290.254002
 30
0.0
  0
SPLINE
  5
1b1
100
AcDbEntity
  8
0
 62
5
100
AcDbSpline
 70
8
 71
3
 72
8
 73
4
 74
0
 40
0
 40
0
 40
0
 40
0
 40
1
 40
1
 40
1
 40
1
 10
20.915120
 20
290.254002
 30
0.0
 10
20.939514
 20
290.240588
 30
0.0
 10
20.963221
 20
290.225914
 30
0.0
 10
20.985933
 20
290.209830
 30
0.0
  0
SPLINE
  5
1b2
100
AcDbEntity
  8
0
 62
5
100
AcDbSpline
 70
8
 71
3
 72
8
 73
4
 74
0
 40
0
 40
0
 40
0
 40
0
 40
1
 40
1
 40
1
 40
1
 10
20.985933
 20
290.209830
 30
0.0
 10
21.008184
 20
290.194061
 30
0.0
 10
21.029494
 20
290.176940
 30
0.0
 10
21.049737
 20
290.158649
 30
0.0
  0
SPLINE
  5
1b3
100
AcDbEntity
  8
0
 62
5
100
AcDbSpline
 70
8
 71
3
 72
8
 73
4
 74
0
 40
0
 40
0
 40
0
 40
0
 40
1
 40
1
 40
1
 40
1
 10
21.049737
 20
290.158649
 30
0.0
 10
21.069978
 20
290.140366
 30
0.0
 10
21.089170
 20
290.120901
 30
0.0
 10
21.107228
 20
290.100456
 30
0.0
  0
SPLINE
  5
1b4
100
AcDbEntity
  8
0
 62
5
100
AcDbSpline
 70
8
 71
3
 72
8
 73
4
 74
0
 40
0
 40
0
 40
0
 40
0
 40
1
 40
1
 40
1
 40
1
 10
21.107228
 20
290.100456
 30
0.0
 10
21.125405
 20
290.079872
 30
0.0
 10
21.142434
 20
290.058292
 30
0.0
 10
21.158409
 20
290.035954
 30
0.0
  0
SPLINE
  5
1b5
100
AcDbEntity
  8
0
 62
5
100
AcDbSpline
 70
8
 71
3
 72
8
 73
4
 74
0
 40
0
 40
0
 40
0
 40
0
 40
1
 40
1
 40
1
 40
1
 10
21.158409
 20
290.035954
 30
0.0
 10
21.174575
 20
290.013358
 30
0.0
 10
21.189638
 20
289.990011
 30
0.0
 10
21.203283
 20
289.965842
 30
0.0
  0
SPLINE
  5
1b6
100
AcDbEntity
  8
0
 62
5
100
AcDbSpline
 70
8
 71
3
 72
8
 73
4
 74
0
 40
0
 40
0
 40
0
 40
0
 40
1
 40
1
 40
1
 40
1
 10
21.203283
 20
289.965842
 30
0.0
 10
21.217358
 20
289.940892
 30
0.0
 10
21.229924
 20
289.915081
 30
0.0
 10
21.241142
 20
289.888718
 30
0.0
  0
SPLINE
  5
1b7
100
AcDbEntity
  8
0
 62
5
100
AcDbSpline
 70
8
 71
3
 72
8
 73
4
 74
0
 40
0
 40
0
 40
0
 40
0
 40
1
 40
1
 40
1
 40
1
 10
21.241142
 20
289.888718
 30
0.0
 10
21.252757
 20
289.861421
 30
0.0
 10
21.262944
 20
289.833532
 30
0.0
 10
21.271992
 20
289.805285
 30
0.0
  0
SPLINE
  5
1b8
100
AcDbEntity
  8
0
 62
5
100
AcDbSpline
 70
8
 71
3
 72
8
 73
4
 74
0
 40
0
 40
0
 40
0
 40
0
 40
1
 40
1
 40
1
 40
1
 10
21.271992
 20
289.805285
 30
0.0
 10
21.281385
 20
289.775956
 30
0.0
 10
21.289587
 20
289.746240
 30
0.0
 10
21.296519
 20
289.716242
 30
0.0
  0
SPLINE
  5
1b9
100
AcDbEntity
  8
0
 62
5
100
AcDbSpline
 70
8
 71
3
 72
8
 73
4
 74
0
 40
0
 40
0
 40
0
 40
0
 40
1
 40
1
 40
1
 40
1
 10
21.296519
 20
289.716242
 30
0.0
 10
21.303610
 20
289.685648
 30
0.0
 10
21.309404
 20
289.654761
 30
0.0
 10
21.314035
 20
289.623693
 30
0.0
  0
SPLINE
  5
1ba
100
AcDbEntity
  8
0
 62
5
100
AcDbSpline
 70
8
 71
3
 72
8
 73
4
 74
0
 40
0
 40
0
 40
0
 40
0
 40
1
 40
1
 40
1
 40
1
 10
21.314035
 20
289.623693
 30
0.0
 10
21.318850
 20
289.591364
 30
0.0
 10
21.322422
 20
289.558838
 30
0.0
 10
21.324565
 20
289.526237
 30
0.0
  0
SPLINE
  5
1bb
100
AcDbEntity
  8
0
 62
5
100
AcDbSpline
 70
8
 71
3
 72
8
 73
4
 74
0
 40
0
 40
0
 40
0
 40
0
 40
1
 40
1
 40
1
 40
1
 10
21.324565
 20
289.526237
 30
0.0
 10
21.326682
 20
289.492404
 30
0.0
 10
21.327422
 20
289.458490
 30
0.0
 10
21.328057
 20
289.424576
 30
0.0
  0
SPLINE
  5
1bc
100
AcDbEntity
  8
0
 62
5
100
AcDbSpline
 70
8
 71
3
 72
8
 73
4
 74
0
 40
0
 40
0
 40
0
 40
0
 40
1
 40
1
 40
1
 40
1
 10
17.642986
 20
288.841228
 30
0.0
 10
17.642192
 20
288.804940
 30
0.0
 10
17.641398
 20
288.768652
 30
0.0
 10
17.638065
 20
288.732555
 30
0.0
  0
SPLINE
  5
1bd
100
AcDbEntity
  8
0
 62
5
100
AcDbSpline
 70
8
 71
3
 72
8
 73
4
 74
0
 40
0
 40
0
 40
0
 40
0
 40
1
 40
1
 40
1
 40
1
 10
17.638065
 20
288.732555
 30
0.0
 10
17.634942
 20
288.697972
 30
0.0
 10
17.629571
 20
288.663565
 30
0.0
 10
17.622639
 20
288.629490
 30
0.0
  0
SPLINE
  5
1be
100
AcDbEntity
  8
0
 62
5
100
AcDbSpline
 70
8
 71
3
 72
8
 73
4
 74
0
 40
0
 40
0
 40
0
 40
0
 40
1
 40
1
 40
1
 40
1
 10
17.622639
 20
288.629490
 30
0.0
 10
17.615866
 20
288.596128
 30
0.0
 10
17.607611
 20
288.563087
 30
0.0
 10
17.597398
 20
288.530631
 30
0.0
  0
SPLINE
  5
1bf
100
AcDbEntity
  8
0
 62
5
100
AcDbSpline
 70
8
 71
3
 72
8
 73
4
 74
0
 40
0
 40
0
 40
0
 40
0
 40
1
 40
1
 40
1
 40
1
 10
17.597398
 20
288.530631
 30
0.0
 10
17.587344
 20
288.498656
 30
0.0
 10
17.575411
 20
288.467250
 30
0.0
 10
17.561642
 20
288.436680
 30
0.0
  0
SPLINE
  5
1c0
100
AcDbEntity
  8
0
 62
5
100
AcDbSpline
 70
8
 71
3
 72
8
 73
4
 74
0
 40
0
 40
0
 40
0
 40
0
 40
1
 40
1
 40
1
 40
1
 10
17.561642
 20
288.436680
 30
0.0
 10
17.548122
 20
288.406642
 30
0.0
 10
17.532821
 20
288.377413
 30
0.0
 10
17.516068
 20
288.349042
 30
0.0
  0
SPLINE
  5
1c1
100
AcDbEntity
  8
0
 62
5
100
AcDbSpline
 70
8
 71
3
 72
8
 73
4
 74
0
 40
0
 40
0
 40
0
 40
0
 40
1
 40
1
 40
1
 40
1
 10
17.516068
 20
288.349042
 30
0.0
 10
17.499346
 20
288.320723
 30
0.0
 10
17.481172
 20
288.293260
 30
0.0
 10
17.461381
 20
288.267010
 30
0.0
  0
SPLINE
  5
1c2
100
AcDbEntity
  8
0
 62
5
100
AcDbSpline
 70
8
 71
3
 72
8
 73
4
 74
0
 40
0
 40
0
 40
0
 40
0
 40
1
 40
1
 40
1
 40
1
 10
17.461381
 20
288.267010
 30
0.0
 10
17.441617
 20
288.240790
 30
0.0
 10
17.420230
 20
288.215776
 30
0.0
 10
17.397579
 20
288.191990
 30
0.0
  0
SPLINE
  5
1c3
100
AcDbEntity
  8
0
 62
5
100
AcDbSpline
 70
8
 71
3
 72
8
 73
4
 74
0
 40
0
 40
0
 40
0
 40
0
 40
1
 40
1
 40
1
 40
1
 10
17.397579
 20
288.191990
 30
0.0
 10
17.374296
 20
288.167543
 30
0.0
 10
17.349693
 20
288.144408
 30
0.0
 10
17.323962
 20
288.122580
 30
0.0
  0
SPLINE
  5
1c4
100
AcDbEntity
  8
0
 62
5
100
AcDbSpline
 70
8
 71
3
 72
8
 73
4
 74
0
 40
0
 40
0
 40
0
 40
0
 40
1
 40
1
 40
1
 40
1
 10
17.323962
 20
288.122580
 30
0.0
 10
17.297742
 20
288.100328
 30
0.0
 10
17.270378
 20
288.079466
 30
0.0
 10
17.241930
 20
288.060178
 30
0.0
  0
SPLINE
  5
1c5
100
AcDbEntity
  8
0
 62
5
100
AcDbSpline
 70
8
 71
3
 72
8
 73
4
 74
0
 40
0
 40
0
 40
0
 40
0
 40
1
 40
1
 40
1
 40
1
 10
17.241930
 20
288.060178
 30
0.0
 10
17.212591
 20
288.040281
 30
0.0
 10
17.182105
 20
288.022088
 30
0.0
 10
17.150784
 20
288.005491
 30
0.0
  0
SPLINE
  5
1c6
100
AcDbEntity
  8
0
 62
5
100
AcDbSpline
 70
8
 71
3
 72
8
 73
4
 74
0
 40
0
 40
0
 40
0
 40
0
 40
1
 40
1
 40
1
 40
1
 10
17.150784
 20
288.005491
 30
0.0
 10
17.118161
 20
287.988214
 30
0.0
 10
17.084630
 20
287.972651
 30
0.0
 10
17.050523
 20
287.958517
 30
0.0
  0
SPLINE
  5
1c7
100
AcDbEntity
  8
0
 62
5
100
AcDbSpline
 70
8
 71
3
 72
8
 73
4
 74
0
 40
0
 40
0
 40
0
 40
0
 40
1
 40
1
 40
1
 40
1
 10
17.050523
 20
287.958517
 30
0.0
 10
17.014653
 20
287.943647
 30
0.0
 10
16.978149
 20
287.930344
 30
0.0
 10
16.941149
 20
287.918551
 30
0.0
  0
SPLINE
  5
1c8
100
AcDbEntity
  8
0
 62
5
100
AcDbSpline
 70
8
 71
3
 72
8
 73
4
 74
0
 40
0
 40
0
 40
0
 40
0
 40
1
 40
1
 40
1
 40
1
 10
16.941149
 20
287.918551
 30
0.0
 10
16.902618
 20
287.906275
 30
0.0
 10
16.863550
 20
287.895639
 30
0.0
 10
16.824061
 20
287.887003
 30
0.0
  0
SPLINE
  5
1c9
100
AcDbEntity
  8
0
 62
5
100
AcDbSpline
 70
8
 71
3
 72
8
 73
4
 74
0
 40
0
 40
0
 40
0
 40
0
 40
1
 40
1
 40
1
 40
1
 10
16.824061
 20
287.887003
 30
0.0
 10
16.782585
 20
287.877954
 30
0.0
 10
16.740643
 20
287.871101
 30
0.0
 10
16.698561
 20
287.865280
 30
0.0
  0
SPLINE
  5
1ca
100
AcDbEntity
  8
0
 62
5
100
AcDbSpline
 70
8
 71
3
 72
8
 73
4
 74
0
 40
0
 40
0
 40
0
 40
0
 40
1
 40
1
 40
1
 40
1
 10
16.698561
 20
287.865280
 30
0.0
 10
16.654304
 20
287.859142
 30
0.0
 10
16.609888
 20
287.854115
 30
0.0
 10
16.565348
 20
287.851257
 30
0.0
  0
SPLINE
  5
1cb
100
AcDbEntity
  8
0
 62
5
100
AcDbSpline
 70
8
 71
3
 72
8
 73
4
 74
0
 40
0
 40
0
 40
0
 40
0
 40
1
 40
1
 40
1
 40
1
 10
16.565348
 20
287.851257
 30
0.0
 10
16.518467
 20
287.848241
 30
0.0
 10
16.471445
 20
287.847659
 30
0.0
 10
16.424423
 20
287.847050
 30
0.0
  0
SPLINE
  5
1cc
100
AcDbEntity
  8
0
 62
5
100
AcDbSpline
 70
8
 71
3
 72
8
 73
4
 74
0
 40
0
 40
0
 40
0
 40
0
 40
1
 40
1
 40
1
 40
1
 10
20.419428
 20
290.021216
 30
0.0
 10
20.394187
 20
290.020687
 30
0.0
 10
20.368927
 20
290.019893
 30
0.0
 10
20.343707
 20
290.018412
 30
0.0
  0
SPLINE
  5
1cd
100
AcDbEntity
  8
0
 62
5
100
AcDbSpline
 70
8
 71
3
 72
8
 73
4
 74
0
 40
0
 40
0
 40
0
 40
0
 40
1
 40
1
 40
1
 40
1
 10
20.343707
 20
290.018412
 30
0.0
 10
20.320477
 20
290.017089
 30
0.0
 10
20.297286
 20
290.014919
 30
0.0
 10
20.274296
 20
290.011400
 30
0.0
  0
SPLINE
  5
1ce
100
AcDbEntity
  8
0
 62
5
100
AcDbSpline
 70
8
 71
3
 72
8
 73
4
 74
0
 40
0
 40
0
 40
0
 40
0
 40
1
 40
1
 40
1
 40
1
 10
20.274296
 20
290.011400
 30
0.0
 10
20.252812
 20
290.008120
 30
0.0
 10
20.231516
 20
290.003595
 30
0.0
 10
20.210492
 20
289.998092
 30
0.0
  0
SPLINE
  5
1cf
100
AcDbEntity
  8
0
 62
5
100
AcDbSpline
 70
8
 71
3
 72
8
 73
4
 74
0
 40
0
 40
0
 40
0
 40
0
 40
1
 40
1
 40
1
 40
1
 10
20.210492
 20
289.998092
 30
0.0
 10
20.191336
 20
289.993065
 30
0.0
 10
20.172387
 20
289.987165
 30
0.0
 10
20.153702
 20
289.980576
 30
0.0
  0
SPLINE
  5
1d0
100
AcDbEntity
  8
0
 62
5
100
AcDbSpline
 70
8
 71
3
 72
8
 73
4
 74
0
 40
0
 40
0
 40
0
 40
0
 40
1
 40
1
 40
1
 40
1
 10
20.153702
 20
289.980576
 30
0.0
 10
20.119433
 20
289.968458
 30
0.0
 10
20.086013
 20
289.953957
 30
0.0
 10
20.053443
 20
289.937809
 30
0.0
  0
SPLINE
  5
1d1
100
AcDbEntity
  8
0
 62
5
100
AcDbSpline
 70
8
 71
3
 72
8
 73
4
 74
0
 40
0
 40
0
 40
0
 40
0
 40
1
 40
1
 40
1
 40
1
 10
20.053443
 20
289.937809
 30
0.0
 10
20.023998
 20
289.923204
 30
0.0
 10
19.995251
 20
289.907279
 30
0.0
 10
19.967205
 20
289.890134
 30
0.0
  0
SPLINE
  5
1d2
100
AcDbEntity
  8
0
 62
5
100
AcDbSpline
 70
8
 71
3
 72
8
 73
4
 74
0
 40
0
 40
0
 40
0
 40
0
 40
1
 40
1
 40
1
 40
1
 10
19.967205
 20
289.890134
 30
0.0
 10
19.942413
 20
289.874973
 30
0.0
 10
19.918162
 20
289.858871
 30
0.0
 10
19.894288
 20
289.842456
 30
0.0
  0
SPLINE
  5
1d3
100
AcDbEntity
  8
0
 62
5
100
AcDbSpline
 70
8
 71
3
 72
8
 73
4
 74
0
 40
0
 40
0
 40
0
 40
0
 40
1
 40
1
 40
1
 40
1
 10
19.894288
 20
289.842456
 30
0.0
 10
19.873545
 20
289.828195
 30
0.0
 10
19.853103
 20
289.813720
 30
0.0
 10
19.831886
 20
289.799689
 30
0.0
  0
SPLINE
  5
1d4
100
AcDbEntity
  8
0
 62
5
100
AcDbSpline
 70
8
 71
3
 72
8
 73
4
 74
0
 40
0
 40
0
 40
0
 40
0
 40
1
 40
1
 40
1
 40
1
 10
19.831886
 20
289.799689
 30
0.0
 10
19.813842
 20
289.787756
 30
0.0
 10
19.795271
 20
289.776167
 30
0.0
 10
19.775096
 20
289.769539
 30
0.0
  0
SPLINE
  5
1d5
100
AcDbEntity
  8
0
 62
5
100
AcDbSpline
 70
8
 71
3
 72
8
 73
4
 74
0
 40
0
 40
0
 40
0
 40
0
 40
1
 40
1
 40
1
 40
1
 10
19.775096
 20
289.769539
 30
0.0
 10
19.757237
 20
289.763666
 30
0.0
 10
19.738118
 20
289.761708
 30
0.0
 10
19.719007
 20
289.759723
 30
0.0
  0
SPLINE
  5
1d6
100
AcDbEntity
  8
0
 62
5
100
AcDbSpline
 70
8
 71
3
 72
8
 73
4
 74
0
 40
0
 40
0
 40
0
 40
0
 40
1
 40
1
 40
1
 40
1
 10
31.069468
 20
290.258897
 30
0.0
 10
31.068410
 20
290.218889
 30
0.0
 10
31.067087
 20
290.178882
 30
0.0
 10
31.063859
 20
290.139004
 30
0.0
  0
SPLINE
  5
1d7
100
AcDbEntity
  8
0
 62
5
100
AcDbSpline
 70
8
 71
3
 72
8
 73
4
 74
0
 40
0
 40
0
 40
0
 40
0
 40
1
 40
1
 40
1
 40
1
 10
31.063859
 20
290.139004
 30
0.0
 10
31.060710
 20
290.100459
 30
0.0
 10
31.055630
 20
290.062036
 30
0.0
 10
31.048433
 20
290.024021
 30
0.0
  0
SPLINE
  5
1d8
100
AcDbEntity
  8
0
 62
5
100
AcDbSpline
 70
8
 71
3
 72
8
 73
4
 74
0
 40
0
 40
0
 40
0
 40
0
 40
1
 40
1
 40
1
 40
1
 10
31.048433
 20
290.024021
 30
0.0
 10
31.041475
 20
289.987133
 30
0.0
 10
31.032506
 20
289.950628
 30
0.0
 10
31.021790
 20
289.914645
 30
0.0
  0
SPLINE
  5
1d9
100
AcDbEntity
  8
0
 62
5
100
AcDbSpline
 70
8
 71
3
 72
8
 73
4
 74
0
 40
0
 40
0
 40
0
 40
0
 40
1
 40
1
 40
1
 40
1
 10
31.021790
 20
289.914645
 30
0.0
 10
31.011233
 20
289.879204
 30
0.0
 10
30.998930
 20
289.844268
 30
0.0
 10
30.984632
 20
289.810179
 30
0.0
  0
SPLINE
  5
1da
100
AcDbEntity
  8
0
 62
5
100
AcDbSpline
 70
8
 71
3
 72
8
 73
4
 74
0
 40
0
 40
0
 40
0
 40
0
 40
1
 40
1
 40
1
 40
1
 10
30.984632
 20
289.810179
 30
0.0
 10
30.970556
 20
289.776628
 30
0.0
 10
30.954538
 20
289.743896
 30
0.0
 10
30.936954
 20
289.712022
 30
0.0
  0
SPLINE
  5
1db
100
AcDbEntity
  8
0
 62
5
100
AcDbSpline
 70
8
 71
3
 72
8
 73
4
 74
0
 40
0
 40
0
 40
0
 40
0
 40
1
 40
1
 40
1
 40
1
 10
30.936954
 20
289.712022
 30
0.0
 10
30.919650
 20
289.680653
 30
0.0
 10
30.900828
 20
289.650117
 30
0.0
 10
30.880164
 20
289.620875
 30
0.0
  0
SPLINE
  5
1dc
100
AcDbEntity
  8
0
 62
5
100
AcDbSpline
 70
8
 71
3
 72
8
 73
4
 74
0
 40
0
 40
0
 40
0
 40
0
 40
1
 40
1
 40
1
 40
1
 10
30.880164
 20
289.620875
 30
0.0
 10
30.859420
 20
289.591538
 30
0.0
 10
30.836846
 20
289.563508
 30
0.0
 10
30.812856
 20
289.536740
 30
0.0
  0
SPLINE
  5
1dd
100
AcDbEntity
  8
0
 62
5
100
AcDbSpline
 70
8
 71
3
 72
8
 73
4
 74
0
 40
0
 40
0
 40
0
 40
0
 40
1
 40
1
 40
1
 40
1
 10
30.812856
 20
289.536740
 30
0.0
 10
30.788568
 20
289.509645
 30
0.0
 10
30.762855
 20
289.483845
 30
0.0
 10
30.735733
 20
289.459617
 30
0.0
  0
SPLINE
  5
1de
100
AcDbEntity
  8
0
 62
5
100
AcDbSpline
 70
8
 71
3
 72
8
 73
4
 74
0
 40
0
 40
0
 40
0
 40
0
 40
1
 40
1
 40
1
 40
1
 10
30.735733
 20
289.459617
 30
0.0
 10
30.708071
 20
289.434905
 30
0.0
 10
30.678948
 20
289.411836
 30
0.0
 10
30.648794
 20
289.390206
 30
0.0
  0
SPLINE
  5
1df
100
AcDbEntity
  8
0
 62
5
100
AcDbSpline
 70
8
 71
3
 72
8
 73
4
 74
0
 40
0
 40
0
 40
0
 40
0
 40
1
 40
1
 40
1
 40
1
 10
30.648794
 20
289.390206
 30
0.0
 10
30.617851
 20
289.368008
 30
0.0
 10
30.585820
 20
289.347336
 30
0.0
 10
30.552739
 20
289.328508
 30
0.0
  0
SPLINE
  5
1e0
100
AcDbEntity
  8
0
 62
5
100
AcDbSpline
 70
8
 71
3
 72
8
 73
4
 74
0
 40
0
 40
0
 40
0
 40
0
 40
1
 40
1
 40
1
 40
1
 10
30.552739
 20
289.328508
 30
0.0
 10
30.518216
 20
289.308850
 30
0.0
 10
30.482548
 20
289.291218
 30
0.0
 10
30.446170
 20
289.275224
 30
0.0
  0
SPLINE
  5
1e1
100
AcDbEntity
  8
0
 62
5
100
AcDbSpline
 70
8
 71
3
 72
8
 73
4
 74
0
 40
0
 40
0
 40
0
 40
0
 40
1
 40
1
 40
1
 40
1
 10
30.446170
 20
289.275224
 30
0.0
 10
30.408086
 20
289.258476
 30
0.0
 10
30.369230
 20
289.243537
 30
0.0
 10
30.329783
 20
289.230350
 30
0.0
  0
SPLINE
  5
1e2
100
AcDbEntity
  8
0
 62
5
100
AcDbSpline
 70
8
 71
3
 72
8
 73
4
 74
0
 40
0
 40
0
 40
0
 40
0
 40
1
 40
1
 40
1
 40
1
 10
30.329783
 20
289.230350
 30
0.0
 10
30.288518
 20
289.216566
 30
0.0
 10
30.246608
 20
289.204686
 30
0.0
 10
30.204283
 20
289.194595
 30
0.0
  0
SPLINE
  5
1e3
100
AcDbEntity
  8
0
 62
5
100
AcDbSpline
 70
8
 71
3
 72
8
 73
4
 74
0
 40
0
 40
0
 40
0
 40
0
 40
1
 40
1
 40
1
 40
1
 10
30.204283
 20
289.194595
 30
0.0
 10
30.160042
 20
289.184038
 30
0.0
 10
30.115343
 20
289.175465
 30
0.0
 10
30.070369
 20
289.168665
 30
0.0
  0
SPLINE
  5
1e4
100
AcDbEntity
  8
0
 62
5
100
AcDbSpline
 70
8
 71
3
 72
8
 73
4
 74
0
 40
0
 40
0
 40
0
 40
0
 40
1
 40
1
 40
1
 40
1
 10
30.070369
 20
289.168665
 30
0.0
 10
30.022935
 20
289.161495
 30
0.0
 10
29.975191
 20
289.156283
 30
0.0
 10
29.927341
 20
289.153240
 30
0.0
  0
SPLINE
  5
1e5
100
AcDbEntity
  8
0
 62
5
100
AcDbSpline
 70
8
 71
3
 72
8
 73
4
 74
0
 40
0
 40
0
 40
0
 40
0
 40
1
 40
1
 40
1
 40
1
 10
29.927341
 20
289.153240
 30
0.0
 10
29.876705
 20
289.150012
 30
0.0
 10
29.825950
 20
289.149166
 30
0.0
 10
29.775198
 20
289.148319
 30
0.0
  0
SPLINE
  5
1e6
100
AcDbEntity
  8
0
 62
5
100
AcDbSpline
 70
8
 71
3
 72
8
 73
4
 74
0
 40
0
 40
0
 40
0
 40
0
 40
1
 40
1
 40
1
 40
1
 10
29.775198
 20
291.347038
 30
0.0
 10
29.828276
 20
291.345980
 30
0.0
 10
29.881354
 20
291.345186
 30
0.0
 10
29.934350
 20
291.342117
 30
0.0
  0
SPLINE
  5
1e7
100
AcDbEntity
  8
0
 62
5
100
AcDbSpline
 70
8
 71
3
 72
8
 73
4
 74
0
 40
0
 40
0
 40
0
 40
0
 40
1
 40
1
 40
1
 40
1
 10
29.934350
 20
291.342117
 30
0.0
 10
29.984041
 20
291.339339
 30
0.0
 10
30.033661
 20
291.334788
 30
0.0
 10
30.082990
 20
291.328094
 30
0.0
  0
SPLINE
  5
1e8
100
AcDbEntity
  8
0
 62
5
100
AcDbSpline
 70
8
 71
3
 72
8
 73
4
 74
0
 40
0
 40
0
 40
0
 40
0
 40
1
 40
1
 40
1
 40
1
 10
30.082990
 20
291.328094
 30
0.0
 10
30.129340
 20
291.321823
 30
0.0
 10
30.175433
 20
291.313648
 30
0.0
 10
30.221110
 20
291.303541
 30
0.0
  0
SPLINE
  5
1e9
100
AcDbEntity
  8
0
 62
5
100
AcDbSpline
 70
8
 71
3
 72
8
 73
4
 74
0
 40
0
 40
0
 40
0
 40
0
 40
1
 40
1
 40
1
 40
1
 10
30.221110
 20
291.303541
 30
0.0
 10
30.263859
 20
291.294095
 30
0.0
 10
30.306245
 20
291.282983
 30
0.0
 10
30.348013
 20
291.269888
 30
0.0
  0
SPLINE
  5
1ea
100
AcDbEntity
  8
0
 62
5
100
AcDbSpline
 70
8
 71
3
 72
8
 73
4
 74
0
 40
0
 40
0
 40
0
 40
0
 40
1
 40
1
 40
1
 40
1
 10
30.348013
 20
291.269888
 30
0.0
 10
30.387671
 20
291.257453
 30
0.0
 10
30.426771
 20
291.243205
 30
0.0
 10
30.465101
 20
291.227118
 30
0.0
  0
SPLINE
  5
1eb
100
AcDbEntity
  8
0
 62
5
100
AcDbSpline
 70
8
 71
3
 72
8
 73
4
 74
0
 40
0
 40
0
 40
0
 40
0
 40
1
 40
1
 40
1
 40
1
 10
30.465101
 20
291.227118
 30
0.0
 10
30.501164
 20
291.211984
 30
0.0
 10
30.536541
 20
291.195215
 30
0.0
 10
30.570969
 20
291.176639
 30
0.0
  0
SPLINE
  5
1ec
100
AcDbEntity
  8
0
 62
5
100
AcDbSpline
 70
8
 71
3
 72
8
 73
4
 74
0
 40
0
 40
0
 40
0
 40
0
 40
1
 40
1
 40
1
 40
1
 10
30.570969
 20
291.176639
 30
0.0
 10
30.604042
 20
291.158779
 30
0.0
 10
30.636236
 20
291.139277
 30
0.0
 10
30.667023
 20
291.117745
 30
0.0
  0
SPLINE
  5
1ed
100
AcDbEntity
  8
0
 62
5
100
AcDbSpline
 70
8
 71
3
 72
8
 73
4
 74
0
 40
0
 40
0
 40
0
 40
0
 40
1
 40
1
 40
1
 40
1
 10
30.667023
 20
291.117745
 30
0.0
 10
30.696614
 20
291.097055
 30
0.0
 10
30.724906
 20
291.074491
 30
0.0
 10
30.751859
 20
291.050438
 30
0.0
  0
SPLINE
  5
1ee
100
AcDbEntity
  8
0
 62
5
100
AcDbSpline
 70
8
 71
3
 72
8
 73
4
 74
0
 40
0
 40
0
 40
0
 40
0
 40
1
 40
1
 40
1
 40
1
 10
30.751859
 20
291.050438
 30
0.0
 10
30.778265
 20
291.026863
 30
0.0
 10
30.803384
 20
291.001868
 30
0.0
 10
30.826879
 20
290.975418
 30
0.0
  0
SPLINE
  5
1ef
100
AcDbEntity
  8
0
 62
5
100
AcDbSpline
 70
8
 71
3
 72
8
 73
4
 74
0
 40
0
 40
0
 40
0
 40
0
 40
1
 40
1
 40
1
 40
1
 10
30.826879
 20
290.975418
 30
0.0
 10
30.849977
 20
290.949409
 30
0.0
 10
30.871525
 20
290.921974
 30
0.0
 10
30.891382
 20
290.893386
 30
0.0
  0
SPLINE
  5
1f0
100
AcDbEntity
  8
0
 62
5
100
AcDbSpline
 70
8
 71
3
 72
8
 73
4
 74
0
 40
0
 40
0
 40
0
 40
0
 40
1
 40
1
 40
1
 40
1
 10
30.891382
 20
290.893386
 30
0.0
 10
30.911385
 20
290.864592
 30
0.0
 10
30.929670
 20
290.834617
 30
0.0
 10
30.946069
 20
290.803642
 30
0.0
  0
SPLINE
  5
1f1
100
AcDbEntity
  8
0
 62
5
100
AcDbSpline
 70
8
 71
3
 72
8
 73
4
 74
0
 40
0
 40
0
 40
0
 40
0
 40
1
 40
1
 40
1
 40
1
 10
30.946069
 20
290.803642
 30
0.0
 10
30.962658
 20
290.772294
 30
0.0
 10
30.977329
 20
290.739925
 30
0.0
 10
30.990241
 20
290.706887
 30
0.0
  0
SPLINE
  5
1f2
100
AcDbEntity
  8
0
 62
5
100
AcDbSpline
 70
8
 71
3
 72
8
 73
4
 74
0
 40
0
 40
0
 40
0
 40
0
 40
1
 40
1
 40
1
 40
1
 10
30.990241
 20
290.706887
 30
0.0
 10
31.003417
 20
290.673142
 30
0.0
 10
31.014794
 20
290.638698
 30
0.0
 10
31.024595
 20
290.603821
 30
0.0
  0
SPLINE
  5
1f3
100
AcDbEntity
  8
0
 62
5
100
AcDbSpline
 70
8
 71
3
 72
8
 73
4
 74
0
 40
0
 40
0
 40
0
 40
0
 40
1
 40
1
 40
1
 40
1
 10
31.024595
 20
290.603821
 30
0.0
 10
31.034728
 20
290.567787
 30
0.0
 10
31.043195
 20
290.531288
 30
0.0
 10
31.049836
 20
290.494447
 30
0.0
  0
SPLINE
  5
1f4
100
AcDbEntity
  8
0
 62
5
100
AcDbSpline
 70
8
 71
3
 72
8
 73
4
 74
0
 40
0
 40
0
 40
0
 40
0
 40
1
 40
1
 40
1
 40
1
 10
31.049836
 20
290.494447
 30
0.0
 10
31.056688
 20
290.456400
 30
0.0
 10
31.061610
 20
290.417991
 30
0.0
 10
31.064547
 20
290.379462
 30
0.0
  0
SPLINE
  5
1f5
100
AcDbEntity
  8
0
 62
5
100
AcDbSpline
 70
8
 71
3
 72
8
 73
4
 74
0
 40
0
 40
0
 40
0
 40
0
 40
1
 40
1
 40
1
 40
1
 10
31.064547
 20
290.379462
 30
0.0
 10
31.067616
 20
290.339349
 30
0.0
 10
31.068542
 20
290.299111
 30
0.0
 10
31.069468
 20
290.258870
 30
0.0
  0
SPLINE
  5
1f6
100
AcDbEntity
  8
0
 62
5
100
AcDbSpline
 70
8
 71
3
 72
8
 73
4
 74
0
 40
0
 40
0
 40
0
 40
0
 40
1
 40
1
 40
1
 40
1
 10
22.996049
 20
289.215626
 30
0.0
 10
23.010389
 20
289.205493
 30
0.0
 10
23.024719
 20
289.195359
 30
0.0
 10
23.038118
 20
289.184077
 30
0.0
  0
SPLINE
  5
1f7
100
AcDbEntity
  8
0
 62
5
100
AcDbSpline
 70
8
 71
3
 72
8
 73
4
 74
0
 40
0
 40
0
 40
0
 40
0
 40
1
 40
1
 40
1
 40
1
 10
23.038118
 20
289.184077
 30
0.0
 10
23.051268
 20
289.173018
 30
0.0
 10
23.063491
 20
289.160873
 30
0.0
 10
23.075276
 20
289.148319
 30
0.0
  0
SPLINE
  5
1f8
100
AcDbEntity
  8
0
 62
5
100
AcDbSpline
 70
8
 71
3
 72
8
 73
4
 74
0
 40
0
 40
0
 40
0
 40
0
 40
1
 40
1
 40
1
 40
1
 10
23.075276
 20
289.148319
 30
0.0
 10
23.087314
 20
289.135487
 30
0.0
 10
23.098903
 20
289.122231
 30
0.0
 10
23.109632
 20
289.108356
 30
0.0
  0
SPLINE
  5
1f9
100
AcDbEntity
  8
0
 62
5
100
AcDbSpline
 70
8
 71
3
 72
8
 73
4
 74
0
 40
0
 40
0
 40
0
 40
0
 40
1
 40
1
 40
1
 40
1
 10
23.109632
 20
289.108356
 30
0.0
 10
23.121009
 20
289.093645
 30
0.0
 10
23.131434
 20
289.078212
 30
0.0
 10
23.141885
 20
289.062782
 30
0.0
  0
SPLINE
  5
1fa
100
AcDbEntity
  8
0
 62
5
100
AcDbSpline
 70
8
 71
3
 72
8
 73
4
 74
0
 40
0
 40
0
 40
0
 40
0
 40
1
 40
1
 40
1
 40
1
 10
26.590702
 20
291.347038
 30
0.0
 10
26.643785
 20
291.346244
 30
0.0
 10
26.696866
 20
291.345715
 30
0.0
 10
26.749857
 20
291.342831
 30
0.0
  0
SPLINE
  5
1fb
100
AcDbEntity
  8
0
 62
5
100
AcDbSpline
 70
8
 71
3
 72
8
 73
4
 74
0
 40
0
 40
0
 40
0
 40
0
 40
1
 40
1
 40
1
 40
1
 10
26.749857
 20
291.342831
 30
0.0
 10
26.799273
 20
291.340185
 30
0.0
 10
26.848607
 20
291.335899
 30
0.0
 10
26.897793
 20
291.330211
 30
0.0
  0
SPLINE
  5
1fc
100
AcDbEntity
  8
0
 62
5
100
AcDbSpline
 70
8
 71
3
 72
8
 73
4
 74
0
 40
0
 40
0
 40
0
 40
0
 40
1
 40
1
 40
1
 40
1
 10
26.897793
 20
291.330211
 30
0.0
 10
26.943582
 20
291.324919
 30
0.0
 10
26.989244
 20
291.318463
 30
0.0
 10
27.034511
 20
291.309864
 30
0.0
  0
SPLINE
  5
1fd
100
AcDbEntity
  8
0
 62
5
100
AcDbSpline
 70
8
 71
3
 72
8
 73
4
 74
0
 40
0
 40
0
 40
0
 40
0
 40
1
 40
1
 40
1
 40
1
 10
27.034511
 20
291.309864
 30
0.0
 10
27.076728
 20
291.301847
 30
0.0
 10
27.118604
 20
291.291952
 30
0.0
 10
27.160011
 20
291.280419
 30
0.0
  0
SPLINE
  5
1fe
100
AcDbEntity
  8
0
 62
5
100
AcDbSpline
 70
8
 71
3
 72
8
 73
4
 74
0
 40
0
 40
0
 40
0
 40
0
 40
1
 40
1
 40
1
 40
1
 10
27.160011
 20
291.280419
 30
0.0
 10
27.198828
 20
291.269597
 30
0.0
 10
27.237235
 20
291.257321
 30
0.0
 10
27.274996
 20
291.243258
 30
0.0
  0
SPLINE
  5
1ff
100
AcDbEntity
  8
0
 62
5
100
AcDbSpline
 70
8
 71
3
 72
8
 73
4
 74
0
 40
0
 40
0
 40
0
 40
0
 40
1
 40
1
 40
1
 40
1
 10
27.274996
 20
291.243258
 30
0.0
 10
27.310236
 20
291.230135
 30
0.0
 10
27.344915
 20
291.215493
 30
0.0
 10
27.378763
 20
291.199088
 30
0.0
  0
SPLINE
  5
200
100
AcDbEntity
  8
0
 62
5
100
AcDbSpline
 70
8
 71
3
 72
8
 73
4
 74
0
 40
0
 40
0
 40
0
 40
0
 40
1
 40
1
 40
1
 40
1
 10
27.378763
 20
291.199088
 30
0.0
 10
27.410974
 20
291.183478
 30
0.0
 10
27.442430
 20
291.166277
 30
0.0
 10
27.472711
 20
291.147204
 30
0.0
  0
SPLINE
  5
201
100
AcDbEntity
  8
0
 62
5
100
AcDbSpline
 70
8
 71
3
 72
8
 73
4
 74
0
 40
0
 40
0
 40
0
 40
0
 40
1
 40
1
 40
1
 40
1
 10
27.472711
 20
291.147204
 30
0.0
 10
27.501644
 20
291.128974
 30
0.0
 10
27.529504
 20
291.109056
 30
0.0
 10
27.556145
 20
291.087609
 30
0.0
  0
SPLINE
  5
202
100
AcDbEntity
  8
0
 62
5
100
AcDbSpline
 70
8
 71
3
 72
8
 73
4
 74
0
 40
0
 40
0
 40
0
 40
0
 40
1
 40
1
 40
1
 40
1
 10
27.556145
 20
291.087609
 30
0.0
 10
27.581677
 20
291.067051
 30
0.0
 10
27.606101
 20
291.045101
 30
0.0
 10
27.629062
 20
291.021704
 30
0.0
  0
SPLINE
  5
203
100
AcDbEntity
  8
0
 62
5
100
AcDbSpline
 70
8
 71
3
 72
8
 73
4
 74
0
 40
0
 40
0
 40
0
 40
0
 40
1
 40
1
 40
1
 40
1
 10
27.629062
 20
291.021704
 30
0.0
 10
27.651578
 20
290.998738
 30
0.0
 10
27.672718
 20
290.974407
 30
0.0
 10
27.692165
 20
290.948787
 30
0.0
  0
SPLINE
  5
204
100
AcDbEntity
  8
0
 62
5
100
AcDbSpline
 70
8
 71
3
 72
8
 73
4
 74
0
 40
0
 40
0
 40
0
 40
0
 40
1
 40
1
 40
1
 40
1
 10
27.692165
 20
290.948787
 30
0.0
 10
27.711347
 20
290.923520
 30
0.0
 10
27.728876
 20
290.897022
 30
0.0
 10
27.744748
 20
290.869561
 30
0.0
  0
SPLINE
  5
205
100
AcDbEntity
  8
0
 62
5
100
AcDbSpline
 70
8
 71
3
 72
8
 73
4
 74
0
 40
0
 40
0
 40
0
 40
0
 40
1
 40
1
 40
1
 40
1
 10
27.744748
 20
290.869561
 30
0.0
 10
27.760702
 20
290.841941
 30
0.0
 10
27.774985
 20
290.813352
 30
0.0
 10
27.787515
 20
290.784023
 30
0.0
  0
SPLINE
  5
206
100
AcDbEntity
  8
0
 62
5
100
AcDbSpline
 70
8
 71
3
 72
8
 73
4
 74
0
 40
0
 40
0
 40
0
 40
0
 40
1
 40
1
 40
1
 40
1
 10
27.787515
 20
290.784023
 30
0.0
 10
27.800215
 20
290.754300
 30
0.0
 10
27.811116
 20
290.723820
 30
0.0
 10
27.820469
 20
290.692877
 30
0.0
  0
SPLINE
  5
207
100
AcDbEntity
  8
0
 62
5
100
AcDbSpline
 70
8
 71
3
 72
8
 73
4
 74
0
 40
0
 40
0
 40
0
 40
0
 40
1
 40
1
 40
1
 40
1
 10
27.820469
 20
290.692877
 30
0.0
 10
27.830074
 20
290.661064
 30
0.0
 10
27.838038
 20
290.628761
 30
0.0
 10
27.844308
 20
290.596122
 30
0.0
  0
SPLINE
  5
208
100
AcDbEntity
  8
0
 62
5
100
AcDbSpline
 70
8
 71
3
 72
8
 73
4
 74
0
 40
0
 40
0
 40
0
 40
0
 40
1
 40
1
 40
1
 40
1
 10
27.844308
 20
290.596122
 30
0.0
 10
27.850817
 20
290.562281
 30
0.0
 10
27.855474
 20
290.528081
 30
0.0
 10
27.858331
 20
290.493760
 30
0.0
  0
SPLINE
  5
209
100
AcDbEntity
  8
0
 62
5
100
AcDbSpline
 70
8
 71
3
 72
8
 73
4
 74
0
 40
0
 40
0
 40
0
 40
0
 40
1
 40
1
 40
1
 40
1
 10
27.858331
 20
290.493760
 30
0.0
 10
27.861294
 20
290.458088
 30
0.0
 10
27.862273
 20
290.422288
 30
0.0
 10
27.863226
 20
290.386487
 30
0.0
  0
SPLINE
  5
20a
100
AcDbEntity
  8
0
 62
5
100
AcDbSpline
 70
8
 71
3
 72
8
 73
4
 74
0
 40
0
 40
0
 40
0
 40
0
 40
1
 40
1
 40
1
 40
1
 10
21.136674
 20
287.841428
 30
0.0
 10
21.117730
 20
287.842222
 30
0.0
 10
21.098780
 20
287.843280
 30
0.0
 10
21.079884
 20
287.846349
 30
0.0
  0
SPLINE
  5
20b
100
AcDbEntity
  8
0
 62
5
100
AcDbSpline
 70
8
 71
3
 72
8
 73
4
 74
0
 40
0
 40
0
 40
0
 40
0
 40
1
 40
1
 40
1
 40
1
 10
21.079884
 20
287.846349
 30
0.0
 10
21.064009
 20
287.848995
 30
0.0
 10
21.048168
 20
287.853096
 30
0.0
 10
21.034312
 20
287.861087
 30
0.0
  0
SPLINE
  5
20c
100
AcDbEntity
  8
0
 62
5
100
AcDbSpline
 70
8
 71
3
 72
8
 73
4
 74
0
 40
0
 40
0
 40
0
 40
0
 40
1
 40
1
 40
1
 40
1
 10
21.034312
 20
287.861087
 30
0.0
 10
21.027935
 20
287.864738
 30
0.0
 10
21.021982
 20
287.869209
 30
0.0
 10
21.016770
 20
287.874395
 30
0.0
  0
SPLINE
  5
20d
100
AcDbEntity
  8
0
 62
5
100
AcDbSpline
 70
8
 71
3
 72
8
 73
4
 74
0
 40
0
 40
0
 40
0
 40
0
 40
1
 40
1
 40
1
 40
1
 10
21.016770
 20
287.874395
 30
0.0
 10
21.011319
 20
287.879819
 30
0.0
 10
21.006689
 20
287.886010
 30
0.0
 10
21.002747
 20
287.892625
 30
0.0
  0
SPLINE
  5
20e
100
AcDbEntity
  8
0
 62
5
100
AcDbSpline
 70
8
 71
3
 72
8
 73
4
 74
0
 40
0
 40
0
 40
0
 40
0
 40
1
 40
1
 40
1
 40
1
 10
21.002747
 20
287.892625
 30
0.0
 10
20.998117
 20
287.900377
 30
0.0
 10
20.994413
 20
287.908632
 30
0.0
 10
20.991529
 20
287.917152
 30
0.0
  0
SPLINE
  5
20f
100
AcDbEntity
  8
0
 62
5
100
AcDbSpline
 70
8
 71
3
 72
8
 73
4
 74
0
 40
0
 40
0
 40
0
 40
0
 40
1
 40
1
 40
1
 40
1
 10
20.991529
 20
287.917152
 30
0.0
 10
20.988274
 20
287.926756
 30
0.0
 10
20.986052
 20
287.936678
 30
0.0
 10
20.983803
 20
287.946600
 30
0.0
  0
SPLINE
  5
210
100
AcDbEntity
  8
0
 62
5
100
AcDbSpline
 70
8
 71
3
 72
8
 73
4
 74
0
 40
0
 40
0
 40
0
 40
0
 40
1
 40
1
 40
1
 40
1
 10
17.526598
 20
290.431373
 30
0.0
 10
17.524746
 20
290.388887
 30
0.0
 10
17.523026
 20
290.346400
 30
0.0
 10
17.516782
 20
290.304469
 30
0.0
  0
SPLINE
  5
211
100
AcDbEntity
  8
0
 62
5
100
AcDbSpline
 70
8
 71
3
 72
8
 73
4
 74
0
 40
0
 40
0
 40
0
 40
0
 40
1
 40
1
 40
1
 40
1
 10
17.516782
 20
290.304469
 30
0.0
 10
17.510591
 20
290.262847
 30
0.0
 10
17.500008
 20
290.221771
 30
0.0
 10
17.486636
 20
290.181773
 30
0.0
  0
SPLINE
  5
212
100
AcDbEntity
  8
0
 62
5
100
AcDbSpline
 70
8
 71
3
 72
8
 73
4
 74
0
 40
0
 40
0
 40
0
 40
0
 40
1
 40
1
 40
1
 40
1
 10
17.486636
 20
290.181773
 30
0.0
 10
17.479968
 20
290.161824
 30
0.0
 10
17.472586
 20
290.142139
 30
0.0
 10
17.464199
 20
290.122880
 30
0.0
  0
SPLINE
  5
213
100
AcDbEntity
  8
0
 62
5
100
AcDbSpline
 70
8
 71
3
 72
8
 73
4
 74
0
 40
0
 40
0
 40
0
 40
0
 40
1
 40
1
 40
1
 40
1
 10
17.464199
 20
290.122880
 30
0.0
 10
17.455785
 20
290.103512
 30
0.0
 10
17.446340
 20
290.084597
 30
0.0
 10
17.436153
 20
290.066087
 30
0.0
  0
SPLINE
  5
214
100
AcDbEntity
  8
0
 62
5
100
AcDbSpline
 70
8
 71
3
 72
8
 73
4
 74
0
 40
0
 40
0
 40
0
 40
0
 40
1
 40
1
 40
1
 40
1
 10
17.436153
 20
290.066087
 30
0.0
 10
17.425887
 20
290.047434
 30
0.0
 10
17.414907
 20
290.029194
 30
0.0
 10
17.403202
 20
290.011400
 30
0.0
  0
SPLINE
  5
215
100
AcDbEntity
  8
0
 62
5
100
AcDbSpline
 70
8
 71
3
 72
8
 73
4
 74
0
 40
0
 40
0
 40
0
 40
0
 40
1
 40
1
 40
1
 40
1
 10
17.403202
 20
290.011400
 30
0.0
 10
17.391349
 20
289.993356
 30
0.0
 10
17.378754
 20
289.975745
 30
0.0
 10
17.365340
 20
289.958817
 30
0.0
  0
SPLINE
  5
216
100
AcDbEntity
  8
0
 62
5
100
AcDbSpline
 70
8
 71
3
 72
8
 73
4
 74
0
 40
0
 40
0
 40
0
 40
0
 40
1
 40
1
 40
1
 40
1
 10
17.365340
 20
289.958817
 30
0.0
 10
17.351661
 20
289.941540
 30
0.0
 10
17.337082
 20
289.924979
 30
0.0
 10
17.321872
 20
289.909036
 30
0.0
  0
SPLINE
  5
217
100
AcDbEntity
  8
0
 62
5
100
AcDbSpline
 70
8
 71
3
 72
8
 73
4
 74
0
 40
0
 40
0
 40
0
 40
0
 40
1
 40
1
 40
1
 40
1
 10
17.321872
 20
289.909036
 30
0.0
 10
17.306341
 20
289.892764
 30
0.0
 10
17.290164
 20
289.877151
 30
0.0
 10
17.273495
 20
289.862062
 30
0.0
  0
SPLINE
  5
218
100
AcDbEntity
  8
0
 62
5
100
AcDbSpline
 70
8
 71
3
 72
8
 73
4
 74
0
 40
0
 40
0
 40
0
 40
0
 40
1
 40
1
 40
1
 40
1
 10
17.273495
 20
289.862062
 30
0.0
 10
17.256271
 20
289.846478
 30
0.0
 10
17.238541
 20
289.831447
 30
0.0
 10
17.220208
 20
289.817191
 30
0.0
  0
SPLINE
  5
219
100
AcDbEntity
  8
0
 62
5
100
AcDbSpline
 70
8
 71
3
 72
8
 73
4
 74
0
 40
0
 40
0
 40
0
 40
0
 40
1
 40
1
 40
1
 40
1
 10
17.220208
 20
289.817191
 30
0.0
 10
17.201158
 20
289.802374
 30
0.0
 10
17.181470
 20
289.788399
 30
0.0
 10
17.161314
 20
289.775122
 30
0.0
  0
SPLINE
  5
21a
100
AcDbEntity
  8
0
 62
5
100
AcDbSpline
 70
8
 71
3
 72
8
 73
4
 74
0
 40
0
 40
0
 40
0
 40
0
 40
1
 40
1
 40
1
 40
1
 10
17.161314
 20
289.775122
 30
0.0
 10
17.140545
 20
289.761443
 30
0.0
 10
17.119296
 20
289.748516
 30
0.0
 10
17.097513
 20
289.736562
 30
0.0
  0
SPLINE
  5
21b
100
AcDbEntity
  8
0
 62
5
100
AcDbSpline
 70
8
 71
3
 72
8
 73
4
 74
0
 40
0
 40
0
 40
0
 40
0
 40
1
 40
1
 40
1
 40
1
 10
17.097513
 20
289.736562
 30
0.0
 10
17.075076
 20
289.724232
 30
0.0
 10
17.052060
 20
289.712961
 30
0.0
 10
17.028803
 20
289.702206
 30
0.0
  0
SPLINE
  5
21c
100
AcDbEntity
  8
0
 62
5
100
AcDbSpline
 70
8
 71
3
 72
8
 73
4
 74
0
 40
0
 40
0
 40
0
 40
0
 40
1
 40
1
 40
1
 40
1
 10
17.028803
 20
289.702206
 30
0.0
 10
17.004356
 20
289.690908
 30
0.0
 10
16.979641
 20
289.680192
 30
0.0
 10
16.954484
 20
289.670654
 30
0.0
  0
SPLINE
  5
21d
100
AcDbEntity
  8
0
 62
5
100
AcDbSpline
 70
8
 71
3
 72
8
 73
4
 74
0
 40
0
 40
0
 40
0
 40
0
 40
1
 40
1
 40
1
 40
1
 10
16.954484
 20
289.670654
 30
0.0
 10
16.928158
 20
289.660679
 30
0.0
 10
16.901359
 20
289.652001
 30
0.0
 10
16.874556
 20
289.643312
 30
0.0
  0
SPLINE
  5
21e
100
AcDbEntity
  8
0
 62
5
100
AcDbSpline
 70
8
 71
3
 72
8
 73
4
 74
0
 40
0
 40
0
 40
0
 40
0
 40
1
 40
1
 40
1
 40
1
 10
26.668526
 20
289.217730
 30
0.0
 10
26.655112
 20
289.235325
 30
0.0
 10
26.641692
 20
289.252917
 30
0.0
 10
26.625756
 20
289.268212
 30
0.0
  0
SPLINE
  5
21f
100
AcDbEntity
  8
0
 62
5
100
AcDbSpline
 70
8
 71
3
 72
8
 73
4
 74
0
 40
0
 40
0
 40
0
 40
0
 40
1
 40
1
 40
1
 40
1
 10
26.625756
 20
289.268212
 30
0.0
 10
26.611839
 20
289.281574
 30
0.0
 10
26.596004
 20
289.293162
 30
0.0
 10
26.578782
 20
289.301865
 30
0.0
  0
SPLINE
  5
220
100
AcDbEntity
  8
0
 62
5
100
AcDbSpline
 70
8
 71
3
 72
8
 73
4
 74
0
 40
0
 40
0
 40
0
 40
0
 40
1
 40
1
 40
1
 40
1
 10
26.578782
 20
289.301865
 30
0.0
 10
26.569972
 20
289.306310
 30
0.0
 10
26.560791
 20
289.309987
 30
0.0
 10
26.551438
 20
289.313083
 30
0.0
  0
SPLINE
  5
221
100
AcDbEntity
  8
0
 62
5
100
AcDbSpline
 70
8
 71
3
 72
8
 73
4
 74
0
 40
0
 40
0
 40
0
 40
0
 40
1
 40
1
 40
1
 40
1
 10
26.551438
 20
289.313083
 30
0.0
 10
26.540669
 20
289.316628
 30
0.0
 10
26.529636
 20
289.319406
 30
0.0
 10
26.518486
 20
289.321497
 30
0.0
  0
SPLINE
  5
222
100
AcDbEntity
  8
0
 62
5
100
AcDbSpline
 70
8
 71
3
 72
8
 73
4
 74
0
 40
0
 40
0
 40
0
 40
0
 40
1
 40
1
 40
1
 40
1
 10
26.518486
 20
289.321497
 30
0.0
 10
26.505522
 20
289.323878
 30
0.0
 10
26.492372
 20
289.325492
 30
0.0
 10
26.479222
 20
289.326418
 30
0.0
  0
SPLINE
  5
223
100
AcDbEntity
  8
0
 62
5
100
AcDbSpline
 70
8
 71
3
 72
8
 73
4
 74
0
 40
0
 40
0
 40
0
 40
0
 40
1
 40
1
 40
1
 40
1
 10
26.479222
 20
289.326418
 30
0.0
 10
26.464062
 20
289.327476
 30
0.0
 10
26.448854
 20
289.327741
 30
0.0
 10
26.433651
 20
289.327741
 30
0.0
  0
SPLINE
  5
224
100
AcDbEntity
  8
0
 62
5
100
AcDbSpline
 70
8
 71
3
 72
8
 73
4
 74
0
 40
0
 40
0
 40
0
 40
0
 40
1
 40
1
 40
1
 40
1
 10
20.208391
 20
288.116269
 30
0.0
 10
20.244935
 20
288.117063
 30
0.0
 10
20.281480
 20
288.118121
 30
0.0
 10
20.317765
 20
288.121878
 30
0.0
  0
SPLINE
  5
225
100
AcDbEntity
  8
0
 62
5
100
AcDbSpline
 70
8
 71
3
 72
8
 73
4
 74
0
 40
0
 40
0
 40
0
 40
0
 40
1
 40
1
 40
1
 40
1
 10
20.317765
 20
288.121878
 30
0.0
 10
20.351028
 20
288.125424
 30
0.0
 10
20.384072
 20
288.131456
 30
0.0
 10
20.416623
 20
288.139394
 30
0.0
  0
SPLINE
  5
226
100
AcDbEntity
  8
0
 62
5
100
AcDbSpline
 70
8
 71
3
 72
8
 73
4
 74
0
 40
0
 40
0
 40
0
 40
0
 40
1
 40
1
 40
1
 40
1
 10
20.416623
 20
288.139394
 30
0.0
 10
20.447760
 20
288.146987
 30
0.0
 10
20.478446
 20
288.156301
 30
0.0
 10
20.508471
 20
288.167440
 30
0.0
  0
SPLINE
  5
227
100
AcDbEntity
  8
0
 62
5
100
AcDbSpline
 70
8
 71
3
 72
8
 73
4
 74
0
 40
0
 40
0
 40
0
 40
0
 40
1
 40
1
 40
1
 40
1
 10
20.508471
 20
288.167440
 30
0.0
 10
20.537916
 20
288.178367
 30
0.0
 10
20.566727
 20
288.191041
 30
0.0
 10
20.594709
 20
288.205299
 30
0.0
  0
SPLINE
  5
228
100
AcDbEntity
  8
0
 62
5
100
AcDbSpline
 70
8
 71
3
 72
8
 73
4
 74
0
 40
0
 40
0
 40
0
 40
0
 40
1
 40
1
 40
1
 40
1
 10
20.594709
 20
288.205299
 30
0.0
 10
20.622898
 20
288.219666
 30
0.0
 10
20.650248
 20
288.235684
 30
0.0
 10
20.676738
 20
288.252977
 30
0.0
  0
SPLINE
  5
229
100
AcDbEntity
  8
0
 62
5
100
AcDbSpline
 70
8
 71
3
 72
8
 73
4
 74
0
 40
0
 40
0
 40
0
 40
0
 40
1
 40
1
 40
1
 40
1
 10
20.676738
 20
288.252977
 30
0.0
 10
20.703524
 20
288.270466
 30
0.0
 10
20.729435
 20
288.289264
 30
0.0
 10
20.754563
 20
288.309066
 30
0.0
  0
SPLINE
  5
22a
100
AcDbEntity
  8
0
 62
5
100
AcDbSpline
 70
8
 71
3
 72
8
 73
4
 74
0
 40
0
 40
0
 40
0
 40
0
 40
1
 40
1
 40
1
 40
1
 10
20.754563
 20
288.309066
 30
0.0
 10
20.780730
 20
288.329703
 30
0.0
 10
20.806069
 20
288.351407
 30
0.0
 10
20.830284
 20
288.374270
 30
0.0
  0
SPLINE
  5
22b
100
AcDbEntity
  8
0
 62
5
100
AcDbSpline
 70
8
 71
3
 72
8
 73
4
 74
0
 40
0
 40
0
 40
0
 40
0
 40
1
 40
1
 40
1
 40
1
 10
20.830284
 20
288.374270
 30
0.0
 10
20.855631
 20
288.398215
 30
0.0
 10
20.879769
 20
288.423398
 30
0.0
 10
20.903904
 20
288.448589
 30
0.0
  0
SPLINE
  5
22c
100
AcDbEntity
  8
0
 62
5
100
AcDbSpline
 70
8
 71
3
 72
8
 73
4
 74
0
 40
0
 40
0
 40
0
 40
0
 40
1
 40
1
 40
1
 40
1
 10
20.903904
 20
288.968834
 30
0.0
 10
20.856213
 20
288.968598
 30
0.0
 10
20.808522
 20
288.968304
 30
0.0
 10
20.760873
 20
288.966717
 30
0.0
  0
SPLINE
  5
22d
100
AcDbEntity
  8
0
 62
5
100
AcDbSpline
 70
8
 71
3
 72
8
 73
4
 74
0
 40
0
 40
0
 40
0
 40
0
 40
1
 40
1
 40
1
 40
1
 10
20.760873
 20
288.966717
 30
0.0
 10
20.716658
 20
288.965129
 30
0.0
 10
20.672478
 20
288.962484
 30
0.0
 10
20.628362
 20
288.959017
 30
0.0
  0
SPLINE
  5
22e
100
AcDbEntity
  8
0
 62
5
100
AcDbSpline
 70
8
 71
3
 72
8
 73
4
 74
0
 40
0
 40
0
 40
0
 40
0
 40
1
 40
1
 40
1
 40
1
 10
20.628362
 20
288.959017
 30
0.0
 10
20.588087
 20
288.955842
 30
0.0
 10
20.547862
 20
288.952059
 30
0.0
 10
20.507770
 20
288.947085
 30
0.0
  0
SPLINE
  5
22f
100
AcDbEntity
  8
0
 62
5
100
AcDbSpline
 70
8
 71
3
 72
8
 73
4
 74
0
 40
0
 40
0
 40
0
 40
0
 40
1
 40
1
 40
1
 40
1
 10
20.507770
 20
288.947085
 30
0.0
 10
20.470927
 20
288.942534
 30
0.0
 10
20.434194
 20
288.937004
 30
0.0
 10
20.397693
 20
288.930257
 30
0.0
  0
SPLINE
  5
230
100
AcDbEntity
  8
0
 62
5
100
AcDbSpline
 70
8
 71
3
 72
8
 73
4
 74
0
 40
0
 40
0
 40
0
 40
0
 40
1
 40
1
 40
1
 40
1
 10
20.397693
 20
288.930257
 30
0.0
 10
20.364336
 20
288.924092
 30
0.0
 10
20.331176
 20
288.916949
 30
0.0
 10
20.298132
 20
288.909223
 30
0.0
  0
SPLINE
  5
231
100
AcDbEntity
  8
0
 62
5
100
AcDbSpline
 70
8
 71
3
 72
8
 73
4
 74
0
 40
0
 40
0
 40
0
 40
0
 40
1
 40
1
 40
1
 40
1
 10
20.298132
 20
288.909223
 30
0.0
 10
20.268261
 20
288.902238
 30
0.0
 10
20.238485
 20
288.894830
 30
0.0
 10
20.209092
 20
288.886098
 30
0.0
  0
SPLINE
  5
232
100
AcDbEntity
  8
0
 62
5
100
AcDbSpline
 70
8
 71
3
 72
8
 73
4
 74
0
 40
0
 40
0
 40
0
 40
0
 40
1
 40
1
 40
1
 40
1
 10
20.209092
 20
288.886098
 30
0.0
 10
20.181888
 20
288.878029
 30
0.0
 10
20.155011
 20
288.868821
 30
0.0
 10
20.128463
 20
288.858754
 30
0.0
  0
SPLINE
  5
233
100
AcDbEntity
  8
0
 62
5
100
AcDbSpline
 70
8
 71
3
 72
8
 73
4
 74
0
 40
0
 40
0
 40
0
 40
0
 40
1
 40
1
 40
1
 40
1
 10
20.128463
 20
288.858754
 30
0.0
 10
20.104756
 20
288.849758
 30
0.0
 10
20.081298
 20
288.840074
 30
0.0
 10
20.058349
 20
288.829306
 30
0.0
  0
SPLINE
  5
234
100
AcDbEntity
  8
0
 62
5
100
AcDbSpline
 70
8
 71
3
 72
8
 73
4
 74
0
 40
0
 40
0
 40
0
 40
0
 40
1
 40
1
 40
1
 40
1
 10
20.058349
 20
288.829306
 30
0.0
 10
20.037526
 20
288.819516
 30
0.0
 10
20.017121
 20
288.808827
 30
0.0
 10
19.997351
 20
288.797055
 30
0.0
  0
SPLINE
  5
235
100
AcDbEntity
  8
0
 62
5
100
AcDbSpline
 70
8
 71
3
 72
8
 73
4
 74
0
 40
0
 40
0
 40
0
 40
0
 40
1
 40
1
 40
1
 40
1
 10
19.997351
 20
288.797055
 30
0.0
 10
19.979413
 20
288.786366
 30
0.0
 10
19.961993
 20
288.774778
 30
0.0
 10
19.945469
 20
288.761998
 30
0.0
  0
SPLINE
  5
236
100
AcDbEntity
  8
0
 62
5
100
AcDbSpline
 70
8
 71
3
 72
8
 73
4
 74
0
 40
0
 40
0
 40
0
 40
0
 40
1
 40
1
 40
1
 40
1
 10
19.945469
 20
288.761998
 30
0.0
 10
19.930123
 20
288.750145
 30
0.0
 10
19.915569
 20
288.737286
 30
0.0
 10
19.901998
 20
288.723438
 30
0.0
  0
SPLINE
  5
237
100
AcDbEntity
  8
0
 62
5
100
AcDbSpline
 70
8
 71
3
 72
8
 73
4
 74
0
 40
0
 40
0
 40
0
 40
0
 40
1
 40
1
 40
1
 40
1
 10
19.901998
 20
288.723438
 30
0.0
 10
19.889563
 20
288.710738
 30
0.0
 10
19.877974
 20
288.697218
 30
0.0
 10
19.867645
 20
288.682771
 30
0.0
  0
SPLINE
  5
238
100
AcDbEntity
  8
0
 62
5
100
AcDbSpline
 70
8
 71
3
 72
8
 73
4
 74
0
 40
0
 40
0
 40
0
 40
0
 40
1
 40
1
 40
1
 40
1
 10
19.867645
 20
288.682771
 30
0.0
 10
19.857829
 20
288.669039
 30
0.0
 10
19.849150
 20
288.654461
 30
0.0
 10
19.841689
 20
288.639303
 30
0.0
  0
SPLINE
  5
239
100
AcDbEntity
  8
0
 62
5
100
AcDbSpline
 70
8
 71
3
 72
8
 73
4
 74
0
 40
0
 40
0
 40
0
 40
0
 40
1
 40
1
 40
1
 40
1
 10
19.841689
 20
288.639303
 30
0.0
 10
19.834466
 20
288.624592
 30
0.0
 10
19.828434
 20
288.609352
 30
0.0
 10
19.823459
 20
288.593728
 30
0.0
  0
SPLINE
  5
23a
100
AcDbEntity
  8
0
 62
5
100
AcDbSpline
 70
8
 71
3
 72
8
 73
4
 74
0
 40
0
 40
0
 40
0
 40
0
 40
1
 40
1
 40
1
 40
1
 10
19.823459
 20
288.593728
 30
0.0
 10
19.818432
 20
288.577933
 30
0.0
 10
19.814516
 20
288.561735
 30
0.0
 10
19.812241
 20
288.545352
 30
0.0
  0
SPLINE
  5
23b
100
AcDbEntity
  8
0
 62
5
100
AcDbSpline
 70
8
 71
3
 72
8
 73
4
 74
0
 40
0
 40
0
 40
0
 40
0
 40
1
 40
1
 40
1
 40
1
 10
19.812241
 20
288.545352
 30
0.0
 10
19.809860
 20
288.528419
 30
0.0
 10
19.809304
 20
288.511300
 30
0.0
 10
19.808749
 20
288.494171
 30
0.0
  0
SPLINE
  5
23c
100
AcDbEntity
  8
0
 62
5
100
AcDbSpline
 70
8
 71
3
 72
8
 73
4
 74
0
 40
0
 40
0
 40
0
 40
0
 40
1
 40
1
 40
1
 40
1
 10
19.808751
 20
288.494174
 30
0.0
 10
19.809280
 20
288.478034
 30
0.0
 10
19.809545
 20
288.461887
 30
0.0
 10
19.810868
 20
288.445795
 30
0.0
  0
SPLINE
  5
23d
100
AcDbEntity
  8
0
 62
5
100
AcDbSpline
 70
8
 71
3
 72
8
 73
4
 74
0
 40
0
 40
0
 40
0
 40
0
 40
1
 40
1
 40
1
 40
1
 10
19.810868
 20
288.445795
 30
0.0
 10
19.811926
 20
288.431004
 30
0.0
 10
19.813858
 20
288.416246
 30
0.0
 10
19.816477
 20
288.401625
 30
0.0
  0
SPLINE
  5
23e
100
AcDbEntity
  8
0
 62
5
100
AcDbSpline
 70
8
 71
3
 72
8
 73
4
 74
0
 40
0
 40
0
 40
0
 40
0
 40
1
 40
1
 40
1
 40
1
 10
19.816477
 20
288.401625
 30
0.0
 10
19.818858
 20
288.387655
 30
0.0
 10
19.822166
 20
288.373820
 30
0.0
 10
19.826293
 20
288.360257
 30
0.0
  0
SPLINE
  5
23f
100
AcDbEntity
  8
0
 62
5
100
AcDbSpline
 70
8
 71
3
 72
8
 73
4
 74
0
 40
0
 40
0
 40
0
 40
0
 40
1
 40
1
 40
1
 40
1
 10
19.826293
 20
288.360257
 30
0.0
 10
19.830209
 20
288.347372
 30
0.0
 10
19.834945
 20
288.334752
 30
0.0
 10
19.840316
 20
288.322398
 30
0.0
  0
SPLINE
  5
240
100
AcDbEntity
  8
0
 62
5
100
AcDbSpline
 70
8
 71
3
 72
8
 73
4
 74
0
 40
0
 40
0
 40
0
 40
0
 40
1
 40
1
 40
1
 40
1
 10
19.840316
 20
288.322398
 30
0.0
 10
19.850397
 20
288.299247
 30
0.0
 10
19.862753
 20
288.277043
 30
0.0
 10
19.877477
 20
288.256493
 30
0.0
  0
SPLINE
  5
241
100
AcDbEntity
  8
0
 62
5
100
AcDbSpline
 70
8
 71
3
 72
8
 73
4
 74
0
 40
0
 40
0
 40
0
 40
0
 40
1
 40
1
 40
1
 40
1
 10
19.877477
 20
288.256493
 30
0.0
 10
19.891288
 20
288.237205
 30
0.0
 10
19.907219
 20
288.219388
 30
0.0
 10
19.925152
 20
288.203907
 30
0.0
  0
SPLINE
  5
242
100
AcDbEntity
  8
0
 62
5
100
AcDbSpline
 70
8
 71
3
 72
8
 73
4
 74
0
 40
0
 40
0
 40
0
 40
0
 40
1
 40
1
 40
1
 40
1
 10
19.925152
 20
288.203907
 30
0.0
 10
19.942879
 20
288.188588
 30
0.0
 10
19.962593
 20
288.175581
 30
0.0
 10
19.983344
 20
288.164646
 30
0.0
  0
SPLINE
  5
243
100
AcDbEntity
  8
0
 62
5
100
AcDbSpline
 70
8
 71
3
 72
8
 73
4
 74
0
 40
0
 40
0
 40
0
 40
0
 40
1
 40
1
 40
1
 40
1
 10
19.983344
 20
288.164646
 30
0.0
 10
20.004829
 20
288.153322
 30
0.0
 10
20.027421
 20
288.144246
 30
0.0
 10
20.050654
 20
288.137301
 30
0.0
  0
SPLINE
  5
244
100
AcDbEntity
  8
0
 62
5
100
AcDbSpline
 70
8
 71
3
 72
8
 73
4
 74
0
 40
0
 40
0
 40
0
 40
0
 40
1
 40
1
 40
1
 40
1
 10
20.050654
 20
288.137301
 30
0.0
 10
20.075367
 20
288.129919
 30
0.0
 10
20.100790
 20
288.124971
 30
0.0
 10
20.126376
 20
288.121876
 30
0.0
  0
SPLINE
  5
245
100
AcDbEntity
  8
0
 62
5
100
AcDbSpline
 70
8
 71
3
 72
8
 73
4
 74
0
 40
0
 40
0
 40
0
 40
0
 40
1
 40
1
 40
1
 40
1
 10
20.126376
 20
288.121876
 30
0.0
 10
20.153599
 20
288.118595
 30
0.0
 10
20.181001
 20
288.117431
 30
0.0
 10
20.208407
 20
288.116267
 30
0.0
  0
SPLINE
  5
246
100
AcDbEntity
  8
0
 62
5
100
AcDbSpline
 70
8
 71
3
 72
8
 73
4
 74
0
 40
0
 40
0
 40
0
 40
0
 40
1
 40
1
 40
1
 40
1
 10
30.599015
 20
290.257495
 30
0.0
 10
30.598221
 20
290.285326
 30
0.0
 10
30.597427
 20
290.313155
 30
0.0
 10
30.595496
 20
290.340928
 30
0.0
  0
SPLINE
  5
247
100
AcDbEntity
  8
0
 62
5
100
AcDbSpline
 70
8
 71
3
 72
8
 73
4
 74
0
 40
0
 40
0
 40
0
 40
0
 40
1
 40
1
 40
1
 40
1
 10
30.595496
 20
290.340928
 30
0.0
 10
30.593644
 20
290.367450
 30
0.0
 10
30.590707
 20
290.393919
 30
0.0
 10
30.586394
 20
290.420155
 30
0.0
  0
SPLINE
  5
248
100
AcDbEntity
  8
0
 62
5
100
AcDbSpline
 70
8
 71
3
 72
8
 73
4
 74
0
 40
0
 40
0
 40
0
 40
0
 40
1
 40
1
 40
1
 40
1
 10
30.586394
 20
290.420155
 30
0.0
 10
30.582267
 20
290.445185
 30
0.0
 10
30.576869
 20
290.469979
 30
0.0
 10
30.570281
 20
290.494474
 30
0.0
  0
SPLINE
  5
249
100
AcDbEntity
  8
0
 62
5
100
AcDbSpline
 70
8
 71
3
 72
8
 73
4
 74
0
 40
0
 40
0
 40
0
 40
0
 40
1
 40
1
 40
1
 40
1
 10
30.570281
 20
290.494474
 30
0.0
 10
30.563958
 20
290.517969
 30
0.0
 10
30.556549
 20
290.541173
 30
0.0
 10
30.547844
 20
290.563885
 30
0.0
  0
SPLINE
  5
24a
100
AcDbEntity
  8
0
 62
5
100
AcDbSpline
 70
8
 71
3
 72
8
 73
4
 74
0
 40
0
 40
0
 40
0
 40
0
 40
1
 40
1
 40
1
 40
1
 10
30.547844
 20
290.563885
 30
0.0
 10
30.539431
 20
290.585872
 30
0.0
 10
30.529800
 20
290.607393
 30
0.0
 10
30.519097
 20
290.628388
 30
0.0
  0
SPLINE
  5
24b
100
AcDbEntity
  8
0
 62
5
100
AcDbSpline
 70
8
 71
3
 72
8
 73
4
 74
0
 40
0
 40
0
 40
0
 40
0
 40
1
 40
1
 40
1
 40
1
 10
30.519097
 20
290.628388
 30
0.0
 10
30.508541
 20
290.649131
 30
0.0
 10
30.496952
 20
290.669342
 30
0.0
 10
30.484040
 20
290.688683
 30
0.0
  0
SPLINE
  5
24c
100
AcDbEntity
  8
0
 62
5
100
AcDbSpline
 70
8
 71
3
 72
8
 73
4
 74
0
 40
0
 40
0
 40
0
 40
0
 40
1
 40
1
 40
1
 40
1
 10
30.484040
 20
290.688683
 30
0.0
 10
30.471181
 20
290.707972
 30
0.0
 10
30.456997
 20
290.726389
 30
0.0
 10
30.441974
 20
290.744074
 30
0.0
  0
SPLINE
  5
24d
100
AcDbEntity
  8
0
 62
5
100
AcDbSpline
 70
8
 71
3
 72
8
 73
4
 74
0
 40
0
 40
0
 40
0
 40
0
 40
1
 40
1
 40
1
 40
1
 10
30.441974
 20
290.744074
 30
0.0
 10
30.426972
 20
290.761722
 30
0.0
 10
30.411129
 20
290.778652
 30
0.0
 10
30.394299
 20
290.794554
 30
0.0
  0
SPLINE
  5
24e
100
AcDbEntity
  8
0
 62
5
100
AcDbSpline
 70
8
 71
3
 72
8
 73
4
 74
0
 40
0
 40
0
 40
0
 40
0
 40
1
 40
1
 40
1
 40
1
 10
30.394299
 20
290.794554
 30
0.0
 10
30.377048
 20
290.810852
 30
0.0
 10
30.358755
 20
290.826076
 30
0.0
 10
30.339609
 20
290.840126
 30
0.0
  0
SPLINE
  5
24f
100
AcDbEntity
  8
0
 62
5
100
AcDbSpline
 70
8
 71
3
 72
8
 73
4
 74
0
 40
0
 40
0
 40
0
 40
0
 40
1
 40
1
 40
1
 40
1
 10
30.339609
 20
290.840126
 30
0.0
 10
30.320110
 20
290.854440
 30
0.0
 10
30.299702
 20
290.867539
 30
0.0
 10
30.278612
 20
290.879390
 30
0.0
  0
SPLINE
  5
250
100
AcDbEntity
  8
0
 62
5
100
AcDbSpline
 70
8
 71
3
 72
8
 73
4
 74
0
 40
0
 40
0
 40
0
 40
0
 40
1
 40
1
 40
1
 40
1
 10
30.278612
 20
290.879390
 30
0.0
 10
30.256837
 20
290.891640
 30
0.0
 10
30.234297
 20
290.902541
 30
0.0
 10
30.211305
 20
290.912341
 30
0.0
  0
SPLINE
  5
251
100
AcDbEntity
  8
0
 62
5
100
AcDbSpline
 70
8
 71
3
 72
8
 73
4
 74
0
 40
0
 40
0
 40
0
 40
0
 40
1
 40
1
 40
1
 40
1
 10
30.211305
 20
290.912341
 30
0.0
 10
30.187016
 20
290.922713
 30
0.0
 10
30.162190
 20
290.931814
 30
0.0
 10
30.136986
 20
290.939686
 30
0.0
  0
SPLINE
  5
252
100
AcDbEntity
  8
0
 62
5
100
AcDbSpline
 70
8
 71
3
 72
8
 73
4
 74
0
 40
0
 40
0
 40
0
 40
0
 40
1
 40
1
 40
1
 40
1
 10
30.136986
 20
290.939686
 30
0.0
 10
30.110464
 20
290.947967
 30
0.0
 10
30.083511
 20
290.954820
 30
0.0
 10
30.056357
 20
290.960720
 30
0.0
  0
SPLINE
  5
253
100
AcDbEntity
  8
0
 62
5
100
AcDbSpline
 70
8
 71
3
 72
8
 73
4
 74
0
 40
0
 40
0
 40
0
 40
0
 40
1
 40
1
 40
1
 40
1
 10
30.056357
 20
290.960720
 30
0.0
 10
30.027584
 20
290.966964
 30
0.0
 10
29.998580
 20
290.972124
 30
0.0
 10
29.969418
 20
290.976145
 30
0.0
  0
SPLINE
  5
254
100
AcDbEntity
  8
0
 62
5
100
AcDbSpline
 70
8
 71
3
 72
8
 73
4
 74
0
 40
0
 40
0
 40
0
 40
0
 40
1
 40
1
 40
1
 40
1
 10
29.969418
 20
290.976145
 30
0.0
 10
29.938242
 20
290.980458
 30
0.0
 10
29.906881
 20
290.983474
 30
0.0
 10
29.875467
 20
290.985247
 30
0.0
  0
SPLINE
  5
255
100
AcDbEntity
  8
0
 62
5
100
AcDbSpline
 70
8
 71
3
 72
8
 73
4
 74
0
 40
0
 40
0
 40
0
 40
0
 40
1
 40
1
 40
1
 40
1
 10
29.875467
 20
290.985247
 30
0.0
 10
29.842087
 20
290.987099
 30
0.0
 10
29.808646
 20
290.987628
 30
0.0
 10
29.775208
 20
290.988052
 30
0.0
  0
SPLINE
  5
256
100
AcDbEntity
  8
0
 62
5
100
AcDbSpline
 70
8
 71
3
 72
8
 73
4
 74
0
 40
0
 40
0
 40
0
 40
0
 40
1
 40
1
 40
1
 40
1
 10
29.775198
 20
289.507295
 30
0.0
 10
29.807718
 20
289.507824
 30
0.0
 10
29.840238
 20
289.508618
 30
0.0
 10
29.872652
 20
289.510788
 30
0.0
  0
SPLINE
  5
257
100
AcDbEntity
  8
0
 62
5
100
AcDbSpline
 70
8
 71
3
 72
8
 73
4
 74
0
 40
0
 40
0
 40
0
 40
0
 40
1
 40
1
 40
1
 40
1
 10
29.872652
 20
289.510788
 30
0.0
 10
29.903380
 20
289.512904
 30
0.0
 10
29.934014
 20
289.516608
 30
0.0
 10
29.964499
 20
289.521291
 30
0.0
  0
SPLINE
  5
258
100
AcDbEntity
  8
0
 62
5
100
AcDbSpline
 70
8
 71
3
 72
8
 73
4
 74
0
 40
0
 40
0
 40
0
 40
0
 40
1
 40
1
 40
1
 40
1
 10
29.964499
 20
289.521291
 30
0.0
 10
29.993246
 20
289.525710
 30
0.0
 10
30.021866
 20
289.531028
 30
0.0
 10
30.050036
 20
289.538119
 30
0.0
  0
SPLINE
  5
259
100
AcDbEntity
  8
0
 62
5
100
AcDbSpline
 70
8
 71
3
 72
8
 73
4
 74
0
 40
0
 40
0
 40
0
 40
0
 40
1
 40
1
 40
1
 40
1
 10
30.050036
 20
289.538119
 30
0.0
 10
30.077055
 20
289.544919
 30
0.0
 10
30.103665
 20
289.553333
 30
0.0
 10
30.129964
 20
289.562672
 30
0.0
  0
SPLINE
  5
25a
100
AcDbEntity
  8
0
 62
5
100
AcDbSpline
 70
8
 71
3
 72
8
 73
4
 74
0
 40
0
 40
0
 40
0
 40
0
 40
1
 40
1
 40
1
 40
1
 10
30.129964
 20
289.562672
 30
0.0
 10
30.155205
 20
289.571615
 30
0.0
 10
30.180137
 20
289.581378
 30
0.0
 10
30.204283
 20
289.592819
 30
0.0
  0
SPLINE
  5
25b
100
AcDbEntity
  8
0
 62
5
100
AcDbSpline
 70
8
 71
3
 72
8
 73
4
 74
0
 40
0
 40
0
 40
0
 40
0
 40
1
 40
1
 40
1
 40
1
 10
30.204283
 20
289.592819
 30
0.0
 10
30.227328
 20
289.603746
 30
0.0
 10
30.249648
 20
289.616182
 30
0.0
 10
30.271590
 20
289.629279
 30
0.0
  0
SPLINE
  5
25c
100
AcDbEntity
  8
0
 62
5
100
AcDbSpline
 70
8
 71
3
 72
8
 73
4
 74
0
 40
0
 40
0
 40
0
 40
0
 40
1
 40
1
 40
1
 40
1
 10
30.271590
 20
289.629279
 30
0.0
 10
30.292783
 20
289.641926
 30
0.0
 10
30.313601
 20
289.655155
 30
0.0
 10
30.333289
 20
289.669942
 30
0.0
  0
SPLINE
  5
25d
100
AcDbEntity
  8
0
 62
5
100
AcDbSpline
 70
8
 71
3
 72
8
 73
4
 74
0
 40
0
 40
0
 40
0
 40
0
 40
1
 40
1
 40
1
 40
1
 10
30.333289
 20
289.669942
 30
0.0
 10
30.352497
 20
289.684362
 30
0.0
 10
30.370619
 20
289.700264
 30
0.0
 10
30.387978
 20
289.716919
 30
0.0
  0
SPLINE
  5
25e
100
AcDbEntity
  8
0
 62
5
100
AcDbSpline
 70
8
 71
3
 72
8
 73
4
 74
0
 40
0
 40
0
 40
0
 40
0
 40
1
 40
1
 40
1
 40
1
 10
30.387978
 20
289.716919
 30
0.0
 10
30.405176
 20
289.733429
 30
0.0
 10
30.421625
 20
289.750661
 30
0.0
 10
30.437055
 20
289.768801
 30
0.0
  0
SPLINE
  5
25f
100
AcDbEntity
  8
0
 62
5
100
AcDbSpline
 70
8
 71
3
 72
8
 73
4
 74
0
 40
0
 40
0
 40
0
 40
0
 40
1
 40
1
 40
1
 40
1
 10
30.437055
 20
289.768801
 30
0.0
 10
30.452428
 20
289.786872
 30
0.0
 10
30.466768
 20
289.805806
 30
0.0
 10
30.479823
 20
289.825591
 30
0.0
  0
SPLINE
  5
260
100
AcDbEntity
  8
0
 62
5
100
AcDbSpline
 70
8
 71
3
 72
8
 73
4
 74
0
 40
0
 40
0
 40
0
 40
0
 40
1
 40
1
 40
1
 40
1
 10
30.479823
 20
289.825591
 30
0.0
 10
30.492920
 20
289.845435
 30
0.0
 10
30.504720
 20
289.866131
 30
0.0
 10
30.515581
 20
289.887292
 30
0.0
  0
SPLINE
  5
261
100
AcDbEntity
  8
0
 62
5
100
AcDbSpline
 70
8
 71
3
 72
8
 73
4
 74
0
 40
0
 40
0
 40
0
 40
0
 40
1
 40
1
 40
1
 40
1
 10
30.515581
 20
289.887292
 30
0.0
 10
30.526720
 20
289.908988
 30
0.0
 10
30.536907
 20
289.931179
 30
0.0
 10
30.545730
 20
289.953898
 30
0.0
  0
SPLINE
  5
262
100
AcDbEntity
  8
0
 62
5
100
AcDbSpline
 70
8
 71
3
 72
8
 73
4
 74
0
 40
0
 40
0
 40
0
 40
0
 40
1
 40
1
 40
1
 40
1
 10
30.545730
 20
289.953898
 30
0.0
 10
30.554726
 20
289.977049
 30
0.0
 10
30.562293
 20
290.000746
 30
0.0
 10
30.568855
 20
290.024712
 30
0.0
  0
SPLINE
  5
263
100
AcDbEntity
  8
0
 62
5
100
AcDbSpline
 70
8
 71
3
 72
8
 73
4
 74
0
 40
0
 40
0
 40
0
 40
0
 40
1
 40
1
 40
1
 40
1
 10
30.568855
 20
290.024712
 30
0.0
 10
30.575575
 20
290.049212
 30
0.0
 10
30.581238
 20
290.074014
 30
0.0
 10
30.585683
 20
290.099030
 30
0.0
  0
SPLINE
  5
264
100
AcDbEntity
  8
0
 62
5
100
AcDbSpline
 70
8
 71
3
 72
8
 73
4
 74
0
 40
0
 40
0
 40
0
 40
0
 40
1
 40
1
 40
1
 40
1
 10
30.585683
 20
290.099030
 30
0.0
 10
30.590233
 20
290.124563
 30
0.0
 10
30.593488
 20
290.150315
 30
0.0
 10
30.595499
 20
290.176154
 30
0.0
  0
SPLINE
  5
265
100
AcDbEntity
  8
0
 62
5
100
AcDbSpline
 70
8
 71
3
 72
8
 73
4
 74
0
 40
0
 40
0
 40
0
 40
0
 40
1
 40
1
 40
1
 40
1
 10
30.595499
 20
290.176154
 30
0.0
 10
30.597615
 20
290.203207
 30
0.0
 10
30.598303
 20
290.230346
 30
0.0
 10
30.599018
 20
290.257484
 30
0.0
  0
SPLINE
  5
266
100
AcDbEntity
  8
0
 62
5
100
AcDbSpline
 70
8
 71
3
 72
8
 73
4
 74
0
 40
0
 40
0
 40
0
 40
0
 40
1
 40
1
 40
1
 40
1
 10
26.568966
 20
289.666450
 30
0.0
 10
26.602417
 20
289.666714
 30
0.0
 10
26.635869
 20
289.667244
 30
0.0
 10
26.669227
 20
289.669254
 30
0.0
  0
SPLINE
  5
267
100
AcDbEntity
  8
0
 62
5
100
AcDbSpline
 70
8
 71
3
 72
8
 73
4
 74
0
 40
0
 40
0
 40
0
 40
0
 40
1
 40
1
 40
1
 40
1
 10
26.669227
 20
289.669254
 30
0.0
 10
26.700411
 20
289.671106
 30
0.0
 10
26.731513
 20
289.674705
 30
0.0
 10
26.762477
 20
289.679070
 30
0.0
  0
SPLINE
  5
268
100
AcDbEntity
  8
0
 62
5
100
AcDbSpline
 70
8
 71
3
 72
8
 73
4
 74
0
 40
0
 40
0
 40
0
 40
0
 40
1
 40
1
 40
1
 40
1
 10
26.762477
 20
289.679070
 30
0.0
 10
26.791862
 20
289.683224
 30
0.0
 10
26.821125
 20
289.688172
 30
0.0
 10
26.850115
 20
289.694496
 30
0.0
  0
SPLINE
  5
269
100
AcDbEntity
  8
0
 62
5
100
AcDbSpline
 70
8
 71
3
 72
8
 73
4
 74
0
 40
0
 40
0
 40
0
 40
0
 40
1
 40
1
 40
1
 40
1
 10
26.850115
 20
289.694496
 30
0.0
 10
26.877542
 20
289.700475
 30
0.0
 10
26.904722
 20
289.707645
 30
0.0
 10
26.931445
 20
289.716244
 30
0.0
  0
SPLINE
  5
26a
100
AcDbEntity
  8
0
 62
5
100
AcDbSpline
 70
8
 71
3
 72
8
 73
4
 74
0
 40
0
 40
0
 40
0
 40
0
 40
1
 40
1
 40
1
 40
1
 10
26.931445
 20
289.716244
 30
0.0
 10
26.956872
 20
289.724420
 30
0.0
 10
26.981878
 20
289.733839
 30
0.0
 10
27.006465
 20
289.744290
 30
0.0
  0
SPLINE
  5
26b
100
AcDbEntity
  8
0
 62
5
100
AcDbSpline
 70
8
 71
3
 72
8
 73
4
 74
0
 40
0
 40
0
 40
0
 40
0
 40
1
 40
1
 40
1
 40
1
 10
27.006465
 20
289.744290
 30
0.0
 10
27.029854
 20
289.754239
 30
0.0
 10
27.052873
 20
289.765086
 30
0.0
 10
27.075178
 20
289.777241
 30
0.0
  0
SPLINE
  5
26c
100
AcDbEntity
  8
0
 62
5
100
AcDbSpline
 70
8
 71
3
 72
8
 73
4
 74
0
 40
0
 40
0
 40
0
 40
0
 40
1
 40
1
 40
1
 40
1
 10
27.075178
 20
289.777241
 30
0.0
 10
27.096371
 20
289.788777
 30
0.0
 10
27.116910
 20
289.801504
 30
0.0
 10
27.136876
 20
289.815103
 30
0.0
  0
SPLINE
  5
26d
100
AcDbEntity
  8
0
 62
5
100
AcDbSpline
 70
8
 71
3
 72
8
 73
4
 74
0
 40
0
 40
0
 40
0
 40
0
 40
1
 40
1
 40
1
 40
1
 10
27.136876
 20
289.815103
 30
0.0
 10
27.156323
 20
289.828359
 30
0.0
 10
27.175232
 20
289.842443
 30
0.0
 10
27.192965
 20
289.857871
 30
0.0
  0
SPLINE
  5
26e
100
AcDbEntity
  8
0
 62
5
100
AcDbSpline
 70
8
 71
3
 72
8
 73
4
 74
0
 40
0
 40
0
 40
0
 40
0
 40
1
 40
1
 40
1
 40
1
 10
27.192965
 20
289.857871
 30
0.0
 10
27.210295
 20
289.872952
 30
0.0
 10
27.226495
 20
289.889292
 30
0.0
 10
27.242042
 20
289.906247
 30
0.0
  0
SPLINE
  5
26f
100
AcDbEntity
  8
0
 62
5
100
AcDbSpline
 70
8
 71
3
 72
8
 73
4
 74
0
 40
0
 40
0
 40
0
 40
0
 40
1
 40
1
 40
1
 40
1
 10
27.242042
 20
289.906247
 30
0.0
 10
27.257441
 20
289.923022
 30
0.0
 10
27.272186
 20
289.940415
 30
0.0
 10
27.285513
 20
289.958833
 30
0.0
  0
SPLINE
  5
270
100
AcDbEntity
  8
0
 62
5
100
AcDbSpline
 70
8
 71
3
 72
8
 73
4
 74
0
 40
0
 40
0
 40
0
 40
0
 40
1
 40
1
 40
1
 40
1
 10
27.285513
 20
289.958833
 30
0.0
 10
27.298610
 20
289.976957
 30
0.0
 10
27.310358
 20
289.996062
 30
0.0
 10
27.321269
 20
290.015623
 30
0.0
  0
SPLINE
  5
271
100
AcDbEntity
  8
0
 62
5
100
AcDbSpline
 70
8
 71
3
 72
8
 73
4
 74
0
 40
0
 40
0
 40
0
 40
0
 40
1
 40
1
 40
1
 40
1
 10
27.321269
 20
290.015623
 30
0.0
 10
27.332329
 20
290.035467
 30
0.0
 10
27.342568
 20
290.055742
 30
0.0
 10
27.351419
 20
290.076620
 30
0.0
  0
SPLINE
  5
272
100
AcDbEntity
  8
0
 62
5
100
AcDbSpline
 70
8
 71
3
 72
8
 73
4
 74
0
 40
0
 40
0
 40
0
 40
0
 40
1
 40
1
 40
1
 40
1
 10
27.351419
 20
290.076620
 30
0.0
 10
27.360414
 20
290.097840
 30
0.0
 10
27.367981
 20
290.119697
 30
0.0
 10
27.374543
 20
290.141824
 30
0.0
  0
SPLINE
  5
273
100
AcDbEntity
  8
0
 62
5
100
AcDbSpline
 70
8
 71
3
 72
8
 73
4
 74
0
 40
0
 40
0
 40
0
 40
0
 40
1
 40
1
 40
1
 40
1
 10
27.374543
 20
290.141824
 30
0.0
 10
27.381264
 20
290.164446
 30
0.0
 10
27.386926
 20
290.187367
 30
0.0
 10
27.391371
 20
290.210534
 30
0.0
  0
SPLINE
  5
274
100
AcDbEntity
  8
0
 62
5
100
AcDbSpline
 70
8
 71
3
 72
8
 73
4
 74
0
 40
0
 40
0
 40
0
 40
0
 40
1
 40
1
 40
1
 40
1
 10
27.391371
 20
290.210534
 30
0.0
 10
27.395948
 20
290.234399
 30
0.0
 10
27.399202
 20
290.258537
 30
0.0
 10
27.401187
 20
290.282752
 30
0.0
  0
SPLINE
  5
275
100
AcDbEntity
  8
0
 62
5
100
AcDbSpline
 70
8
 71
3
 72
8
 73
4
 74
0
 40
0
 40
0
 40
0
 40
0
 40
1
 40
1
 40
1
 40
1
 10
27.401187
 20
290.282752
 30
0.0
 10
27.403303
 20
290.307702
 30
0.0
 10
27.403965
 20
290.332737
 30
0.0
 10
27.404706
 20
290.357772
 30
0.0
  0
SPLINE
  5
276
100
AcDbEntity
  8
0
 62
5
100
AcDbSpline
 70
8
 71
3
 72
8
 73
4
 74
0
 40
0
 40
0
 40
0
 40
0
 40
1
 40
1
 40
1
 40
1
 10
27.404703
 20
290.357756
 30
0.0
 10
27.403909
 20
290.383024
 30
0.0
 10
27.403115
 20
290.408283
 30
0.0
 10
27.401184
 20
290.433477
 30
0.0
  0
SPLINE
  5
277
100
AcDbEntity
  8
0
 62
5
100
AcDbSpline
 70
8
 71
3
 72
8
 73
4
 74
0
 40
0
 40
0
 40
0
 40
0
 40
1
 40
1
 40
1
 40
1
 10
27.401184
 20
290.433477
 30
0.0
 10
27.399332
 20
290.457210
 30
0.0
 10
27.396369
 20
290.480866
 30
0.0
 10
27.392082
 20
290.504290
 30
0.0
  0
SPLINE
  5
278
100
AcDbEntity
  8
0
 62
5
100
AcDbSpline
 70
8
 71
3
 72
8
 73
4
 74
0
 40
0
 40
0
 40
0
 40
0
 40
1
 40
1
 40
1
 40
1
 10
27.392082
 20
290.504290
 30
0.0
 10
27.387955
 20
290.526780
 30
0.0
 10
27.382610
 20
290.549034
 30
0.0
 10
27.375969
 20
290.570896
 30
0.0
  0
SPLINE
  5
279
100
AcDbEntity
  8
0
 62
5
100
AcDbSpline
 70
8
 71
3
 72
8
 73
4
 74
0
 40
0
 40
0
 40
0
 40
0
 40
1
 40
1
 40
1
 40
1
 10
27.375969
 20
290.570896
 30
0.0
 10
27.369646
 20
290.591640
 30
0.0
 10
27.362158
 20
290.611999
 30
0.0
 10
27.353533
 20
290.631893
 30
0.0
  0
SPLINE
  5
27a
100
AcDbEntity
  8
0
 62
5
100
AcDbSpline
 70
8
 71
3
 72
8
 73
4
 74
0
 40
0
 40
0
 40
0
 40
0
 40
1
 40
1
 40
1
 40
1
 10
27.353533
 20
290.631893
 30
0.0
 10
27.345092
 20
290.651367
 30
0.0
 10
27.335567
 20
290.670403
 30
0.0
 10
27.324786
 20
290.688683
 30
0.0
  0
SPLINE
  5
27b
100
AcDbEntity
  8
0
 62
5
100
AcDbSpline
 70
8
 71
3
 72
8
 73
4
 74
0
 40
0
 40
0
 40
0
 40
0
 40
1
 40
1
 40
1
 40
1
 10
27.324786
 20
290.688683
 30
0.0
 10
27.314282
 20
290.706490
 30
0.0
 10
27.302534
 20
290.723608
 30
0.0
 10
27.289731
 20
290.739867
 30
0.0
  0
SPLINE
  5
27c
100
AcDbEntity
  8
0
 62
5
100
AcDbSpline
 70
8
 71
3
 72
8
 73
4
 74
0
 40
0
 40
0
 40
0
 40
0
 40
1
 40
1
 40
1
 40
1
 10
27.289731
 20
290.739867
 30
0.0
 10
27.276713
 20
290.756377
 30
0.0
 10
27.262606
 20
290.772038
 30
0.0
 10
27.247662
 20
290.786841
 30
0.0
  0
SPLINE
  5
27d
100
AcDbEntity
  8
0
 62
5
100
AcDbSpline
 70
8
 71
3
 72
8
 73
4
 74
0
 40
0
 40
0
 40
0
 40
0
 40
1
 40
1
 40
1
 40
1
 10
27.247662
 20
290.786841
 30
0.0
 10
27.232607
 20
290.801764
 30
0.0
 10
27.216687
 20
290.815842
 30
0.0
 10
27.199987
 20
290.828907
 30
0.0
  0
SPLINE
  5
27e
100
AcDbEntity
  8
0
 62
5
100
AcDbSpline
 70
8
 71
3
 72
8
 73
4
 74
0
 40
0
 40
0
 40
0
 40
0
 40
1
 40
1
 40
1
 40
1
 10
27.199987
 20
290.828907
 30
0.0
 10
27.182762
 20
290.842375
 30
0.0
 10
27.164715
 20
290.854784
 30
0.0
 10
27.146001
 20
290.866068
 30
0.0
  0
SPLINE
  5
27f
100
AcDbEntity
  8
0
 62
5
100
AcDbSpline
 70
8
 71
3
 72
8
 73
4
 74
0
 40
0
 40
0
 40
0
 40
0
 40
1
 40
1
 40
1
 40
1
 10
27.146001
 20
290.866068
 30
0.0
 10
27.126290
 20
290.877948
 30
0.0
 10
27.105864
 20
290.888611
 30
0.0
 10
27.085002
 20
290.898321
 30
0.0
  0
SPLINE
  5
280
100
AcDbEntity
  8
0
 62
5
100
AcDbSpline
 70
8
 71
3
 72
8
 73
4
 74
0
 40
0
 40
0
 40
0
 40
0
 40
1
 40
1
 40
1
 40
1
 10
27.085002
 20
290.898321
 30
0.0
 10
27.063226
 20
290.908454
 30
0.0
 10
27.040999
 20
290.917582
 30
0.0
 10
27.018395
 20
290.925663
 30
0.0
  0
SPLINE
  5
281
100
AcDbEntity
  8
0
 62
5
100
AcDbSpline
 70
8
 71
3
 72
8
 73
4
 74
0
 40
0
 40
0
 40
0
 40
0
 40
1
 40
1
 40
1
 40
1
 10
27.018395
 20
290.925663
 30
0.0
 10
26.994451
 20
290.934235
 30
0.0
 10
26.970085
 20
290.941644
 30
0.0
 10
26.945479
 20
290.948099
 30
0.0
  0
SPLINE
  5
282
100
AcDbEntity
  8
0
 62
5
100
AcDbSpline
 70
8
 71
3
 72
8
 73
4
 74
0
 40
0
 40
0
 40
0
 40
0
 40
1
 40
1
 40
1
 40
1
 10
26.945479
 20
290.948099
 30
0.0
 10
26.919312
 20
290.954952
 30
0.0
 10
26.892861
 20
290.960720
 30
0.0
 10
26.866252
 20
290.965615
 30
0.0
  0
SPLINE
  5
283
100
AcDbEntity
  8
0
 62
5
100
AcDbSpline
 70
8
 71
3
 72
8
 73
4
 74
0
 40
0
 40
0
 40
0
 40
0
 40
1
 40
1
 40
1
 40
1
 10
26.866252
 20
290.965615
 30
0.0
 10
26.837899
 20
290.970827
 30
0.0
 10
26.809364
 20
290.975060
 30
0.0
 10
26.780715
 20
290.978235
 30
0.0
  0
SPLINE
  5
284
100
AcDbEntity
  8
0
 62
5
100
AcDbSpline
 70
8
 71
3
 72
8
 73
4
 74
0
 40
0
 40
0
 40
0
 40
0
 40
1
 40
1
 40
1
 40
1
 10
26.780715
 20
290.978235
 30
0.0
 10
26.750195
 20
290.981622
 30
0.0
 10
26.719543
 20
290.983818
 30
0.0
 10
26.688870
 20
290.985247
 30
0.0
  0
SPLINE
  5
285
100
AcDbEntity
  8
0
 62
5
100
AcDbSpline
 70
8
 71
3
 72
8
 73
4
 74
0
 40
0
 40
0
 40
0
 40
0
 40
1
 40
1
 40
1
 40
1
 10
26.688870
 20
290.985247
 30
0.0
 10
26.656168
 20
290.986834
 30
0.0
 10
26.623441
 20
290.987364
 30
0.0
 10
26.590712
 20
290.988052
 30
0.0
  0
SPLINE
  5
286
100
AcDbEntity
  8
0
 62
5
100
AcDbSpline
 70
8
 71
3
 72
8
 73
4
 74
0
 40
0
 40
0
 40
0
 40
0
 40
1
 40
1
 40
1
 40
1
 10
17.180245
 20
288.845435
 30
0.0
 10
17.179716
 20
288.867686
 30
0.0
 10
17.179452
 20
288.889914
 30
0.0
 10
17.177441
 20
288.912041
 30
0.0
  0
SPLINE
  5
287
100
AcDbEntity
  8
0
 62
5
100
AcDbSpline
 70
8
 71
3
 72
8
 73
4
 74
0
 40
0
 40
0
 40
0
 40
0
 40
1
 40
1
 40
1
 40
1
 10
17.177441
 20
288.912041
 30
0.0
 10
17.175589
 20
288.933207
 30
0.0
 10
17.172414
 20
288.954260
 30
0.0
 10
17.168339
 20
288.975141
 30
0.0
  0
SPLINE
  5
288
100
AcDbEntity
  8
0
 62
5
100
AcDbSpline
 70
8
 71
3
 72
8
 73
4
 74
0
 40
0
 40
0
 40
0
 40
0
 40
1
 40
1
 40
1
 40
1
 10
17.168339
 20
288.975141
 30
0.0
 10
17.164397
 20
288.995250
 30
0.0
 10
17.159661
 20
289.015191
 30
0.0
 10
17.153602
 20
289.034739
 30
0.0
  0
SPLINE
  5
289
100
AcDbEntity
  8
0
 62
5
100
AcDbSpline
 70
8
 71
3
 72
8
 73
4
 74
0
 40
0
 40
0
 40
0
 40
0
 40
1
 40
1
 40
1
 40
1
 10
17.153602
 20
289.034739
 30
0.0
 10
17.147702
 20
289.053815
 30
0.0
 10
17.140584
 20
289.072511
 30
0.0
 10
17.132567
 20
289.090828
 30
0.0
  0
SPLINE
  5
28a
100
AcDbEntity
  8
0
 62
5
100
AcDbSpline
 70
8
 71
3
 72
8
 73
4
 74
0
 40
0
 40
0
 40
0
 40
0
 40
1
 40
1
 40
1
 40
1
 10
17.132567
 20
289.090828
 30
0.0
 10
17.124683
 20
289.108846
 30
0.0
 10
17.115925
 20
289.126507
 30
0.0
 10
17.105927
 20
289.143411
 30
0.0
  0
SPLINE
  5
28b
100
AcDbEntity
  8
0
 62
5
100
AcDbSpline
 70
8
 71
3
 72
8
 73
4
 74
0
 40
0
 40
0
 40
0
 40
0
 40
1
 40
1
 40
1
 40
1
 10
17.105927
 20
289.143411
 30
0.0
 10
17.095978
 20
289.160185
 30
0.0
 10
17.084813
 20
289.176243
 30
0.0
 10
17.072973
 20
289.191790
 30
0.0
  0
SPLINE
  5
28c
100
AcDbEntity
  8
0
 62
5
100
AcDbSpline
 70
8
 71
3
 72
8
 73
4
 74
0
 40
0
 40
0
 40
0
 40
0
 40
1
 40
1
 40
1
 40
1
 10
17.072973
 20
289.191790
 30
0.0
 10
17.060908
 20
289.207639
 30
0.0
 10
17.048155
 20
289.222976
 30
0.0
 10
17.034412
 20
289.237362
 30
0.0
  0
SPLINE
  5
28d
100
AcDbEntity
  8
0
 62
5
100
AcDbSpline
 70
8
 71
3
 72
8
 73
4
 74
0
 40
0
 40
0
 40
0
 40
0
 40
1
 40
1
 40
1
 40
1
 10
17.034412
 20
289.237362
 30
0.0
 10
17.020363
 20
289.252073
 30
0.0
 10
17.005263
 20
289.265783
 30
0.0
 10
16.989539
 20
289.278729
 30
0.0
  0
SPLINE
  5
28e
100
AcDbEntity
  8
0
 62
5
100
AcDbSpline
 70
8
 71
3
 72
8
 73
4
 74
0
 40
0
 40
0
 40
0
 40
0
 40
1
 40
1
 40
1
 40
1
 10
16.989539
 20
289.278729
 30
0.0
 10
16.973399
 20
289.292011
 30
0.0
 10
16.956583
 20
289.304500
 30
0.0
 10
16.939059
 20
289.315887
 30
0.0
  0
SPLINE
  5
28f
100
AcDbEntity
  8
0
 62
5
100
AcDbSpline
 70
8
 71
3
 72
8
 73
4
 74
0
 40
0
 40
0
 40
0
 40
0
 40
1
 40
1
 40
1
 40
1
 10
16.939059
 20
289.315887
 30
0.0
 10
16.920803
 20
289.327741
 30
0.0
 10
16.901764
 20
289.338404
 30
0.0
 10
16.882269
 20
289.348140
 30
0.0
  0
SPLINE
  5
290
100
AcDbEntity
  8
0
 62
5
100
AcDbSpline
 70
8
 71
3
 72
8
 73
4
 74
0
 40
0
 40
0
 40
0
 40
0
 40
1
 40
1
 40
1
 40
1
 10
16.882269
 20
289.348140
 30
0.0
 10
16.861923
 20
289.358274
 30
0.0
 10
16.841097
 20
289.367402
 30
0.0
 10
16.819867
 20
289.375482
 30
0.0
  0
SPLINE
  5
291
100
AcDbEntity
  8
0
 62
5
100
AcDbSpline
 70
8
 71
3
 72
8
 73
4
 74
0
 40
0
 40
0
 40
0
 40
0
 40
1
 40
1
 40
1
 40
1
 10
16.819867
 20
289.375482
 30
0.0
 10
16.797351
 20
289.384055
 30
0.0
 10
16.774383
 20
289.391463
 30
0.0
 10
16.751157
 20
289.397919
 30
0.0
  0
SPLINE
  5
292
100
AcDbEntity
  8
0
 62
5
100
AcDbSpline
 70
8
 71
3
 72
8
 73
4
 74
0
 40
0
 40
0
 40
0
 40
0
 40
1
 40
1
 40
1
 40
1
 10
16.751157
 20
289.397919
 30
0.0
 10
16.726419
 20
289.404798
 30
0.0
 10
16.701358
 20
289.410566
 30
0.0
 10
16.676137
 20
289.415434
 30
0.0
  0
SPLINE
  5
293
100
AcDbEntity
  8
0
 62
5
100
AcDbSpline
 70
8
 71
3
 72
8
 73
4
 74
0
 40
0
 40
0
 40
0
 40
0
 40
1
 40
1
 40
1
 40
1
 10
16.676137
 20
289.415434
 30
0.0
 10
16.649198
 20
289.420647
 30
0.0
 10
16.622062
 20
289.424880
 30
0.0
 10
16.594807
 20
289.428055
 30
0.0
  0
SPLINE
  5
294
100
AcDbEntity
  8
0
 62
5
100
AcDbSpline
 70
8
 71
3
 72
8
 73
4
 74
0
 40
0
 40
0
 40
0
 40
0
 40
1
 40
1
 40
1
 40
1
 10
16.594807
 20
289.428055
 30
0.0
 10
16.565925
 20
289.431415
 30
0.0
 10
16.536911
 20
289.433638
 30
0.0
 10
16.507868
 20
289.435066
 30
0.0
  0
SPLINE
  5
295
100
AcDbEntity
  8
0
 62
5
100
AcDbSpline
 70
8
 71
3
 72
8
 73
4
 74
0
 40
0
 40
0
 40
0
 40
0
 40
1
 40
1
 40
1
 40
1
 10
16.507868
 20
289.435066
 30
0.0
 10
16.476806
 20
289.436654
 30
0.0
 10
16.445712
 20
289.437183
 30
0.0
 10
16.414621
 20
289.437871
 30
0.0
  0
SPLINE
  5
296
100
AcDbEntity
  8
0
 62
5
100
AcDbSpline
 70
8
 71
3
 72
8
 73
4
 74
0
 40
0
 40
0
 40
0
 40
0
 40
1
 40
1
 40
1
 40
1
 10
16.416724
 20
288.206011
 30
0.0
 10
16.448998
 20
288.206540
 30
0.0
 10
16.481272
 20
288.206804
 30
0.0
 10
16.513477
 20
288.208815
 30
0.0
  0
SPLINE
  5
297
100
AcDbEntity
  8
0
 62
5
100
AcDbSpline
 70
8
 71
3
 72
8
 73
4
 74
0
 40
0
 40
0
 40
0
 40
0
 40
1
 40
1
 40
1
 40
1
 10
16.513477
 20
288.208815
 30
0.0
 10
16.543724
 20
288.210667
 30
0.0
 10
16.573908
 20
288.213710
 30
0.0
 10
16.603922
 20
288.217917
 30
0.0
  0
SPLINE
  5
298
100
AcDbEntity
  8
0
 62
5
100
AcDbSpline
 70
8
 71
3
 72
8
 73
4
 74
0
 40
0
 40
0
 40
0
 40
0
 40
1
 40
1
 40
1
 40
1
 10
16.603922
 20
288.217917
 30
0.0
 10
16.631441
 20
288.221806
 30
0.0
 10
16.658818
 20
288.226648
 30
0.0
 10
16.685953
 20
288.232654
 30
0.0
  0
SPLINE
  5
299
100
AcDbEntity
  8
0
 62
5
100
AcDbSpline
 70
8
 71
3
 72
8
 73
4
 74
0
 40
0
 40
0
 40
0
 40
0
 40
1
 40
1
 40
1
 40
1
 10
16.685953
 20
288.232654
 30
0.0
 10
16.711486
 20
288.238290
 30
0.0
 10
16.736796
 20
288.244957
 30
0.0
 10
16.761675
 20
288.253001
 30
0.0
  0
SPLINE
  5
29a
100
AcDbEntity
  8
0
 62
5
100
AcDbSpline
 70
8
 71
3
 72
8
 73
4
 74
0
 40
0
 40
0
 40
0
 40
0
 40
1
 40
1
 40
1
 40
1
 10
16.761675
 20
288.253001
 30
0.0
 10
16.784984
 20
288.260515
 30
0.0
 10
16.807903
 20
288.269220
 30
0.0
 10
16.830384
 20
288.278930
 30
0.0
  0
SPLINE
  5
29b
100
AcDbEntity
  8
0
 62
5
100
AcDbSpline
 70
8
 71
3
 72
8
 73
4
 74
0
 40
0
 40
0
 40
0
 40
0
 40
1
 40
1
 40
1
 40
1
 10
16.830384
 20
288.278930
 30
0.0
 10
16.851895
 20
288.288217
 30
0.0
 10
16.872985
 20
288.298456
 30
0.0
 10
16.893485
 20
288.309780
 30
0.0
  0
SPLINE
  5
29c
100
AcDbEntity
  8
0
 62
5
100
AcDbSpline
 70
8
 71
3
 72
8
 73
4
 74
0
 40
0
 40
0
 40
0
 40
0
 40
1
 40
1
 40
1
 40
1
 10
16.893485
 20
288.309780
 30
0.0
 10
16.912799
 20
288.320443
 30
0.0
 10
16.931566
 20
288.332085
 30
0.0
 10
16.949576
 20
288.344838
 30
0.0
  0
SPLINE
  5
29d
100
AcDbEntity
  8
0
 62
5
100
AcDbSpline
 70
8
 71
3
 72
8
 73
4
 74
0
 40
0
 40
0
 40
0
 40
0
 40
1
 40
1
 40
1
 40
1
 10
16.949576
 20
288.344838
 30
0.0
 10
16.966959
 20
288.357141
 30
0.0
 10
16.983626
 20
288.370449
 30
0.0
 10
16.999355
 20
288.384800
 30
0.0
  0
SPLINE
  5
29e
100
AcDbEntity
  8
0
 62
5
100
AcDbSpline
 70
8
 71
3
 72
8
 73
4
 74
0
 40
0
 40
0
 40
0
 40
0
 40
1
 40
1
 40
1
 40
1
 10
16.999355
 20
288.384800
 30
0.0
 10
17.014754
 20
288.398850
 30
0.0
 10
17.029245
 20
288.413873
 30
0.0
 10
17.042826
 20
288.429674
 30
0.0
  0
SPLINE
  5
29f
100
AcDbEntity
  8
0
 62
5
100
AcDbSpline
 70
8
 71
3
 72
8
 73
4
 74
0
 40
0
 40
0
 40
0
 40
0
 40
1
 40
1
 40
1
 40
1
 10
17.042826
 20
288.429674
 30
0.0
 10
17.056082
 20
288.445099
 30
0.0
 10
17.068464
 20
288.461265
 30
0.0
 10
17.079984
 20
288.478050
 30
0.0
  0
SPLINE
  5
2a0
100
AcDbEntity
  8
0
 62
5
100
AcDbSpline
 70
8
 71
3
 72
8
 73
4
 74
0
 40
0
 40
0
 40
0
 40
0
 40
1
 40
1
 40
1
 40
1
 10
17.079984
 20
288.478050
 30
0.0
 10
17.091546
 20
288.494930
 30
0.0
 10
17.102262
 20
288.512425
 30
0.0
 10
17.111536
 20
288.530633
 30
0.0
  0
SPLINE
  5
2a1
100
AcDbEntity
  8
0
 62
5
100
AcDbSpline
 70
8
 71
3
 72
8
 73
4
 74
0
 40
0
 40
0
 40
0
 40
0
 40
1
 40
1
 40
1
 40
1
 10
17.111536
 20
288.530633
 30
0.0
 10
17.120902
 20
288.548995
 30
0.0
 10
17.128813
 20
288.568093
 30
0.0
 10
17.136063
 20
288.587426
 30
0.0
  0
SPLINE
  5
2a2
100
AcDbEntity
  8
0
 62
5
100
AcDbSpline
 70
8
 71
3
 72
8
 73
4
 74
0
 40
0
 40
0
 40
0
 40
0
 40
1
 40
1
 40
1
 40
1
 10
17.136063
 20
288.587426
 30
0.0
 10
17.143497
 20
288.607243
 30
0.0
 10
17.150244
 20
288.627307
 30
0.0
 10
17.155695
 20
288.647722
 30
0.0
  0
SPLINE
  5
2a3
100
AcDbEntity
  8
0
 62
5
100
AcDbSpline
 70
8
 71
3
 72
8
 73
4
 74
0
 40
0
 40
0
 40
0
 40
0
 40
1
 40
1
 40
1
 40
1
 10
17.155695
 20
288.647722
 30
0.0
 10
17.161251
 20
288.668492
 30
0.0
 10
17.165458
 20
288.689600
 30
0.0
 10
17.169030
 20
288.710822
 30
0.0
  0
SPLINE
  5
2a4
100
AcDbEntity
  8
0
 62
5
100
AcDbSpline
 70
8
 71
3
 72
8
 73
4
 74
0
 40
0
 40
0
 40
0
 40
0
 40
1
 40
1
 40
1
 40
1
 10
17.169030
 20
288.710822
 30
0.0
 10
17.172707
 20
288.732677
 30
0.0
 10
17.175697
 20
288.754661
 30
0.0
 10
17.177443
 20
288.776728
 30
0.0
  0
SPLINE
  5
2a5
100
AcDbEntity
  8
0
 62
5
100
AcDbSpline
 70
8
 71
3
 72
8
 73
4
 74
0
 40
0
 40
0
 40
0
 40
0
 40
1
 40
1
 40
1
 40
1
 10
17.177443
 20
288.776728
 30
0.0
 10
17.179296
 20
288.799561
 30
0.0
 10
17.179825
 20
288.822503
 30
0.0
 10
17.180248
 20
288.845437
 30
0.0
  0
SPLINE
  5
2a6
100
AcDbEntity
  8
0
 62
5
100
AcDbSpline
 70
8
 71
3
 72
8
 73
4
 74
0
 40
0
 40
0
 40
0
 40
0
 40
1
 40
1
 40
1
 40
1
 10
17.058950
 20
290.383696
 30
0.0
 10
17.058421
 20
290.408963
 30
0.0
 10
17.057891
 20
290.434218
 30
0.0
 10
17.056145
 20
290.459417
 30
0.0
  0
SPLINE
  5
2a7
100
AcDbEntity
  8
0
 62
5
100
AcDbSpline
 70
8
 71
3
 72
8
 73
4
 74
0
 40
0
 40
0
 40
0
 40
0
 40
1
 40
1
 40
1
 40
1
 10
17.056145
 20
290.459417
 30
0.0
 10
17.054558
 20
290.482912
 30
0.0
 10
17.051780
 20
290.506333
 30
0.0
 10
17.047731
 20
290.529529
 30
0.0
  0
SPLINE
  5
2a8
100
AcDbEntity
  8
0
 62
5
100
AcDbSpline
 70
8
 71
3
 72
8
 73
4
 74
0
 40
0
 40
0
 40
0
 40
0
 40
1
 40
1
 40
1
 40
1
 10
17.047731
 20
290.529529
 30
0.0
 10
17.043948
 20
290.551251
 30
0.0
 10
17.038974
 20
290.572791
 30
0.0
 10
17.033021
 20
290.594031
 30
0.0
  0
SPLINE
  5
2a9
100
AcDbEntity
  8
0
 62
5
100
AcDbSpline
 70
8
 71
3
 72
8
 73
4
 74
0
 40
0
 40
0
 40
0
 40
0
 40
1
 40
1
 40
1
 40
1
 10
17.033021
 20
290.594031
 30
0.0
 10
17.027279
 20
290.614457
 30
0.0
 10
17.020585
 20
290.634632
 30
0.0
 10
17.012701
 20
290.654330
 30
0.0
  0
SPLINE
  5
2aa
100
AcDbEntity
  8
0
 62
5
100
AcDbSpline
 70
8
 71
3
 72
8
 73
4
 74
0
 40
0
 40
0
 40
0
 40
0
 40
1
 40
1
 40
1
 40
1
 10
17.012701
 20
290.654330
 30
0.0
 10
17.005186
 20
290.673062
 30
0.0
 10
16.996561
 20
290.691372
 30
0.0
 10
16.986745
 20
290.709017
 30
0.0
  0
SPLINE
  5
2ab
100
AcDbEntity
  8
0
 62
5
100
AcDbSpline
 70
8
 71
3
 72
8
 73
4
 74
0
 40
0
 40
0
 40
0
 40
0
 40
1
 40
1
 40
1
 40
1
 10
16.986745
 20
290.709017
 30
0.0
 10
16.977299
 20
290.726029
 30
0.0
 10
16.966743
 20
290.742415
 30
0.0
 10
16.955196
 20
290.758094
 30
0.0
  0
SPLINE
  5
2ac
100
AcDbEntity
  8
0
 62
5
100
AcDbSpline
 70
8
 71
3
 72
8
 73
4
 74
0
 40
0
 40
0
 40
0
 40
0
 40
1
 40
1
 40
1
 40
1
 10
16.955196
 20
290.758094
 30
0.0
 10
16.943766
 20
290.773599
 30
0.0
 10
16.931410
 20
290.788421
 30
0.0
 10
16.918035
 20
290.802266
 30
0.0
  0
SPLINE
  5
2ad
100
AcDbEntity
  8
0
 62
5
100
AcDbSpline
 70
8
 71
3
 72
8
 73
4
 74
0
 40
0
 40
0
 40
0
 40
0
 40
1
 40
1
 40
1
 40
1
 10
16.918035
 20
290.802266
 30
0.0
 10
16.904462
 20
290.816316
 30
0.0
 10
16.889868
 20
290.829368
 30
0.0
 10
16.874567
 20
290.841528
 30
0.0
  0
SPLINE
  5
2ae
100
AcDbEntity
  8
0
 62
5
100
AcDbSpline
 70
8
 71
3
 72
8
 73
4
 74
0
 40
0
 40
0
 40
0
 40
0
 40
1
 40
1
 40
1
 40
1
 10
16.874567
 20
290.841528
 30
0.0
 10
16.858930
 20
290.853963
 30
0.0
 10
16.842534
 20
290.865473
 30
0.0
 10
16.825487
 20
290.875884
 30
0.0
  0
SPLINE
  5
2af
100
AcDbEntity
  8
0
 62
5
100
AcDbSpline
 70
8
 71
3
 72
8
 73
4
 74
0
 40
0
 40
0
 40
0
 40
0
 40
1
 40
1
 40
1
 40
1
 10
16.825487
 20
290.875884
 30
0.0
 10
16.807627
 20
290.886785
 30
0.0
 10
16.789067
 20
290.896495
 30
0.0
 10
16.770099
 20
290.905330
 30
0.0
  0
SPLINE
  5
2b0
100
AcDbEntity
  8
0
 62
5
100
AcDbSpline
 70
8
 71
3
 72
8
 73
4
 74
0
 40
0
 40
0
 40
0
 40
0
 40
1
 40
1
 40
1
 40
1
 10
16.770099
 20
290.905330
 30
0.0
 10
16.749938
 20
290.914722
 30
0.0
 10
16.729337
 20
290.923110
 30
0.0
 10
16.708401
 20
290.930571
 30
0.0
  0
SPLINE
  5
2b1
100
AcDbEntity
  8
0
 62
5
100
AcDbSpline
 70
8
 71
3
 72
8
 73
4
 74
0
 40
0
 40
0
 40
0
 40
0
 40
1
 40
1
 40
1
 40
1
 10
16.708401
 20
290.930571
 30
0.0
 10
16.685832
 20
290.938614
 30
0.0
 10
16.662879
 20
290.945573
 30
0.0
 10
16.639691
 20
290.951605
 30
0.0
  0
SPLINE
  5
2b2
100
AcDbEntity
  8
0
 62
5
100
AcDbSpline
 70
8
 71
3
 72
8
 73
4
 74
0
 40
0
 40
0
 40
0
 40
0
 40
1
 40
1
 40
1
 40
1
 10
16.639691
 20
290.951605
 30
0.0
 10
16.615138
 20
290.958008
 30
0.0
 10
16.590344
 20
290.963353
 30
0.0
 10
16.565372
 20
290.967745
 30
0.0
  0
SPLINE
  5
2b3
100
AcDbEntity
  8
0
 62
5
100
AcDbSpline
 70
8
 71
3
 72
8
 73
4
 74
0
 40
0
 40
0
 40
0
 40
0
 40
1
 40
1
 40
1
 40
1
 10
16.565372
 20
290.967745
 30
0.0
 10
16.538411
 20
290.972454
 30
0.0
 10
16.511260
 20
290.976000
 30
0.0
 10
16.484042
 20
290.978963
 30
0.0
  0
SPLINE
  5
2b4
100
AcDbEntity
  8
0
 62
5
100
AcDbSpline
 70
8
 71
3
 72
8
 73
4
 74
0
 40
0
 40
0
 40
0
 40
0
 40
1
 40
1
 40
1
 40
1
 10
16.484042
 20
290.978963
 30
0.0
 10
16.455126
 20
290.982085
 30
0.0
 10
16.426135
 20
290.984572
 30
0.0
 10
16.397103
 20
290.985975
 30
0.0
  0
SPLINE
  5
2b5
100
AcDbEntity
  8
0
 62
5
100
AcDbSpline
 70
8
 71
3
 72
8
 73
4
 74
0
 40
0
 40
0
 40
0
 40
0
 40
1
 40
1
 40
1
 40
1
 10
16.397103
 20
290.985975
 30
0.0
 10
16.365821
 20
290.987562
 30
0.0
 10
16.334486
 20
290.987827
 30
0.0
 10
16.303152
 20
290.988091
 30
0.0
  0
SPLINE
  5
2b6
100
AcDbEntity
  8
0
 62
5
100
AcDbSpline
 70
8
 71
3
 72
8
 73
4
 74
0
 40
0
 40
0
 40
0
 40
0
 40
1
 40
1
 40
1
 40
1
 10
16.286314
 20
289.776524
 30
0.0
 10
16.318357
 20
289.777054
 30
0.0
 10
16.350401
 20
289.777583
 30
0.0
 10
16.382368
 20
289.779329
 30
0.0
  0
SPLINE
  5
2b7
100
AcDbEntity
  8
0
 62
5
100
AcDbSpline
 70
8
 71
3
 72
8
 73
4
 74
0
 40
0
 40
0
 40
0
 40
0
 40
1
 40
1
 40
1
 40
1
 10
16.382368
 20
289.779329
 30
0.0
 10
16.412123
 20
289.781181
 30
0.0
 10
16.441809
 20
289.784039
 30
0.0
 10
16.471411
 20
289.787743
 30
0.0
  0
SPLINE
  5
2b8
100
AcDbEntity
  8
0
 62
5
100
AcDbSpline
 70
8
 71
3
 72
8
 73
4
 74
0
 40
0
 40
0
 40
0
 40
0
 40
1
 40
1
 40
1
 40
1
 10
16.471411
 20
289.787743
 30
0.0
 10
16.499144
 20
289.791209
 30
0.0
 10
16.526801
 20
289.795363
 30
0.0
 10
16.554143
 20
289.801078
 30
0.0
  0
SPLINE
  5
2b9
100
AcDbEntity
  8
0
 62
5
100
AcDbSpline
 70
8
 71
3
 72
8
 73
4
 74
0
 40
0
 40
0
 40
0
 40
0
 40
1
 40
1
 40
1
 40
1
 10
16.554143
 20
289.801078
 30
0.0
 10
16.579676
 20
289.806396
 30
0.0
 10
16.604914
 20
289.813090
 30
0.0
 10
16.629864
 20
289.820710
 30
0.0
  0
SPLINE
  5
2ba
100
AcDbEntity
  8
0
 62
5
100
AcDbSpline
 70
8
 71
3
 72
8
 73
4
 74
0
 40
0
 40
0
 40
0
 40
0
 40
1
 40
1
 40
1
 40
1
 10
16.629864
 20
289.820710
 30
0.0
 10
16.653545
 20
289.827959
 30
0.0
 10
16.676976
 20
289.836056
 30
0.0
 10
16.699976
 20
289.845237
 30
0.0
  0
SPLINE
  5
2bb
100
AcDbEntity
  8
0
 62
5
100
AcDbSpline
 70
8
 71
3
 72
8
 73
4
 74
0
 40
0
 40
0
 40
0
 40
0
 40
1
 40
1
 40
1
 40
1
 10
16.699976
 20
289.845237
 30
0.0
 10
16.721434
 20
289.853809
 30
0.0
 10
16.742548
 20
289.863334
 30
0.0
 10
16.763077
 20
289.873984
 30
0.0
  0
SPLINE
  5
2bc
100
AcDbEntity
  8
0
 62
5
100
AcDbSpline
 70
8
 71
3
 72
8
 73
4
 74
0
 40
0
 40
0
 40
0
 40
0
 40
1
 40
1
 40
1
 40
1
 10
16.763077
 20
289.873984
 30
0.0
 10
16.782788
 20
289.884197
 30
0.0
 10
16.801994
 20
289.895441
 30
0.0
 10
16.820568
 20
289.907636
 30
0.0
  0
SPLINE
  5
2bd
100
AcDbEntity
  8
0
 62
5
100
AcDbSpline
 70
8
 71
3
 72
8
 73
4
 74
0
 40
0
 40
0
 40
0
 40
0
 40
1
 40
1
 40
1
 40
1
 10
16.820568
 20
289.907636
 30
0.0
 10
16.838057
 20
289.919119
 30
0.0
 10
16.854977
 20
289.931449
 30
0.0
 10
16.871051
 20
289.944797
 30
0.0
  0
SPLINE
  5
2be
100
AcDbEntity
  8
0
 62
5
100
AcDbSpline
 70
8
 71
3
 72
8
 73
4
 74
0
 40
0
 40
0
 40
0
 40
0
 40
1
 40
1
 40
1
 40
1
 10
16.871051
 20
289.944797
 30
0.0
 10
16.886820
 20
289.957894
 30
0.0
 10
16.901769
 20
289.972001
 30
0.0
 10
16.915921
 20
289.986863
 30
0.0
  0
SPLINE
  5
2bf
100
AcDbEntity
  8
0
 62
5
100
AcDbSpline
 70
8
 71
3
 72
8
 73
4
 74
0
 40
0
 40
0
 40
0
 40
0
 40
1
 40
1
 40
1
 40
1
 10
16.915921
 20
289.986863
 30
0.0
 10
16.929653
 20
290.001283
 30
0.0
 10
16.942650
 20
290.016430
 30
0.0
 10
16.954484
 20
290.032437
 30
0.0
  0
SPLINE
  5
2c0
100
AcDbEntity
  8
0
 62
5
100
AcDbSpline
 70
8
 71
3
 72
8
 73
4
 74
0
 40
0
 40
0
 40
0
 40
0
 40
1
 40
1
 40
1
 40
1
 10
16.954484
 20
290.032437
 30
0.0
 10
16.966364
 20
290.048498
 30
0.0
 10
16.977080
 20
290.065428
 30
0.0
 10
16.986734
 20
290.082917
 30
0.0
  0
SPLINE
  5
2c1
100
AcDbEntity
  8
0
 62
5
100
AcDbSpline
 70
8
 71
3
 72
8
 73
4
 74
0
 40
0
 40
0
 40
0
 40
0
 40
1
 40
1
 40
1
 40
1
 10
16.986734
 20
290.082917
 30
0.0
 10
16.996392
 20
290.100406
 30
0.0
 10
17.005017
 20
290.118451
 30
0.0
 10
17.012690
 20
290.136903
 30
0.0
  0
SPLINE
  5
2c2
100
AcDbEntity
  8
0
 62
5
100
AcDbSpline
 70
8
 71
3
 72
8
 73
4
 74
0
 40
0
 40
0
 40
0
 40
0
 40
1
 40
1
 40
1
 40
1
 10
17.012690
 20
290.136903
 30
0.0
 10
17.020469
 20
290.155688
 30
0.0
 10
17.027242
 20
290.174900
 30
0.0
 10
17.033010
 20
290.194397
 30
0.0
  0
SPLINE
  5
2c3
100
AcDbEntity
  8
0
 62
5
100
AcDbSpline
 70
8
 71
3
 72
8
 73
4
 74
0
 40
0
 40
0
 40
0
 40
0
 40
1
 40
1
 40
1
 40
1
 10
17.033010
 20
290.194397
 30
0.0
 10
17.038963
 20
290.214452
 30
0.0
 10
17.043858
 20
290.234825
 30
0.0
 10
17.047721
 20
290.255394
 30
0.0
  0
SPLINE
  5
2c4
100
AcDbEntity
  8
0
 62
5
100
AcDbSpline
 70
8
 71
3
 72
8
 73
4
 74
0
 40
0
 40
0
 40
0
 40
0
 40
1
 40
1
 40
1
 40
1
 10
17.047721
 20
290.255394
 30
0.0
 10
17.051610
 20
290.276031
 30
0.0
 10
17.054441
 20
290.296875
 30
0.0
 10
17.056135
 20
290.317793
 30
0.0
  0
SPLINE
  5
2c5
100
AcDbEntity
  8
0
 62
5
100
AcDbSpline
 70
8
 71
3
 72
8
 73
4
 74
0
 40
0
 40
0
 40
0
 40
0
 40
1
 40
1
 40
1
 40
1
 10
17.056135
 20
290.317793
 30
0.0
 10
17.057987
 20
290.339701
 30
0.0
 10
17.058516
 20
290.361703
 30
0.0
 10
17.058939
 20
290.383698
 30
0.0
  0
LINE
  5
2c6
100
AcDbEntity
  8
0
 62
5
100
AcDbLine
 10
15.195368
 20
291.347038
 30
0.0
 11
16.303141
 21
291.347038
 31
0.0
  0
LINE
  5
2c7
100
AcDbEntity
  8
0
 62
5
100
AcDbLine
 10
15.195368
 20
287.847037
 30
0.0
 11
15.195368
 21
291.347038
 31
0.0
  0
LINE
  5
2c8
100
AcDbEntity
  8
0
 62
5
100
AcDbLine
 10
22.441464
 20
287.847037
 30
0.0
 11
22.007468
 21
287.847037
 31
0.0
  0
LINE
  5
2c9
100
AcDbEntity
  8
0
 62
5
100
AcDbLine
 10
22.441464
 20
289.013704
 30
0.0
 11
22.441464
 21
287.847037
 31
0.0
  0
LINE
  5
2ca
100
AcDbEntity
  8
0
 62
5
100
AcDbLine
 10
22.562757
 20
289.013704
 30
0.0
 11
22.441464
 21
289.013704
 31
0.0
  0
LINE
  5
2cb
100
AcDbEntity
  8
0
 62
5
100
AcDbLine
 10
24.101018
 20
287.847037
 30
0.0
 11
23.713297
 21
287.847037
 31
0.0
  0
LINE
  5
2cc
100
AcDbEntity
  8
0
 62
5
100
AcDbLine
 10
23.141885
 20
289.062782
 30
0.0
 11
24.101018
 21
287.847037
 31
0.0
  0
LINE
  5
2cd
100
AcDbEntity
  8
0
 62
5
100
AcDbLine
 10
24.040722
 20
290.314986
 30
0.0
 11
23.136977
 21
289.345336
 31
0.0
  0
LINE
  5
2ce
100
AcDbEntity
  8
0
 62
5
100
AcDbLine
 10
23.648093
 20
290.314986
 30
0.0
 11
24.040722
 21
290.314986
 31
0.0
  0
LINE
  5
2cf
100
AcDbEntity
  8
0
 62
5
100
AcDbLine
 10
22.702981
 20
289.395815
 30
0.0
 11
23.478421
 21
290.227345
 31
0.0
  0
LINE
  5
2d0
100
AcDbEntity
  8
0
 62
5
100
AcDbLine
 10
22.441464
 20
289.327807
 30
0.0
 11
22.552941
 21
289.327807
 31
0.0
  0
LINE
  5
2d1
100
AcDbEntity
  8
0
 62
5
100
AcDbLine
 10
22.441464
 20
291.436782
 30
0.0
 11
22.441464
 21
289.327807
 31
0.0
  0
LINE
  5
2d2
100
AcDbEntity
  8
0
 62
5
100
AcDbLine
 10
22.007468
 20
291.436782
 30
0.0
 11
22.441464
 21
291.436782
 31
0.0
  0
LINE
  5
2d3
100
AcDbEntity
  8
0
 62
5
100
AcDbLine
 10
22.007468
 20
287.847037
 30
0.0
 11
22.007468
 21
291.436782
 31
0.0
  0
LINE
  5
2d4
100
AcDbEntity
  8
0
 62
5
100
AcDbLine
 10
25.609132
 20
291.347038
 30
0.0
 11
26.590702
 21
291.347038
 31
0.0
  0
LINE
  5
2d5
100
AcDbEntity
  8
0
 62
5
100
AcDbLine
 10
32.220710
 20
287.847037
 30
0.0
 11
31.750958
 21
287.847037
 31
0.0
  0
LINE
  5
2d6
100
AcDbEntity
  8
0
 62
1
100
AcDbLine
 10
76.079723
 20
170.767972
 30
0.0
 11
76.079742
 21
231.616979
 31
0.0
  0
LINE
  5
2d7
100
AcDbEntity
  8
0
 62
1
100
AcDbLine
 10
76.079742
 20
231.616979
 30
0.0
 11
7.202268
 21
231.616979
 31
0.0
  0
LINE
  5
2d8
100
AcDbEntity
  8
0
 62
1
100
AcDbLine
 10
8.202269
 20
168.436701
 30
0.0
 11
9.823516
 21
168.436701
 31
0.0
  0
LINE
  5
2d9
100
AcDbEntity
  8
0
 62
1
100
AcDbLine
 10
20.438711
 20
158.122767
 30
0.0
 11
10.534621
 21
168.139786
 31
0.0
  0
LINE
  5
2da
100
AcDbEntity
  8
0
 62
1
100
AcDbLine
 10
32.830926
 20
157.407625
 30
0.0
 11
70.738262
 21
157.407625
 31
0.0
  0
LINE
  5
2db
100
AcDbEntity
  8
0
 62
1
100
AcDbLine
 10
76.079723
 20
170.767972
 30
0.0
 11
76.079723
 21
161.877734
 31
0.0
  0
LINE
  5
2dc
100
AcDbEntity
  8
0
 62
1
100
AcDbLine
 10
70.916737
 20
285.292022
 30
0.0
 11
76.095572
 21
285.292022
 31
0.0
  0
LINE
  5
2dd
100
AcDbEntity
  8
0
 62
1
100
AcDbLine
 10
61.402780
 20
291.868410
 30
0.0
 11
61.402780
 21
285.292022
 31
0.0
  0
LINE
  5
2de
100
AcDbEntity
  8
0
 62
1
100
AcDbLine
 10
54.825233
 20
291.868410
 30
0.0
 11
61.402780
 21
291.868410
 31
0.0
  0
LINE
  5
2df
100
AcDbEntity
  8
0
 62
1
100
AcDbLine
 10
54.766242
 20
291.869857
 30
0.0
 11
54.825233
 21
291.868535
 31
0.0
  0
LINE
  5
2e0
100
AcDbEntity
  8
0
 62
1
100
AcDbLine
 10
54.766242
 20
285.292022
 30
0.0
 11
54.766242
 21
291.869857
 31
0.0
  0
LINE
  5
2e1
100
AcDbEntity
  8
0
 62
1
100
AcDbLine
 10
7.202268
 20
285.292022
 30
0.0
 11
54.766242
 21
285.292022
 31
0.0
  0
LINE
  5
2e2
100
AcDbEntity
  8
0
 62
1
100
AcDbLine
 10
7.202268
 20
232.975191
 30
0.0
 11
7.202268
 21
285.292022
 31
0.0
  0
LINE
  5
2e3
100
AcDbEntity
  8
0
 62
1
100
AcDbLine
 10
7.202268
 20
232.975191
 30
0.0
 11
76.095572
 21
232.975191
 31
0.0
  0
LINE
  5
2e4
100
AcDbEntity
  8
0
 62
1
100
AcDbLine
 10
76.095572
 20
232.975191
 30
0.0
 11
76.095572
 21
285.292022
 31
0.0
  0
LINE
  5
2e5
100
AcDbEntity
  8
0
 62
1
100
AcDbLine
 10
8.750594
 20
154.240668
 30
0.0
 11
74.783770
 21
154.240668
 31
0.0
  0
LINE
  5
2e6
100
AcDbEntity
  8
0
 62
1
100
AcDbLine
 10
5.216631
 20
289.857323
 30
0.0
 11
5.216631
 21
157.774628
 31
0.0
  0
LINE
  5
2e7
100
AcDbEntity
  8
0
 62
1
100
AcDbLine
 10
74.790594
 20
293.391286
 30
0.0
 11
8.750594
 21
293.391286
 31
0.0
  0
LINE
  5
2e8
100
AcDbEntity
  8
0
 62
5
100
AcDbLine
 10
29.217805
 20
287.847037
 30
0.0
 11
28.750157
 21
287.847037
 31
0.0
  0
LINE
  5
2e9
100
AcDbEntity
  8
0
 62
5
100
AcDbLine
 10
20.983829
 20
287.946597
 30
0.0
 11
20.935453
 21
288.182174
 31
0.0
  0
LINE
  5
2ea
100
AcDbEntity
  8
0
 62
5
100
AcDbLine
 10
21.328081
 20
287.841428
 30
0.0
 11
21.136674
 21
287.841428
 31
0.0
  0
LINE
  5
2eb
100
AcDbEntity
  8
0
 62
5
100
AcDbLine
 10
21.328081
 20
289.424562
 30
0.0
 11
21.328081
 21
287.841428
 31
0.0
  0
LINE
  5
2ec
100
AcDbEntity
  8
0
 62
5
100
AcDbLine
 10
18.748653
 20
291.436782
 30
0.0
 11
18.748653
 21
287.847037
 31
0.0
  0
LINE
  5
2ed
100
AcDbEntity
  8
0
 62
5
100
AcDbLine
 10
18.317464
 20
291.436782
 30
0.0
 11
18.748653
 21
291.436782
 31
0.0
  0
LINE
  5
2ee
100
AcDbEntity
  8
0
 62
5
100
AcDbLine
 10
18.317464
 20
287.847037
 30
0.0
 11
18.317464
 21
291.436782
 31
0.0
  0
LINE
  5
2ef
100
AcDbEntity
  8
0
 62
5
100
AcDbLine
 10
27.569467
 20
287.969735
 30
0.0
 11
26.668526
 21
289.217730
 31
0.0
  0
LINE
  5
2f0
100
AcDbEntity
  8
0
 62
5
100
AcDbLine
 10
26.076778
 20
289.327807
 30
0.0
 11
26.076778
 21
287.869474
 31
0.0
  0
LINE
  5
2f1
100
AcDbEntity
  8
0
 62
5
100
AcDbLine
 10
28.175236
 20
287.869474
 30
0.0
 11
27.758771
 21
287.869474
 31
0.0
  0
LINE
  5
2f2
100
AcDbEntity
  8
0
 62
5
100
AcDbLine
 10
27.162816
 20
289.254890
 30
0.0
 11
28.175236
 21
287.869474
 31
0.0
  0
LINE
  5
2f3
100
AcDbEntity
  8
0
 62
1
100
AcDbLine
 10
7.202268
 20
231.616979
 30
0.0
 11
7.202268
 21
169.436694
 31
0.0
  0
LINE
  5
2f4
100
AcDbEntity
  8
0
 62
5
100
AcDbLine
 10
29.217805
 20
289.148319
 30
0.0
 11
29.217805
 21
287.847037
 31
0.0
  0
LINE
  5
2f5
100
AcDbEntity
  8
0
 62
5
100
AcDbLine
 10
29.775198
 20
289.148319
 30
0.0
 11
29.217805
 21
289.148319
 31
0.0
  0
LINE
  5
2f6
100
AcDbEntity
  8
0
 62
5
100
AcDbLine
 10
18.748653
 20
287.847037
 30
0.0
 11
18.317464
 21
287.847037
 31
0.0
  0
LINE
  5
2f7
100
AcDbEntity
  8
0
 62
5
100
AcDbLine
 10
25.609132
 20
287.869474
 30
0.0
 11
25.609132
 21
291.347038
 31
0.0
  0
LINE
  5
2f8
100
AcDbEntity
  8
0
 62
5
100
AcDbLine
 10
26.076778
 20
287.869474
 30
0.0
 11
25.609132
 21
287.869474
 31
0.0
  0
LINE
  5
2f9
100
AcDbEntity
  8
0
 62
1
100
AcDbLine
 10
30.123818
 20
166.385651
 30
0.0
 11
21.856920
 21
158.118745
 31
0.0
  0
LINE
  5
2fa
100
AcDbEntity
  8
0
 62
5
100
AcDbLine
 10
26.433651
 20
289.327807
 30
0.0
 11
26.076778
 21
289.327807
 31
0.0
  0
LINE
  5
2fb
100
AcDbEntity
  8
0
 62
1
100
AcDbLine
 10
61.402780
 20
285.292022
 30
0.0
 11
64.280201
 21
285.292022
 31
0.0
  0
LINE
  5
2fc
100
AcDbEntity
  8
0
 62
1
100
AcDbLine
 10
78.331012
 20
157.788625
 30
0.0
 11
78.331012
 21
289.852796
 31
0.0
  0
LINE
  5
2fd
100
AcDbEntity
  8
0
 62
5
100
AcDbLine
 10
28.750157
 20
287.847037
 30
0.0
 11
28.750157
 21
291.347038
 31
0.0
  0
LINE
  5
2fe
100
AcDbEntity
  8
0
 62
5
100
AcDbLine
 10
31.750958
 20
287.847037
 30
0.0
 11
31.750958
 21
291.347038
 31
0.0
  0
LINE
  5
2ff
100
AcDbEntity
  8
0
 62
1
100
AcDbLine
 10
64.339192
 20
291.849903
 30
0.0
 11
70.916737
 21
291.849903
 31
0.0
  0
LINE
  5
300
100
AcDbEntity
  8
0
 62
5
100
AcDbLine
 10
28.750157
 20
291.347038
 30
0.0
 11
29.775198
 21
291.347038
 31
0.0
  0
LINE
  5
301
100
AcDbEntity
  8
0
 62
5
100
AcDbLine
 10
32.220710
 20
291.347038
 30
0.0
 11
32.220710
 21
287.847037
 31
0.0
  0
LINE
  5
302
100
AcDbEntity
  8
0
 62
5
100
AcDbLine
 10
31.750958
 20
291.347038
 30
0.0
 11
32.220710
 21
291.347038
 31
0.0
  0
LINE
  5
303
100
AcDbEntity
  8
0
 62
1
100
AcDbLine
 10
70.916737
 20
291.849903
 30
0.0
 11
70.916737
 21
285.292022
 31
0.0
  0
LINE
  5
304
100
AcDbEntity
  8
0
 62
1
100
AcDbLine
 10
31.830925
 20
165.678552
 30
0.0
 11
31.830925
 21
158.407617
 31
0.0
  0
LINE
  5
305
100
AcDbEntity
  8
0
 62
1
100
AcDbLine
 10
64.280201
 20
285.292022
 30
0.0
 11
64.280201
 21
291.851350
 31
0.0
  0
LINE
  5
306
100
AcDbEntity
  8
0
 62
1
100
AcDbLine
 10
64.280201
 20
291.851350
 30
0.0
 11
64.339192
 21
291.850027
 31
0.0
  0
LINE
  5
307
100
AcDbEntity
  8
0
 62
5
100
AcDbLine
 10
19.590703
 20
289.840326
 30
0.0
 11
19.512878
 21
289.979148
 31
0.0
  0
LINE
  5
308
100
AcDbEntity
  8
0
 62
5
100
AcDbLine
 10
23.551338
 20
287.931172
 30
0.0
 11
22.744348
 21
288.931673
 31
0.0
  0
LINE
  5
309
100
AcDbEntity
  8
0
 62
5
100
AcDbLine
 10
16.424437
 20
287.847037
 30
0.0
 11
15.195368
 21
287.847037
 31
0.0
  0
LINE
  5
30a
100
AcDbEntity
  8
0
 62
5
100
AcDbLine
 10
20.903904
 20
289.238063
 30
0.0
 11
20.903904
 21
289.432275
 31
0.0
  0
LINE
  5
30b
100
AcDbEntity
  8
0
 62
5
100
AcDbLine
 10
20.903904
 20
288.448599
 30
0.0
 11
20.903904
 21
288.968834
 31
0.0
  0
LINE
  5
30c
100
AcDbEntity
  8
0
 62
5
100
AcDbLine
 10
29.217805
 20
290.988062
 30
0.0
 11
29.217805
 21
289.507295
 31
0.0
  0
LINE
  5
30d
100
AcDbEntity
  8
0
 62
5
100
AcDbLine
 10
29.217805
 20
289.507295
 30
0.0
 11
29.775198
 21
289.507295
 31
0.0
  0
LINE
  5
30e
100
AcDbEntity
  8
0
 62
5
100
AcDbLine
 10
29.775198
 20
290.988062
 30
0.0
 11
29.217805
 21
290.988062
 31
0.0
  0
LINE
  5
30f
100
AcDbEntity
  8
0
 62
5
100
AcDbLine
 10
26.076778
 20
289.666450
 30
0.0
 11
26.568966
 21
289.666450
 31
0.0
  0
LINE
  5
310
100
AcDbEntity
  8
0
 62
5
100
AcDbLine
 10
26.590702
 20
290.988062
 30
0.0
 11
26.076778
 21
290.988062
 31
0.0
  0
LINE
  5
311
100
AcDbEntity
  8
0
 62
5
100
AcDbLine
 10
26.076778
 20
290.988062
 30
0.0
 11
26.076778
 21
289.666450
 31
0.0
  0
LINE
  5
312
100
AcDbEntity
  8
0
 62
5
100
AcDbLine
 10
15.665821
 20
288.206011
 30
0.0
 11
16.416724
 21
288.206011
 31
0.0
  0
LINE
  5
313
100
AcDbEntity
  8
0
 62
5
100
AcDbLine
 10
15.665821
 20
289.437882
 30
0.0
 11
15.665821
 21
288.206011
 31
0.0
  0
LINE
  5
314
100
AcDbEntity
  8
0
 62
5
100
AcDbLine
 10
16.414621
 20
289.437882
 30
0.0
 11
15.665821
 21
289.437882
 31
0.0
  0
LINE
  5
315
100
AcDbEntity
  8
0
 62
5
100
AcDbLine
 10
15.665821
 20
290.988062
 30
0.0
 11
15.665821
 21
289.776524
 31
0.0
  0
LINE
  5
316
100
AcDbEntity
  8
0
 62
5
100
AcDbLine
 10
15.665821
 20
289.776524
 30
0.0
 11
16.286314
 21
289.776524
 31
0.0
  0
LINE
  5
317
100
AcDbEntity
  8
0
 62
5
100
AcDbLine
 10
16.303141
 20
290.988062
 30
0.0
 11
15.665821
 21
290.988062
 31
0.0
  0
SPLINE
  5
318
100
AcDbEntity
  8
0
 62
1
100
AcDbSpline
 70
8
 71
3
 72
8
 73
4
 74
0
 40
0
 40
0
 40
0
 40
0
 40
1
 40
1
 40
1
 40
1
 10
31.830925
 20
158.407617
 30
0.0
 10
31.830930
 20
157.855335
 30
0.0
 10
32.278644
 20
157.407624
 30
0.0
 10
32.830926
 20
157.407625
 30
0.0
  0
SPLINE
  5
319
100
AcDbEntity
  8
0
 62
1
100
AcDbSpline
 70
8
 71
3
 72
8
 73
4
 74
0
 40
0
 40
0
 40
0
 40
0
 40
1
 40
1
 40
1
 40
1
 10
74.783770
 20
154.240668
 30
0.0
 10
75.735507
 20
154.203797
 30
0.0
 10
76.659455
 20
154.565769
 30
0.0
 10
77.332872
 20
155.239322
 30
0.0
  0
SPLINE
  5
31a
100
AcDbEntity
  8
0
 62
1
100
AcDbSpline
 70
8
 71
3
 72
8
 73
4
 74
0
 40
0
 40
0
 40
0
 40
0
 40
1
 40
1
 40
1
 40
1
 10
77.332872
 20
155.239322
 30
0.0
 10
78.006289
 20
155.912874
 30
0.0
 10
78.368075
 20
156.836895
 30
0.0
 10
78.331012
 20
157.788625
 30
0.0
  0
SPLINE
  5
31b
100
AcDbEntity
  8
0
 62
1
100
AcDbSpline
 70
8
 71
3
 72
8
 73
4
 74
0
 40
0
 40
0
 40
0
 40
0
 40
1
 40
1
 40
1
 40
1
 10
5.216631
 20
157.774628
 30
0.0
 10
5.216632
 20
155.822875
 30
0.0
 10
6.798841
 20
154.240668
 30
0.0
 10
8.750594
 20
154.240668
 30
0.0
  0
SPLINE
  5
31c
100
AcDbEntity
  8
0
 62
1
100
AcDbSpline
 70
8
 71
3
 72
8
 73
4
 74
0
 40
0
 40
0
 40
0
 40
0
 40
1
 40
1
 40
1
 40
1
 10
8.750594
 20
293.391286
 30
0.0
 10
7.813329
 20
293.391286
 30
0.0
 10
6.914451
 20
293.018959
 30
0.0
 10
6.251705
 20
292.356212
 30
0.0
  0
SPLINE
  5
31d
100
AcDbEntity
  8
0
 62
1
100
AcDbSpline
 70
8
 71
3
 72
8
 73
4
 74
0
 40
0
 40
0
 40
0
 40
0
 40
1
 40
1
 40
1
 40
1
 10
6.251705
 20
292.356212
 30
0.0
 10
5.588958
 20
291.693465
 30
0.0
 10
5.216631
 20
290.794588
 30
0.0
 10
5.216631
 20
289.857323
 30
0.0
  0
SPLINE
  5
31e
100
AcDbEntity
  8
0
 62
1
100
AcDbSpline
 70
8
 71
3
 72
8
 73
4
 74
0
 40
0
 40
0
 40
0
 40
0
 40
1
 40
1
 40
1
 40
1
 10
78.331012
 20
289.852796
 30
0.0
 10
78.353652
 20
290.798357
 30
0.0
 10
77.987855
 20
291.711897
 30
0.0
 10
77.318868
 20
292.380519
 30
0.0
  0
SPLINE
  5
31f
100
AcDbEntity
  8
0
 62
1
100
AcDbSpline
 70
8
 71
3
 72
8
 73
4
 74
0
 40
0
 40
0
 40
0
 40
0
 40
1
 40
1
 40
1
 40
1
 10
77.318868
 20
292.380519
 30
0.0
 10
76.649881
 20
293.049141
 30
0.0
 10
75.736143
 20
293.414441
 30
0.0
 10
74.790594
 20
293.391286
 30
0.0
  0
SPLINE
  5
320
100
AcDbEntity
  8
0
 62
1
100
AcDbSpline
 70
8
 71
3
 72
8
 73
4
 74
0
 40
0
 40
0
 40
0
 40
0
 40
1
 40
1
 40
1
 40
1
 10
75.009192
 20
160.880228
 30
0.0
 10
75.285969
 20
160.860658
 30
0.0
 10
75.558435
 20
160.956964
 30
0.0
 10
75.761436
 20
161.146118
 30
0.0
  0
SPLINE
  5
321
100
AcDbEntity
  8
0
 62
1
100
AcDbSpline
 70
8
 71
3
 72
8
 73
4
 74
0
 40
0
 40
0
 40
0
 40
0
 40
1
 40
1
 40
1
 40
1
 10
75.761436
 20
161.146118
 30
0.0
 10
75.964437
 20
161.335271
 30
0.0
 10
76.079722
 20
161.600266
 30
0.0
 10
76.079723
 20
161.877734
 30
0.0
  0
SPLINE
  5
322
100
AcDbEntity
  8
0
 62
1
100
AcDbSpline
 70
8
 71
3
 72
8
 73
4
 74
0
 40
0
 40
0
 40
0
 40
0
 40
1
 40
1
 40
1
 40
1
 10
75.009192
 20
160.880228
 30
0.0
 10
73.398726
 20
160.994099
 30
0.0
 10
71.970589
 20
159.852593
 30
0.0
 10
71.726795
 20
158.256620
 30
0.0
  0
SPLINE
  5
323
100
AcDbEntity
  8
0
 62
1
100
AcDbSpline
 70
8
 71
3
 72
8
 73
4
 74
0
 40
0
 40
0
 40
0
 40
0
 40
1
 40
1
 40
1
 40
1
 10
7.202268
 20
169.436694
 30
0.0
 10
7.202272
 20
168.884412
 30
0.0
 10
7.649987
 20
168.436701
 30
0.0
 10
8.202269
 20
168.436701
 30
0.0
  0
SPLINE
  5
324
100
AcDbEntity
  8
0
 62
1
100
AcDbSpline
 70
8
 71
3
 72
8
 73
4
 74
0
 40
0
 40
0
 40
0
 40
0
 40
1
 40
1
 40
1
 40
1
 10
70.738262
 20
157.407625
 30
0.0
 10
71.232237
 20
157.407624
 30
0.0
 10
71.652203
 20
157.768309
 30
0.0
 10
71.726795
 20
158.256620
 30
0.0
  0
SPLINE
  5
325
100
AcDbEntity
  8
0
 62
1
100
AcDbSpline
 70
8
 71
3
 72
8
 73
4
 74
0
 40
0
 40
0
 40
0
 40
0
 40
1
 40
1
 40
1
 40
1
 10
10.534621
 20
168.139786
 30
0.0
 10
10.346770
 20
168.329781
 30
0.0
 10
10.090698
 20
168.436701
 30
0.0
 10
9.823516
 20
168.436701
 30
0.0
  0
SPLINE
  5
326
100
AcDbEntity
  8
0
 62
1
100
AcDbSpline
 70
8
 71
3
 72
8
 73
4
 74
0
 40
0
 40
0
 40
0
 40
0
 40
1
 40
1
 40
1
 40
1
 10
20.438711
 20
158.122767
 30
0.0
 10
20.625879
 20
157.933479
 30
0.0
 10
20.880793
 20
157.826629
 30
0.0
 10
21.146990
 20
157.825884
 30
0.0
  0
SPLINE
  5
327
100
AcDbEntity
  8
0
 62
1
100
AcDbSpline
 70
8
 71
3
 72
8
 73
4
 74
0
 40
0
 40
0
 40
0
 40
0
 40
1
 40
1
 40
1
 40
1
 10
21.146990
 20
157.825884
 30
0.0
 10
21.413187
 20
157.825139
 30
0.0
 10
21.668696
 20
157.930561
 30
0.0
 10
21.856920
 20
158.118798
 30
0.0
  0
SPLINE
  5
328
100
AcDbEntity
  8
0
 62
1
100
AcDbSpline
 70
8
 71
3
 72
8
 73
4
 74
0
 40
0
 40
0
 40
0
 40
0
 40
1
 40
1
 40
1
 40
1
 10
31.830925
 20
165.678552
 30
0.0
 10
31.830922
 20
166.083014
 30
0.0
 10
31.587279
 20
166.447647
 30
0.0
 10
31.213605
 20
166.602426
 30
0.0
  0
SPLINE
  5
329
100
AcDbEntity
  8
0
 62
1
100
AcDbSpline
 70
8
 71
3
 72
8
 73
4
 74
0
 40
0
 40
0
 40
0
 40
0
 40
1
 40
1
 40
1
 40
1
 10
31.213605
 20
166.602426
 30
0.0
 10
30.839931
 20
166.757205
 30
0.0
 10
30.409815
 20
166.671649
 30
0.0
 10
30.123818
 20
166.385651
 30
0.0
  0
ENDSEC
  0
SECTION
  2
OBJECTS
  0
DICTIONARY
  5
C
330
0
100
AcDbDictionary
  3
ACAD_GROUP
350
D
  3
ACAD_MLINESTYLE
350
17
  0
DICTIONARY
  5
D
330
C
100
AcDbDictionary
  0
DICTIONARY
  5
1A
330
C
100
AcDbDictionary
  0
DICTIONARY
  5
17
330
C
100
AcDbDictionary
  3
STANDARD
350
18
  0
DICTIONARY
  5
19
330
C
100
AcDbDictionary
  0
ENDSEC
  0
EOF
