  0
SECTION
  2
HEADER
  9
$ACADVER
  1
AC1014
  9
$HANDSEED
  5
FFFF
  9
$MEASUREMENT
 70
     1
  0
ENDSEC
  0
SECTION
  2
TABLES
  0
TABLE
  2
VPORT
  5
8
330
0
100
AcDbSymbolTable
 70
     4
  0
VPORT
  5
2E
330
8
100
AcDbSymbolTableRecord
100
AcDbViewportTableRecord
  2
*ACTIVE
 70
     0
 10
0.0
 20
0.0
 11
1.0
 21
1.0
 12
210.0
 22
148.5
 13
0.0
 23
0.0
 14
10.0
 24
10.0
 15
10.0
 25
10.0
 16
0.0
 26
0.0
 36
1.0
 17
0.0
 27
0.0
 37
0.0
 40
341.0
 41
1.24
 42
50.0
 43
0.0
 44
0.0
 50
0.0
 51
0.0
 71
     0
 72
   100
 73
     1
 74
     3
 75
     0
 76
     0
 77
     0
 78
     0
  0
ENDTAB
  0
TABLE
  2
LTYPE
  5
5
330
0
100
AcDbSymbolTable
 70
     1
  0
LTYPE
  5
14
330
5
100
AcDbSymbolTableRecord
100
AcDbLinetypeTableRecord
  2
BYBLOCK
 70
     0
  3

 72
    65
 73
     0
 40
0.0
  0
LTYPE
  5
15
330
5
100
AcDbSymbolTableRecord
100
AcDbLinetypeTableRecord
  2
BYLAYER
 70
     0
  3

 72
    65
 73
     0
 40
0.0
  0
LTYPE
  5
16
330
5
100
AcDbSymbolTableRecord
100
AcDbLinetypeTableRecord
  2
CONTINUOUS
 70
     0
  3
Solid line
 72
    65
 73
     0
 40
0.0
  0
ENDTAB
  0
TABLE
  2
LAYER
  5
2
100
AcDbSymbolTable
 70
1
  0
LAYER
  5
50
100
AcDbSymbolTableRecord
100
AcDbLayerTableRecord
  2
0
 70
0
  6
CONTINUOUS
  0
ENDTAB
  0
TABLE
  2
STYLE
  5
3
330
0
100
AcDbSymbolTable
 70
     1
  0
STYLE
  5
11
330
3
100
AcDbSymbolTableRecord
100
AcDbTextStyleTableRecord
  2
STANDARD
 70
     0
 40
0.0
 41
1.0
 50
0.0
 71
     0
 42
2.5
  3
txt
  4

  0
ENDTAB
  0
TABLE
  2
VIEW
  5
6
330
0
100
AcDbSymbolTable
 70
     0
  0
ENDTAB
  0
TABLE
  2
UCS
  5
7
330
0
100
AcDbSymbolTable
 70
     0
  0
ENDTAB
  0
TABLE
  2
APPID
  5
9
330
0
100
AcDbSymbolTable
 70
     2
  0
APPID
  5
12
330
9
100
AcDbSymbolTableRecord
100
AcDbRegAppTableRecord
  2
ACAD
 70
     0
  0
ENDTAB
  0
TABLE
  2
DIMSTYLE
  5
A
330
0
100
AcDbSymbolTable
 70
     1
  0
DIMSTYLE
105
27
330
A
100
AcDbSymbolTableRecord
100
AcDbDimStyleTableRecord
  2
ISO-25
 70
     0
  3

  4

  5

  6

  7

 40
1.0
 41
2.5
 42
0.625
 43
3.75
 44
1.25
 45
0.0
 46
0.0
 47
0.0
 48
0.0
140
2.5
141
2.5
142
0.0
143
0.03937007874016
144
1.0
145
0.0
146
1.0
147
0.625
 71
     0
 72
     0
 73
     0
 74
     0
 75
     0
 76
     0
 77
     1
 78
     8
170
     0
171
     3
172
     1
173
     0
174
     0
175
     0
176
     0
177
     0
178
     0
270
     2
271
     2
272
     2
273
     2
274
     3
340
11
275
     0
280
     0
281
     0
282
     0
283
     0
284
     8
285
     0
286
     0
287
     3
288
     0
  0
ENDTAB
  0
TABLE
  2
BLOCK_RECORD
  5
1
330
0
100
AcDbSymbolTable
 70
     1
  0
BLOCK_RECORD
  5
1F
330
1
100
AcDbSymbolTableRecord
100
AcDbBlockTableRecord
  2
*MODEL_SPACE
  0
BLOCK_RECORD
  5
1B
330
1
100
AcDbSymbolTableRecord
100
AcDbBlockTableRecord
  2
*PAPER_SPACE
  0
ENDTAB
  0
ENDSEC
  0
SECTION
  2
BLOCKS
  0
BLOCK
  5
20
330
1F
100
AcDbEntity
  8
0
100
AcDbBlockBegin
  2
*MODEL_SPACE
 70
     0
 10
0.0
 20
0.0
 30
0.0
  3
*MODEL_SPACE
  1

  0
ENDBLK
  5
21
330
1F
100
AcDbEntity
  8
0
100
AcDbBlockEnd
  0
BLOCK
  5
1C
330
1B
100
AcDbEntity
 67
     1
  8
0
100
AcDbBlockBegin
  2
*PAPER_SPACE
  1

  0
ENDBLK
  5
1D
330
1B
100
AcDbEntity
 67
     1
  8
0
100
AcDbBlockEnd
  0
ENDSEC
  0
SECTION
  2
ENTITIES
  0
LINE
  5
100
100
AcDbEntity
  8
0
 62
1
100
AcDbLine
 10
11.936663
 20
291.994197
 30
0.0
 11
11.936663
 21
285.416364
 31
0.0
  0
LINE
  5
101
100
AcDbEntity
  8
0
 62
1
100
AcDbLine
 10
26.367040
 20
291.994197
 30
0.0
 11
11.936663
 21
291.994197
 31
0.0
  0
LINE
  5
102
100
AcDbEntity
  8
0
 62
1
100
AcDbLine
 10
26.367040
 20
285.416364
 30
0.0
 11
26.367040
 21
291.994197
 31
0.0
  0
LINE
  5
103
100
AcDbEntity
  8
0
 62
1
100
AcDbLine
 10
26.367040
 20
285.416364
 30
0.0
 11
54.153282
 21
285.416364
 31
0.0
  0
LINE
  5
104
100
AcDbEntity
  8
0
 62
1
100
AcDbLine
 10
54.153282
 20
285.416364
 30
0.0
 11
54.153282
 21
291.994197
 31
0.0
  0
LINE
  5
105
100
AcDbEntity
  8
0
 62
1
100
AcDbLine
 10
54.153282
 20
291.994197
 30
0.0
 11
54.212276
 21
291.991551
 31
0.0
  0
LINE
  5
106
100
AcDbEntity
  8
0
 62
1
100
AcDbLine
 10
54.212276
 20
291.992768
 30
0.0
 11
60.789820
 21
291.992768
 31
0.0
  0
LINE
  5
107
100
AcDbEntity
  8
0
 62
1
100
AcDbLine
 10
60.789820
 20
291.992768
 30
0.0
 11
60.789820
 21
285.416364
 31
0.0
  0
LINE
  5
108
100
AcDbEntity
  8
0
 62
1
100
AcDbLine
 10
60.789820
 20
285.416364
 30
0.0
 11
63.667240
 21
285.416364
 31
0.0
  0
LINE
  5
109
100
AcDbEntity
  8
0
 62
1
100
AcDbLine
 10
63.667240
 20
285.416364
 30
0.0
 11
63.667240
 21
291.975702
 31
0.0
  0
LINE
  5
10a
100
AcDbEntity
  8
0
 62
1
100
AcDbLine
 10
63.667240
 20
291.975702
 30
0.0
 11
63.726235
 21
291.973057
 31
0.0
  0
LINE
  5
10b
100
AcDbEntity
  8
0
 62
1
100
AcDbLine
 10
63.726235
 20
291.974247
 30
0.0
 11
70.303779
 21
291.974247
 31
0.0
  0
LINE
  5
10c
100
AcDbEntity
  8
0
 62
1
100
AcDbLine
 10
70.303779
 20
291.974247
 30
0.0
 11
70.303779
 21
285.416364
 31
0.0
  0
LINE
  5
10d
100
AcDbEntity
  8
0
 62
1
100
AcDbLine
 10
70.303779
 20
285.416364
 30
0.0
 11
75.482611
 21
285.416364
 31
0.0
  0
LINE
  5
10e
100
AcDbEntity
  8
0
 62
1
100
AcDbLine
 10
75.482611
 20
233.099535
 30
0.0
 11
75.482611
 21
285.416364
 31
0.0
  0
LINE
  5
10f
100
AcDbEntity
  8
0
 62
1
100
AcDbLine
 10
6.589306
 20
233.099535
 30
0.0
 11
75.482611
 21
233.099535
 31
0.0
  0
LINE
  5
110
100
AcDbEntity
  8
0
 62
1
100
AcDbLine
 10
6.589306
 20
233.099535
 30
0.0
 11
6.589306
 21
285.416364
 31
0.0
  0
LINE
  5
111
100
AcDbEntity
  8
0
 62
1
100
AcDbLine
 10
6.589306
 20
285.416364
 30
0.0
 11
11.936663
 21
285.416364
 31
0.0
  0
SPLINE
  5
112
100
AcDbEntity
  8
0
 62
1
100
AcDbSpline
 70
8
 71
3
 72
8
 73
4
 74
0
 40
0
 40
0
 40
0
 40
0
 40
1
 40
1
 40
1
 40
1
 10
70.989534
 20
158.028882
 30
0.0
 10
71.052705
 20
158.137398
 30
0.0
 10
71.094873
 20
158.256840
 30
0.0
 10
71.113835
 20
158.380963
 30
0.0
  0
SPLINE
  5
113
100
AcDbEntity
  8
0
 62
1
100
AcDbSpline
 70
8
 71
3
 72
8
 73
4
 74
0
 40
0
 40
0
 40
0
 40
0
 40
1
 40
1
 40
1
 40
1
 10
70.989534
 20
158.028882
 30
0.0
 10
70.811692
 20
157.723378
 30
0.0
 10
70.718000
 20
157.376196
 30
0.0
 10
70.718000
 20
157.022698
 30
0.0
  0
LINE
  5
114
100
AcDbEntity
  8
0
 62
1
100
AcDbLine
 10
70.718000
 20
156.123961
 30
0.0
 11
70.718000
 21
157.022698
 31
0.0
  0
SPLINE
  5
115
100
AcDbEntity
  8
0
 62
1
100
AcDbSpline
 70
8
 71
3
 72
8
 73
4
 74
0
 40
0
 40
0
 40
0
 40
0
 40
1
 40
1
 40
1
 40
1
 10
69.718002
 20
155.123969
 30
0.0
 10
70.270283
 20
155.123970
 30
0.0
 10
70.717996
 20
155.571680
 30
0.0
 10
70.718000
 20
156.123961
 30
0.0
  0
LINE
  5
116
100
AcDbEntity
  8
0
 62
1
100
AcDbLine
 10
27.435283
 20
155.123969
 30
0.0
 11
69.718002
 21
155.123969
 31
0.0
  0
LINE
  5
117
100
AcDbEntity
  8
0
 62
1
100
AcDbLine
 10
27.435283
 20
159.606010
 30
0.0
 11
27.435283
 21
155.123969
 31
0.0
  0
SPLINE
  5
118
100
AcDbEntity
  8
0
 62
1
100
AcDbSpline
 70
8
 71
3
 72
8
 73
4
 74
0
 40
0
 40
0
 40
0
 40
0
 40
1
 40
1
 40
1
 40
1
 10
27.435283
 20
159.606010
 30
0.0
 10
27.435277
 20
160.414932
 30
0.0
 10
26.947991
 20
161.144199
 30
0.0
 10
26.200643
 20
161.453757
 30
0.0
  0
SPLINE
  5
119
100
AcDbEntity
  8
0
 62
1
100
AcDbSpline
 70
8
 71
3
 72
8
 73
4
 74
0
 40
0
 40
0
 40
0
 40
0
 40
1
 40
1
 40
1
 40
1
 10
26.200643
 20
161.453757
 30
0.0
 10
25.453296
 20
161.763315
 30
0.0
 10
24.593064
 20
161.592203
 30
0.0
 10
24.021070
 20
161.020208
 30
0.0
  0
LINE
  5
11a
100
AcDbEntity
  8
0
 62
1
100
AcDbLine
 10
24.021070
 20
161.020208
 30
0.0
 11
21.243961
 21
158.243089
 31
0.0
  0
SPLINE
  5
11b
100
AcDbEntity
  8
0
 62
1
100
AcDbSpline
 70
8
 71
3
 72
8
 73
4
 74
0
 40
0
 40
0
 40
0
 40
0
 40
1
 40
1
 40
1
 40
1
 10
19.825749
 20
158.247110
 30
0.0
 10
20.012917
 20
158.057822
 30
0.0
 10
20.267832
 20
157.950971
 30
0.0
 10
20.534030
 20
157.950227
 30
0.0
  0
SPLINE
  5
11c
100
AcDbEntity
  8
0
 62
1
100
AcDbSpline
 70
8
 71
3
 72
8
 73
4
 74
0
 40
0
 40
0
 40
0
 40
0
 40
1
 40
1
 40
1
 40
1
 10
20.534030
 20
157.950227
 30
0.0
 10
20.800228
 20
157.949482
 30
0.0
 10
21.055736
 20
158.054904
 30
0.0
 10
21.243961
 20
158.243142
 30
0.0
  0
LINE
  5
11d
100
AcDbEntity
  8
0
 62
1
100
AcDbLine
 10
19.825749
 20
158.247110
 30
0.0
 11
16.594279
 21
161.515429
 31
0.0
  0
SPLINE
  5
11e
100
AcDbEntity
  8
0
 62
1
100
AcDbSpline
 70
8
 71
3
 72
8
 73
4
 74
0
 40
0
 40
0
 40
0
 40
0
 40
1
 40
1
 40
1
 40
1
 10
16.594279
 20
161.515429
 30
0.0
 10
15.655022
 20
162.465402
 30
0.0
 10
14.374667
 20
163.000003
 30
0.0
 10
13.038758
 20
163.000006
 30
0.0
  0
LINE
  5
11f
100
AcDbEntity
  8
0
 62
1
100
AcDbLine
 10
7.589307
 20
163.000006
 30
0.0
 11
13.038758
 21
163.000006
 31
0.0
  0
SPLINE
  5
120
100
AcDbEntity
  8
0
 62
1
100
AcDbSpline
 70
8
 71
3
 72
8
 73
4
 74
0
 40
0
 40
0
 40
0
 40
0
 40
1
 40
1
 40
1
 40
1
 10
6.589306
 20
163.999999
 30
0.0
 10
6.589310
 20
163.447717
 30
0.0
 10
7.037025
 20
163.000006
 30
0.0
 10
7.589307
 20
163.000006
 30
0.0
  0
LINE
  5
121
100
AcDbEntity
  8
0
 62
1
100
AcDbLine
 10
6.589306
 20
231.741323
 30
0.0
 11
6.589306
 21
163.999999
 31
0.0
  0
LINE
  5
122
100
AcDbEntity
  8
0
 62
1
100
AcDbLine
 10
75.466781
 20
231.741323
 30
0.0
 11
6.589306
 21
231.741323
 31
0.0
  0
LINE
  5
123
100
AcDbEntity
  8
0
 62
1
100
AcDbLine
 10
75.466763
 20
162.002077
 30
0.0
 11
75.466781
 21
231.741323
 31
0.0
  0
SPLINE
  5
124
100
AcDbEntity
  8
0
 62
1
100
AcDbSpline
 70
8
 71
3
 72
8
 73
4
 74
0
 40
0
 40
0
 40
0
 40
0
 40
1
 40
1
 40
1
 40
1
 10
74.396232
 20
161.004571
 30
0.0
 10
74.673009
 20
160.985002
 30
0.0
 10
74.945475
 20
161.081308
 30
0.0
 10
75.148476
 20
161.270461
 30
0.0
  0
SPLINE
  5
125
100
AcDbEntity
  8
0
 62
1
100
AcDbSpline
 70
8
 71
3
 72
8
 73
4
 74
0
 40
0
 40
0
 40
0
 40
0
 40
1
 40
1
 40
1
 40
1
 10
75.148476
 20
161.270461
 30
0.0
 10
75.351477
 20
161.459615
 30
0.0
 10
75.466762
 20
161.724609
 30
0.0
 10
75.466763
 20
162.002077
 30
0.0
  0
SPLINE
  5
126
100
AcDbEntity
  8
0
 62
1
100
AcDbSpline
 70
8
 71
3
 72
8
 73
4
 74
0
 40
0
 40
0
 40
0
 40
0
 40
1
 40
1
 40
1
 40
1
 10
74.396232
 20
161.004571
 30
0.0
 10
72.785766
 20
161.118442
 30
0.0
 10
71.357629
 20
159.976937
 30
0.0
 10
71.113835
 20
158.380963
 30
0.0
  0
SPLINE
  5
127
100
AcDbEntity
  8
0
 62
1
100
AcDbSpline
 70
8
 71
3
 72
8
 73
4
 74
0
 40
0
 40
0
 40
0
 40
0
 40
1
 40
1
 40
1
 40
1
 10
77.718055
 20
289.977146
 30
0.0
 10
77.740693
 20
290.922707
 30
0.0
 10
77.374895
 20
291.836245
 30
0.0
 10
76.705908
 20
292.504867
 30
0.0
  0
SPLINE
  5
128
100
AcDbEntity
  8
0
 62
1
100
AcDbSpline
 70
8
 71
3
 72
8
 73
4
 74
0
 40
0
 40
0
 40
0
 40
0
 40
1
 40
1
 40
1
 40
1
 10
76.705908
 20
292.504867
 30
0.0
 10
76.036921
 20
293.173488
 30
0.0
 10
75.123182
 20
293.538786
 30
0.0
 10
74.177633
 20
293.515630
 30
0.0
  0
LINE
  5
129
100
AcDbEntity
  8
0
 62
1
100
AcDbLine
 10
74.177633
 20
293.515630
 30
0.0
 11
8.137632
 21
293.515630
 31
0.0
  0
SPLINE
  5
12a
100
AcDbEntity
  8
0
 62
1
100
AcDbSpline
 70
8
 71
3
 72
8
 73
4
 74
0
 40
0
 40
0
 40
0
 40
0
 40
1
 40
1
 40
1
 40
1
 10
8.137632
 20
293.515630
 30
0.0
 10
6.185879
 20
293.515630
 30
0.0
 10
4.603671
 20
291.933423
 30
0.0
 10
4.603670
 20
289.981670
 30
0.0
  0
LINE
  5
12b
100
AcDbEntity
  8
0
 62
1
100
AcDbLine
 10
4.603670
 20
289.981670
 30
0.0
 11
4.603670
 21
157.898972
 31
0.0
  0
SPLINE
  5
12c
100
AcDbEntity
  8
0
 62
1
100
AcDbSpline
 70
8
 71
3
 72
8
 73
4
 74
0
 40
0
 40
0
 40
0
 40
0
 40
1
 40
1
 40
1
 40
1
 10
4.603670
 20
157.898972
 30
0.0
 10
4.603671
 20
155.947219
 30
0.0
 10
6.185879
 20
154.365011
 30
0.0
 10
8.137632
 20
154.365011
 30
0.0
  0
LINE
  5
12d
100
AcDbEntity
  8
0
 62
1
100
AcDbLine
 10
8.137632
 20
154.365011
 30
0.0
 11
74.170813
 21
154.365011
 31
0.0
  0
SPLINE
  5
12e
100
AcDbEntity
  8
0
 62
1
100
AcDbSpline
 70
8
 71
3
 72
8
 73
4
 74
0
 40
0
 40
0
 40
0
 40
0
 40
1
 40
1
 40
1
 40
1
 10
74.170813
 20
154.365011
 30
0.0
 10
75.122550
 20
154.328141
 30
0.0
 10
76.046497
 20
154.690113
 30
0.0
 10
76.719914
 20
155.363665
 30
0.0
  0
SPLINE
  5
12f
100
AcDbEntity
  8
0
 62
1
100
AcDbSpline
 70
8
 71
3
 72
8
 73
4
 74
0
 40
0
 40
0
 40
0
 40
0
 40
1
 40
1
 40
1
 40
1
 10
76.719914
 20
155.363665
 30
0.0
 10
77.393331
 20
156.037218
 30
0.0
 10
77.755117
 20
156.961238
 30
0.0
 10
77.718055
 20
157.912968
 30
0.0
  0
LINE
  5
130
100
AcDbEntity
  8
0
 62
1
100
AcDbLine
 10
77.718055
 20
157.912968
 30
0.0
 11
77.718055
 21
289.977146
 31
0.0
  0
SPLINE
  5
131
100
AcDbEntity
  8
0
 62
1
100
AcDbSpline
 70
8
 71
3
 72
8
 73
4
 74
0
 40
0
 40
0
 40
0
 40
0
 40
1
 40
1
 40
1
 40
1
 10
75.970813
 20
289.212950
 30
0.0
 10
75.970813
 20
289.856028
 30
0.0
 10
75.627735
 20
290.450257
 30
0.0
 10
75.070813
 20
290.771796
 30
0.0
  0
SPLINE
  5
132
100
AcDbEntity
  8
0
 62
1
100
AcDbSpline
 70
8
 71
3
 72
8
 73
4
 74
0
 40
0
 40
0
 40
0
 40
0
 40
1
 40
1
 40
1
 40
1
 10
75.070813
 20
290.771796
 30
0.0
 10
74.513891
 20
291.093335
 30
0.0
 10
73.827734
 20
291.093335
 30
0.0
 10
73.270812
 20
290.771796
 30
0.0
  0
SPLINE
  5
133
100
AcDbEntity
  8
0
 62
1
100
AcDbSpline
 70
8
 71
3
 72
8
 73
4
 74
0
 40
0
 40
0
 40
0
 40
0
 40
1
 40
1
 40
1
 40
1
 10
73.270812
 20
290.771796
 30
0.0
 10
72.713890
 20
290.450257
 30
0.0
 10
72.370812
 20
289.856028
 30
0.0
 10
72.370812
 20
289.212950
 30
0.0
  0
SPLINE
  5
134
100
AcDbEntity
  8
0
 62
1
100
AcDbSpline
 70
8
 71
3
 72
8
 73
4
 74
0
 40
0
 40
0
 40
0
 40
0
 40
1
 40
1
 40
1
 40
1
 10
72.370812
 20
289.212950
 30
0.0
 10
72.370812
 20
288.569872
 30
0.0
 10
72.713890
 20
287.975643
 30
0.0
 10
73.270812
 20
287.654104
 30
0.0
  0
SPLINE
  5
135
100
AcDbEntity
  8
0
 62
1
100
AcDbSpline
 70
8
 71
3
 72
8
 73
4
 74
0
 40
0
 40
0
 40
0
 40
0
 40
1
 40
1
 40
1
 40
1
 10
73.270812
 20
287.654104
 30
0.0
 10
73.827734
 20
287.332565
 30
0.0
 10
74.513891
 20
287.332565
 30
0.0
 10
75.070813
 20
287.654104
 30
0.0
  0
SPLINE
  5
136
100
AcDbEntity
  8
0
 62
1
100
AcDbSpline
 70
8
 71
3
 72
8
 73
4
 74
0
 40
0
 40
0
 40
0
 40
0
 40
1
 40
1
 40
1
 40
1
 10
75.070813
 20
287.654104
 30
0.0
 10
75.627735
 20
287.975643
 30
0.0
 10
75.970813
 20
288.569872
 30
0.0
 10
75.970813
 20
289.212950
 30
0.0
  0
LINE
  5
137
100
AcDbEntity
  8
0
 62
1
100
AcDbLine
 10
75.970813
 20
289.212950
 30
0.0
 11
75.970813
 21
289.212950
 31
0.0
  0
SPLINE
  5
138
100
AcDbEntity
  8
0
 62
1
100
AcDbSpline
 70
8
 71
3
 72
8
 73
4
 74
0
 40
0
 40
0
 40
0
 40
0
 40
1
 40
1
 40
1
 40
1
 10
9.794249
 20
289.212950
 30
0.0
 10
9.794249
 20
289.856028
 30
0.0
 10
9.451171
 20
290.450257
 30
0.0
 10
8.894249
 20
290.771796
 30
0.0
  0
SPLINE
  5
139
100
AcDbEntity
  8
0
 62
1
100
AcDbSpline
 70
8
 71
3
 72
8
 73
4
 74
0
 40
0
 40
0
 40
0
 40
0
 40
1
 40
1
 40
1
 40
1
 10
8.894249
 20
290.771796
 30
0.0
 10
8.337327
 20
291.093335
 30
0.0
 10
7.651171
 20
291.093335
 30
0.0
 10
7.094249
 20
290.771796
 30
0.0
  0
SPLINE
  5
13a
100
AcDbEntity
  8
0
 62
1
100
AcDbSpline
 70
8
 71
3
 72
8
 73
4
 74
0
 40
0
 40
0
 40
0
 40
0
 40
1
 40
1
 40
1
 40
1
 10
7.094249
 20
290.771796
 30
0.0
 10
6.537327
 20
290.450257
 30
0.0
 10
6.194249
 20
289.856028
 30
0.0
 10
6.194249
 20
289.212950
 30
0.0
  0
SPLINE
  5
13b
100
AcDbEntity
  8
0
 62
1
100
AcDbSpline
 70
8
 71
3
 72
8
 73
4
 74
0
 40
0
 40
0
 40
0
 40
0
 40
1
 40
1
 40
1
 40
1
 10
6.194249
 20
289.212950
 30
0.0
 10
6.194249
 20
288.569872
 30
0.0
 10
6.537327
 20
287.975643
 30
0.0
 10
7.094249
 20
287.654104
 30
0.0
  0
SPLINE
  5
13c
100
AcDbEntity
  8
0
 62
1
100
AcDbSpline
 70
8
 71
3
 72
8
 73
4
 74
0
 40
0
 40
0
 40
0
 40
0
 40
1
 40
1
 40
1
 40
1
 10
7.094249
 20
287.654104
 30
0.0
 10
7.651171
 20
287.332565
 30
0.0
 10
8.337327
 20
287.332565
 30
0.0
 10
8.894249
 20
287.654104
 30
0.0
  0
SPLINE
  5
13d
100
AcDbEntity
  8
0
 62
1
100
AcDbSpline
 70
8
 71
3
 72
8
 73
4
 74
0
 40
0
 40
0
 40
0
 40
0
 40
1
 40
1
 40
1
 40
1
 10
8.894249
 20
287.654104
 30
0.0
 10
9.451171
 20
287.975643
 30
0.0
 10
9.794249
 20
288.569872
 30
0.0
 10
9.794249
 20
289.212950
 30
0.0
  0
LINE
  5
13e
100
AcDbEntity
  8
0
 62
1
100
AcDbLine
 10
9.794249
 20
289.212950
 30
0.0
 11
9.794249
 21
289.212950
 31
0.0
  0
SPLINE
  5
13f
100
AcDbEntity
  8
0
 62
1
100
AcDbSpline
 70
8
 71
3
 72
8
 73
4
 74
0
 40
0
 40
0
 40
0
 40
0
 40
1
 40
1
 40
1
 40
1
 10
9.937632
 20
157.912968
 30
0.0
 10
9.937632
 20
158.556046
 30
0.0
 10
9.594554
 20
159.150275
 30
0.0
 10
9.037632
 20
159.471814
 30
0.0
  0
SPLINE
  5
140
100
AcDbEntity
  8
0
 62
1
100
AcDbSpline
 70
8
 71
3
 72
8
 73
4
 74
0
 40
0
 40
0
 40
0
 40
0
 40
1
 40
1
 40
1
 40
1
 10
9.037632
 20
159.471814
 30
0.0
 10
8.480710
 20
159.793353
 30
0.0
 10
7.794554
 20
159.793353
 30
0.0
 10
7.237632
 20
159.471814
 30
0.0
  0
SPLINE
  5
141
100
AcDbEntity
  8
0
 62
1
100
AcDbSpline
 70
8
 71
3
 72
8
 73
4
 74
0
 40
0
 40
0
 40
0
 40
0
 40
1
 40
1
 40
1
 40
1
 10
7.237632
 20
159.471814
 30
0.0
 10
6.680710
 20
159.150275
 30
0.0
 10
6.337632
 20
158.556046
 30
0.0
 10
6.337632
 20
157.912968
 30
0.0
  0
SPLINE
  5
142
100
AcDbEntity
  8
0
 62
1
100
AcDbSpline
 70
8
 71
3
 72
8
 73
4
 74
0
 40
0
 40
0
 40
0
 40
0
 40
1
 40
1
 40
1
 40
1
 10
6.337632
 20
157.912968
 30
0.0
 10
6.337632
 20
157.269890
 30
0.0
 10
6.680710
 20
156.675661
 30
0.0
 10
7.237632
 20
156.354122
 30
0.0
  0
SPLINE
  5
143
100
AcDbEntity
  8
0
 62
1
100
AcDbSpline
 70
8
 71
3
 72
8
 73
4
 74
0
 40
0
 40
0
 40
0
 40
0
 40
1
 40
1
 40
1
 40
1
 10
7.237632
 20
156.354122
 30
0.0
 10
7.794554
 20
156.032583
 30
0.0
 10
8.480710
 20
156.032583
 30
0.0
 10
9.037632
 20
156.354122
 30
0.0
  0
SPLINE
  5
144
100
AcDbEntity
  8
0
 62
1
100
AcDbSpline
 70
8
 71
3
 72
8
 73
4
 74
0
 40
0
 40
0
 40
0
 40
0
 40
1
 40
1
 40
1
 40
1
 10
9.037632
 20
156.354122
 30
0.0
 10
9.594554
 20
156.675661
 30
0.0
 10
9.937632
 20
157.269890
 30
0.0
 10
9.937632
 20
157.912968
 30
0.0
  0
LINE
  5
145
100
AcDbEntity
  8
0
 62
1
100
AcDbLine
 10
9.937632
 20
157.912968
 30
0.0
 11
9.937632
 21
157.912968
 31
0.0
  0
SPLINE
  5
146
100
AcDbEntity
  8
0
 62
1
100
AcDbSpline
 70
8
 71
3
 72
8
 73
4
 74
0
 40
0
 40
0
 40
0
 40
0
 40
1
 40
1
 40
1
 40
1
 10
75.987471
 20
157.912968
 30
0.0
 10
75.987471
 20
158.559561
 30
0.0
 10
75.642518
 20
159.157037
 30
0.0
 10
75.082552
 20
159.480333
 30
0.0
  0
SPLINE
  5
147
100
AcDbEntity
  8
0
 62
1
100
AcDbSpline
 70
8
 71
3
 72
8
 73
4
 74
0
 40
0
 40
0
 40
0
 40
0
 40
1
 40
1
 40
1
 40
1
 10
75.082552
 20
159.480333
 30
0.0
 10
74.522587
 20
159.803630
 30
0.0
 10
73.832680
 20
159.803630
 30
0.0
 10
73.272715
 20
159.480333
 30
0.0
  0
SPLINE
  5
148
100
AcDbEntity
  8
0
 62
1
100
AcDbSpline
 70
8
 71
3
 72
8
 73
4
 74
0
 40
0
 40
0
 40
0
 40
0
 40
1
 40
1
 40
1
 40
1
 10
73.272715
 20
159.480333
 30
0.0
 10
72.712749
 20
159.157037
 30
0.0
 10
72.367796
 20
158.559561
 30
0.0
 10
72.367796
 20
157.912968
 30
0.0
  0
SPLINE
  5
149
100
AcDbEntity
  8
0
 62
1
100
AcDbSpline
 70
8
 71
3
 72
8
 73
4
 74
0
 40
0
 40
0
 40
0
 40
0
 40
1
 40
1
 40
1
 40
1
 10
72.367796
 20
157.912968
 30
0.0
 10
72.367796
 20
157.266376
 30
0.0
 10
72.712749
 20
156.668899
 30
0.0
 10
73.272715
 20
156.345603
 30
0.0
  0
SPLINE
  5
14a
100
AcDbEntity
  8
0
 62
1
100
AcDbSpline
 70
8
 71
3
 72
8
 73
4
 74
0
 40
0
 40
0
 40
0
 40
0
 40
1
 40
1
 40
1
 40
1
 10
73.272715
 20
156.345603
 30
0.0
 10
73.832680
 20
156.022307
 30
0.0
 10
74.522587
 20
156.022307
 30
0.0
 10
75.082552
 20
156.345603
 30
0.0
  0
SPLINE
  5
14b
100
AcDbEntity
  8
0
 62
1
100
AcDbSpline
 70
8
 71
3
 72
8
 73
4
 74
0
 40
0
 40
0
 40
0
 40
0
 40
1
 40
1
 40
1
 40
1
 10
75.082552
 20
156.345603
 30
0.0
 10
75.642518
 20
156.668899
 30
0.0
 10
75.987471
 20
157.266376
 30
0.0
 10
75.987471
 20
157.912968
 30
0.0
  0
LINE
  5
14c
100
AcDbEntity
  8
0
 62
1
100
AcDbLine
 10
75.987471
 20
157.912968
 30
0.0
 11
75.987471
 21
157.912968
 31
0.0
  0
LINE
  5
14d
100
AcDbEntity
  8
0
 62
5
100
AcDbLine
 10
33.156967
 20
287.456302
 30
0.0
 11
33.156967
 21
291.046036
 31
0.0
  0
LINE
  5
14e
100
AcDbEntity
  8
0
 62
5
100
AcDbLine
 10
33.156967
 20
291.046036
 30
0.0
 11
33.588158
 21
291.046036
 31
0.0
  0
LINE
  5
14f
100
AcDbEntity
  8
0
 62
5
100
AcDbLine
 10
33.588158
 20
291.046036
 30
0.0
 11
33.588158
 21
287.456302
 31
0.0
  0
LINE
  5
150
100
AcDbEntity
  8
0
 62
5
100
AcDbLine
 10
33.588158
 20
287.456302
 30
0.0
 11
33.156967
 21
287.456302
 31
0.0
  0
SPLINE
  5
151
100
AcDbEntity
  8
0
 62
5
100
AcDbSpline
 70
8
 71
3
 72
8
 73
4
 74
0
 40
0
 40
0
 40
0
 40
0
 40
1
 40
1
 40
1
 40
1
 10
35.312215
 20
289.969129
 30
0.0
 10
35.345674
 20
289.969129
 30
0.0
 10
35.379131
 20
289.966483
 30
0.0
 10
35.412476
 20
289.964896
 30
0.0
  0
SPLINE
  5
152
100
AcDbEntity
  8
0
 62
5
100
AcDbSpline
 70
8
 71
3
 72
8
 73
4
 74
0
 40
0
 40
0
 40
0
 40
0
 40
1
 40
1
 40
1
 40
1
 10
35.412476
 20
289.964896
 30
0.0
 10
35.444205
 20
289.962250
 30
0.0
 10
35.475833
 20
289.958281
 30
0.0
 10
35.507128
 20
289.952196
 30
0.0
  0
SPLINE
  5
153
100
AcDbEntity
  8
0
 62
5
100
AcDbSpline
 70
8
 71
3
 72
8
 73
4
 74
0
 40
0
 40
0
 40
0
 40
0
 40
1
 40
1
 40
1
 40
1
 10
35.507128
 20
289.952196
 30
0.0
 10
35.536942
 20
289.946639
 30
0.0
 10
35.566451
 20
289.939231
 30
0.0
 10
35.595470
 20
289.930500
 30
0.0
  0
SPLINE
  5
154
100
AcDbEntity
  8
0
 62
5
100
AcDbSpline
 70
8
 71
3
 72
8
 73
4
 74
0
 40
0
 40
0
 40
0
 40
0
 40
1
 40
1
 40
1
 40
1
 10
35.595470
 20
289.930500
 30
0.0
 10
35.623556
 20
289.922033
 30
0.0
 10
35.651178
 20
289.911979
 30
0.0
 10
35.678200
 20
289.900364
 30
0.0
  0
SPLINE
  5
155
100
AcDbEntity
  8
0
 62
5
100
AcDbSpline
 70
8
 71
3
 72
8
 73
4
 74
0
 40
0
 40
0
 40
0
 40
0
 40
1
 40
1
 40
1
 40
1
 10
35.678200
 20
289.900364
 30
0.0
 10
35.704288
 20
289.889251
 30
0.0
 10
35.729796
 20
289.876816
 30
0.0
 10
35.754622
 20
289.863190
 30
0.0
  0
SPLINE
  5
156
100
AcDbEntity
  8
0
 62
5
100
AcDbSpline
 70
8
 71
3
 72
8
 73
4
 74
0
 40
0
 40
0
 40
0
 40
0
 40
1
 40
1
 40
1
 40
1
 10
35.754622
 20
289.863190
 30
0.0
 10
35.779017
 20
289.849696
 30
0.0
 10
35.802723
 20
289.835117
 30
0.0
 10
35.825438
 20
289.819031
 30
0.0
  0
SPLINE
  5
157
100
AcDbEntity
  8
0
 62
5
100
AcDbSpline
 70
8
 71
3
 72
8
 73
4
 74
0
 40
0
 40
0
 40
0
 40
0
 40
1
 40
1
 40
1
 40
1
 10
35.825438
 20
289.819031
 30
0.0
 10
35.847689
 20
289.803156
 30
0.0
 10
35.868996
 20
289.786143
 30
0.0
 10
35.889240
 20
289.767860
 30
0.0
  0
SPLINE
  5
158
100
AcDbEntity
  8
0
 62
5
100
AcDbSpline
 70
8
 71
3
 72
8
 73
4
 74
0
 40
0
 40
0
 40
0
 40
0
 40
1
 40
1
 40
1
 40
1
 10
35.889240
 20
289.767860
 30
0.0
 10
35.909480
 20
289.749604
 30
0.0
 10
35.928673
 20
289.730104
 30
0.0
 10
35.946731
 20
289.709652
 30
0.0
  0
SPLINE
  5
159
100
AcDbEntity
  8
0
 62
5
100
AcDbSpline
 70
8
 71
3
 72
8
 73
4
 74
0
 40
0
 40
0
 40
0
 40
0
 40
1
 40
1
 40
1
 40
1
 10
35.946731
 20
289.709652
 30
0.0
 10
35.964908
 20
289.689015
 30
0.0
 10
35.981936
 20
289.667504
 30
0.0
 10
35.997912
 20
289.645147
 30
0.0
  0
SPLINE
  5
15a
100
AcDbEntity
  8
0
 62
5
100
AcDbSpline
 70
8
 71
3
 72
8
 73
4
 74
0
 40
0
 40
0
 40
0
 40
0
 40
1
 40
1
 40
1
 40
1
 10
35.997912
 20
289.645147
 30
0.0
 10
36.014078
 20
289.622657
 30
0.0
 10
36.029141
 20
289.599215
 30
0.0
 10
36.042785
 20
289.575032
 30
0.0
  0
SPLINE
  5
15b
100
AcDbEntity
  8
0
 62
5
100
AcDbSpline
 70
8
 71
3
 72
8
 73
4
 74
0
 40
0
 40
0
 40
0
 40
0
 40
1
 40
1
 40
1
 40
1
 10
36.042785
 20
289.575032
 30
0.0
 10
36.056861
 20
289.550161
 30
0.0
 10
36.069426
 20
289.524285
 30
0.0
 10
36.080644
 20
289.497906
 30
0.0
  0
SPLINE
  5
15c
100
AcDbEntity
  8
0
 62
5
100
AcDbSpline
 70
8
 71
3
 72
8
 73
4
 74
0
 40
0
 40
0
 40
0
 40
0
 40
1
 40
1
 40
1
 40
1
 10
36.080644
 20
289.497906
 30
0.0
 10
36.092260
 20
289.470627
 30
0.0
 10
36.102446
 20
289.442740
 30
0.0
 10
36.111495
 20
289.414483
 30
0.0
  0
SPLINE
  5
15d
100
AcDbEntity
  8
0
 62
5
100
AcDbSpline
 70
8
 71
3
 72
8
 73
4
 74
0
 40
0
 40
0
 40
0
 40
0
 40
1
 40
1
 40
1
 40
1
 10
36.111495
 20
289.414483
 30
0.0
 10
36.120888
 20
289.385167
 30
0.0
 10
36.129090
 20
289.355428
 30
0.0
 10
36.136022
 20
289.325451
 30
0.0
  0
SPLINE
  5
15e
100
AcDbEntity
  8
0
 62
5
100
AcDbSpline
 70
8
 71
3
 72
8
 73
4
 74
0
 40
0
 40
0
 40
0
 40
0
 40
1
 40
1
 40
1
 40
1
 10
36.136022
 20
289.325451
 30
0.0
 10
36.143113
 20
289.294838
 30
0.0
 10
36.148907
 20
289.263961
 30
0.0
 10
36.153537
 20
289.232899
 30
0.0
  0
SPLINE
  5
15f
100
AcDbEntity
  8
0
 62
5
100
AcDbSpline
 70
8
 71
3
 72
8
 73
4
 74
0
 40
0
 40
0
 40
0
 40
0
 40
1
 40
1
 40
1
 40
1
 10
36.153537
 20
289.232899
 30
0.0
 10
36.158353
 20
289.200567
 30
0.0
 10
36.161924
 20
289.168050
 30
0.0
 10
36.164041
 20
289.135427
 30
0.0
  0
SPLINE
  5
160
100
AcDbEntity
  8
0
 62
5
100
AcDbSpline
 70
8
 71
3
 72
8
 73
4
 74
0
 40
0
 40
0
 40
0
 40
0
 40
1
 40
1
 40
1
 40
1
 10
36.164041
 20
289.135427
 30
0.0
 10
36.166158
 20
289.101613
 30
0.0
 10
36.166899
 20
289.067694
 30
0.0
 10
36.167560
 20
289.033774
 30
0.0
  0
LINE
  5
161
100
AcDbEntity
  8
0
 62
5
100
AcDbLine
 10
36.167584
 20
289.033827
 30
0.0
 11
36.167584
 21
287.450692
 31
0.0
  0
LINE
  5
162
100
AcDbEntity
  8
0
 62
5
100
AcDbLine
 10
36.167584
 20
287.450692
 30
0.0
 11
35.976179
 21
287.450692
 31
0.0
  0
SPLINE
  5
163
100
AcDbEntity
  8
0
 62
5
100
AcDbSpline
 70
8
 71
3
 72
8
 73
4
 74
0
 40
0
 40
0
 40
0
 40
0
 40
1
 40
1
 40
1
 40
1
 10
35.976179
 20
287.450692
 30
0.0
 10
35.957235
 20
287.450692
 30
0.0
 10
35.938283
 20
287.453338
 30
0.0
 10
35.919386
 20
287.455720
 30
0.0
  0
SPLINE
  5
164
100
AcDbEntity
  8
0
 62
5
100
AcDbSpline
 70
8
 71
3
 72
8
 73
4
 74
0
 40
0
 40
0
 40
0
 40
0
 40
1
 40
1
 40
1
 40
1
 10
35.919386
 20
287.455720
 30
0.0
 10
35.903511
 20
287.458365
 30
0.0
 10
35.887671
 20
287.462599
 30
0.0
 10
35.873814
 20
287.470536
 30
0.0
  0
SPLINE
  5
165
100
AcDbEntity
  8
0
 62
5
100
AcDbSpline
 70
8
 71
3
 72
8
 73
4
 74
0
 40
0
 40
0
 40
0
 40
0
 40
1
 40
1
 40
1
 40
1
 10
35.873814
 20
287.470536
 30
0.0
 10
35.867438
 20
287.474240
 30
0.0
 10
35.861485
 20
287.478738
 30
0.0
 10
35.856299
 20
287.483765
 30
0.0
  0
SPLINE
  5
166
100
AcDbEntity
  8
0
 62
5
100
AcDbSpline
 70
8
 71
3
 72
8
 73
4
 74
0
 40
0
 40
0
 40
0
 40
0
 40
1
 40
1
 40
1
 40
1
 10
35.856299
 20
287.483765
 30
0.0
 10
35.850849
 20
287.489057
 30
0.0
 10
35.846218
 20
287.495407
 30
0.0
 10
35.842276
 20
287.502022
 30
0.0
  0
SPLINE
  5
167
100
AcDbEntity
  8
0
 62
5
100
AcDbSpline
 70
8
 71
3
 72
8
 73
4
 74
0
 40
0
 40
0
 40
0
 40
0
 40
1
 40
1
 40
1
 40
1
 10
35.842276
 20
287.502022
 30
0.0
 10
35.837646
 20
287.509695
 30
0.0
 10
35.833942
 20
287.517897
 30
0.0
 10
35.831058
 20
287.526628
 30
0.0
  0
SPLINE
  5
168
100
AcDbEntity
  8
0
 62
5
100
AcDbSpline
 70
8
 71
3
 72
8
 73
4
 74
0
 40
0
 40
0
 40
0
 40
0
 40
1
 40
1
 40
1
 40
1
 10
35.831058
 20
287.526628
 30
0.0
 10
35.827803
 20
287.536153
 30
0.0
 10
35.825581
 20
287.546207
 30
0.0
 10
35.823358
 20
287.556076
 30
0.0
  0
LINE
  5
169
100
AcDbEntity
  8
0
 62
5
100
AcDbLine
 10
35.823335
 20
287.555864
 30
0.0
 11
35.774955
 21
287.791449
 31
0.0
  0
SPLINE
  5
16a
100
AcDbEntity
  8
0
 62
5
100
AcDbSpline
 70
8
 71
3
 72
8
 73
4
 74
0
 40
0
 40
0
 40
0
 40
0
 40
1
 40
1
 40
1
 40
1
 10
35.774955
 20
287.791449
 30
0.0
 10
35.743409
 20
287.762901
 30
0.0
 10
35.711863
 20
287.734326
 30
0.0
 10
35.679602
 20
287.706597
 30
0.0
  0
SPLINE
  5
16b
100
AcDbEntity
  8
0
 62
5
100
AcDbSpline
 70
8
 71
3
 72
8
 73
4
 74
0
 40
0
 40
0
 40
0
 40
0
 40
1
 40
1
 40
1
 40
1
 10
35.679602
 20
287.706597
 30
0.0
 10
35.648993
 20
287.680404
 30
0.0
 10
35.617737
 20
287.654713
 30
0.0
 10
35.585654
 20
287.630186
 30
0.0
  0
SPLINE
  5
16c
100
AcDbEntity
  8
0
 62
5
100
AcDbSpline
 70
8
 71
3
 72
8
 73
4
 74
0
 40
0
 40
0
 40
0
 40
0
 40
1
 40
1
 40
1
 40
1
 10
35.585654
 20
287.630186
 30
0.0
 10
35.555248
 20
287.606902
 30
0.0
 10
35.524096
 20
287.584625
 30
0.0
 10
35.491703
 20
287.564278
 30
0.0
  0
SPLINE
  5
16d
100
AcDbEntity
  8
0
 62
5
100
AcDbSpline
 70
8
 71
3
 72
8
 73
4
 74
0
 40
0
 40
0
 40
0
 40
0
 40
1
 40
1
 40
1
 40
1
 10
35.491703
 20
287.564278
 30
0.0
 10
35.459638
 20
287.544170
 30
0.0
 10
35.426356
 20
287.525861
 30
0.0
 10
35.392143
 20
287.509589
 30
0.0
  0
SPLINE
  5
16e
100
AcDbEntity
  8
0
 62
5
100
AcDbSpline
 70
8
 71
3
 72
8
 73
4
 74
0
 40
0
 40
0
 40
0
 40
0
 40
1
 40
1
 40
1
 40
1
 10
35.392143
 20
287.509589
 30
0.0
 10
35.357948
 20
287.493185
 30
0.0
 10
35.322820
 20
287.479003
 30
0.0
 10
35.286976
 20
287.466832
 30
0.0
  0
SPLINE
  5
16f
100
AcDbEntity
  8
0
 62
5
100
AcDbSpline
 70
8
 71
3
 72
8
 73
4
 74
0
 40
0
 40
0
 40
0
 40
0
 40
1
 40
1
 40
1
 40
1
 10
35.286976
 20
287.466832
 30
0.0
 10
35.250242
 20
287.454397
 30
0.0
 10
35.212758
 20
287.444078
 30
0.0
 10
35.174796
 20
287.435982
 30
0.0
  0
SPLINE
  5
170
100
AcDbEntity
  8
0
 62
5
100
AcDbSpline
 70
8
 71
3
 72
8
 73
4
 74
0
 40
0
 40
0
 40
0
 40
0
 40
1
 40
1
 40
1
 40
1
 10
35.174796
 20
287.435982
 30
0.0
 10
35.134775
 20
287.427515
 30
0.0
 10
35.094220
 20
287.421430
 30
0.0
 10
35.053503
 20
287.417725
 30
0.0
  0
SPLINE
  5
171
100
AcDbEntity
  8
0
 62
5
100
AcDbSpline
 70
8
 71
3
 72
8
 73
4
 74
0
 40
0
 40
0
 40
0
 40
0
 40
1
 40
1
 40
1
 40
1
 10
35.053503
 20
287.417725
 30
0.0
 10
35.008995
 20
287.413757
 30
0.0
 10
34.964291
 20
287.412698
 30
0.0
 10
34.919587
 20
287.411375
 30
0.0
  0
SPLINE
  5
172
100
AcDbEntity
  8
0
 62
5
100
AcDbSpline
 70
8
 71
3
 72
8
 73
4
 74
0
 40
0
 40
0
 40
0
 40
0
 40
1
 40
1
 40
1
 40
1
 10
34.919587
 20
287.411428
 30
0.0
 10
34.896197
 20
287.411428
 30
0.0
 10
34.872803
 20
287.411428
 30
0.0
 10
34.849475
 20
287.414339
 30
0.0
  0
SPLINE
  5
173
100
AcDbEntity
  8
0
 62
5
100
AcDbSpline
 70
8
 71
3
 72
8
 73
4
 74
0
 40
0
 40
0
 40
0
 40
0
 40
1
 40
1
 40
1
 40
1
 10
34.849475
 20
287.414339
 30
0.0
 10
34.826721
 20
287.416985
 30
0.0
 10
34.804025
 20
287.418572
 30
0.0
 10
34.781466
 20
287.422012
 30
0.0
  0
SPLINE
  5
174
100
AcDbEntity
  8
0
 62
5
100
AcDbSpline
 70
8
 71
3
 72
8
 73
4
 74
0
 40
0
 40
0
 40
0
 40
0
 40
1
 40
1
 40
1
 40
1
 10
34.781466
 20
287.422012
 30
0.0
 10
34.759347
 20
287.425451
 30
0.0
 10
34.737368
 20
287.429685
 30
0.0
 10
34.715561
 20
287.434712
 30
0.0
  0
SPLINE
  5
175
100
AcDbEntity
  8
0
 62
5
100
AcDbSpline
 70
8
 71
3
 72
8
 73
4
 74
0
 40
0
 40
0
 40
0
 40
0
 40
1
 40
1
 40
1
 40
1
 10
34.715561
 20
287.434712
 30
0.0
 10
34.694050
 20
287.439739
 30
0.0
 10
34.672730
 20
287.445295
 30
0.0
 10
34.651759
 20
287.452174
 30
0.0
  0
SPLINE
  5
176
100
AcDbEntity
  8
0
 62
5
100
AcDbSpline
 70
8
 71
3
 72
8
 73
4
 74
0
 40
0
 40
0
 40
0
 40
0
 40
1
 40
1
 40
1
 40
1
 10
34.651759
 20
287.452174
 30
0.0
 10
34.631281
 20
287.458789
 30
0.0
 10
34.611162
 20
287.466462
 30
0.0
 10
34.591464
 20
287.475193
 30
0.0
  0
SPLINE
  5
177
100
AcDbEntity
  8
0
 62
5
100
AcDbSpline
 70
8
 71
3
 72
8
 73
4
 74
0
 40
0
 40
0
 40
0
 40
0
 40
1
 40
1
 40
1
 40
1
 10
34.591464
 20
287.475193
 30
0.0
 10
34.572334
 20
287.483660
 30
0.0
 10
34.553607
 20
287.492920
 30
0.0
 10
34.535372
 20
287.503212
 30
0.0
  0
SPLINE
  5
178
100
AcDbEntity
  8
0
 62
5
100
AcDbSpline
 70
8
 71
3
 72
8
 73
4
 74
0
 40
0
 40
0
 40
0
 40
0
 40
1
 40
1
 40
1
 40
1
 10
34.535372
 20
287.503212
 30
0.0
 10
34.517327
 20
287.513266
 30
0.0
 10
34.499767
 20
287.524379
 30
0.0
 10
34.482789
 20
287.536179
 30
0.0
  0
SPLINE
  5
179
100
AcDbEntity
  8
0
 62
5
100
AcDbSpline
 70
8
 71
3
 72
8
 73
4
 74
0
 40
0
 40
0
 40
0
 40
0
 40
1
 40
1
 40
1
 40
1
 10
34.482789
 20
287.536179
 30
0.0
 10
34.465988
 20
287.547821
 30
0.0
 10
34.449750
 20
287.560521
 30
0.0
 10
34.434412
 20
287.574041
 30
0.0
  0
SPLINE
  5
17a
100
AcDbEntity
  8
0
 62
5
100
AcDbSpline
 70
8
 71
3
 72
8
 73
4
 74
0
 40
0
 40
0
 40
0
 40
0
 40
1
 40
1
 40
1
 40
1
 10
34.434412
 20
287.574041
 30
0.0
 10
34.419066
 20
287.587535
 30
0.0
 10
34.404610
 20
287.602219
 30
0.0
 10
34.390941
 20
287.617512
 30
0.0
  0
SPLINE
  5
17b
100
AcDbEntity
  8
0
 62
5
100
AcDbSpline
 70
8
 71
3
 72
8
 73
4
 74
0
 40
0
 40
0
 40
0
 40
0
 40
1
 40
1
 40
1
 40
1
 10
34.390941
 20
287.617512
 30
0.0
 10
34.376971
 20
287.633123
 30
0.0
 10
34.363813
 20
287.649500
 30
0.0
 10
34.351680
 20
287.666592
 30
0.0
  0
SPLINE
  5
17c
100
AcDbEntity
  8
0
 62
5
100
AcDbSpline
 70
8
 71
3
 72
8
 73
4
 74
0
 40
0
 40
0
 40
0
 40
0
 40
1
 40
1
 40
1
 40
1
 10
34.351680
 20
287.666592
 30
0.0
 10
34.339218
 20
287.684055
 30
0.0
 10
34.327814
 20
287.702470
 30
0.0
 10
34.317324
 20
287.721282
 30
0.0
  0
SPLINE
  5
17d
100
AcDbEntity
  8
0
 62
5
100
AcDbSpline
 70
8
 71
3
 72
8
 73
4
 74
0
 40
0
 40
0
 40
0
 40
0
 40
1
 40
1
 40
1
 40
1
 10
34.317324
 20
287.721282
 30
0.0
 10
34.306529
 20
287.740596
 30
0.0
 10
34.296660
 20
287.760520
 30
0.0
 10
34.287875
 20
287.780866
 30
0.0
  0
SPLINE
  5
17e
100
AcDbEntity
  8
0
 62
5
100
AcDbSpline
 70
8
 71
3
 72
8
 73
4
 74
0
 40
0
 40
0
 40
0
 40
0
 40
1
 40
1
 40
1
 40
1
 10
34.287875
 20
287.780866
 30
0.0
 10
34.278694
 20
287.802033
 30
0.0
 10
34.270704
 20
287.823914
 30
0.0
 10
34.264036
 20
287.846086
 30
0.0
  0
SPLINE
  5
17f
100
AcDbEntity
  8
0
 62
5
100
AcDbSpline
 70
8
 71
3
 72
8
 73
4
 74
0
 40
0
 40
0
 40
0
 40
0
 40
1
 40
1
 40
1
 40
1
 10
34.264036
 20
287.846086
 30
0.0
 10
34.257051
 20
287.869369
 30
0.0
 10
34.251522
 20
287.892996
 30
0.0
 10
34.247209
 20
287.916888
 30
0.0
  0
SPLINE
  5
180
100
AcDbEntity
  8
0
 62
5
100
AcDbSpline
 70
8
 71
3
 72
8
 73
4
 74
0
 40
0
 40
0
 40
0
 40
0
 40
1
 40
1
 40
1
 40
1
 10
34.247209
 20
287.916888
 30
0.0
 10
34.242605
 20
287.942553
 30
0.0
 10
34.239377
 20
287.968165
 30
0.0
 10
34.237393
 20
287.994014
 30
0.0
  0
SPLINE
  5
181
100
AcDbEntity
  8
0
 62
5
100
AcDbSpline
 70
8
 71
3
 72
8
 73
4
 74
0
 40
0
 40
0
 40
0
 40
0
 40
1
 40
1
 40
1
 40
1
 10
34.237393
 20
287.994014
 30
0.0
 10
34.235276
 20
288.021293
 30
0.0
 10
34.234588
 20
288.048677
 30
0.0
 10
34.233874
 20
288.076035
 30
0.0
  0
SPLINE
  5
182
100
AcDbEntity
  8
0
 62
5
100
AcDbSpline
 70
8
 71
3
 72
8
 73
4
 74
0
 40
0
 40
0
 40
0
 40
0
 40
1
 40
1
 40
1
 40
1
 10
34.233890
 20
288.076088
 30
0.0
 10
34.234684
 20
288.100694
 30
0.0
 10
34.235742
 20
288.125354
 30
0.0
 10
34.238811
 20
288.149722
 30
0.0
  0
SPLINE
  5
183
100
AcDbEntity
  8
0
 62
5
100
AcDbSpline
 70
8
 71
3
 72
8
 73
4
 74
0
 40
0
 40
0
 40
0
 40
0
 40
1
 40
1
 40
1
 40
1
 10
34.238811
 20
288.149722
 30
0.0
 10
34.241986
 20
288.174063
 30
0.0
 10
34.247463
 20
288.198220
 30
0.0
 10
34.254236
 20
288.221926
 30
0.0
  0
SPLINE
  5
184
100
AcDbEntity
  8
0
 62
5
100
AcDbSpline
 70
8
 71
3
 72
8
 73
4
 74
0
 40
0
 40
0
 40
0
 40
0
 40
1
 40
1
 40
1
 40
1
 10
34.254236
 20
288.221926
 30
0.0
 10
34.261036
 20
288.245739
 30
0.0
 10
34.269159
 20
288.269207
 30
0.0
 10
34.278763
 20
288.292041
 30
0.0
  0
SPLINE
  5
185
100
AcDbEntity
  8
0
 62
5
100
AcDbSpline
 70
8
 71
3
 72
8
 73
4
 74
0
 40
0
 40
0
 40
0
 40
0
 40
1
 40
1
 40
1
 40
1
 10
34.278763
 20
288.292041
 30
0.0
 10
34.288817
 20
288.315854
 30
0.0
 10
34.300565
 20
288.339163
 30
0.0
 10
34.313818
 20
288.361441
 30
0.0
  0
SPLINE
  5
186
100
AcDbEntity
  8
0
 62
5
100
AcDbSpline
 70
8
 71
3
 72
8
 73
4
 74
0
 40
0
 40
0
 40
0
 40
0
 40
1
 40
1
 40
1
 40
1
 10
34.313818
 20
288.361441
 30
0.0
 10
34.327655
 20
288.384725
 30
0.0
 10
34.343168
 20
288.406950
 30
0.0
 10
34.360093
 20
288.428063
 30
0.0
  0
SPLINE
  5
187
100
AcDbEntity
  8
0
 62
5
100
AcDbSpline
 70
8
 71
3
 72
8
 73
4
 74
0
 40
0
 40
0
 40
0
 40
0
 40
1
 40
1
 40
1
 40
1
 10
34.360093
 20
288.428063
 30
0.0
 10
34.378006
 20
288.450288
 30
0.0
 10
34.397500
 20
288.471481
 30
0.0
 10
34.418286
 20
288.491166
 30
0.0
  0
SPLINE
  5
188
100
AcDbEntity
  8
0
 62
5
100
AcDbSpline
 70
8
 71
3
 72
8
 73
4
 74
0
 40
0
 40
0
 40
0
 40
0
 40
1
 40
1
 40
1
 40
1
 10
34.418286
 20
288.491166
 30
0.0
 10
34.440590
 20
288.512333
 30
0.0
 10
34.464379
 20
288.531806
 30
0.0
 10
34.489099
 20
288.550063
 30
0.0
  0
SPLINE
  5
189
100
AcDbEntity
  8
0
 62
5
100
AcDbSpline
 70
8
 71
3
 72
8
 73
4
 74
0
 40
0
 40
0
 40
0
 40
0
 40
1
 40
1
 40
1
 40
1
 10
34.489099
 20
288.550063
 30
0.0
 10
34.515716
 20
288.569642
 30
0.0
 10
34.543413
 20
288.587819
 30
0.0
 10
34.571832
 20
288.604752
 30
0.0
  0
SPLINE
  5
18a
100
AcDbEntity
  8
0
 62
5
100
AcDbSpline
 70
8
 71
3
 72
8
 73
4
 74
0
 40
0
 40
0
 40
0
 40
0
 40
1
 40
1
 40
1
 40
1
 10
34.571832
 20
288.604752
 30
0.0
 10
34.603018
 20
288.623273
 30
0.0
 10
34.635072
 20
288.640444
 30
0.0
 10
34.667886
 20
288.655922
 30
0.0
  0
SPLINE
  5
18b
100
AcDbEntity
  8
0
 62
5
100
AcDbSpline
 70
8
 71
3
 72
8
 73
4
 74
0
 40
0
 40
0
 40
0
 40
0
 40
1
 40
1
 40
1
 40
1
 10
34.667886
 20
288.655922
 30
0.0
 10
34.703607
 20
288.672856
 30
0.0
 10
34.740228
 20
288.687725
 30
0.0
 10
34.777259
 20
288.701484
 30
0.0
  0
SPLINE
  5
18c
100
AcDbEntity
  8
0
 62
5
100
AcDbSpline
 70
8
 71
3
 72
8
 73
4
 74
0
 40
0
 40
0
 40
0
 40
0
 40
1
 40
1
 40
1
 40
1
 10
34.777259
 20
288.701484
 30
0.0
 10
34.817936
 20
288.716565
 30
0.0
 10
34.859108
 20
288.730350
 30
0.0
 10
34.900658
 20
288.742865
 30
0.0
  0
SPLINE
  5
18d
100
AcDbEntity
  8
0
 62
5
100
AcDbSpline
 70
8
 71
3
 72
8
 73
4
 74
0
 40
0
 40
0
 40
0
 40
0
 40
1
 40
1
 40
1
 40
1
 10
34.900658
 20
288.742865
 30
0.0
 10
34.946045
 20
288.756623
 30
0.0
 10
34.991881
 20
288.768794
 30
0.0
 10
35.038078
 20
288.779324
 30
0.0
  0
SPLINE
  5
18e
100
AcDbEntity
  8
0
 62
5
100
AcDbSpline
 70
8
 71
3
 72
8
 73
4
 74
0
 40
0
 40
0
 40
0
 40
0
 40
1
 40
1
 40
1
 40
1
 10
35.038078
 20
288.779324
 30
0.0
 10
35.088428
 20
288.790966
 30
0.0
 10
35.139207
 20
288.800491
 30
0.0
 10
35.190221
 20
288.808772
 30
0.0
  0
SPLINE
  5
18f
100
AcDbEntity
  8
0
 62
5
100
AcDbSpline
 70
8
 71
3
 72
8
 73
4
 74
0
 40
0
 40
0
 40
0
 40
0
 40
1
 40
1
 40
1
 40
1
 10
35.190221
 20
288.808772
 30
0.0
 10
35.246302
 20
288.817768
 30
0.0
 10
35.302666
 20
288.824912
 30
0.0
 10
35.359192
 20
288.830468
 30
0.0
  0
SPLINE
  5
190
100
AcDbEntity
  8
0
 62
5
100
AcDbSpline
 70
8
 71
3
 72
8
 73
4
 74
0
 40
0
 40
0
 40
0
 40
0
 40
1
 40
1
 40
1
 40
1
 10
35.359192
 20
288.830468
 30
0.0
 10
35.420281
 20
288.836554
 30
0.0
 10
35.481559
 20
288.840522
 30
0.0
 10
35.542884
 20
288.843168
 30
0.0
  0
SPLINE
  5
191
100
AcDbEntity
  8
0
 62
5
100
AcDbSpline
 70
8
 71
3
 72
8
 73
4
 74
0
 40
0
 40
0
 40
0
 40
0
 40
1
 40
1
 40
1
 40
1
 10
35.542884
 20
288.843168
 30
0.0
 10
35.609686
 20
288.845814
 30
0.0
 10
35.676546
 20
288.846608
 30
0.0
 10
35.743407
 20
288.847401
 30
0.0
  0
LINE
  5
192
100
AcDbEntity
  8
0
 62
5
100
AcDbLine
 10
35.743407
 20
288.847322
 30
0.0
 11
35.743407
 21
289.041553
 31
0.0
  0
SPLINE
  5
193
100
AcDbEntity
  8
0
 62
5
100
AcDbSpline
 70
8
 71
3
 72
8
 73
4
 74
0
 40
0
 40
0
 40
0
 40
0
 40
1
 40
1
 40
1
 40
1
 10
35.743407
 20
289.041553
 30
0.0
 10
35.742877
 20
289.065101
 30
0.0
 10
35.742613
 20
289.088781
 30
0.0
 10
35.741290
 20
289.112355
 30
0.0
  0
SPLINE
  5
194
100
AcDbEntity
  8
0
 62
5
100
AcDbSpline
 70
8
 71
3
 72
8
 73
4
 74
0
 40
0
 40
0
 40
0
 40
0
 40
1
 40
1
 40
1
 40
1
 10
35.741290
 20
289.112355
 30
0.0
 10
35.740232
 20
289.134316
 30
0.0
 10
35.738353
 20
289.156355
 30
0.0
 10
35.735681
 20
289.178263
 30
0.0
  0
SPLINE
  5
195
100
AcDbEntity
  8
0
 62
5
100
AcDbSpline
 70
8
 71
3
 72
8
 73
4
 74
0
 40
0
 40
0
 40
0
 40
0
 40
1
 40
1
 40
1
 40
1
 10
35.735681
 20
289.178263
 30
0.0
 10
35.733035
 20
289.198900
 30
0.0
 10
35.729886
 20
289.219511
 30
0.0
 10
35.725865
 20
289.239964
 30
0.0
  0
SPLINE
  5
196
100
AcDbEntity
  8
0
 62
5
100
AcDbSpline
 70
8
 71
3
 72
8
 73
4
 74
0
 40
0
 40
0
 40
0
 40
0
 40
1
 40
1
 40
1
 40
1
 10
35.725865
 20
289.239964
 30
0.0
 10
35.722108
 20
289.259014
 30
0.0
 10
35.717689
 20
289.277984
 30
0.0
 10
35.712530
 20
289.296743
 30
0.0
  0
SPLINE
  5
197
100
AcDbEntity
  8
0
 62
5
100
AcDbSpline
 70
8
 71
3
 72
8
 73
4
 74
0
 40
0
 40
0
 40
0
 40
0
 40
1
 40
1
 40
1
 40
1
 10
35.712530
 20
289.296743
 30
0.0
 10
35.707661
 20
289.314470
 30
0.0
 10
35.702158
 20
289.332092
 30
0.0
 10
35.695702
 20
289.349342
 30
0.0
  0
SPLINE
  5
198
100
AcDbEntity
  8
0
 62
5
100
AcDbSpline
 70
8
 71
3
 72
8
 73
4
 74
0
 40
0
 40
0
 40
0
 40
0
 40
1
 40
1
 40
1
 40
1
 10
35.695702
 20
289.349342
 30
0.0
 10
35.689537
 20
289.365747
 30
0.0
 10
35.682552
 20
289.381966
 30
0.0
 10
35.674668
 20
289.397708
 30
0.0
  0
SPLINE
  5
199
100
AcDbEntity
  8
0
 62
5
100
AcDbSpline
 70
8
 71
3
 72
8
 73
4
 74
0
 40
0
 40
0
 40
0
 40
0
 40
1
 40
1
 40
1
 40
1
 10
35.674668
 20
289.397708
 30
0.0
 10
35.667074
 20
289.412790
 30
0.0
 10
35.658687
 20
289.427659
 30
0.0
 10
35.649427
 20
289.441867
 30
0.0
  0
SPLINE
  5
19a
100
AcDbEntity
  8
0
 62
5
100
AcDbSpline
 70
8
 71
3
 72
8
 73
4
 74
0
 40
0
 40
0
 40
0
 40
0
 40
1
 40
1
 40
1
 40
1
 10
35.649427
 20
289.441867
 30
0.0
 10
35.640589
 20
289.455626
 30
0.0
 10
35.630959
 20
289.468590
 30
0.0
 10
35.620680
 20
289.481131
 30
0.0
  0
SPLINE
  5
19b
100
AcDbEntity
  8
0
 62
5
100
AcDbSpline
 70
8
 71
3
 72
8
 73
4
 74
0
 40
0
 40
0
 40
0
 40
0
 40
1
 40
1
 40
1
 40
1
 10
35.620680
 20
289.481131
 30
0.0
 10
35.610599
 20
289.493302
 30
0.0
 10
35.599883
 20
289.505209
 30
0.0
 10
35.588429
 20
289.516189
 30
0.0
  0
SPLINE
  5
19c
100
AcDbEntity
  8
0
 62
5
100
AcDbSpline
 70
8
 71
3
 72
8
 73
4
 74
0
 40
0
 40
0
 40
0
 40
0
 40
1
 40
1
 40
1
 40
1
 10
35.588429
 20
289.516189
 30
0.0
 10
35.577185
 20
289.527037
 30
0.0
 10
35.565199
 20
289.537091
 30
0.0
 10
35.552671
 20
289.546351
 30
0.0
  0
SPLINE
  5
19d
100
AcDbEntity
  8
0
 62
5
100
AcDbSpline
 70
8
 71
3
 72
8
 73
4
 74
0
 40
0
 40
0
 40
0
 40
0
 40
1
 40
1
 40
1
 40
1
 10
35.552671
 20
289.546351
 30
0.0
 10
35.539892
 20
289.555876
 30
0.0
 10
35.526557
 20
289.564607
 30
0.0
 10
35.512708
 20
289.572280
 30
0.0
  0
SPLINE
  5
19e
100
AcDbEntity
  8
0
 62
5
100
AcDbSpline
 70
8
 71
3
 72
8
 73
4
 74
0
 40
0
 40
0
 40
0
 40
0
 40
1
 40
1
 40
1
 40
1
 10
35.512708
 20
289.572280
 30
0.0
 10
35.498685
 20
289.580218
 30
0.0
 10
35.484144
 20
289.587362
 30
0.0
 10
35.469237
 20
289.593447
 30
0.0
  0
SPLINE
  5
19f
100
AcDbEntity
  8
0
 62
5
100
AcDbSpline
 70
8
 71
3
 72
8
 73
4
 74
0
 40
0
 40
0
 40
0
 40
0
 40
1
 40
1
 40
1
 40
1
 10
35.469237
 20
289.593447
 30
0.0
 10
35.453918
 20
289.599797
 30
0.0
 10
35.438183
 20
289.605089
 30
0.0
 10
35.422263
 20
289.609587
 30
0.0
  0
SPLINE
  5
1a0
100
AcDbEntity
  8
0
 62
5
100
AcDbSpline
 70
8
 71
3
 72
8
 73
4
 74
0
 40
0
 40
0
 40
0
 40
0
 40
1
 40
1
 40
1
 40
1
 10
35.422263
 20
289.609587
 30
0.0
 10
35.405647
 20
289.614349
 30
0.0
 10
35.388793
 20
289.618318
 30
0.0
 10
35.371781
 20
289.621493
 30
0.0
  0
SPLINE
  5
1a1
100
AcDbEntity
  8
0
 62
5
100
AcDbSpline
 70
8
 71
3
 72
8
 73
4
 74
0
 40
0
 40
0
 40
0
 40
0
 40
1
 40
1
 40
1
 40
1
 10
35.371781
 20
289.621493
 30
0.0
 10
35.353710
 20
289.624932
 30
0.0
 10
35.335424
 20
289.627049
 30
0.0
 10
35.317094
 20
289.628637
 30
0.0
  0
SPLINE
  5
1a2
100
AcDbEntity
  8
0
 62
5
100
AcDbSpline
 70
8
 71
3
 72
8
 73
4
 74
0
 40
0
 40
0
 40
0
 40
0
 40
1
 40
1
 40
1
 40
1
 10
35.317094
 20
289.628637
 30
0.0
 10
35.297726
 20
289.631282
 30
0.0
 10
35.278319
 20
289.631282
 30
0.0
 10
35.258902
 20
289.631282
 30
0.0
  0
SPLINE
  5
1a3
100
AcDbEntity
  8
0
 62
5
100
AcDbSpline
 70
8
 71
3
 72
8
 73
4
 74
0
 40
0
 40
0
 40
0
 40
0
 40
1
 40
1
 40
1
 40
1
 10
35.258931
 20
289.630489
 30
0.0
 10
35.233689
 20
289.630489
 30
0.0
 10
35.208430
 20
289.630489
 30
0.0
 10
35.183210
 20
289.627578
 30
0.0
  0
SPLINE
  5
1a4
100
AcDbEntity
  8
0
 62
5
100
AcDbSpline
 70
8
 71
3
 72
8
 73
4
 74
0
 40
0
 40
0
 40
0
 40
0
 40
1
 40
1
 40
1
 40
1
 10
35.183210
 20
289.627578
 30
0.0
 10
35.159979
 20
289.624932
 30
0.0
 10
35.136791
 20
289.624139
 30
0.0
 10
35.113799
 20
289.620435
 30
0.0
  0
SPLINE
  5
1a5
100
AcDbEntity
  8
0
 62
5
100
AcDbSpline
 70
8
 71
3
 72
8
 73
4
 74
0
 40
0
 40
0
 40
0
 40
0
 40
1
 40
1
 40
1
 40
1
 10
35.113799
 20
289.620435
 30
0.0
 10
35.092315
 20
289.617260
 30
0.0
 10
35.071018
 20
289.612762
 30
0.0
 10
35.049997
 20
289.607205
 30
0.0
  0
SPLINE
  5
1a6
100
AcDbEntity
  8
0
 62
5
100
AcDbSpline
 70
8
 71
3
 72
8
 73
4
 74
0
 40
0
 40
0
 40
0
 40
0
 40
1
 40
1
 40
1
 40
1
 10
35.049997
 20
289.607205
 30
0.0
 10
35.030815
 20
289.602178
 30
0.0
 10
35.011889
 20
289.596357
 30
0.0
 10
34.993204
 20
289.589743
 30
0.0
  0
SPLINE
  5
1a7
100
AcDbEntity
  8
0
 62
5
100
AcDbSpline
 70
8
 71
3
 72
8
 73
4
 74
0
 40
0
 40
0
 40
0
 40
0
 40
1
 40
1
 40
1
 40
1
 10
34.993204
 20
289.589743
 30
0.0
 10
34.958938
 20
289.577572
 30
0.0
 10
34.925516
 20
289.563126
 30
0.0
 10
34.892946
 20
289.546960
 30
0.0
  0
SPLINE
  5
1a8
100
AcDbEntity
  8
0
 62
5
100
AcDbSpline
 70
8
 71
3
 72
8
 73
4
 74
0
 40
0
 40
0
 40
0
 40
0
 40
1
 40
1
 40
1
 40
1
 10
34.892946
 20
289.546960
 30
0.0
 10
34.863500
 20
289.532408
 30
0.0
 10
34.834753
 20
289.516427
 30
0.0
 10
34.806707
 20
289.499282
 30
0.0
  0
SPLINE
  5
1a9
100
AcDbEntity
  8
0
 62
5
100
AcDbSpline
 70
8
 71
3
 72
8
 73
4
 74
0
 40
0
 40
0
 40
0
 40
0
 40
1
 40
1
 40
1
 40
1
 10
34.806707
 20
289.499282
 30
0.0
 10
34.781916
 20
289.484201
 30
0.0
 10
34.757664
 20
289.468035
 30
0.0
 10
34.733791
 20
289.451604
 30
0.0
  0
SPLINE
  5
1aa
100
AcDbEntity
  8
0
 62
5
100
AcDbSpline
 70
8
 71
3
 72
8
 73
4
 74
0
 40
0
 40
0
 40
0
 40
0
 40
1
 40
1
 40
1
 40
1
 10
34.733791
 20
289.451604
 30
0.0
 10
34.713048
 20
289.437316
 30
0.0
 10
34.692606
 20
289.422870
 30
0.0
 10
34.671389
 20
289.408847
 30
0.0
  0
SPLINE
  5
1ab
100
AcDbEntity
  8
0
 62
5
100
AcDbSpline
 70
8
 71
3
 72
8
 73
4
 74
0
 40
0
 40
0
 40
0
 40
0
 40
1
 40
1
 40
1
 40
1
 10
34.671389
 20
289.408847
 30
0.0
 10
34.653344
 20
289.396941
 30
0.0
 10
34.634773
 20
289.385299
 30
0.0
 10
34.614599
 20
289.378711
 30
0.0
  0
SPLINE
  5
1ac
100
AcDbEntity
  8
0
 62
5
100
AcDbSpline
 70
8
 71
3
 72
8
 73
4
 74
0
 40
0
 40
0
 40
0
 40
0
 40
1
 40
1
 40
1
 40
1
 10
34.614599
 20
289.378711
 30
0.0
 10
34.596739
 20
289.372890
 30
0.0
 10
34.577621
 20
289.370774
 30
0.0
 10
34.558510
 20
289.368922
 30
0.0
  0
SPLINE
  5
1ad
100
AcDbEntity
  8
0
 62
5
100
AcDbSpline
 70
8
 71
3
 72
8
 73
4
 74
0
 40
0
 40
0
 40
0
 40
0
 40
1
 40
1
 40
1
 40
1
 10
34.558510
 20
289.368975
 30
0.0
 10
34.544725
 20
289.368975
 30
0.0
 10
34.530948
 20
289.371620
 30
0.0
 10
34.517843
 20
289.374531
 30
0.0
  0
SPLINE
  5
1ae
100
AcDbEntity
  8
0
 62
5
100
AcDbSpline
 70
8
 71
3
 72
8
 73
4
 74
0
 40
0
 40
0
 40
0
 40
0
 40
1
 40
1
 40
1
 40
1
 10
34.517843
 20
289.374531
 30
0.0
 10
34.505143
 20
289.378235
 30
0.0
 10
34.493052
 20
289.384320
 30
0.0
 10
34.482087
 20
289.391993
 30
0.0
  0
SPLINE
  5
1af
100
AcDbEntity
  8
0
 62
5
100
AcDbSpline
 70
8
 71
3
 72
8
 73
4
 74
0
 40
0
 40
0
 40
0
 40
0
 40
1
 40
1
 40
1
 40
1
 10
34.482087
 20
289.391993
 30
0.0
 10
34.471425
 20
289.399402
 30
0.0
 10
34.461768
 20
289.408133
 30
0.0
 10
34.453341
 20
289.417922
 30
0.0
  0
SPLINE
  5
1b0
100
AcDbEntity
  8
0
 62
5
100
AcDbSpline
 70
8
 71
3
 72
8
 73
4
 74
0
 40
0
 40
0
 40
0
 40
0
 40
1
 40
1
 40
1
 40
1
 10
34.453341
 20
289.417922
 30
0.0
 10
34.444821
 20
289.427712
 30
0.0
 10
34.437518
 20
289.438560
 30
0.0
 10
34.430216
 20
289.449461
 30
0.0
  0
LINE
  5
1b1
100
AcDbEntity
  8
0
 62
5
100
AcDbLine
 10
34.430205
 20
289.449593
 30
0.0
 11
34.352381
 21
289.588420
 31
0.0
  0
SPLINE
  5
1b2
100
AcDbEntity
  8
0
 62
5
100
AcDbSpline
 70
8
 71
3
 72
8
 73
4
 74
0
 40
0
 40
0
 40
0
 40
0
 40
1
 40
1
 40
1
 40
1
 10
34.352381
 20
289.588420
 30
0.0
 10
34.386427
 20
289.618979
 30
0.0
 10
34.420477
 20
289.649565
 30
0.0
 10
34.456145
 20
289.678167
 30
0.0
  0
SPLINE
  5
1b3
100
AcDbEntity
  8
0
 62
5
100
AcDbSpline
 70
8
 71
3
 72
8
 73
4
 74
0
 40
0
 40
0
 40
0
 40
0
 40
1
 40
1
 40
1
 40
1
 10
34.456145
 20
289.678167
 30
0.0
 10
34.490750
 20
289.705921
 30
0.0
 10
34.526881
 20
289.731824
 30
0.0
 10
34.564119
 20
289.755981
 30
0.0
  0
SPLINE
  5
1b4
100
AcDbEntity
  8
0
 62
5
100
AcDbSpline
 70
8
 71
3
 72
8
 73
4
 74
0
 40
0
 40
0
 40
0
 40
0
 40
1
 40
1
 40
1
 40
1
 10
34.564119
 20
289.755981
 30
0.0
 10
34.600250
 20
289.779529
 30
0.0
 10
34.637424
 20
289.801251
 30
0.0
 10
34.675596
 20
289.821174
 30
0.0
  0
SPLINE
  5
1b5
100
AcDbEntity
  8
0
 62
5
100
AcDbSpline
 70
8
 71
3
 72
8
 73
4
 74
0
 40
0
 40
0
 40
0
 40
0
 40
1
 40
1
 40
1
 40
1
 10
34.675596
 20
289.821174
 30
0.0
 10
34.713243
 20
289.840753
 30
0.0
 10
34.751862
 20
289.858639
 30
0.0
 10
34.791282
 20
289.874461
 30
0.0
  0
SPLINE
  5
1b6
100
AcDbEntity
  8
0
 62
5
100
AcDbSpline
 70
8
 71
3
 72
8
 73
4
 74
0
 40
0
 40
0
 40
0
 40
0
 40
1
 40
1
 40
1
 40
1
 10
34.791282
 20
289.874461
 30
0.0
 10
34.830740
 20
289.890336
 30
0.0
 10
34.871004
 20
289.904174
 30
0.0
 10
34.911874
 20
289.915842
 30
0.0
  0
SPLINE
  5
1b7
100
AcDbEntity
  8
0
 62
5
100
AcDbSpline
 70
8
 71
3
 72
8
 73
4
 74
0
 40
0
 40
0
 40
0
 40
0
 40
1
 40
1
 40
1
 40
1
 10
34.911874
 20
289.915842
 30
0.0
 10
34.953641
 20
289.927748
 30
0.0
 10
34.996041
 20
289.937273
 30
0.0
 10
35.038779
 20
289.945290
 30
0.0
  0
SPLINE
  5
1b8
100
AcDbEntity
  8
0
 62
5
100
AcDbSpline
 70
8
 71
3
 72
8
 73
4
 74
0
 40
0
 40
0
 40
0
 40
0
 40
1
 40
1
 40
1
 40
1
 10
35.038779
 20
289.945290
 30
0.0
 10
35.083112
 20
289.953492
 30
0.0
 10
35.127808
 20
289.959842
 30
0.0
 10
35.172692
 20
289.963546
 30
0.0
  0
SPLINE
  5
1b9
100
AcDbEntity
  8
0
 62
5
100
AcDbSpline
 70
8
 71
3
 72
8
 73
4
 74
0
 40
0
 40
0
 40
0
 40
0
 40
1
 40
1
 40
1
 40
1
 10
35.172692
 20
289.963546
 30
0.0
 10
35.219066
 20
289.967250
 30
0.0
 10
35.265640
 20
289.968309
 30
0.0
 10
35.312215
 20
289.969102
 30
0.0
  0
SPLINE
  5
1ba
100
AcDbEntity
  8
0
 62
5
100
AcDbSpline
 70
8
 71
3
 72
8
 73
4
 74
0
 40
0
 40
0
 40
0
 40
0
 40
1
 40
1
 40
1
 40
1
 10
45.908971
 20
289.868164
 30
0.0
 10
45.907912
 20
289.828159
 30
0.0
 10
45.906589
 20
289.788154
 30
0.0
 10
45.903362
 20
289.748281
 30
0.0
  0
SPLINE
  5
1bb
100
AcDbEntity
  8
0
 62
5
100
AcDbSpline
 70
8
 71
3
 72
8
 73
4
 74
0
 40
0
 40
0
 40
0
 40
0
 40
1
 40
1
 40
1
 40
1
 10
45.903362
 20
289.748281
 30
0.0
 10
45.900213
 20
289.709731
 30
0.0
 10
45.895133
 20
289.671314
 30
0.0
 10
45.887936
 20
289.633293
 30
0.0
  0
SPLINE
  5
1bc
100
AcDbEntity
  8
0
 62
5
100
AcDbSpline
 70
8
 71
3
 72
8
 73
4
 74
0
 40
0
 40
0
 40
0
 40
0
 40
1
 40
1
 40
1
 40
1
 10
45.887936
 20
289.633293
 30
0.0
 10
45.880951
 20
289.596410
 30
0.0
 10
45.872008
 20
289.559898
 30
0.0
 10
45.861293
 20
289.523915
 30
0.0
  0
SPLINE
  5
1bd
100
AcDbEntity
  8
0
 62
5
100
AcDbSpline
 70
8
 71
3
 72
8
 73
4
 74
0
 40
0
 40
0
 40
0
 40
0
 40
1
 40
1
 40
1
 40
1
 10
45.861293
 20
289.523915
 30
0.0
 10
45.850736
 20
289.488460
 30
0.0
 10
45.838433
 20
289.453535
 30
0.0
 10
45.824135
 20
289.419457
 30
0.0
  0
SPLINE
  5
1be
100
AcDbEntity
  8
0
 62
5
100
AcDbSpline
 70
8
 71
3
 72
8
 73
4
 74
0
 40
0
 40
0
 40
0
 40
0
 40
1
 40
1
 40
1
 40
1
 10
45.824135
 20
289.419457
 30
0.0
 10
45.810059
 20
289.385881
 30
0.0
 10
45.794044
 20
289.353152
 30
0.0
 10
45.776459
 20
289.321297
 30
0.0
  0
SPLINE
  5
1bf
100
AcDbEntity
  8
0
 62
5
100
AcDbSpline
 70
8
 71
3
 72
8
 73
4
 74
0
 40
0
 40
0
 40
0
 40
0
 40
1
 40
1
 40
1
 40
1
 10
45.776459
 20
289.321297
 30
0.0
 10
45.759156
 20
289.289917
 30
0.0
 10
45.740331
 20
289.259384
 30
0.0
 10
45.719667
 20
289.230148
 30
0.0
  0
SPLINE
  5
1c0
100
AcDbEntity
  8
0
 62
5
100
AcDbSpline
 70
8
 71
3
 72
8
 73
4
 74
0
 40
0
 40
0
 40
0
 40
0
 40
1
 40
1
 40
1
 40
1
 10
45.719667
 20
289.230148
 30
0.0
 10
45.698923
 20
289.200805
 30
0.0
 10
45.676349
 20
289.172786
 30
0.0
 10
45.652359
 20
289.146010
 30
0.0
  0
SPLINE
  5
1c1
100
AcDbEntity
  8
0
 62
5
100
AcDbSpline
 70
8
 71
3
 72
8
 73
4
 74
0
 40
0
 40
0
 40
0
 40
0
 40
1
 40
1
 40
1
 40
1
 10
45.652359
 20
289.146010
 30
0.0
 10
45.628071
 20
289.118917
 30
0.0
 10
45.602358
 20
289.093120
 30
0.0
 10
45.575236
 20
289.068884
 30
0.0
  0
SPLINE
  5
1c2
100
AcDbEntity
  8
0
 62
5
100
AcDbSpline
 70
8
 71
3
 72
8
 73
4
 74
0
 40
0
 40
0
 40
0
 40
0
 40
1
 40
1
 40
1
 40
1
 10
45.575236
 20
289.068884
 30
0.0
 10
45.547574
 20
289.044278
 30
0.0
 10
45.518451
 20
289.021100
 30
0.0
 10
45.488296
 20
288.999484
 30
0.0
  0
SPLINE
  5
1c3
100
AcDbEntity
  8
0
 62
5
100
AcDbSpline
 70
8
 71
3
 72
8
 73
4
 74
0
 40
0
 40
0
 40
0
 40
0
 40
1
 40
1
 40
1
 40
1
 10
45.488296
 20
288.999484
 30
0.0
 10
45.457353
 20
288.977259
 30
0.0
 10
45.425323
 20
288.956595
 30
0.0
 10
45.392245
 20
288.937783
 30
0.0
  0
SPLINE
  5
1c4
100
AcDbEntity
  8
0
 62
5
100
AcDbSpline
 70
8
 71
3
 72
8
 73
4
 74
0
 40
0
 40
0
 40
0
 40
0
 40
1
 40
1
 40
1
 40
1
 10
45.392245
 20
288.937783
 30
0.0
 10
45.357719
 20
288.918204
 30
0.0
 10
45.322051
 20
288.900477
 30
0.0
 10
45.285673
 20
288.884496
 30
0.0
  0
SPLINE
  5
1c5
100
AcDbEntity
  8
0
 62
5
100
AcDbSpline
 70
8
 71
3
 72
8
 73
4
 74
0
 40
0
 40
0
 40
0
 40
0
 40
1
 40
1
 40
1
 40
1
 10
45.285673
 20
288.884496
 30
0.0
 10
45.247592
 20
288.867827
 30
0.0
 10
45.208732
 20
288.852799
 30
0.0
 10
45.169286
 20
288.839623
 30
0.0
  0
SPLINE
  5
1c6
100
AcDbEntity
  8
0
 62
5
100
AcDbSpline
 70
8
 71
3
 72
8
 73
4
 74
0
 40
0
 40
0
 40
0
 40
0
 40
1
 40
1
 40
1
 40
1
 10
45.169286
 20
288.839623
 30
0.0
 10
45.128021
 20
288.825864
 30
0.0
 10
45.086111
 20
288.813958
 30
0.0
 10
45.043786
 20
288.803851
 30
0.0
  0
SPLINE
  5
1c7
100
AcDbEntity
  8
0
 62
5
100
AcDbSpline
 70
8
 71
3
 72
8
 73
4
 74
0
 40
0
 40
0
 40
0
 40
0
 40
1
 40
1
 40
1
 40
1
 10
45.043786
 20
288.803851
 30
0.0
 10
44.999545
 20
288.793268
 30
0.0
 10
44.954846
 20
288.784801
 30
0.0
 10
44.909872
 20
288.777922
 30
0.0
  0
SPLINE
  5
1c8
100
AcDbEntity
  8
0
 62
5
100
AcDbSpline
 70
8
 71
3
 72
8
 73
4
 74
0
 40
0
 40
0
 40
0
 40
0
 40
1
 40
1
 40
1
 40
1
 10
44.909872
 20
288.777922
 30
0.0
 10
44.862438
 20
288.770778
 30
0.0
 10
44.814694
 20
288.765486
 30
0.0
 10
44.766844
 20
288.762576
 30
0.0
  0
SPLINE
  5
1c9
100
AcDbEntity
  8
0
 62
5
100
AcDbSpline
 70
8
 71
3
 72
8
 73
4
 74
0
 40
0
 40
0
 40
0
 40
0
 40
1
 40
1
 40
1
 40
1
 10
44.766844
 20
288.762576
 30
0.0
 10
44.716208
 20
288.759401
 30
0.0
 10
44.665455
 20
288.758607
 30
0.0
 10
44.614700
 20
288.757549
 30
0.0
  0
LINE
  5
1ca
100
AcDbEntity
  8
0
 62
5
100
AcDbLine
 10
44.614700
 20
288.757575
 30
0.0
 11
44.057308
 21
288.757575
 31
0.0
  0
LINE
  5
1cb
100
AcDbEntity
  8
0
 62
5
100
AcDbLine
 10
44.057308
 20
288.757575
 30
0.0
 11
44.057308
 21
287.456302
 31
0.0
  0
LINE
  5
1cc
100
AcDbEntity
  8
0
 62
5
100
AcDbLine
 10
44.057308
 20
287.456302
 30
0.0
 11
43.589660
 21
287.456302
 31
0.0
  0
LINE
  5
1cd
100
AcDbEntity
  8
0
 62
5
100
AcDbLine
 10
43.589660
 20
287.456302
 30
0.0
 11
43.589660
 21
290.956316
 31
0.0
  0
LINE
  5
1ce
100
AcDbEntity
  8
0
 62
5
100
AcDbLine
 10
43.589660
 20
290.956316
 30
0.0
 11
44.614700
 21
290.956316
 31
0.0
  0
SPLINE
  5
1cf
100
AcDbEntity
  8
0
 62
5
100
AcDbSpline
 70
8
 71
3
 72
8
 73
4
 74
0
 40
0
 40
0
 40
0
 40
0
 40
1
 40
1
 40
1
 40
1
 10
44.614700
 20
290.956316
 30
0.0
 10
44.667779
 20
290.956316
 30
0.0
 10
44.720857
 20
290.953670
 30
0.0
 10
44.773855
 20
290.951289
 30
0.0
  0
SPLINE
  5
1d0
100
AcDbEntity
  8
0
 62
5
100
AcDbSpline
 70
8
 71
3
 72
8
 73
4
 74
0
 40
0
 40
0
 40
0
 40
0
 40
1
 40
1
 40
1
 40
1
 10
44.773855
 20
290.951289
 30
0.0
 10
44.823544
 20
290.948378
 30
0.0
 10
44.873164
 20
290.943880
 30
0.0
 10
44.922493
 20
290.937266
 30
0.0
  0
SPLINE
  5
1d1
100
AcDbEntity
  8
0
 62
5
100
AcDbSpline
 70
8
 71
3
 72
8
 73
4
 74
0
 40
0
 40
0
 40
0
 40
0
 40
1
 40
1
 40
1
 40
1
 10
44.922493
 20
290.937266
 30
0.0
 10
44.968843
 20
290.930916
 30
0.0
 10
45.014936
 20
290.922714
 30
0.0
 10
45.060613
 20
290.912660
 30
0.0
  0
SPLINE
  5
1d2
100
AcDbEntity
  8
0
 62
5
100
AcDbSpline
 70
8
 71
3
 72
8
 73
4
 74
0
 40
0
 40
0
 40
0
 40
0
 40
1
 40
1
 40
1
 40
1
 10
45.060613
 20
290.912660
 30
0.0
 10
45.103362
 20
290.903135
 30
0.0
 10
45.145748
 20
290.892022
 30
0.0
 10
45.187515
 20
290.879005
 30
0.0
  0
SPLINE
  5
1d3
100
AcDbEntity
  8
0
 62
5
100
AcDbSpline
 70
8
 71
3
 72
8
 73
4
 74
0
 40
0
 40
0
 40
0
 40
0
 40
1
 40
1
 40
1
 40
1
 10
45.187515
 20
290.879005
 30
0.0
 10
45.227174
 20
290.866569
 30
0.0
 10
45.266274
 20
290.852308
 30
0.0
 10
45.304604
 20
290.836221
 30
0.0
  0
SPLINE
  5
1d4
100
AcDbEntity
  8
0
 62
5
100
AcDbSpline
 70
8
 71
3
 72
8
 73
4
 74
0
 40
0
 40
0
 40
0
 40
0
 40
1
 40
1
 40
1
 40
1
 10
45.304604
 20
290.836221
 30
0.0
 10
45.340667
 20
290.821140
 30
0.0
 10
45.376044
 20
290.804313
 30
0.0
 10
45.410472
 20
290.785739
 30
0.0
  0
SPLINE
  5
1d5
100
AcDbEntity
  8
0
 62
5
100
AcDbSpline
 70
8
 71
3
 72
8
 73
4
 74
0
 40
0
 40
0
 40
0
 40
0
 40
1
 40
1
 40
1
 40
1
 10
45.410472
 20
290.785739
 30
0.0
 10
45.443545
 20
290.768012
 30
0.0
 10
45.475739
 20
290.748380
 30
0.0
 10
45.506526
 20
290.726843
 30
0.0
  0
SPLINE
  5
1d6
100
AcDbEntity
  8
0
 62
5
100
AcDbSpline
 70
8
 71
3
 72
8
 73
4
 74
0
 40
0
 40
0
 40
0
 40
0
 40
1
 40
1
 40
1
 40
1
 10
45.506526
 20
290.726843
 30
0.0
 10
45.536117
 20
290.706205
 30
0.0
 10
45.564409
 20
290.683610
 30
0.0
 10
45.591362
 20
290.659533
 30
0.0
  0
SPLINE
  5
1d7
100
AcDbEntity
  8
0
 62
5
100
AcDbSpline
 70
8
 71
3
 72
8
 73
4
 74
0
 40
0
 40
0
 40
0
 40
0
 40
1
 40
1
 40
1
 40
1
 10
45.591362
 20
290.659533
 30
0.0
 10
45.617768
 20
290.635985
 30
0.0
 10
45.642887
 20
290.610982
 30
0.0
 10
45.666382
 20
290.584523
 30
0.0
  0
SPLINE
  5
1d8
100
AcDbEntity
  8
0
 62
5
100
AcDbSpline
 70
8
 71
3
 72
8
 73
4
 74
0
 40
0
 40
0
 40
0
 40
0
 40
1
 40
1
 40
1
 40
1
 10
45.666382
 20
290.584523
 30
0.0
 10
45.689480
 20
290.558594
 30
0.0
 10
45.711031
 20
290.531077
 30
0.0
 10
45.730885
 20
290.502502
 30
0.0
  0
SPLINE
  5
1d9
100
AcDbEntity
  8
0
 62
5
100
AcDbSpline
 70
8
 71
3
 72
8
 73
4
 74
0
 40
0
 40
0
 40
0
 40
0
 40
1
 40
1
 40
1
 40
1
 10
45.730885
 20
290.502502
 30
0.0
 10
45.750887
 20
290.473689
 30
0.0
 10
45.769173
 20
290.443712
 30
0.0
 10
45.785572
 20
290.412756
 30
0.0
  0
SPLINE
  5
1da
100
AcDbEntity
  8
0
 62
5
100
AcDbSpline
 70
8
 71
3
 72
8
 73
4
 74
0
 40
0
 40
0
 40
0
 40
0
 40
1
 40
1
 40
1
 40
1
 10
45.785572
 20
290.412756
 30
0.0
 10
45.802161
 20
290.381403
 30
0.0
 10
45.816832
 20
290.349044
 30
0.0
 10
45.829744
 20
290.315998
 30
0.0
  0
SPLINE
  5
1db
100
AcDbEntity
  8
0
 62
5
100
AcDbSpline
 70
8
 71
3
 72
8
 73
4
 74
0
 40
0
 40
0
 40
0
 40
0
 40
1
 40
1
 40
1
 40
1
 10
45.829744
 20
290.315998
 30
0.0
 10
45.842920
 20
290.282237
 30
0.0
 10
45.854297
 20
290.247815
 30
0.0
 10
45.864097
 20
290.212916
 30
0.0
  0
SPLINE
  5
1dc
100
AcDbEntity
  8
0
 62
5
100
AcDbSpline
 70
8
 71
3
 72
8
 73
4
 74
0
 40
0
 40
0
 40
0
 40
0
 40
1
 40
1
 40
1
 40
1
 10
45.864097
 20
290.212916
 30
0.0
 10
45.874231
 20
290.176906
 30
0.0
 10
45.882698
 20
290.140394
 30
0.0
 10
45.889339
 20
290.103564
 30
0.0
  0
SPLINE
  5
1dd
100
AcDbEntity
  8
0
 62
5
100
AcDbSpline
 70
8
 71
3
 72
8
 73
4
 74
0
 40
0
 40
0
 40
0
 40
0
 40
1
 40
1
 40
1
 40
1
 10
45.889339
 20
290.103564
 30
0.0
 10
45.896191
 20
290.065517
 30
0.0
 10
45.901113
 20
290.027099
 30
0.0
 10
45.904076
 20
289.988576
 30
0.0
  0
SPLINE
  5
1de
100
AcDbEntity
  8
0
 62
5
100
AcDbSpline
 70
8
 71
3
 72
8
 73
4
 74
0
 40
0
 40
0
 40
0
 40
0
 40
1
 40
1
 40
1
 40
1
 10
45.904076
 20
289.988576
 30
0.0
 10
45.907145
 20
289.948465
 30
0.0
 10
45.908071
 20
289.908222
 30
0.0
 10
45.908997
 20
289.867979
 30
0.0
  0
LINE
  5
1df
100
AcDbEntity
  8
0
 62
5
100
AcDbLine
 10
46.590461
 20
290.956316
 30
0.0
 11
47.060212
 21
290.956316
 31
0.0
  0
LINE
  5
1e0
100
AcDbEntity
  8
0
 62
5
100
AcDbLine
 10
47.060212
 20
290.956316
 30
0.0
 11
47.060212
 21
287.456302
 31
0.0
  0
LINE
  5
1e1
100
AcDbEntity
  8
0
 62
5
100
AcDbLine
 10
47.060212
 20
287.456302
 30
0.0
 11
46.590461
 21
287.456302
 31
0.0
  0
LINE
  5
1e2
100
AcDbEntity
  8
0
 62
5
100
AcDbLine
 10
46.590461
 20
287.456302
 30
0.0
 11
46.590461
 21
290.956316
 31
0.0
  0
SPLINE
  5
1e3
100
AcDbEntity
  8
0
 62
5
100
AcDbSpline
 70
8
 71
3
 72
8
 73
4
 74
0
 40
0
 40
0
 40
0
 40
0
 40
1
 40
1
 40
1
 40
1
 10
41.508029
 20
288.827002
 30
0.0
 10
41.494615
 20
288.844465
 30
0.0
 10
41.481195
 20
288.862192
 30
0.0
 10
41.465259
 20
288.877485
 30
0.0
  0
SPLINE
  5
1e4
100
AcDbEntity
  8
0
 62
5
100
AcDbSpline
 70
8
 71
3
 72
8
 73
4
 74
0
 40
0
 40
0
 40
0
 40
0
 40
1
 40
1
 40
1
 40
1
 10
41.465259
 20
288.877485
 30
0.0
 10
41.451342
 20
288.890978
 30
0.0
 10
41.435507
 20
288.902355
 30
0.0
 10
41.418285
 20
288.911140
 30
0.0
  0
SPLINE
  5
1e5
100
AcDbEntity
  8
0
 62
5
100
AcDbSpline
 70
8
 71
3
 72
8
 73
4
 74
0
 40
0
 40
0
 40
0
 40
0
 40
1
 40
1
 40
1
 40
1
 10
41.418285
 20
288.911140
 30
0.0
 10
41.409474
 20
288.915637
 30
0.0
 10
41.400293
 20
288.919342
 30
0.0
 10
41.390940
 20
288.922252
 30
0.0
  0
SPLINE
  5
1e6
100
AcDbEntity
  8
0
 62
5
100
AcDbSpline
 70
8
 71
3
 72
8
 73
4
 74
0
 40
0
 40
0
 40
0
 40
0
 40
1
 40
1
 40
1
 40
1
 10
41.390940
 20
288.922252
 30
0.0
 10
41.380172
 20
288.925692
 30
0.0
 10
41.369139
 20
288.928602
 30
0.0
 10
41.357989
 20
288.930719
 30
0.0
  0
SPLINE
  5
1e7
100
AcDbEntity
  8
0
 62
5
100
AcDbSpline
 70
8
 71
3
 72
8
 73
4
 74
0
 40
0
 40
0
 40
0
 40
0
 40
1
 40
1
 40
1
 40
1
 10
41.357989
 20
288.930719
 30
0.0
 10
41.345025
 20
288.933365
 30
0.0
 10
41.331875
 20
288.934687
 30
0.0
 10
41.318725
 20
288.935481
 30
0.0
  0
SPLINE
  5
1e8
100
AcDbEntity
  8
0
 62
5
100
AcDbSpline
 70
8
 71
3
 72
8
 73
4
 74
0
 40
0
 40
0
 40
0
 40
0
 40
1
 40
1
 40
1
 40
1
 10
41.318725
 20
288.935481
 30
0.0
 10
41.303564
 20
288.935481
 30
0.0
 10
41.288356
 20
288.935481
 30
0.0
 10
41.273153
 20
288.938127
 30
0.0
  0
LINE
  5
1e9
100
AcDbEntity
  8
0
 62
5
100
AcDbLine
 10
41.273153
 20
288.937069
 30
0.0
 11
40.916283
 21
288.937069
 31
0.0
  0
LINE
  5
1ea
100
AcDbEntity
  8
0
 62
5
100
AcDbLine
 10
40.916283
 20
288.937069
 30
0.0
 11
40.916283
 21
287.478738
 31
0.0
  0
LINE
  5
1eb
100
AcDbEntity
  8
0
 62
5
100
AcDbLine
 10
40.916283
 20
287.478738
 30
0.0
 11
40.448635
 21
287.478738
 31
0.0
  0
LINE
  5
1ec
100
AcDbEntity
  8
0
 62
5
100
AcDbLine
 10
40.448635
 20
287.478738
 30
0.0
 11
40.448635
 21
290.956316
 31
0.0
  0
LINE
  5
1ed
100
AcDbEntity
  8
0
 62
5
100
AcDbLine
 10
40.448635
 20
290.956316
 30
0.0
 11
41.430205
 21
290.956316
 31
0.0
  0
SPLINE
  5
1ee
100
AcDbEntity
  8
0
 62
5
100
AcDbSpline
 70
8
 71
3
 72
8
 73
4
 74
0
 40
0
 40
0
 40
0
 40
0
 40
1
 40
1
 40
1
 40
1
 10
41.430205
 20
290.956316
 30
0.0
 10
41.483288
 20
290.956316
 30
0.0
 10
41.536369
 20
290.953670
 30
0.0
 10
41.589359
 20
290.952082
 30
0.0
  0
SPLINE
  5
1ef
100
AcDbEntity
  8
0
 62
5
100
AcDbSpline
 70
8
 71
3
 72
8
 73
4
 74
0
 40
0
 40
0
 40
0
 40
0
 40
1
 40
1
 40
1
 40
1
 10
41.589359
 20
290.952082
 30
0.0
 10
41.638776
 20
290.949437
 30
0.0
 10
41.688110
 20
290.945203
 30
0.0
 10
41.737296
 20
290.939382
 30
0.0
  0
SPLINE
  5
1f0
100
AcDbEntity
  8
0
 62
5
100
AcDbSpline
 70
8
 71
3
 72
8
 73
4
 74
0
 40
0
 40
0
 40
0
 40
0
 40
1
 40
1
 40
1
 40
1
 10
41.737296
 20
290.939382
 30
0.0
 10
41.783085
 20
290.934091
 30
0.0
 10
41.828746
 20
290.927741
 30
0.0
 10
41.874014
 20
290.919010
 30
0.0
  0
SPLINE
  5
1f1
100
AcDbEntity
  8
0
 62
5
100
AcDbSpline
 70
8
 71
3
 72
8
 73
4
 74
0
 40
0
 40
0
 40
0
 40
0
 40
1
 40
1
 40
1
 40
1
 10
41.874014
 20
290.919010
 30
0.0
 10
41.916231
 20
290.911072
 30
0.0
 10
41.958107
 20
290.901018
 30
0.0
 10
41.999516
 20
290.889561
 30
0.0
  0
SPLINE
  5
1f2
100
AcDbEntity
  8
0
 62
5
100
AcDbSpline
 70
8
 71
3
 72
8
 73
4
 74
0
 40
0
 40
0
 40
0
 40
0
 40
1
 40
1
 40
1
 40
1
 10
41.999516
 20
290.889561
 30
0.0
 10
42.038331
 20
290.878714
 30
0.0
 10
42.076738
 20
290.866543
 30
0.0
 10
42.114499
 20
290.852414
 30
0.0
  0
SPLINE
  5
1f3
100
AcDbEntity
  8
0
 62
5
100
AcDbSpline
 70
8
 71
3
 72
8
 73
4
 74
0
 40
0
 40
0
 40
0
 40
0
 40
1
 40
1
 40
1
 40
1
 10
42.114499
 20
290.852414
 30
0.0
 10
42.149742
 20
290.839185
 30
0.0
 10
42.184418
 20
290.824633
 30
0.0
 10
42.218266
 20
290.808229
 30
0.0
  0
SPLINE
  5
1f4
100
AcDbEntity
  8
0
 62
5
100
AcDbSpline
 70
8
 71
3
 72
8
 73
4
 74
0
 40
0
 40
0
 40
0
 40
0
 40
1
 40
1
 40
1
 40
1
 10
42.218266
 20
290.808229
 30
0.0
 10
42.250476
 20
290.792618
 30
0.0
 10
42.281933
 20
290.775420
 30
0.0
 10
42.312214
 20
290.756344
 30
0.0
  0
SPLINE
  5
1f5
100
AcDbEntity
  8
0
 62
5
100
AcDbSpline
 70
8
 71
3
 72
8
 73
4
 74
0
 40
0
 40
0
 40
0
 40
0
 40
1
 40
1
 40
1
 40
1
 10
42.312214
 20
290.756344
 30
0.0
 10
42.341146
 20
290.738087
 30
0.0
 10
42.369007
 20
290.718191
 30
0.0
 10
42.395648
 20
290.696760
 30
0.0
  0
SPLINE
  5
1f6
100
AcDbEntity
  8
0
 62
5
100
AcDbSpline
 70
8
 71
3
 72
8
 73
4
 74
0
 40
0
 40
0
 40
0
 40
0
 40
1
 40
1
 40
1
 40
1
 10
42.395648
 20
290.696760
 30
0.0
 10
42.421180
 20
290.676122
 30
0.0
 10
42.445604
 20
290.654241
 30
0.0
 10
42.468565
 20
290.630852
 30
0.0
  0
SPLINE
  5
1f7
100
AcDbEntity
  8
0
 62
5
100
AcDbSpline
 70
8
 71
3
 72
8
 73
4
 74
0
 40
0
 40
0
 40
0
 40
0
 40
1
 40
1
 40
1
 40
1
 10
42.468565
 20
290.630852
 30
0.0
 10
42.491081
 20
290.607833
 30
0.0
 10
42.512221
 20
290.583544
 30
0.0
 10
42.531668
 20
290.557933
 30
0.0
  0
SPLINE
  5
1f8
100
AcDbEntity
  8
0
 62
5
100
AcDbSpline
 70
8
 71
3
 72
8
 73
4
 74
0
 40
0
 40
0
 40
0
 40
0
 40
1
 40
1
 40
1
 40
1
 10
42.531668
 20
290.557933
 30
0.0
 10
42.550850
 20
290.532533
 30
0.0
 10
42.568379
 20
290.506180
 30
0.0
 10
42.584251
 20
290.478716
 30
0.0
  0
SPLINE
  5
1f9
100
AcDbEntity
  8
0
 62
5
100
AcDbSpline
 70
8
 71
3
 72
8
 73
4
 74
0
 40
0
 40
0
 40
0
 40
0
 40
1
 40
1
 40
1
 40
1
 10
42.584251
 20
290.478716
 30
0.0
 10
42.600205
 20
290.451094
 30
0.0
 10
42.614488
 20
290.422492
 30
0.0
 10
42.627018
 20
290.393177
 30
0.0
  0
SPLINE
  5
1fa
100
AcDbEntity
  8
0
 62
5
100
AcDbSpline
 70
8
 71
3
 72
8
 73
4
 74
0
 40
0
 40
0
 40
0
 40
0
 40
1
 40
1
 40
1
 40
1
 10
42.627018
 20
290.393177
 30
0.0
 10
42.639718
 20
290.363437
 30
0.0
 10
42.650619
 20
290.332957
 30
0.0
 10
42.659972
 20
290.302028
 30
0.0
  0
SPLINE
  5
1fb
100
AcDbEntity
  8
0
 62
5
100
AcDbSpline
 70
8
 71
3
 72
8
 73
4
 74
0
 40
0
 40
0
 40
0
 40
0
 40
1
 40
1
 40
1
 40
1
 10
42.659972
 20
290.302028
 30
0.0
 10
42.669576
 20
290.270198
 30
0.0
 10
42.677540
 20
290.237919
 30
0.0
 10
42.683811
 20
290.205270
 30
0.0
  0
SPLINE
  5
1fc
100
AcDbEntity
  8
0
 62
5
100
AcDbSpline
 70
8
 71
3
 72
8
 73
4
 74
0
 40
0
 40
0
 40
0
 40
0
 40
1
 40
1
 40
1
 40
1
 10
42.683811
 20
290.205270
 30
0.0
 10
42.690320
 20
290.171429
 30
0.0
 10
42.694976
 20
290.137219
 30
0.0
 10
42.697834
 20
290.102902
 30
0.0
  0
SPLINE
  5
1fd
100
AcDbEntity
  8
0
 62
5
100
AcDbSpline
 70
8
 71
3
 72
8
 73
4
 74
0
 40
0
 40
0
 40
0
 40
0
 40
1
 40
1
 40
1
 40
1
 10
42.697834
 20
290.102902
 30
0.0
 10
42.700797
 20
290.067236
 30
0.0
 10
42.701776
 20
290.031438
 30
0.0
 10
42.702755
 20
289.995640
 30
0.0
  0
SPLINE
  5
1fe
100
AcDbEntity
  8
0
 62
5
100
AcDbSpline
 70
8
 71
3
 72
8
 73
4
 74
0
 40
0
 40
0
 40
0
 40
0
 40
1
 40
1
 40
1
 40
1
 10
42.702739
 20
289.995772
 30
0.0
 10
42.702210
 20
289.965584
 30
0.0
 10
42.701681
 20
289.935395
 30
0.0
 10
42.699220
 20
289.905311
 30
0.0
  0
SPLINE
  5
1ff
100
AcDbEntity
  8
0
 62
5
100
AcDbSpline
 70
8
 71
3
 72
8
 73
4
 74
0
 40
0
 40
0
 40
0
 40
0
 40
1
 40
1
 40
1
 40
1
 10
42.699220
 20
289.905311
 30
0.0
 10
42.696839
 20
289.875969
 30
0.0
 10
42.693029
 20
289.846733
 30
0.0
 10
42.688002
 20
289.817681
 30
0.0
  0
SPLINE
  5
200
100
AcDbEntity
  8
0
 62
5
100
AcDbSpline
 70
8
 71
3
 72
8
 73
4
 74
0
 40
0
 40
0
 40
0
 40
0
 40
1
 40
1
 40
1
 40
1
 10
42.688002
 20
289.817681
 30
0.0
 10
42.683054
 20
289.789159
 30
0.0
 10
42.677075
 20
289.760849
 30
0.0
 10
42.669772
 20
289.732856
 30
0.0
  0
SPLINE
  5
201
100
AcDbEntity
  8
0
 62
5
100
AcDbSpline
 70
8
 71
3
 72
8
 73
4
 74
0
 40
0
 40
0
 40
0
 40
0
 40
1
 40
1
 40
1
 40
1
 10
42.669772
 20
289.732856
 30
0.0
 10
42.662602
 20
289.705366
 30
0.0
 10
42.654162
 20
289.678220
 30
0.0
 10
42.644531
 20
289.651523
 30
0.0
  0
SPLINE
  5
202
100
AcDbEntity
  8
0
 62
5
100
AcDbSpline
 70
8
 71
3
 72
8
 73
4
 74
0
 40
0
 40
0
 40
0
 40
0
 40
1
 40
1
 40
1
 40
1
 10
42.644531
 20
289.651523
 30
0.0
 10
42.635006
 20
289.625065
 30
0.0
 10
42.624290
 20
289.599083
 30
0.0
 10
42.612281
 20
289.573683
 30
0.0
  0
SPLINE
  5
203
100
AcDbEntity
  8
0
 62
5
100
AcDbSpline
 70
8
 71
3
 72
8
 73
4
 74
0
 40
0
 40
0
 40
0
 40
0
 40
1
 40
1
 40
1
 40
1
 10
42.612281
 20
289.573683
 30
0.0
 10
42.600401
 20
289.548547
 30
0.0
 10
42.587251
 20
289.523967
 30
0.0
 10
42.573017
 20
289.500076
 30
0.0
  0
SPLINE
  5
204
100
AcDbEntity
  8
0
 62
5
100
AcDbSpline
 70
8
 71
3
 72
8
 73
4
 74
0
 40
0
 40
0
 40
0
 40
0
 40
1
 40
1
 40
1
 40
1
 10
42.573017
 20
289.500076
 30
0.0
 10
42.558835
 20
289.476263
 30
0.0
 10
42.543595
 20
289.453165
 30
0.0
 10
42.527445
 20
289.430675
 30
0.0
  0
SPLINE
  5
205
100
AcDbEntity
  8
0
 62
5
100
AcDbSpline
 70
8
 71
3
 72
8
 73
4
 74
0
 40
0
 40
0
 40
0
 40
0
 40
1
 40
1
 40
1
 40
1
 10
42.527445
 20
289.430675
 30
0.0
 10
42.511120
 20
289.407921
 30
0.0
 10
42.493896
 20
289.385855
 30
0.0
 10
42.475560
 20
289.364768
 30
0.0
  0
SPLINE
  5
206
100
AcDbEntity
  8
0
 62
5
100
AcDbSpline
 70
8
 71
3
 72
8
 73
4
 74
0
 40
0
 40
0
 40
0
 40
0
 40
1
 40
1
 40
1
 40
1
 10
42.475560
 20
289.364768
 30
0.0
 10
42.457119
 20
289.343601
 30
0.0
 10
42.437590
 20
289.323307
 30
0.0
 10
42.417368
 20
289.303755
 30
0.0
  0
SPLINE
  5
207
100
AcDbEntity
  8
0
 62
5
100
AcDbSpline
 70
8
 71
3
 72
8
 73
4
 74
0
 40
0
 40
0
 40
0
 40
0
 40
1
 40
1
 40
1
 40
1
 10
42.417368
 20
289.303755
 30
0.0
 10
42.396889
 20
289.283911
 30
0.0
 10
42.375693
 20
289.264887
 30
0.0
 10
42.353566
 20
289.246975
 30
0.0
  0
SPLINE
  5
208
100
AcDbEntity
  8
0
 62
5
100
AcDbSpline
 70
8
 71
3
 72
8
 73
4
 74
0
 40
0
 40
0
 40
0
 40
0
 40
1
 40
1
 40
1
 40
1
 10
42.353566
 20
289.246975
 30
0.0
 10
42.330838
 20
289.228454
 30
0.0
 10
42.307089
 20
289.211362
 30
0.0
 10
42.282753
 20
289.195090
 30
0.0
  0
SPLINE
  5
209
100
AcDbEntity
  8
0
 62
5
100
AcDbSpline
 70
8
 71
3
 72
8
 73
4
 74
0
 40
0
 40
0
 40
0
 40
0
 40
1
 40
1
 40
1
 40
1
 10
42.282753
 20
289.195090
 30
0.0
 10
42.257882
 20
289.178422
 30
0.0
 10
42.232389
 20
289.162785
 30
0.0
 10
42.206331
 20
289.148100
 30
0.0
  0
SPLINE
  5
20a
100
AcDbEntity
  8
0
 62
5
100
AcDbSpline
 70
8
 71
3
 72
8
 73
4
 74
0
 40
0
 40
0
 40
0
 40
0
 40
1
 40
1
 40
1
 40
1
 10
42.206331
 20
289.148100
 30
0.0
 10
42.179550
 20
289.133019
 30
0.0
 10
42.152168
 20
289.118996
 30
0.0
 10
42.124299
 20
289.106032
 30
0.0
  0
SPLINE
  5
20b
100
AcDbEntity
  8
0
 62
5
100
AcDbSpline
 70
8
 71
3
 72
8
 73
4
 74
0
 40
0
 40
0
 40
0
 40
0
 40
1
 40
1
 40
1
 40
1
 10
42.124299
 20
289.106032
 30
0.0
 10
42.095798
 20
289.092802
 30
0.0
 10
42.066787
 20
289.080632
 30
0.0
 10
42.037360
 20
289.069572
 30
0.0
  0
SPLINE
  5
20c
100
AcDbEntity
  8
0
 62
5
100
AcDbSpline
 70
8
 71
3
 72
8
 73
4
 74
0
 40
0
 40
0
 40
0
 40
0
 40
1
 40
1
 40
1
 40
1
 10
42.037360
 20
289.069572
 30
0.0
 10
42.006912
 20
289.058195
 30
0.0
 10
41.976019
 20
289.047876
 30
0.0
 10
41.944811
 20
289.038748
 30
0.0
  0
SPLINE
  5
20d
100
AcDbEntity
  8
0
 62
5
100
AcDbSpline
 70
8
 71
3
 72
8
 73
4
 74
0
 40
0
 40
0
 40
0
 40
0
 40
1
 40
1
 40
1
 40
1
 10
41.944811
 20
289.038748
 30
0.0
 10
41.912551
 20
289.029223
 30
0.0
 10
41.879954
 20
289.021021
 30
0.0
 10
41.847357
 20
289.012819
 30
0.0
  0
SPLINE
  5
20e
100
AcDbEntity
  8
0
 62
5
100
AcDbSpline
 70
8
 71
3
 72
8
 73
4
 74
0
 40
0
 40
0
 40
0
 40
0
 40
1
 40
1
 40
1
 40
1
 10
41.847373
 20
289.012792
 30
0.0
 10
41.861581
 20
289.003532
 30
0.0
 10
41.875808
 20
288.994272
 30
0.0
 10
41.889439
 20
288.984059
 30
0.0
  0
SPLINE
  5
20f
100
AcDbEntity
  8
0
 62
5
100
AcDbSpline
 70
8
 71
3
 72
8
 73
4
 74
0
 40
0
 40
0
 40
0
 40
0
 40
1
 40
1
 40
1
 40
1
 10
41.889439
 20
288.984059
 30
0.0
 10
41.903409
 20
288.973740
 30
0.0
 10
41.916776
 20
288.962363
 30
0.0
 10
41.929402
 20
288.950404
 30
0.0
  0
SPLINE
  5
210
100
AcDbEntity
  8
0
 62
5
100
AcDbSpline
 70
8
 71
3
 72
8
 73
4
 74
0
 40
0
 40
0
 40
0
 40
0
 40
1
 40
1
 40
1
 40
1
 10
41.929402
 20
288.950404
 30
0.0
 10
41.942843
 20
288.937704
 30
0.0
 10
41.955437
 20
288.923945
 30
0.0
 10
41.967264
 20
288.909737
 30
0.0
  0
SPLINE
  5
211
100
AcDbEntity
  8
0
 62
5
100
AcDbSpline
 70
8
 71
3
 72
8
 73
4
 74
0
 40
0
 40
0
 40
0
 40
0
 40
1
 40
1
 40
1
 40
1
 10
41.967264
 20
288.909737
 30
0.0
 10
41.979514
 20
288.894921
 30
0.0
 10
41.990918
 20
288.879575
 30
0.0
 10
42.002318
 20
288.864150
 30
0.0
  0
LINE
  5
212
100
AcDbEntity
  8
0
 62
5
100
AcDbLine
 10
42.002318
 20
288.864150
 30
0.0
 11
43.014739
 21
287.478738
 31
0.0
  0
LINE
  5
213
100
AcDbEntity
  8
0
 62
5
100
AcDbLine
 10
43.014739
 20
287.478738
 30
0.0
 11
42.598274
 21
287.478738
 31
0.0
  0
SPLINE
  5
214
100
AcDbEntity
  8
0
 62
5
100
AcDbSpline
 70
8
 71
3
 72
8
 73
4
 74
0
 40
0
 40
0
 40
0
 40
0
 40
1
 40
1
 40
1
 40
1
 10
42.598274
 20
287.478738
 30
0.0
 10
42.578218
 20
287.478738
 30
0.0
 10
42.558182
 20
287.481384
 30
0.0
 10
42.538679
 20
287.485088
 30
0.0
  0
SPLINE
  5
215
100
AcDbEntity
  8
0
 62
5
100
AcDbSpline
 70
8
 71
3
 72
8
 73
4
 74
0
 40
0
 40
0
 40
0
 40
0
 40
1
 40
1
 40
1
 40
1
 10
42.538679
 20
287.485088
 30
0.0
 10
42.520714
 20
287.488792
 30
0.0
 10
42.503193
 20
287.495407
 30
0.0
 10
42.486794
 20
287.504138
 30
0.0
  0
SPLINE
  5
216
100
AcDbEntity
  8
0
 62
5
100
AcDbSpline
 70
8
 71
3
 72
8
 73
4
 74
0
 40
0
 40
0
 40
0
 40
0
 40
1
 40
1
 40
1
 40
1
 10
42.486794
 20
287.504138
 30
0.0
 10
42.471131
 20
287.512340
 30
0.0
 10
42.456500
 20
287.522659
 30
0.0
 10
42.444027
 20
287.534989
 30
0.0
  0
SPLINE
  5
217
100
AcDbEntity
  8
0
 62
5
100
AcDbSpline
 70
8
 71
3
 72
8
 73
4
 74
0
 40
0
 40
0
 40
0
 40
0
 40
1
 40
1
 40
1
 40
1
 10
42.444027
 20
287.534989
 30
0.0
 10
42.430692
 20
287.548218
 30
0.0
 10
42.419844
 20
287.563670
 30
0.0
 10
42.408970
 20
287.579148
 30
0.0
  0
LINE
  5
218
100
AcDbEntity
  8
0
 62
5
100
AcDbLine
 10
42.408970
 20
287.578989
 30
0.0
 11
41.508029
 21
288.827002
 31
0.0
  0
LINE
  5
219
100
AcDbEntity
  8
0
 62
5
100
AcDbLine
 10
36.846970
 20
287.456302
 30
0.0
 11
36.846970
 21
291.046036
 31
0.0
  0
LINE
  5
21a
100
AcDbEntity
  8
0
 62
5
100
AcDbLine
 10
36.846970
 20
291.046036
 30
0.0
 11
37.280966
 21
291.046036
 31
0.0
  0
LINE
  5
21b
100
AcDbEntity
  8
0
 62
5
100
AcDbLine
 10
37.280966
 20
291.046036
 30
0.0
 11
37.280966
 21
288.937069
 31
0.0
  0
LINE
  5
21c
100
AcDbEntity
  8
0
 62
5
100
AcDbLine
 10
37.280966
 20
288.937069
 30
0.0
 11
37.392443
 21
288.937069
 31
0.0
  0
SPLINE
  5
21d
100
AcDbEntity
  8
0
 62
5
100
AcDbSpline
 70
8
 71
3
 72
8
 73
4
 74
0
 40
0
 40
0
 40
0
 40
0
 40
1
 40
1
 40
1
 40
1
 10
37.392443
 20
288.937069
 30
0.0
 10
37.407207
 20
288.937069
 30
0.0
 10
37.421992
 20
288.937069
 30
0.0
 10
37.436616
 20
288.940508
 30
0.0
  0
SPLINE
  5
21e
100
AcDbEntity
  8
0
 62
5
100
AcDbSpline
 70
8
 71
3
 72
8
 73
4
 74
0
 40
0
 40
0
 40
0
 40
0
 40
1
 40
1
 40
1
 40
1
 10
37.436616
 20
288.940508
 30
0.0
 10
37.448839
 20
288.943154
 30
0.0
 10
37.460984
 20
288.945535
 30
0.0
 10
37.472371
 20
288.950298
 30
0.0
  0
SPLINE
  5
21f
100
AcDbEntity
  8
0
 62
5
100
AcDbSpline
 70
8
 71
3
 72
8
 73
4
 74
0
 40
0
 40
0
 40
0
 40
0
 40
1
 40
1
 40
1
 40
1
 10
37.472371
 20
288.950298
 30
0.0
 10
37.484463
 20
288.955325
 30
0.0
 10
37.495708
 20
288.962469
 30
0.0
 10
37.506026
 20
288.970671
 30
0.0
  0
SPLINE
  5
220
100
AcDbEntity
  8
0
 62
5
100
AcDbSpline
 70
8
 71
3
 72
8
 73
4
 74
0
 40
0
 40
0
 40
0
 40
0
 40
1
 40
1
 40
1
 40
1
 10
37.506026
 20
288.970671
 30
0.0
 10
37.519176
 20
288.980990
 30
0.0
 10
37.530818
 20
288.993160
 30
0.0
 10
37.542483
 20
289.005040
 30
0.0
  0
LINE
  5
221
100
AcDbEntity
  8
0
 62
5
100
AcDbLine
 10
37.542483
 20
289.005093
 30
0.0
 11
38.317924
 21
289.836599
 31
0.0
  0
SPLINE
  5
222
100
AcDbEntity
  8
0
 62
5
100
AcDbSpline
 70
8
 71
3
 72
8
 73
4
 74
0
 40
0
 40
0
 40
0
 40
0
 40
1
 40
1
 40
1
 40
1
 10
38.317924
 20
289.836599
 30
0.0
 10
38.329804
 20
289.848770
 30
0.0
 10
38.341657
 20
289.860941
 30
0.0
 10
38.354384
 20
289.872371
 30
0.0
  0
SPLINE
  5
223
100
AcDbEntity
  8
0
 62
5
100
AcDbSpline
 70
8
 71
3
 72
8
 73
4
 74
0
 40
0
 40
0
 40
0
 40
0
 40
1
 40
1
 40
1
 40
1
 10
38.354384
 20
289.872371
 30
0.0
 10
38.365734
 20
289.882425
 30
0.0
 10
38.377746
 20
289.891950
 30
0.0
 10
38.390841
 20
289.899702
 30
0.0
  0
SPLINE
  5
224
100
AcDbEntity
  8
0
 62
5
100
AcDbSpline
 70
8
 71
3
 72
8
 73
4
 74
0
 40
0
 40
0
 40
0
 40
0
 40
1
 40
1
 40
1
 40
1
 10
38.390841
 20
289.899702
 30
0.0
 10
38.404176
 20
289.907640
 30
0.0
 10
38.418632
 20
289.913990
 30
0.0
 10
38.433610
 20
289.917959
 30
0.0
  0
SPLINE
  5
225
100
AcDbEntity
  8
0
 62
5
100
AcDbSpline
 70
8
 71
3
 72
8
 73
4
 74
0
 40
0
 40
0
 40
0
 40
0
 40
1
 40
1
 40
1
 40
1
 10
38.433610
 20
289.917959
 30
0.0
 10
38.451126
 20
289.922456
 30
0.0
 10
38.469358
 20
289.923250
 30
0.0
 10
38.487596
 20
289.924309
 30
0.0
  0
LINE
  5
226
100
AcDbEntity
  8
0
 62
5
100
AcDbLine
 10
38.487596
 20
289.924256
 30
0.0
 11
38.880225
 21
289.924256
 31
0.0
  0
LINE
  5
227
100
AcDbEntity
  8
0
 62
5
100
AcDbLine
 10
38.880225
 20
289.924256
 30
0.0
 11
37.976479
 21
288.954611
 31
0.0
  0
SPLINE
  5
228
100
AcDbEntity
  8
0
 62
5
100
AcDbSpline
 70
8
 71
3
 72
8
 73
4
 74
0
 40
0
 40
0
 40
0
 40
0
 40
1
 40
1
 40
1
 40
1
 10
37.976479
 20
288.954611
 30
0.0
 10
37.965446
 20
288.941381
 30
0.0
 10
37.954387
 20
288.928099
 30
0.0
 10
37.942824
 20
288.915346
 30
0.0
  0
SPLINE
  5
229
100
AcDbEntity
  8
0
 62
5
100
AcDbSpline
 70
8
 71
3
 72
8
 73
4
 74
0
 40
0
 40
0
 40
0
 40
0
 40
1
 40
1
 40
1
 40
1
 10
37.942824
 20
288.915346
 30
0.0
 10
37.932056
 20
288.903440
 30
0.0
 10
37.920837
 20
288.892063
 30
0.0
 10
37.909172
 20
288.880977
 30
0.0
  0
SPLINE
  5
22a
100
AcDbEntity
  8
0
 62
5
100
AcDbSpline
 70
8
 71
3
 72
8
 73
4
 74
0
 40
0
 40
0
 40
0
 40
0
 40
1
 40
1
 40
1
 40
1
 10
37.909172
 20
288.880977
 30
0.0
 10
37.898192
 20
288.870658
 30
0.0
 10
37.886841
 20
288.860604
 30
0.0
 10
37.874816
 20
288.851529
 30
0.0
  0
SPLINE
  5
22b
100
AcDbEntity
  8
0
 62
5
100
AcDbSpline
 70
8
 71
3
 72
8
 73
4
 74
0
 40
0
 40
0
 40
0
 40
0
 40
1
 40
1
 40
1
 40
1
 10
37.874816
 20
288.851529
 30
0.0
 10
37.862222
 20
288.842004
 30
0.0
 10
37.848887
 20
288.833537
 30
0.0
 10
37.835552
 20
288.824885
 30
0.0
  0
SPLINE
  5
22c
100
AcDbEntity
  8
0
 62
5
100
AcDbSpline
 70
8
 71
3
 72
8
 73
4
 74
0
 40
0
 40
0
 40
0
 40
0
 40
1
 40
1
 40
1
 40
1
 10
37.835552
 20
288.824885
 30
0.0
 10
37.849892
 20
288.814831
 30
0.0
 10
37.864224
 20
288.804512
 30
0.0
 10
37.877620
 20
288.793347
 30
0.0
  0
SPLINE
  5
22d
100
AcDbEntity
  8
0
 62
5
100
AcDbSpline
 70
8
 71
3
 72
8
 73
4
 74
0
 40
0
 40
0
 40
0
 40
0
 40
1
 40
1
 40
1
 40
1
 10
37.877620
 20
288.793347
 30
0.0
 10
37.890770
 20
288.782235
 30
0.0
 10
37.902994
 20
288.770064
 30
0.0
 10
37.914778
 20
288.757575
 30
0.0
  0
SPLINE
  5
22e
100
AcDbEntity
  8
0
 62
5
100
AcDbSpline
 70
8
 71
3
 72
8
 73
4
 74
0
 40
0
 40
0
 40
0
 40
0
 40
1
 40
1
 40
1
 40
1
 10
37.914778
 20
288.757575
 30
0.0
 10
37.926817
 20
288.744875
 30
0.0
 10
37.938406
 20
288.731382
 30
0.0
 10
37.949135
 20
288.717623
 30
0.0
  0
SPLINE
  5
22f
100
AcDbEntity
  8
0
 62
5
100
AcDbSpline
 70
8
 71
3
 72
8
 73
4
 74
0
 40
0
 40
0
 40
0
 40
0
 40
1
 40
1
 40
1
 40
1
 10
37.949135
 20
288.717623
 30
0.0
 10
37.960512
 20
288.702807
 30
0.0
 10
37.970936
 20
288.687487
 30
0.0
 10
37.981387
 20
288.672036
 30
0.0
  0
LINE
  5
230
100
AcDbEntity
  8
0
 62
5
100
AcDbLine
 10
37.981387
 20
288.672036
 30
0.0
 11
38.940520
 21
287.456302
 31
0.0
  0
LINE
  5
231
100
AcDbEntity
  8
0
 62
5
100
AcDbLine
 10
38.940520
 20
287.456302
 30
0.0
 11
38.552800
 21
287.456302
 31
0.0
  0
SPLINE
  5
232
100
AcDbEntity
  8
0
 62
5
100
AcDbSpline
 70
8
 71
3
 72
8
 73
4
 74
0
 40
0
 40
0
 40
0
 40
0
 40
1
 40
1
 40
1
 40
1
 10
38.552800
 20
287.456302
 30
0.0
 10
38.536290
 20
287.456302
 30
0.0
 10
38.519788
 20
287.458947
 30
0.0
 10
38.503722
 20
287.461329
 30
0.0
  0
SPLINE
  5
233
100
AcDbEntity
  8
0
 62
5
100
AcDbSpline
 70
8
 71
3
 72
8
 73
4
 74
0
 40
0
 40
0
 40
0
 40
0
 40
1
 40
1
 40
1
 40
1
 10
38.503722
 20
287.461329
 30
0.0
 10
38.489117
 20
287.464504
 30
0.0
 10
38.474899
 20
287.469795
 30
0.0
 10
38.461654
 20
287.476675
 30
0.0
  0
SPLINE
  5
234
100
AcDbEntity
  8
0
 62
5
100
AcDbSpline
 70
8
 71
3
 72
8
 73
4
 74
0
 40
0
 40
0
 40
0
 40
0
 40
1
 40
1
 40
1
 40
1
 10
38.461654
 20
287.476675
 30
0.0
 10
38.448425
 20
287.483818
 30
0.0
 10
38.436174
 20
287.492550
 30
0.0
 10
38.425197
 20
287.502604
 30
0.0
  0
SPLINE
  5
235
100
AcDbEntity
  8
0
 62
5
100
AcDbSpline
 70
8
 71
3
 72
8
 73
4
 74
0
 40
0
 40
0
 40
0
 40
0
 40
1
 40
1
 40
1
 40
1
 10
38.425197
 20
287.502604
 30
0.0
 10
38.412655
 20
287.513981
 30
0.0
 10
38.401755
 20
287.527210
 30
0.0
 10
38.390841
 20
287.540466
 30
0.0
  0
LINE
  5
236
100
AcDbEntity
  8
0
 62
5
100
AcDbLine
 10
38.390841
 20
287.540439
 30
0.0
 11
37.583851
 21
288.540935
 31
0.0
  0
SPLINE
  5
237
100
AcDbEntity
  8
0
 62
5
100
AcDbSpline
 70
8
 71
3
 72
8
 73
4
 74
0
 40
0
 40
0
 40
0
 40
0
 40
1
 40
1
 40
1
 40
1
 10
37.583851
 20
288.540935
 30
0.0
 10
37.572527
 20
288.555751
 30
0.0
 10
37.561203
 20
288.570568
 30
0.0
 10
37.547391
 20
288.583003
 30
0.0
  0
SPLINE
  5
238
100
AcDbEntity
  8
0
 62
5
100
AcDbSpline
 70
8
 71
3
 72
8
 73
4
 74
0
 40
0
 40
0
 40
0
 40
0
 40
1
 40
1
 40
1
 40
1
 10
37.547391
 20
288.583003
 30
0.0
 10
37.536596
 20
288.592793
 30
0.0
 10
37.524240
 20
288.600995
 30
0.0
 10
37.510934
 20
288.606816
 30
0.0
  0
SPLINE
  5
239
100
AcDbEntity
  8
0
 62
5
100
AcDbSpline
 70
8
 71
3
 72
8
 73
4
 74
0
 40
0
 40
0
 40
0
 40
0
 40
1
 40
1
 40
1
 40
1
 10
37.510934
 20
288.606816
 30
0.0
 10
37.496541
 20
288.613166
 30
0.0
 10
37.480976
 20
288.616605
 30
0.0
 10
37.465360
 20
288.618722
 30
0.0
  0
SPLINE
  5
23a
100
AcDbEntity
  8
0
 62
5
100
AcDbSpline
 70
8
 71
3
 72
8
 73
4
 74
0
 40
0
 40
0
 40
0
 40
0
 40
1
 40
1
 40
1
 40
1
 10
37.465360
 20
288.618722
 30
0.0
 10
37.444405
 20
288.621632
 30
0.0
 10
37.423328
 20
288.622162
 30
0.0
 10
37.402259
 20
288.622955
 30
0.0
  0
LINE
  5
23b
100
AcDbEntity
  8
0
 62
5
100
AcDbLine
 10
37.402259
 20
288.622982
 30
0.0
 11
37.280966
 21
288.622982
 31
0.0
  0
LINE
  5
23c
100
AcDbEntity
  8
0
 62
5
100
AcDbLine
 10
37.280966
 20
288.622982
 30
0.0
 11
37.280966
 21
287.456302
 31
0.0
  0
LINE
  5
23d
100
AcDbEntity
  8
0
 62
5
100
AcDbLine
 10
37.280966
 20
287.456302
 30
0.0
 11
36.846970
 21
287.456302
 31
0.0
  0
SPLINE
  5
23e
100
AcDbEntity
  8
0
 62
5
100
AcDbSpline
 70
8
 71
3
 72
8
 73
4
 74
0
 40
0
 40
0
 40
0
 40
0
 40
1
 40
1
 40
1
 40
1
 10
32.482488
 20
288.450500
 30
0.0
 10
32.481695
 20
288.414199
 30
0.0
 10
32.480901
 20
288.377925
 30
0.0
 10
32.477567
 20
288.341809
 30
0.0
  0
SPLINE
  5
23f
100
AcDbEntity
  8
0
 62
5
100
AcDbSpline
 70
8
 71
3
 72
8
 73
4
 74
0
 40
0
 40
0
 40
0
 40
0
 40
1
 40
1
 40
1
 40
1
 10
32.477567
 20
288.341809
 30
0.0
 10
32.474445
 20
288.307228
 30
0.0
 10
32.469074
 20
288.272832
 30
0.0
 10
32.462142
 20
288.238754
 30
0.0
  0
SPLINE
  5
240
100
AcDbEntity
  8
0
 62
5
100
AcDbSpline
 70
8
 71
3
 72
8
 73
4
 74
0
 40
0
 40
0
 40
0
 40
0
 40
1
 40
1
 40
1
 40
1
 10
32.462142
 20
288.238754
 30
0.0
 10
32.455369
 20
288.205390
 30
0.0
 10
32.447114
 20
288.172344
 30
0.0
 10
32.436901
 20
288.139906
 30
0.0
  0
SPLINE
  5
241
100
AcDbEntity
  8
0
 62
5
100
AcDbSpline
 70
8
 71
3
 72
8
 73
4
 74
0
 40
0
 40
0
 40
0
 40
0
 40
1
 40
1
 40
1
 40
1
 10
32.436901
 20
288.139906
 30
0.0
 10
32.426847
 20
288.107917
 30
0.0
 10
32.414914
 20
288.076511
 30
0.0
 10
32.401145
 20
288.045952
 30
0.0
  0
SPLINE
  5
242
100
AcDbEntity
  8
0
 62
5
100
AcDbSpline
 70
8
 71
3
 72
8
 73
4
 74
0
 40
0
 40
0
 40
0
 40
0
 40
1
 40
1
 40
1
 40
1
 10
32.401145
 20
288.045952
 30
0.0
 10
32.387625
 20
288.015895
 30
0.0
 10
32.372324
 20
287.986685
 30
0.0
 10
32.355573
 20
287.958296
 30
0.0
  0
SPLINE
  5
243
100
AcDbEntity
  8
0
 62
5
100
AcDbSpline
 70
8
 71
3
 72
8
 73
4
 74
0
 40
0
 40
0
 40
0
 40
0
 40
1
 40
1
 40
1
 40
1
 10
32.355573
 20
287.958296
 30
0.0
 10
32.338851
 20
287.929985
 30
0.0
 10
32.320674
 20
287.902521
 30
0.0
 10
32.300884
 20
287.876275
 30
0.0
  0
SPLINE
  5
244
100
AcDbEntity
  8
0
 62
5
100
AcDbSpline
 70
8
 71
3
 72
8
 73
4
 74
0
 40
0
 40
0
 40
0
 40
0
 40
1
 40
1
 40
1
 40
1
 10
32.300884
 20
287.876275
 30
0.0
 10
32.281119
 20
287.850081
 30
0.0
 10
32.259733
 20
287.825051
 30
0.0
 10
32.237082
 20
287.801265
 30
0.0
  0
SPLINE
  5
245
100
AcDbEntity
  8
0
 62
5
100
AcDbSpline
 70
8
 71
3
 72
8
 73
4
 74
0
 40
0
 40
0
 40
0
 40
0
 40
1
 40
1
 40
1
 40
1
 10
32.237082
 20
287.801265
 30
0.0
 10
32.213799
 20
287.776924
 30
0.0
 10
32.189195
 20
287.753667
 30
0.0
 10
32.163464
 20
287.731839
 30
0.0
  0
SPLINE
  5
246
100
AcDbEntity
  8
0
 62
5
100
AcDbSpline
 70
8
 71
3
 72
8
 73
4
 74
0
 40
0
 40
0
 40
0
 40
0
 40
1
 40
1
 40
1
 40
1
 10
32.163464
 20
287.731839
 30
0.0
 10
32.137244
 20
287.709614
 30
0.0
 10
32.109881
 20
287.688738
 30
0.0
 10
32.081433
 20
287.669450
 30
0.0
  0
SPLINE
  5
247
100
AcDbEntity
  8
0
 62
5
100
AcDbSpline
 70
8
 71
3
 72
8
 73
4
 74
0
 40
0
 40
0
 40
0
 40
0
 40
1
 40
1
 40
1
 40
1
 10
32.081433
 20
287.669450
 30
0.0
 10
32.052093
 20
287.649606
 30
0.0
 10
32.021608
 20
287.631350
 30
0.0
 10
31.990287
 20
287.614761
 30
0.0
  0
SPLINE
  5
248
100
AcDbEntity
  8
0
 62
5
100
AcDbSpline
 70
8
 71
3
 72
8
 73
4
 74
0
 40
0
 40
0
 40
0
 40
0
 40
1
 40
1
 40
1
 40
1
 10
31.990287
 20
287.614761
 30
0.0
 10
31.957664
 20
287.597563
 30
0.0
 10
31.924133
 20
287.581926
 30
0.0
 10
31.890028
 20
287.567771
 30
0.0
  0
SPLINE
  5
249
100
AcDbEntity
  8
0
 62
5
100
AcDbSpline
 70
8
 71
3
 72
8
 73
4
 74
0
 40
0
 40
0
 40
0
 40
0
 40
1
 40
1
 40
1
 40
1
 10
31.890028
 20
287.567771
 30
0.0
 10
31.854159
 20
287.552954
 30
0.0
 10
31.817651
 20
287.539619
 30
0.0
 10
31.780652
 20
287.527819
 30
0.0
  0
SPLINE
  5
24a
100
AcDbEntity
  8
0
 62
5
100
AcDbSpline
 70
8
 71
3
 72
8
 73
4
 74
0
 40
0
 40
0
 40
0
 40
0
 40
1
 40
1
 40
1
 40
1
 10
31.780652
 20
287.527819
 30
0.0
 10
31.742121
 20
287.515648
 30
0.0
 10
31.703052
 20
287.504800
 30
0.0
 10
31.663563
 20
287.496280
 30
0.0
  0
SPLINE
  5
24b
100
AcDbEntity
  8
0
 62
5
100
AcDbSpline
 70
8
 71
3
 72
8
 73
4
 74
0
 40
0
 40
0
 40
0
 40
0
 40
1
 40
1
 40
1
 40
1
 10
31.663563
 20
287.496280
 30
0.0
 10
31.622087
 20
287.487284
 30
0.0
 10
31.580148
 20
287.480405
 30
0.0
 10
31.538063
 20
287.474584
 30
0.0
  0
SPLINE
  5
24c
100
AcDbEntity
  8
0
 62
5
100
AcDbSpline
 70
8
 71
3
 72
8
 73
4
 74
0
 40
0
 40
0
 40
0
 40
0
 40
1
 40
1
 40
1
 40
1
 10
31.538063
 20
287.474584
 30
0.0
 10
31.493807
 20
287.468499
 30
0.0
 10
31.449391
 20
287.463472
 30
0.0
 10
31.404851
 20
287.460561
 30
0.0
  0
SPLINE
  5
24d
100
AcDbEntity
  8
0
 62
5
100
AcDbSpline
 70
8
 71
3
 72
8
 73
4
 74
0
 40
0
 40
0
 40
0
 40
0
 40
1
 40
1
 40
1
 40
1
 10
31.404851
 20
287.460561
 30
0.0
 10
31.357970
 20
287.457651
 30
0.0
 10
31.310948
 20
287.456857
 30
0.0
 10
31.263926
 20
287.456328
 30
0.0
  0
LINE
  5
24e
100
AcDbEntity
  8
0
 62
5
100
AcDbLine
 10
31.263939
 20
287.456302
 30
0.0
 11
30.034873
 21
287.456302
 31
0.0
  0
LINE
  5
24f
100
AcDbEntity
  8
0
 62
5
100
AcDbLine
 10
30.034873
 20
287.456302
 30
0.0
 11
30.034873
 21
290.956316
 31
0.0
  0
LINE
  5
250
100
AcDbEntity
  8
0
 62
5
100
AcDbLine
 10
30.034873
 20
290.956316
 30
0.0
 11
31.142644
 21
290.956316
 31
0.0
  0
SPLINE
  5
251
100
AcDbEntity
  8
0
 62
5
100
AcDbSpline
 70
8
 71
3
 72
8
 73
4
 74
0
 40
0
 40
0
 40
0
 40
0
 40
1
 40
1
 40
1
 40
1
 10
31.142644
 20
290.956316
 30
0.0
 10
31.194087
 20
290.956316
 30
0.0
 10
31.245527
 20
290.953670
 30
0.0
 10
31.296890
 20
290.952082
 30
0.0
  0
SPLINE
  5
252
100
AcDbEntity
  8
0
 62
5
100
AcDbSpline
 70
8
 71
3
 72
8
 73
4
 74
0
 40
0
 40
0
 40
0
 40
0
 40
1
 40
1
 40
1
 40
1
 10
31.296890
 20
290.952082
 30
0.0
 10
31.344899
 20
290.949437
 30
0.0
 10
31.392842
 20
290.945732
 30
0.0
 10
31.440620
 20
290.940176
 30
0.0
  0
SPLINE
  5
253
100
AcDbEntity
  8
0
 62
5
100
AcDbSpline
 70
8
 71
3
 72
8
 73
4
 74
0
 40
0
 40
0
 40
0
 40
0
 40
1
 40
1
 40
1
 40
1
 10
31.440620
 20
290.940176
 30
0.0
 10
31.484768
 20
290.935149
 30
0.0
 10
31.528779
 20
290.928799
 30
0.0
 10
31.572433
 20
290.920597
 30
0.0
  0
SPLINE
  5
254
100
AcDbEntity
  8
0
 62
5
100
AcDbSpline
 70
8
 71
3
 72
8
 73
4
 74
0
 40
0
 40
0
 40
0
 40
0
 40
1
 40
1
 40
1
 40
1
 10
31.572433
 20
290.920597
 30
0.0
 10
31.613210
 20
290.912924
 30
0.0
 10
31.653678
 20
290.903399
 30
0.0
 10
31.693726
 20
290.892551
 30
0.0
  0
SPLINE
  5
255
100
AcDbEntity
  8
0
 62
5
100
AcDbSpline
 70
8
 71
3
 72
8
 73
4
 74
0
 40
0
 40
0
 40
0
 40
0
 40
1
 40
1
 40
1
 40
1
 10
31.693726
 20
290.892551
 30
0.0
 10
31.731101
 20
290.882232
 30
0.0
 10
31.768111
 20
290.870855
 30
0.0
 10
31.804504
 20
290.857494
 30
0.0
  0
SPLINE
  5
256
100
AcDbEntity
  8
0
 62
5
100
AcDbSpline
 70
8
 71
3
 72
8
 73
4
 74
0
 40
0
 40
0
 40
0
 40
0
 40
1
 40
1
 40
1
 40
1
 10
31.804504
 20
290.857494
 30
0.0
 10
31.838559
 20
290.845059
 30
0.0
 10
31.872073
 20
290.831036
 30
0.0
 10
31.904763
 20
290.815425
 30
0.0
  0
SPLINE
  5
257
100
AcDbEntity
  8
0
 62
5
100
AcDbSpline
 70
8
 71
3
 72
8
 73
4
 74
0
 40
0
 40
0
 40
0
 40
0
 40
1
 40
1
 40
1
 40
1
 10
31.904763
 20
290.815425
 30
0.0
 10
31.935518
 20
290.800609
 30
0.0
 10
31.965540
 20
290.784363
 30
0.0
 10
31.994507
 20
290.766345
 30
0.0
  0
SPLINE
  5
258
100
AcDbEntity
  8
0
 62
5
100
AcDbSpline
 70
8
 71
3
 72
8
 73
4
 74
0
 40
0
 40
0
 40
0
 40
0
 40
1
 40
1
 40
1
 40
1
 10
31.994507
 20
290.766345
 30
0.0
 10
32.021883
 20
290.749412
 30
0.0
 10
32.048315
 20
290.730811
 30
0.0
 10
32.073734
 20
290.710968
 30
0.0
  0
SPLINE
  5
259
100
AcDbEntity
  8
0
 62
5
100
AcDbSpline
 70
8
 71
3
 72
8
 73
4
 74
0
 40
0
 40
0
 40
0
 40
0
 40
1
 40
1
 40
1
 40
1
 10
32.073734
 20
290.710968
 30
0.0
 10
32.098287
 20
290.691653
 30
0.0
 10
32.121904
 20
290.671360
 30
0.0
 10
32.143846
 20
290.649267
 30
0.0
  0
SPLINE
  5
25a
100
AcDbEntity
  8
0
 62
5
100
AcDbSpline
 70
8
 71
3
 72
8
 73
4
 74
0
 40
0
 40
0
 40
0
 40
0
 40
1
 40
1
 40
1
 40
1
 10
32.143846
 20
290.649267
 30
0.0
 10
32.165224
 20
290.627836
 30
0.0
 10
32.185001
 20
290.604658
 30
0.0
 10
32.203440
 20
290.580555
 30
0.0
  0
SPLINE
  5
25b
100
AcDbEntity
  8
0
 62
5
100
AcDbSpline
 70
8
 71
3
 72
8
 73
4
 74
0
 40
0
 40
0
 40
0
 40
0
 40
1
 40
1
 40
1
 40
1
 10
32.203440
 20
290.580555
 30
0.0
 10
32.221776
 20
290.556477
 30
0.0
 10
32.238778
 20
290.531607
 30
0.0
 10
32.253923
 20
290.505545
 30
0.0
  0
SPLINE
  5
25c
100
AcDbEntity
  8
0
 62
5
100
AcDbSpline
 70
8
 71
3
 72
8
 73
4
 74
0
 40
0
 40
0
 40
0
 40
0
 40
1
 40
1
 40
1
 40
1
 10
32.253923
 20
290.505545
 30
0.0
 10
32.269269
 20
290.479087
 30
0.0
 10
32.282686
 20
290.451623
 30
0.0
 10
32.294587
 20
290.423498
 30
0.0
  0
SPLINE
  5
25d
100
AcDbEntity
  8
0
 62
5
100
AcDbSpline
 70
8
 71
3
 72
8
 73
4
 74
0
 40
0
 40
0
 40
0
 40
0
 40
1
 40
1
 40
1
 40
1
 10
32.294587
 20
290.423498
 30
0.0
 10
32.306705
 20
290.394870
 30
0.0
 10
32.317235
 20
290.365607
 30
0.0
 10
32.326138
 20
290.335868
 30
0.0
  0
SPLINE
  5
25e
100
AcDbEntity
  8
0
 62
5
100
AcDbSpline
 70
8
 71
3
 72
8
 73
4
 74
0
 40
0
 40
0
 40
0
 40
0
 40
1
 40
1
 40
1
 40
1
 10
32.326138
 20
290.335868
 30
0.0
 10
32.335240
 20
290.305441
 30
0.0
 10
32.342675
 20
290.274537
 30
0.0
 10
32.348575
 20
290.243317
 30
0.0
  0
SPLINE
  5
25f
100
AcDbEntity
  8
0
 62
5
100
AcDbSpline
 70
8
 71
3
 72
8
 73
4
 74
0
 40
0
 40
0
 40
0
 40
0
 40
1
 40
1
 40
1
 40
1
 10
32.348575
 20
290.243317
 30
0.0
 10
32.354740
 20
290.210614
 30
0.0
 10
32.359264
 20
290.177594
 30
0.0
 10
32.361883
 20
290.144468
 30
0.0
  0
SPLINE
  5
260
100
AcDbEntity
  8
0
 62
5
100
AcDbSpline
 70
8
 71
3
 72
8
 73
4
 74
0
 40
0
 40
0
 40
0
 40
0
 40
1
 40
1
 40
1
 40
1
 10
32.361883
 20
290.144468
 30
0.0
 10
32.364635
 20
290.109967
 30
0.0
 10
32.365349
 20
290.075333
 30
0.0
 10
32.366090
 20
290.040699
 30
0.0
  0
SPLINE
  5
261
100
AcDbEntity
  8
0
 62
5
100
AcDbSpline
 70
8
 71
3
 72
8
 73
4
 74
0
 40
0
 40
0
 40
0
 40
0
 40
1
 40
1
 40
1
 40
1
 10
32.366101
 20
290.040646
 30
0.0
 10
32.364249
 20
289.998154
 30
0.0
 10
32.362529
 20
289.955662
 30
0.0
 10
32.356285
 20
289.913725
 30
0.0
  0
SPLINE
  5
262
100
AcDbEntity
  8
0
 62
5
100
AcDbSpline
 70
8
 71
3
 72
8
 73
4
 74
0
 40
0
 40
0
 40
0
 40
0
 40
1
 40
1
 40
1
 40
1
 10
32.356285
 20
289.913725
 30
0.0
 10
32.350094
 20
289.872106
 30
0.0
 10
32.339510
 20
289.831043
 30
0.0
 10
32.326138
 20
289.791038
 30
0.0
  0
SPLINE
  5
263
100
AcDbEntity
  8
0
 62
5
100
AcDbSpline
 70
8
 71
3
 72
8
 73
4
 74
0
 40
0
 40
0
 40
0
 40
0
 40
1
 40
1
 40
1
 40
1
 10
32.326138
 20
289.791038
 30
0.0
 10
32.319471
 20
289.771194
 30
0.0
 10
32.312089
 20
289.751403
 30
0.0
 10
32.303701
 20
289.732142
 30
0.0
  0
SPLINE
  5
264
100
AcDbEntity
  8
0
 62
5
100
AcDbSpline
 70
8
 71
3
 72
8
 73
4
 74
0
 40
0
 40
0
 40
0
 40
0
 40
1
 40
1
 40
1
 40
1
 10
32.303701
 20
289.732142
 30
0.0
 10
32.295288
 20
289.712827
 30
0.0
 10
32.285842
 20
289.693856
 30
0.0
 10
32.275658
 20
289.675362
 30
0.0
  0
SPLINE
  5
265
100
AcDbEntity
  8
0
 62
5
100
AcDbSpline
 70
8
 71
3
 72
8
 73
4
 74
0
 40
0
 40
0
 40
0
 40
0
 40
1
 40
1
 40
1
 40
1
 10
32.275658
 20
289.675362
 30
0.0
 10
32.265392
 20
289.656577
 30
0.0
 10
32.254386
 20
289.638453
 30
0.0
 10
32.242704
 20
289.620673
 30
0.0
  0
SPLINE
  5
266
100
AcDbEntity
  8
0
 62
5
100
AcDbSpline
 70
8
 71
3
 72
8
 73
4
 74
0
 40
0
 40
0
 40
0
 40
0
 40
1
 40
1
 40
1
 40
1
 10
32.242704
 20
289.620673
 30
0.0
 10
32.230851
 20
289.602681
 30
0.0
 10
32.218257
 20
289.585007
 30
0.0
 10
32.204843
 20
289.568074
 30
0.0
  0
SPLINE
  5
267
100
AcDbEntity
  8
0
 62
5
100
AcDbSpline
 70
8
 71
3
 72
8
 73
4
 74
0
 40
0
 40
0
 40
0
 40
0
 40
1
 40
1
 40
1
 40
1
 10
32.204843
 20
289.568074
 30
0.0
 10
32.191164
 20
289.550876
 30
0.0
 10
32.176585
 20
289.534233
 30
0.0
 10
32.161374
 20
289.518305
 30
0.0
  0
SPLINE
  5
268
100
AcDbEntity
  8
0
 62
5
100
AcDbSpline
 70
8
 71
3
 72
8
 73
4
 74
0
 40
0
 40
0
 40
0
 40
0
 40
1
 40
1
 40
1
 40
1
 10
32.161374
 20
289.518305
 30
0.0
 10
32.145843
 20
289.501901
 30
0.0
 10
32.129666
 20
289.486423
 30
0.0
 10
32.112998
 20
289.471315
 30
0.0
  0
SPLINE
  5
269
100
AcDbEntity
  8
0
 62
5
100
AcDbSpline
 70
8
 71
3
 72
8
 73
4
 74
0
 40
0
 40
0
 40
0
 40
0
 40
1
 40
1
 40
1
 40
1
 10
32.112998
 20
289.471315
 30
0.0
 10
32.095773
 20
289.455705
 30
0.0
 10
32.078044
 20
289.440703
 30
0.0
 10
32.059711
 20
289.426469
 30
0.0
  0
SPLINE
  5
26a
100
AcDbEntity
  8
0
 62
5
100
AcDbSpline
 70
8
 71
3
 72
8
 73
4
 74
0
 40
0
 40
0
 40
0
 40
0
 40
1
 40
1
 40
1
 40
1
 10
32.059711
 20
289.426469
 30
0.0
 10
32.040661
 20
289.411652
 30
0.0
 10
32.020973
 20
289.397655
 30
0.0
 10
32.000817
 20
289.384400
 30
0.0
  0
SPLINE
  5
26b
100
AcDbEntity
  8
0
 62
5
100
AcDbSpline
 70
8
 71
3
 72
8
 73
4
 74
0
 40
0
 40
0
 40
0
 40
0
 40
1
 40
1
 40
1
 40
1
 10
32.000817
 20
289.384400
 30
0.0
 10
31.980047
 20
289.370641
 30
0.0
 10
31.958799
 20
289.357783
 30
0.0
 10
31.937015
 20
289.345824
 30
0.0
  0
SPLINE
  5
26c
100
AcDbEntity
  8
0
 62
5
100
AcDbSpline
 70
8
 71
3
 72
8
 73
4
 74
0
 40
0
 40
0
 40
0
 40
0
 40
1
 40
1
 40
1
 40
1
 10
31.937015
 20
289.345824
 30
0.0
 10
31.914579
 20
289.333388
 30
0.0
 10
31.891563
 20
289.322276
 30
0.0
 10
31.868306
 20
289.311481
 30
0.0
  0
SPLINE
  5
26d
100
AcDbEntity
  8
0
 62
5
100
AcDbSpline
 70
8
 71
3
 72
8
 73
4
 74
0
 40
0
 40
0
 40
0
 40
0
 40
1
 40
1
 40
1
 40
1
 10
31.868306
 20
289.311481
 30
0.0
 10
31.843858
 20
289.300104
 30
0.0
 10
31.819144
 20
289.289520
 30
0.0
 10
31.793987
 20
289.279916
 30
0.0
  0
SPLINE
  5
26e
100
AcDbEntity
  8
0
 62
5
100
AcDbSpline
 70
8
 71
3
 72
8
 73
4
 74
0
 40
0
 40
0
 40
0
 40
0
 40
1
 40
1
 40
1
 40
1
 10
31.793987
 20
289.279916
 30
0.0
 10
31.767661
 20
289.269862
 30
0.0
 10
31.740861
 20
289.261130
 30
0.0
 10
31.714059
 20
289.252584
 30
0.0
  0
SPLINE
  5
26f
100
AcDbEntity
  8
0
 62
5
100
AcDbSpline
 70
8
 71
3
 72
8
 73
4
 74
0
 40
0
 40
0
 40
0
 40
0
 40
1
 40
1
 40
1
 40
1
 10
31.714059
 20
289.252584
 30
0.0
 10
31.744989
 20
289.245970
 30
0.0
 10
31.775919
 20
289.239091
 30
0.0
 10
31.806608
 20
289.231418
 30
0.0
  0
SPLINE
  5
270
100
AcDbEntity
  8
0
 62
5
100
AcDbSpline
 70
8
 71
3
 72
8
 73
4
 74
0
 40
0
 40
0
 40
0
 40
0
 40
1
 40
1
 40
1
 40
1
 10
31.806608
 20
289.231418
 30
0.0
 10
31.835598
 20
289.224009
 30
0.0
 10
31.864377
 20
289.216072
 30
0.0
 10
31.892846
 20
289.206811
 30
0.0
  0
SPLINE
  5
271
100
AcDbEntity
  8
0
 62
5
100
AcDbSpline
 70
8
 71
3
 72
8
 73
4
 74
0
 40
0
 40
0
 40
0
 40
0
 40
1
 40
1
 40
1
 40
1
 10
31.892846
 20
289.206811
 30
0.0
 10
31.920024
 20
289.198080
 30
0.0
 10
31.946919
 20
289.188555
 30
0.0
 10
31.973472
 20
289.178078
 30
0.0
  0
SPLINE
  5
272
100
AcDbEntity
  8
0
 62
5
100
AcDbSpline
 70
8
 71
3
 72
8
 73
4
 74
0
 40
0
 40
0
 40
0
 40
0
 40
1
 40
1
 40
1
 40
1
 10
31.973472
 20
289.178078
 30
0.0
 10
31.998608
 20
289.168288
 30
0.0
 10
32.023434
 20
289.157440
 30
0.0
 10
32.047791
 20
289.145825
 30
0.0
  0
SPLINE
  5
273
100
AcDbEntity
  8
0
 62
5
100
AcDbSpline
 70
8
 71
3
 72
8
 73
4
 74
0
 40
0
 40
0
 40
0
 40
0
 40
1
 40
1
 40
1
 40
1
 10
32.047791
 20
289.145825
 30
0.0
 10
32.071180
 20
289.134712
 30
0.0
 10
32.094136
 20
289.122542
 30
0.0
 10
32.116503
 20
289.109365
 30
0.0
  0
SPLINE
  5
274
100
AcDbEntity
  8
0
 62
5
100
AcDbSpline
 70
8
 71
3
 72
8
 73
4
 74
0
 40
0
 40
0
 40
0
 40
0
 40
1
 40
1
 40
1
 40
1
 10
32.116503
 20
289.109365
 30
0.0
 10
32.138093
 20
289.096665
 30
0.0
 10
32.159128
 20
289.083172
 30
0.0
 10
32.179604
 20
289.068699
 30
0.0
  0
SPLINE
  5
275
100
AcDbEntity
  8
0
 62
5
100
AcDbSpline
 70
8
 71
3
 72
8
 73
4
 74
0
 40
0
 40
0
 40
0
 40
0
 40
1
 40
1
 40
1
 40
1
 10
32.179604
 20
289.068699
 30
0.0
 10
32.199368
 20
289.054676
 30
0.0
 10
32.218630
 20
289.040124
 30
0.0
 10
32.237095
 20
289.024540
 30
0.0
  0
SPLINE
  5
276
100
AcDbEntity
  8
0
 62
5
100
AcDbSpline
 70
8
 71
3
 72
8
 73
4
 74
0
 40
0
 40
0
 40
0
 40
0
 40
1
 40
1
 40
1
 40
1
 10
32.237095
 20
289.024540
 30
0.0
 10
32.254902
 20
289.009459
 30
0.0
 10
32.271994
 20
288.993557
 30
0.0
 10
32.288276
 20
288.976862
 30
0.0
  0
SPLINE
  5
277
100
AcDbEntity
  8
0
 62
5
100
AcDbSpline
 70
8
 71
3
 72
8
 73
4
 74
0
 40
0
 40
0
 40
0
 40
0
 40
1
 40
1
 40
1
 40
1
 10
32.288276
 20
288.976862
 30
0.0
 10
32.304363
 20
288.960458
 30
0.0
 10
32.319648
 20
288.943075
 30
0.0
 10
32.333851
 20
288.924977
 30
0.0
  0
SPLINE
  5
278
100
AcDbEntity
  8
0
 62
5
100
AcDbSpline
 70
8
 71
3
 72
8
 73
4
 74
0
 40
0
 40
0
 40
0
 40
0
 40
1
 40
1
 40
1
 40
1
 10
32.333851
 20
288.924977
 30
0.0
 10
32.347927
 20
288.906986
 30
0.0
 10
32.360941
 20
288.888200
 30
0.0
 10
32.373112
 20
288.868886
 30
0.0
  0
SPLINE
  5
279
100
AcDbEntity
  8
0
 62
5
100
AcDbSpline
 70
8
 71
3
 72
8
 73
4
 74
0
 40
0
 40
0
 40
0
 40
0
 40
1
 40
1
 40
1
 40
1
 10
32.373112
 20
288.868886
 30
0.0
 10
32.385283
 20
288.849571
 30
0.0
 10
32.396607
 20
288.829727
 30
0.0
 10
32.406767
 20
288.809275
 30
0.0
  0
SPLINE
  5
27a
100
AcDbEntity
  8
0
 62
5
100
AcDbSpline
 70
8
 71
3
 72
8
 73
4
 74
0
 40
0
 40
0
 40
0
 40
0
 40
1
 40
1
 40
1
 40
1
 10
32.406767
 20
288.809275
 30
0.0
 10
32.417060
 20
288.788637
 30
0.0
 10
32.426188
 20
288.767233
 30
0.0
 10
32.434109
 20
288.745484
 30
0.0
  0
SPLINE
  5
27b
100
AcDbEntity
  8
0
 62
5
100
AcDbSpline
 70
8
 71
3
 72
8
 73
4
 74
0
 40
0
 40
0
 40
0
 40
0
 40
1
 40
1
 40
1
 40
1
 10
32.434109
 20
288.745484
 30
0.0
 10
32.442258
 20
288.723259
 30
0.0
 10
32.449164
 20
288.700452
 30
0.0
 10
32.455144
 20
288.677460
 30
0.0
  0
SPLINE
  5
27c
100
AcDbEntity
  8
0
 62
5
100
AcDbSpline
 70
8
 71
3
 72
8
 73
4
 74
0
 40
0
 40
0
 40
0
 40
0
 40
1
 40
1
 40
1
 40
1
 10
32.455144
 20
288.677460
 30
0.0
 10
32.461308
 20
288.653912
 30
0.0
 10
32.466494
 20
288.630020
 30
0.0
 10
32.470569
 20
288.605969
 30
0.0
  0
SPLINE
  5
27d
100
AcDbEntity
  8
0
 62
5
100
AcDbSpline
 70
8
 71
3
 72
8
 73
4
 74
0
 40
0
 40
0
 40
0
 40
0
 40
1
 40
1
 40
1
 40
1
 10
32.470569
 20
288.605969
 30
0.0
 10
32.474829
 20
288.580834
 30
0.0
 10
32.477898
 20
288.555592
 30
0.0
 10
32.479671
 20
288.530245
 30
0.0
  0
SPLINE
  5
27e
100
AcDbEntity
  8
0
 62
5
100
AcDbSpline
 70
8
 71
3
 72
8
 73
4
 74
0
 40
0
 40
0
 40
0
 40
0
 40
1
 40
1
 40
1
 40
1
 10
32.479671
 20
288.530245
 30
0.0
 10
32.481523
 20
288.503655
 30
0.0
 10
32.482052
 20
288.476985
 30
0.0
 10
32.482475
 20
288.450315
 30
0.0
  0
ENDSEC
  0
SECTION
  2
OBJECTS
  0
DICTIONARY
  5
C
330
0
100
AcDbDictionary
  3
ACAD_GROUP
350
D
  3
ACAD_MLINESTYLE
350
17
  0
DICTIONARY
  5
D
330
C
100
AcDbDictionary
  0
DICTIONARY
  5
1A
330
C
100
AcDbDictionary
  0
DICTIONARY
  5
17
330
C
100
AcDbDictionary
  3
STANDARD
350
18
  0
DICTIONARY
  5
19
330
C
100
AcDbDictionary
  0
ENDSEC
  0
EOF
